<svg xmlns="http://www.w3.org/2000/svg" viewBox="0 0 701.1 340.28"><defs><style>.cls-1,.cls-2{isolation:isolate;}.cls-2,.cls-50{font-size:12px;font-family:Lato-Regular, Lato;}.cls-2,.cls-49,.cls-50{fill:#fff;}.cls-3{letter-spacing:-0.03em;}.cls-4{letter-spacing:-0.02em;}.cls-5{letter-spacing:-0.01em;}.cls-6{letter-spacing:-0.01em;}.cls-7{letter-spacing:-0.01em;}.cls-8{letter-spacing:-0.01em;}.cls-9{letter-spacing:0em;}.cls-10{letter-spacing:-0.02em;}.cls-11{letter-spacing:-0.01em;}.cls-12{letter-spacing:0em;}.cls-13{letter-spacing:0em;}.cls-14{letter-spacing:-0.01em;}.cls-15{letter-spacing:0em;}.cls-16{letter-spacing:-0.01em;}.cls-17{letter-spacing:0em;}.cls-18{letter-spacing:-0.02em;}.cls-19{letter-spacing:-0.03em;}.cls-20{letter-spacing:-0.01em;}.cls-21{letter-spacing:-0.01em;}.cls-22{letter-spacing:-0.01em;}.cls-23{letter-spacing:-0.01em;}.cls-24{letter-spacing:-0.02em;}.cls-25{letter-spacing:-0.02em;}.cls-26{letter-spacing:-0.04em;}.cls-27{letter-spacing:0em;}.cls-28{letter-spacing:-0.03em;}.cls-29{letter-spacing:0em;}.cls-30{letter-spacing:-0.02em;}.cls-31{letter-spacing:-0.03em;}.cls-32{letter-spacing:-0.01em;}.cls-33{letter-spacing:0em;}.cls-34{letter-spacing:-0.02em;}.cls-35{letter-spacing:-0.03em;}.cls-36{letter-spacing:-0.02em;}.cls-37{letter-spacing:0em;}.cls-38{letter-spacing:-0.02em;}.cls-39{letter-spacing:-0.01em;}.cls-40{letter-spacing:-0.03em;}.cls-41{letter-spacing:-0.04em;}.cls-42{letter-spacing:-0.01em;}.cls-43{letter-spacing:-0.03em;}.cls-44{letter-spacing:-0.01em;}.cls-45{letter-spacing:0em;}.cls-46{letter-spacing:-0.02em;}.cls-47{fill:#141414;}.cls-48{fill:#1e1e1e;}.cls-49{stroke:#1d1c1c;stroke-miterlimit:10;}.cls-51{letter-spacing:0em;}.cls-52{letter-spacing:-0.02em;}.cls-53{letter-spacing:-0.01em;}.cls-54{letter-spacing:-0.01em;}.cls-55{letter-spacing:-0.02em;}.cls-56{letter-spacing:-0.01em;}.cls-57{letter-spacing:-0.01em;}.cls-58{letter-spacing:-0.01em;}.cls-59{letter-spacing:-0.03em;}.cls-60{letter-spacing:-0.01em;}.cls-61{letter-spacing:-0.02em;}.cls-62{letter-spacing:-0.01em;}.cls-63{letter-spacing:-0.02em;}.cls-64{letter-spacing:-0.02em;}.cls-65{letter-spacing:-0.02em;}.cls-66{letter-spacing:-0.01em;}.cls-67{letter-spacing:-0.01em;}.cls-68{letter-spacing:-0.01em;}.cls-69{letter-spacing:-0.01em;}.cls-70{letter-spacing:-0.02em;}.cls-71{letter-spacing:-0.02em;}.cls-72{letter-spacing:-0.02em;}.cls-73{letter-spacing:-0.01em;}.cls-74{letter-spacing:-0.03em;}.cls-75{letter-spacing:0em;}.cls-76{letter-spacing:-0.01em;}.cls-77{letter-spacing:-0.01em;}.cls-78{letter-spacing:-0.01em;}.cls-79{letter-spacing:0em;}.cls-80{letter-spacing:-0.01em;}.cls-81{letter-spacing:-0.01em;}.cls-82{letter-spacing:-0.03em;}.cls-83{letter-spacing:-0.01em;}.cls-84{letter-spacing:0em;}.cls-85{letter-spacing:-0.02em;}.cls-86{letter-spacing:-0.03em;}.cls-87{letter-spacing:-0.06em;}.cls-88{letter-spacing:-0.02em;}.cls-89{letter-spacing:-0.01em;}.cls-90{letter-spacing:-0.01em;}</style></defs><g id="Calque_2" data-name="Calque 2"><g id="Calque_1-2" data-name="Calque 1"><g id="Groupe_1" data-name="Groupe 1"><g id="Pour_ceux_qui_pratiquaient_la_musique_elle_représentait_un_capital_survie._Pendant_les_cours_instants_que_dure_la_musique_il_retrouve_son_identité._Il" data-name="Pour ceux qui pratiquaient la musique elle représentait un capital survie. Pendant les cours instants que dure la musique il retrouve son identité. Il"><g id="Pour_ceux_qui" data-name="Pour ceux qui" class="cls-1"><text class="cls-2" transform="translate(446.55 75.39)"><tspan class="cls-3">P</tspan><tspan x="6.89" y="0">ou</tspan><tspan class="cls-4" x="20.38" y="0">r</tspan><tspan x="24.5" y="0"> </tspan><tspan class="cls-5" x="27.57" y="0">c</tspan><tspan x="33.19" y="0">eux qui</tspan></text></g><g id="pratiquaient_la_musique_elle_représentait_un_" data-name="pratiquaient la musique elle représentait un " class="cls-1"><text class="cls-2" transform="translate(446.55 90.39)">p<tspan class="cls-6" x="6.73" y="0">r</tspan><tspan class="cls-7" x="11" y="0">a</tspan><tspan x="16.88" y="0">tiquaie</tspan><tspan class="cls-8" x="52.87" y="0">n</tspan><tspan class="cls-9" x="59.48" y="0">t la musique, elle </tspan><tspan class="cls-10" x="150.3" y="0">r</tspan><tspan x="154.43" y="0">ep</tspan><tspan class="cls-10" x="167.49" y="0">r</tspan><tspan x="171.61" y="0">ése</tspan><tspan class="cls-11" x="189.48" y="0">n</tspan><tspan x="196.09" y="0">tait un</tspan></text></g><g id="capital_survie._Pendant_les_cours_instants_que" data-name="capital survie. Pendant les cours instants que" class="cls-1"><text class="cls-2" transform="translate(446.55 105.39)">capital survie. <tspan class="cls-3" x="75.03" y="0">P</tspan><tspan x="81.92" y="0">enda</tspan><tspan class="cls-11" x="107.64" y="0">n</tspan><tspan x="114.25" y="0">t les </tspan><tspan class="cls-5" x="139.06" y="0">c</tspan><tspan x="144.68" y="0">ou</tspan><tspan class="cls-12" x="158.18" y="0">r</tspan><tspan class="cls-9" x="162.51" y="0">s insta</tspan><tspan class="cls-11" x="195.81" y="0">n</tspan><tspan x="202.43" y="0">ts que</tspan></text></g><g id="dure_la_musique_il_retrouve_son_identité._Il_n_est_" data-name="dure la musique il retrouve son identité. Il n est " class="cls-1"><text class="cls-2" transform="translate(446.55 120.39)">du<tspan class="cls-10" x="13.41" y="0">r</tspan><tspan x="17.53" y="0">e la musique il </tspan><tspan class="cls-10" x="95.04" y="0">r</tspan><tspan class="cls-13" x="99.17" y="0">e</tspan><tspan x="105.46" y="0">t</tspan><tspan class="cls-10" x="109.76" y="0">r</tspan><tspan x="113.89" y="0">ou</tspan><tspan class="cls-14" x="127.38" y="0">v</tspan><tspan x="133.4" y="0">e son ide</tspan><tspan class="cls-8" x="180.51" y="0">n</tspan><tspan x="187.13" y="0">ti</tspan><tspan class="cls-15" x="194.52" y="0">t</tspan><tspan x="198.79" y="0">é. </tspan><tspan class="cls-16" x="211.03" y="0">I</tspan><tspan class="cls-17" x="214.3" y="0">l </tspan><tspan class="cls-18" x="220.2" y="0">n</tspan><tspan class="cls-19" x="226.71" y="0">’</tspan><tspan x="228.89" y="0">est</tspan></text></g><g id="plus_un_anonyme_au_crâne_rasé_avec_un" data-name="plus un anonyme au crâne rasé avec un" class="cls-1"><text class="cls-2" transform="translate(446.55 135.39)">plus un ano<tspan class="cls-20" x="60.44" y="0">n</tspan><tspan class="cls-17" x="66.98" y="0">yme au c</tspan><tspan class="cls-21" x="113.9" y="0">r</tspan><tspan x="118.17" y="0">âne </tspan><tspan class="cls-21" x="140.24" y="0">r</tspan><tspan x="144.51" y="0">asé </tspan><tspan class="cls-22" x="165.08" y="0">a</tspan><tspan class="cls-14" x="170.92" y="0">v</tspan><tspan x="176.94" y="0">ec un</tspan></text></g><g id="numéro_tatoué_sur_le_bras_perdu_dans_cette_" data-name="numéro tatoué sur le bras perdu dans cette " class="cls-1"><text class="cls-2" transform="translate(446.55 150.39)">numé<tspan class="cls-10" x="29.59" y="0">r</tspan><tspan x="33.71" y="0">o t</tspan><tspan class="cls-23" x="47.89" y="0">a</tspan><tspan class="cls-15" x="53.78" y="0">t</tspan><tspan x="58.05" y="0">oué su</tspan><tspan class="cls-4" x="92.84" y="0">r</tspan><tspan x="96.95" y="0" xml:space="preserve"> le b</tspan><tspan class="cls-21" x="118.99" y="0">r</tspan><tspan x="123.26" y="0">as, pe</tspan><tspan class="cls-24" x="153.27" y="0">r</tspan><tspan x="157.41" y="0">du dans </tspan><tspan class="cls-5" x="201.54" y="0">c</tspan><tspan class="cls-13" x="207.16" y="0">e</tspan><tspan class="cls-15" x="213.46" y="0">tt</tspan><tspan x="221.62" y="0">e</tspan></text></g><g id="foule._Lors_de_ses_divertissements_très" data-name="foule. Lors de ses divertissements très" class="cls-1"><text class="cls-2" transform="translate(446.55 165.39)"><tspan class="cls-25">f</tspan><tspan class="cls-9" x="4.01" y="0">oule. </tspan><tspan class="cls-26" x="32.57" y="0">L</tspan><tspan x="38.3" y="0">o</tspan><tspan class="cls-27" x="45.1" y="0">r</tspan><tspan x="49.43" y="0">s de ses di</tspan><tspan class="cls-14" x="103.23" y="0">v</tspan><tspan x="109.25" y="0">ertisseme</tspan><tspan class="cls-11" x="160.28" y="0">n</tspan><tspan x="166.9" y="0">ts t</tspan><tspan class="cls-10" x="183.77" y="0">r</tspan><tspan x="187.89" y="0">ès</tspan></text></g><g id="apprécié_des_Allemands_il_n_avait_plus_" data-name="apprécié des Allemands il n avait plus " class="cls-1"><text class="cls-2" transform="translate(446.55 180.39)">app<tspan class="cls-10" x="19.42" y="0">r</tspan><tspan x="23.54" y="0">écié des</tspan><tspan class="cls-28" x="66.14" y="0"> </tspan><tspan class="cls-29" x="68.81" y="0">A</tspan><tspan x="76.91" y="0">llemands il </tspan><tspan class="cls-30" x="135.21" y="0">n</tspan><tspan class="cls-31" x="141.72" y="0">’</tspan><tspan class="cls-22" x="143.98" y="0">a</tspan><tspan class="cls-32" x="149.82" y="0">v</tspan><tspan class="cls-9" x="155.88" y="0">ait plus</tspan></text></g><g id="l_impression_d_être_un_prisonnier_d_un_camp" data-name="l impression d être un prisonnier d un camp" class="cls-1"><text class="cls-2" transform="translate(446.55 195.39)">l’imp<tspan class="cls-10" x="24.87" y="0">r</tspan><tspan class="cls-9" x="28.99" y="0">ession d</tspan><tspan class="cls-19" x="71.89" y="0">’</tspan><tspan class="cls-33" x="74.07" y="0">ê</tspan><tspan class="cls-9" x="80.36" y="0">t</tspan><tspan class="cls-10" x="84.67" y="0">r</tspan><tspan x="88.79" y="0">e un prisonnie</tspan><tspan class="cls-34" x="163.23" y="0">r</tspan><tspan x="167.35" y="0" xml:space="preserve"> d’un camp</tspan></text></g><g id="d_extermination._Mais_cette_position_lui_valut_de_" data-name="d extermination. Mais cette position lui valut de " class="cls-1"><text class="cls-2" transform="translate(446.55 210.39)">d<tspan class="cls-35" x="6.72" y="0">’</tspan><tspan class="cls-23" x="8.9" y="0">e</tspan><tspan class="cls-17" x="15.16" y="0">x</tspan><tspan class="cls-15" x="21.13" y="0">t</tspan><tspan x="25.4" y="0">ermin</tspan><tspan class="cls-23" x="55.55" y="0">a</tspan><tspan class="cls-17" x="61.44" y="0">tion. </tspan><tspan class="cls-36" x="88.24" y="0">M</tspan><tspan x="99.2" y="0">ais </tspan><tspan class="cls-5" x="116.31" y="0">c</tspan><tspan class="cls-33" x="121.93" y="0">et</tspan><tspan class="cls-37" x="128.23" y="0">t</tspan><tspan x="136.39" y="0">e position lui</tspan><tspan class="cls-38" x="203.77" y="0"> </tspan><tspan class="cls-32" x="206.55" y="0">v</tspan><tspan x="212.61" y="0">alut de</tspan></text></g><g id="nombreuses_critiques_car_considéré_comme" data-name="nombreuses critiques car considéré comme" class="cls-1"><text class="cls-2" transform="translate(446.55 225.39)">nomb<tspan class="cls-10" x="30.09" y="0">r</tspan><tspan x="34.21" y="0">euses critiques ca</tspan><tspan class="cls-34" x="127.12" y="0">r</tspan><tspan class="cls-9" x="131.23" y="0"> </tspan><tspan class="cls-5" x="134.3" y="0">c</tspan><tspan x="139.93" y="0">onsidé</tspan><tspan class="cls-10" x="174.56" y="0">r</tspan><tspan x="178.68" y="0">é </tspan><tspan class="cls-5" x="188.09" y="0">c</tspan><tspan x="193.71" y="0">omme</tspan></text></g><g id="un_collaborateur_par_les_autres_prisonniers_du_" data-name="un collaborateur par les autres prisonniers du " class="cls-1"><text class="cls-2" transform="translate(446.55 240.39)">un <tspan class="cls-5" x="16.46" y="0">c</tspan><tspan x="22.08" y="0">ollabo</tspan><tspan class="cls-6" x="54.04" y="0">r</tspan><tspan class="cls-7" x="58.31" y="0">a</tspan><tspan class="cls-15" x="64.19" y="0">t</tspan><tspan class="cls-9" x="68.47" y="0">eu</tspan><tspan class="cls-4" x="81.49" y="0">r</tspan><tspan class="cls-9" x="85.61" y="0" xml:space="preserve"> pa</tspan><tspan class="cls-4" x="101.37" y="0">r</tspan><tspan x="105.49" y="0" xml:space="preserve"> les aut</tspan><tspan class="cls-10" x="142.95" y="0">r</tspan><tspan x="147.07" y="0">es prisonnie</tspan><tspan class="cls-12" x="210.26" y="0">r</tspan><tspan x="214.59" y="0">s du</tspan></text></g><g id="camp._Il_se_sentait_donc_coupable." data-name="camp. Il se sentait donc coupable." class="cls-1"><text class="cls-2" transform="translate(446.55 255.39)">camp. <tspan class="cls-39" x="34.19" y="0">I</tspan><tspan x="37.46" y="0">l se se</tspan><tspan class="cls-8" x="69.5" y="0">n</tspan><tspan class="cls-9" x="76.12" y="0">tait donc </tspan><tspan class="cls-5" x="125.66" y="0">c</tspan><tspan x="131.28" y="0">oupable.</tspan></text></g></g><g id="Simon_Laks_fut_arrêté_en_1941_lors_des_premières_grandes_rafles_interné_à_Beaune-la-_Rolande_puis_à_Drancy_déporté_à_Auschwitz_où_il_demeura_jusqu_à_l" data-name="Simon Laks fut arrêté en 1941 lors des premières grandes rafles interné à Beaune-la- Rolande puis à Drancy déporté à Auschwitz où il demeura jusqu à l"><g id="Rolande_puis_à_Drancy_déporté_à_Auschwitz_où_" data-name="Rolande puis à Drancy déporté à Auschwitz où " class="cls-1"><text class="cls-2" transform="translate(24.55 115.39)"><tspan class="cls-40">R</tspan><tspan class="cls-9" x="7.13" y="0">olande puis à </tspan><tspan class="cls-22" x="79.15" y="0">D</tspan><tspan class="cls-21" x="88.15" y="0">r</tspan><tspan x="92.42" y="0">anc</tspan><tspan class="cls-41" x="110.81" y="0">y</tspan><tspan x="116.55" y="0">, dépor</tspan><tspan class="cls-15" x="153.3" y="0">t</tspan><tspan x="157.57" y="0">é à</tspan><tspan class="cls-28" x="172.94" y="0"> </tspan><tspan class="cls-20" x="175.61" y="0">A</tspan><tspan x="183.59" y="0">usc</tspan><tspan class="cls-15" x="201.2" y="0">h</tspan><tspan x="207.87" y="0">witz où</tspan></text></g><g id="il_demeura_jusqu_à_l_évacuation_du_camp_de" data-name="il demeura jusqu à l évacuation du camp de" class="cls-1"><text class="cls-2" transform="translate(24.55 130.39)">il demeu<tspan class="cls-6" x="44.74" y="0">r</tspan><tspan x="49.01" y="0">a jusqu</tspan><tspan class="cls-31" x="86.22" y="0">’</tspan><tspan x="88.48" y="0">à l</tspan><tspan class="cls-19" x="100.34" y="0">’</tspan><tspan class="cls-42" x="102.52" y="0">év</tspan><tspan x="114.79" y="0">acu</tspan><tspan class="cls-7" x="133.17" y="0">a</tspan><tspan x="139.05" y="0">tion du camp de</tspan></text></g><g id="Birkenau_en_octobre_1944." data-name="Birkenau en octobre 1944." class="cls-1"><text class="cls-2" transform="translate(24.55 160.39)"><tspan class="cls-22">B</tspan><tspan x="7.63" y="0">ir</tspan><tspan class="cls-43" x="14.88" y="0">k</tspan><tspan x="20.63" y="0">enau en oc</tspan><tspan class="cls-37" x="78.03" y="0">t</tspan><tspan x="82.3" y="0">ob</tspan><tspan class="cls-10" x="95.83" y="0">r</tspan><tspan x="99.95" y="0">e 1944.</tspan></text></g><g id="Il_fut_sauvé_par_son_habilité_à_jouer_au_bridge_qui_" data-name="Il fut sauvé par son habilité à jouer au bridge qui " class="cls-1"><text class="cls-2" transform="translate(24.55 175.39)"><tspan class="cls-39">I</tspan><tspan x="3.27" y="0">l fut sau</tspan><tspan class="cls-14" x="45.29" y="0">v</tspan><tspan x="51.32" y="0">é pa</tspan><tspan class="cls-4" x="73.42" y="0">r</tspan><tspan x="77.53" y="0" xml:space="preserve"> son habili</tspan><tspan class="cls-15" x="130.34" y="0">t</tspan><tspan x="134.61" y="0">é à joue</tspan><tspan class="cls-4" x="175.77" y="0">r</tspan><tspan x="179.88" y="0" xml:space="preserve"> au brid</tspan><tspan class="cls-6" x="219.37" y="0">g</tspan><tspan x="225.51" y="0">e qui</tspan></text></g><g id="le_conduisit_ensuite_à_l_orchestre._Il_savait" data-name="le conduisit ensuite à l orchestre. Il savait" class="cls-1"><text class="cls-2" transform="translate(24.55 190.39)">le <tspan class="cls-5" x="12.24" y="0">c</tspan><tspan class="cls-9" x="17.86" y="0">onduisit ensui</tspan><tspan class="cls-15" x="90.9" y="0">t</tspan><tspan x="95.17" y="0">e à l</tspan><tspan class="cls-19" x="116.45" y="0">’</tspan><tspan class="cls-9" x="118.62" y="0">o</tspan><tspan class="cls-10" x="125.43" y="0">r</tspan><tspan class="cls-17" x="129.55" y="0">chest</tspan><tspan class="cls-10" x="157.81" y="0">r</tspan><tspan x="161.93" y="0">e. </tspan><tspan class="cls-39" x="174.17" y="0">I</tspan><tspan x="177.44" y="0">l s</tspan><tspan class="cls-44" x="188.54" y="0">a</tspan><tspan class="cls-32" x="194.38" y="0">v</tspan><tspan x="200.44" y="0">ait</tspan></text></g><g id="jouer_du_violon_et_parler_polonais_cela_lui_permit_" data-name="jouer du violon et parler polonais cela lui permit " class="cls-1"><text class="cls-2" transform="translate(24.55 205.39)">joue<tspan class="cls-4" x="22.71" y="0">r</tspan><tspan x="26.83" y="0" xml:space="preserve"> du</tspan><tspan class="cls-38" x="43.31" y="0"> </tspan><tspan x="46.09" y="0">violon </tspan><tspan class="cls-33" x="81.37" y="0">e</tspan><tspan x="87.67" y="0">t parle</tspan><tspan class="cls-34" x="121.26" y="0">r</tspan><tspan class="cls-9" x="125.38" y="0" xml:space="preserve"> polonais, </tspan><tspan class="cls-5" x="178.15" y="0">c</tspan><tspan x="183.77" y="0">ela lui permit</tspan></text></g><g id="de_monter_les_échelons_jusqu_à_devenir" data-name="de monter les échelons jusqu à devenir" class="cls-1"><text class="cls-2" transform="translate(24.55 220.39)">de mo<tspan class="cls-11" x="32.8" y="0">n</tspan><tspan class="cls-15" x="39.41" y="0">t</tspan><tspan x="43.69" y="0">e</tspan><tspan class="cls-34" x="50.02" y="0">r</tspan><tspan class="cls-9" x="54.14" y="0" xml:space="preserve"> les échelons jusqu</tspan><tspan class="cls-31" x="152.52" y="0">’</tspan><tspan x="154.77" y="0">à d</tspan><tspan class="cls-32" x="170.53" y="0">e</tspan><tspan class="cls-14" x="176.73" y="0">v</tspan><tspan x="182.76" y="0">eni</tspan><tspan class="cls-34" x="198.67" y="0">r</tspan></text></g><g id="chef_d_orchestre_du_camp._C_est_grâce_à_la_" data-name="chef d orchestre du camp. C est grâce à la " class="cls-1"><text class="cls-2" transform="translate(24.55 235.39)">ch<tspan class="cls-45" x="12.43" y="0">e</tspan><tspan class="cls-46" x="18.7" y="0">f</tspan><tspan x="22.69" y="0" xml:space="preserve"> d</tspan><tspan class="cls-19" x="32.48" y="0">’</tspan><tspan x="34.66" y="0">o</tspan><tspan class="cls-10" x="41.46" y="0">r</tspan><tspan x="45.58" y="0">chest</tspan><tspan class="cls-10" x="73.84" y="0">r</tspan><tspan class="cls-9" x="77.96" y="0">e du camp. C</tspan><tspan class="cls-19" x="146.06" y="0">’</tspan><tspan x="148.24" y="0">est g</tspan><tspan class="cls-21" x="173.39" y="0">r</tspan><tspan class="cls-9" x="177.66" y="0">â</tspan><tspan class="cls-5" x="183.62" y="0">c</tspan><tspan x="189.24" y="0">e à la</tspan></text></g><g id="musique_qu_il_a_survécu." data-name="musique qu il a survécu." class="cls-1"><text class="cls-2" transform="translate(24.55 250.39)">musique qu’il a sur<tspan class="cls-14" x="97.5" y="0">v</tspan><tspan x="103.52" y="0">écu.</tspan></text></g></g><g id="Groupe_6" data-name="Groupe 6"><path id="Tracé_2" data-name="Tracé 2" class="cls-47" d="M392.38,95.23s16.09-3.92,55.16-27.93S498,40,566,20.9s86.28-24,90.35-19.13,43.95,86.69,44.77,166c-5.13,67.7-21.44,122.24-34.44,162.44a14.47,14.47,0,0,1-17.44,9.54c-38-9.94-146.11-38.7-163.83-49.07-21.57-12.61-75.7-45.58-87.1-73.66-8.54-11.8-7.94-20.88-7.94-20.88Z"/><path id="Tracé_3" data-name="Tracé 3" class="cls-47" d="M308.71,95.23s-16.08-3.92-55.15-27.93S203.09,40,135.12,20.9,48.84-3.12,44.77,1.77.81,88.46,0,167.82c5.12,67.7,21.44,122.24,34.44,162.44a14.47,14.47,0,0,0,17.44,9.54c38-9.94,146.11-38.7,163.83-49.07,21.57-12.61,75.7-45.58,87.1-73.66,8.54-11.8,7.94-20.88,7.94-20.88Z"/><path id="Tracé_4" data-name="Tracé 4" class="cls-48" d="M392.35,138.61c60.48,26.31,135.93,17.6,189.57-20.78a316.29,316.29,0,0,1-190.63-.94l-.88,19.6-1.08-1.17-1.78,35.47c61.72,55.32,146.45,87.8,229.13,81.92C531.51,243.09,450.32,201.73,392.35,138.61Z"/><path id="Tracé_5" data-name="Tracé 5" class="cls-48" d="M308.74,138.61c-60.47,26.31-135.92,17.6-189.56-20.78a316.29,316.29,0,0,0,190.63-.94l.88,19.6,1.07-1.17,1.79,35.47c-61.72,55.32-146.45,87.8-229.13,81.92C169.59,243.09,250.78,201.73,308.74,138.61Z"/><path id="Tracé_6" data-name="Tracé 6" class="cls-49" d="M396.57,107.81q-.92-3.56-2.1-7c-.39-1.14-.8-2.27-1.23-3.4-.28-.72-.56-1.44-.86-2.15a4.87,4.87,0,0,0-2.32-2.67c-1.83-1-4.05-.94-6.14-.81-11.2.7-23.07,3.42-33.37,3-10.3.4-22.18-2.32-33.37-3-2.09-.13-4.32-.23-6.14.81a4.93,4.93,0,0,0-2.33,2.67c-.29.71-.58,1.43-.86,2.15-.43,1.13-.84,2.26-1.23,3.4q-1.19,3.48-2.1,7c-4,15.46-4.08,31.6-2.24,47.38.92,7.95,2.31,15.84,3.9,23.68,1.08,5.3,1.07,12.95,4.56,17.33,2.22,2.8,6.35,2.31,9.33,1.2a87.33,87.33,0,0,1,60.95,0c3,1.1,7.1,1.6,9.33-1.2,3.49-4.38,3.47-12,4.55-17.33,1.6-7.84,3-15.73,3.91-23.68C400.65,139.41,400.57,123.27,396.57,107.81Z"/></g><text class="cls-50" transform="translate(24.87 92.02)"><tspan class="cls-18">H</tspan><tspan x="8.98" y="0">e l</tspan><tspan class="cls-7" x="21.22" y="0">a</tspan><tspan class="cls-51" x="27.1" y="0">t</tspan><tspan x="31.37" y="0">e</tspan><tspan class="cls-4" x="37.71" y="0">r</tspan><tspan x="41.83" y="0" xml:space="preserve"> became ill but</tspan><tspan class="cls-52" x="118.25" y="0"> </tspan><tspan class="cls-53" x="121.08" y="0">w</tspan><tspan x="130.43" y="0">as s</tspan><tspan class="cls-22" x="149.86" y="0">a</tspan><tspan class="cls-14" x="155.7" y="0">v</tspan><tspan x="161.73" y="0">ed </tspan><tspan class="cls-54" x="177.85" y="0">b</tspan><tspan class="cls-55" x="184.42" y="0">y</tspan><tspan x="190.31" y="0" xml:space="preserve"> his </tspan><tspan class="cls-25" x="211.23" y="0">f</tspan><tspan x="215.23" y="0">ell</tspan><tspan class="cls-39" x="227.23" y="0">o</tspan><tspan class="cls-10" x="233.95" y="0">w</tspan><tspan x="243.13" y="0"> </tspan><tspan x="0" y="14.4">nu</tspan><tspan class="cls-12" x="13.39" y="14.4">r</tspan><tspan x="17.72" y="14.4">ses in the hospital. </tspan><tspan class="cls-18" x="117.88" y="14.4">H</tspan><tspan x="126.85" y="14.4">e st</tspan><tspan class="cls-56" x="145.76" y="14.4">a</tspan><tspan class="cls-14" x="151.58" y="14.4">y</tspan><tspan x="157.6" y="14.4">ed the</tspan><tspan class="cls-10" x="191.06" y="14.4">r</tspan><tspan x="195.18" y="14.4">e </tspan><tspan class="cls-25" x="204.59" y="14.4">f</tspan><tspan x="208.6" y="14.4">o</tspan><tspan class="cls-4" x="215.4" y="14.4">r</tspan><tspan x="219.52" y="14.4" xml:space="preserve"> s</tspan><tspan class="cls-32" x="227.79" y="14.4">e</tspan><tspan class="cls-14" x="233.99" y="14.4">v</tspan><tspan x="240.02" y="14.4">en </tspan><tspan x="0" y="28.8">mo</tspan><tspan class="cls-8" x="16.67" y="28.8">n</tspan><tspan x="23.29" y="28.8">ths and</tspan><tspan class="cls-10" x="61.93" y="28.8"> </tspan><tspan class="cls-57" x="64.76" y="28.8">w</tspan><tspan x="74.11" y="28.8">as mi</tspan><tspan class="cls-58" x="101.1" y="28.8">r</tspan><tspan x="105.37" y="28.8">aculousl</tspan><tspan class="cls-55" x="148.1" y="28.8">y</tspan><tspan x="154" y="28.8" xml:space="preserve"> cu</tspan><tspan class="cls-52" x="169.49" y="28.8">r</tspan><tspan x="173.61" y="28.8">ed.</tspan><tspan class="cls-39" x="0" y="43.2">I</tspan><tspan x="3.27" y="43.2">n 1945 the camp</tspan><tspan class="cls-10" x="92.65" y="43.2"> </tspan><tspan class="cls-53" x="95.47" y="43.2">w</tspan><tspan x="104.83" y="43.2">as libe</tspan><tspan class="cls-6" x="137.83" y="43.2">r</tspan><tspan class="cls-7" x="142.1" y="43.2">a</tspan><tspan class="cls-37" x="147.98" y="43.2">t</tspan><tspan x="152.26" y="43.2">ed </tspan><tspan class="cls-54" x="168.38" y="43.2">b</tspan><tspan class="cls-55" x="174.95" y="43.2">y</tspan><tspan x="180.84" y="43.2" xml:space="preserve"> the</tspan><tspan class="cls-59" x="201.25" y="43.2"> </tspan><tspan class="cls-29" x="203.92" y="43.2">A</tspan><tspan x="212.02" y="43.2">llies. </tspan><tspan class="cls-18" x="238" y="43.2">H</tspan><tspan x="246.97" y="43.2">e </tspan><tspan class="cls-10" x="0" y="57.6">r</tspan><tspan class="cls-33" x="4.12" y="57.6">e</tspan><tspan x="10.42" y="57.6">turned home t</tspan><tspan class="cls-6" x="85.68" y="57.6">r</tspan><tspan x="89.95" y="57.6">aum</tspan><tspan class="cls-7" x="112.48" y="57.6">a</tspan><tspan x="118.36" y="57.6">ti</tspan><tspan class="cls-60" x="125.75" y="57.6">z</tspan><tspan x="131.06" y="57.6">ed. </tspan><tspan class="cls-61" x="150.02" y="57.6">H</tspan><tspan x="159" y="57.6">e </tspan><tspan class="cls-62" x="168.41" y="57.6">c</tspan><tspan x="174.03" y="57.6">o</tspan><tspan class="cls-8" x="180.83" y="57.6">nt</tspan><tspan x="187.45" y="57.6">inued the</tspan><tspan x="0" y="72">music</tspan><tspan class="cls-10" x="30.37" y="72"> </tspan><tspan x="33.19" y="72">without pleasu</tspan><tspan class="cls-10" x="111.11" y="72">r</tspan><tspan x="115.23" y="72">e because </tspan><tspan class="cls-32" x="170.68" y="72">o</tspan><tspan class="cls-63" x="177.35" y="72">f</tspan><tspan x="181.34" y="72" xml:space="preserve"> the past. </tspan><tspan class="cls-18" x="232.91" y="72">H</tspan><tspan x="241.88" y="72">e </tspan><tspan x="0" y="86.4">ends his li</tspan><tspan class="cls-25" x="51.58" y="86.4">f</tspan><tspan x="55.58" y="86.4">e in </tspan><tspan class="cls-64" x="77.64" y="86.4">P</tspan><tspan x="84.66" y="86.4">aris</tspan><tspan class="cls-10" x="103.06" y="86.4"> </tspan><tspan x="105.89" y="86.4">with his</tspan><tspan class="cls-10" x="147.04" y="86.4"> </tspan><tspan x="149.87" y="86.4">wi</tspan><tspan class="cls-65" x="162.17" y="86.4">f</tspan><tspan x="166.18" y="86.4">e and son close </tspan><tspan class="cls-54" x="0" y="100.8">b</tspan><tspan class="cls-55" x="6.56" y="100.8">y</tspan><tspan x="12.46" y="100.8" xml:space="preserve"> f</tspan><tspan class="cls-10" x="19.73" y="100.8">r</tspan><tspan x="23.86" y="100.8">om his b</tspan><tspan class="cls-10" x="68.17" y="100.8">r</tspan><tspan class="cls-66" x="72.29" y="100.8">o</tspan><tspan x="78.98" y="100.8">ther</tspan><tspan class="cls-67" x="100.69" y="100.8">&apos;</tspan><tspan x="103.03" y="100.8">s house.</tspan><tspan class="cls-68" x="145.86" y="100.8"> </tspan><tspan class="cls-45" x="148.77" y="100.8">W</tspan><tspan x="161.13" y="100.8">hen he died, his </tspan><tspan x="0" y="115.2">whole </tspan><tspan class="cls-12" x="35.17" y="115.2">f</tspan><tspan x="39.34" y="115.2">amil</tspan><tspan class="cls-55" x="60.88" y="115.2">y</tspan><tspan x="66.77" y="115.2" xml:space="preserve"> g</tspan><tspan class="cls-69" x="76.09" y="115.2">a</tspan><tspan x="81.97" y="115.2">the</tspan><tspan class="cls-10" x="99.31" y="115.2">r</tspan><tspan x="103.43" y="115.2">ed and em</tspan><tspan class="cls-7" x="158.21" y="115.2">p</tspan><tspan x="164.86" y="115.2">tied his old things.</tspan><tspan class="cls-67" x="0" y="129.6">T</tspan><tspan x="6.98" y="129.6">h</tspan><tspan class="cls-54" x="13.68" y="129.6">e</tspan><tspan class="cls-55" x="19.86" y="129.6">y</tspan><tspan x="25.75" y="129.6" xml:space="preserve"> find, hidden </tspan><tspan class="cls-7" x="94.03" y="129.6">a</tspan><tspan x="99.91" y="129.6">t the b</tspan><tspan class="cls-62" x="134.41" y="129.6">ot</tspan><tspan class="cls-51" x="141.11" y="129.6">t</tspan><tspan x="149.27" y="129.6">om </tspan><tspan class="cls-32" x="169.02" y="129.6">o</tspan><tspan class="cls-63" x="175.69" y="129.6">f</tspan><tspan x="179.68" y="129.6" xml:space="preserve"> a ca</tspan><tspan class="cls-70" x="203.48" y="129.6">r</tspan><tspan x="207.61" y="129.6">dboa</tspan><tspan class="cls-71" x="233.82" y="129.6">r</tspan><tspan x="237.95" y="129.6">d </tspan><tspan x="0" y="144">b</tspan><tspan class="cls-72" x="6.72" y="144">o</tspan><tspan x="13.25" y="144">x, s</tspan><tspan class="cls-32" x="30.22" y="144">e</tspan><tspan class="cls-14" x="36.43" y="144">v</tspan><tspan x="42.45" y="144">e</tspan><tspan class="cls-58" x="48.79" y="144">r</tspan><tspan x="53.06" y="144">al s</tspan><tspan class="cls-43" x="70.12" y="144">k</tspan><tspan class="cls-33" x="75.88" y="144">e</tspan><tspan class="cls-37" x="82.17" y="144">t</tspan><tspan x="86.44" y="144">chbooks </tspan><tspan class="cls-66" x="133.56" y="144">c</tspan><tspan x="139.18" y="144">o</tspan><tspan class="cls-73" x="145.98" y="144">n</tspan><tspan x="152.6" y="144">taining s</tspan><tspan class="cls-74" x="196.52" y="144">k</tspan><tspan class="cls-75" x="202.28" y="144">e</tspan><tspan class="cls-51" x="208.57" y="144">t</tspan><tspan x="212.84" y="144">ches</tspan><tspan class="cls-32" x="0" y="158.4">o</tspan><tspan class="cls-63" x="6.67" y="158.4">f</tspan><tspan x="10.66" y="158.4"> </tspan><tspan class="cls-12" x="13.73" y="158.4">f</tspan><tspan x="17.9" y="158.4">ashion. </tspan><tspan class="cls-76" x="58.04" y="158.4">M</tspan><tspan x="69" y="158.4">a</tspan><tspan class="cls-77" x="74.96" y="158.4">n</tspan><tspan class="cls-55" x="81.51" y="158.4">y</tspan><tspan x="87.4" y="158.4" xml:space="preserve"> outfits, designed </tspan><tspan class="cls-78" x="180.63" y="158.4">b</tspan><tspan class="cls-55" x="187.2" y="158.4">y</tspan><tspan x="193.09" y="158.4"> </tspan><tspan class="cls-79" x="196.16" y="158.4">S</tspan><tspan x="202.62" y="158.4">imon.</tspan></text></g><text class="cls-50" transform="translate(439.96 95.57)"><tspan class="cls-80">I</tspan><tspan x="3.19" y="0">t</tspan><tspan class="cls-10" x="7.49" y="0"> </tspan><tspan class="cls-53" x="10.31" y="0">w</tspan><tspan x="19.67" y="0">as a surprise </tspan><tspan class="cls-65" x="87.77" y="0">f</tspan><tspan x="91.78" y="0">o</tspan><tspan class="cls-4" x="98.58" y="0">r</tspan><tspan x="102.7" y="0" xml:space="preserve"> the </tspan><tspan class="cls-12" x="126.18" y="0">f</tspan><tspan x="130.35" y="0">amil</tspan><tspan class="cls-55" x="151.89" y="0">y</tspan><tspan class="cls-10" x="157.78" y="0"> </tspan><tspan x="160.61" y="0">who did</tspan><tspan class="cls-81" x="202.93" y="0">n</tspan><tspan x="209.5" y="0">&apos;t </tspan><tspan x="0" y="14.4">suspect th</tspan><tspan class="cls-7" x="54.25" y="14.4">a</tspan><tspan x="60.13" y="14.4">t.</tspan><tspan class="cls-82" x="67.26" y="14.4"> </tspan><tspan class="cls-83" x="69.98" y="14.4">T</tspan><tspan x="76.96" y="14.4">hese s</tspan><tspan class="cls-43" x="109.79" y="14.4">k</tspan><tspan class="cls-33" x="115.55" y="14.4">e</tspan><tspan class="cls-37" x="121.84" y="14.4">t</tspan><tspan x="126.11" y="14.4">ches</tspan><tspan class="cls-10" x="150.07" y="14.4"> </tspan><tspan class="cls-8" x="152.9" y="14.4">w</tspan><tspan x="162.24" y="14.4">e</tspan><tspan class="cls-10" x="168.58" y="14.4">r</tspan><tspan x="172.7" y="14.4">e c</tspan><tspan class="cls-6" x="187.84" y="14.4">r</tspan><tspan class="cls-39" x="192.11" y="14.4">a</tspan><tspan class="cls-51" x="197.98" y="14.4">ft</tspan><tspan x="206.17" y="14.4">ed, </tspan><tspan x="0" y="28.8">p</tspan><tspan class="cls-10" x="6.73" y="28.8">r</tspan><tspan class="cls-32" x="10.85" y="28.8">o</tspan><tspan class="cls-65" x="17.52" y="28.8">f</tspan><tspan x="21.53" y="28.8">essional, and </tspan><tspan class="cls-7" x="91.68" y="28.8">e</tspan><tspan x="97.94" y="28.8">xp</tspan><tspan class="cls-10" x="110.64" y="28.8">r</tspan><tspan x="114.76" y="28.8">essed especiall</tspan><tspan class="cls-55" x="192.45" y="28.8">y</tspan><tspan x="198.34" y="28.8" xml:space="preserve"> a </tspan><tspan x="0" y="43.2">st</tspan><tspan class="cls-10" x="9.5" y="43.2">r</tspan><tspan x="13.62" y="43.2">ong passion </tspan><tspan class="cls-65" x="78.97" y="43.2">f</tspan><tspan class="cls-84" x="82.98" y="43.2">o</tspan><tspan class="cls-85" x="89.78" y="43.2">r</tspan><tspan x="93.9" y="43.2"> </tspan><tspan class="cls-12" x="96.97" y="43.2">f</tspan><tspan x="101.14" y="43.2">ashion.</tspan><tspan class="cls-33" x="0" y="57.6">W</tspan><tspan x="12.38" y="57.6">ith </tspan><tspan class="cls-79" x="29.33" y="57.6">S</tspan><tspan x="35.79" y="57.6">imon Laks&apos; neph</tspan><tspan class="cls-45" x="120.5" y="57.6">e</tspan><tspan class="cls-10" x="126.78" y="57.6">w</tspan><tspan x="135.96" y="57.6" xml:space="preserve"> being on ou</tspan><tspan class="cls-4" x="201.04" y="57.6">r</tspan><tspan x="205.16" y="57.6"> </tspan><tspan class="cls-51" x="0" y="72">t</tspan><tspan x="4.27" y="72">eam,</tspan><tspan class="cls-52" x="29.17" y="72"> </tspan><tspan class="cls-8" x="31.99" y="72">w</tspan><tspan x="41.33" y="72">e</tspan><tspan class="cls-10" x="47.67" y="72"> </tspan><tspan class="cls-8" x="50.5" y="72">w</tspan><tspan x="59.84" y="72">e</tspan><tspan class="cls-10" x="66.17" y="72">r</tspan><tspan x="70.3" y="72">e </tspan><tspan class="cls-37" x="79.7" y="72">t</tspan><tspan x="83.98" y="72">ouched </tspan><tspan class="cls-54" x="126.02" y="72">b</tspan><tspan class="cls-55" x="132.59" y="72">y</tspan><tspan x="138.48" y="72" xml:space="preserve"> this his</tspan><tspan class="cls-37" x="178.47" y="72">t</tspan><tspan x="182.74" y="72">or</tspan><tspan class="cls-86" x="193.91" y="72">y</tspan><tspan x="199.68" y="72">.</tspan><tspan class="cls-68" x="202.51" y="72"> </tspan><tspan class="cls-87" x="205.42" y="72">W</tspan><tspan x="217.17" y="72">e </tspan><tspan class="cls-53" x="0" y="86.4">w</tspan><tspan x="9.35" y="86.4">a</tspan><tspan class="cls-8" x="15.32" y="86.4">n</tspan><tspan x="21.93" y="86.4">t </tspan><tspan class="cls-37" x="29.3" y="86.4">t</tspan><tspan x="33.58" y="86.4">o bring </tspan><tspan class="cls-51" x="73.43" y="86.4">t</tspan><tspan x="77.7" y="86.4">o li</tspan><tspan class="cls-65" x="93.29" y="86.4">f</tspan><tspan x="97.3" y="86.4">e the artistic legac</tspan><tspan class="cls-55" x="193.33" y="86.4">y</tspan><tspan x="199.22" y="86.4"> </tspan><tspan class="cls-32" x="202.29" y="86.4">o</tspan><tspan class="cls-88" x="208.96" y="86.4">f</tspan><tspan x="212.95" y="86.4"> </tspan><tspan x="0" y="100.8">this b</tspan><tspan class="cls-6" x="28.87" y="100.8">r</tspan><tspan class="cls-22" x="33.14" y="100.8">a</tspan><tspan class="cls-14" x="38.98" y="100.8">v</tspan><tspan x="45" y="100.8">e man</tspan><tspan class="cls-10" x="76.94" y="100.8"> </tspan><tspan x="79.76" y="100.8">who is</tspan><tspan class="cls-6" x="0" y="115.2">g</tspan><tspan x="6.14" y="115.2">oing th</tspan><tspan class="cls-10" x="42.83" y="115.2">r</tspan><tspan x="46.96" y="115.2">ough a t</tspan><tspan class="cls-6" x="89.8" y="115.2">r</tspan><tspan x="94.07" y="115.2">aum</tspan><tspan class="cls-7" x="116.59" y="115.2">a</tspan><tspan x="122.48" y="115.2">tic o</tspan><tspan class="cls-70" x="145.48" y="115.2">r</tspan><tspan x="149.61" y="115.2">deal.</tspan><tspan class="cls-68" x="174.29" y="115.2"> </tspan><tspan class="cls-87" x="177.21" y="115.2">W</tspan><tspan x="188.95" y="115.2">e</tspan><tspan class="cls-10" x="195.29" y="115.2"> </tspan><tspan class="cls-53" x="198.12" y="115.2">w</tspan><tspan x="207.47" y="115.2">a</tspan><tspan class="cls-8" x="213.43" y="115.2">n</tspan><tspan x="220.04" y="115.2">t </tspan><tspan class="cls-51" x="0" y="129.6">t</tspan><tspan x="4.27" y="129.6">o ma</tspan><tspan class="cls-43" x="29.98" y="129.6">k</tspan><tspan x="35.74" y="129.6">e this tale</tspan><tspan class="cls-73" x="86.72" y="129.6">n</tspan><tspan class="cls-84" x="93.34" y="129.6">t, an achi</tspan><tspan class="cls-89" x="140.44" y="129.6">e</tspan><tspan class="cls-90" x="146.64" y="129.6">v</tspan><tspan x="152.66" y="129.6">eme</tspan><tspan class="cls-8" x="175.21" y="129.6">n</tspan><tspan x="181.82" y="129.6">t </tspan><tspan class="cls-62" x="0" y="144">c</tspan><tspan x="5.62" y="144">onc</tspan><tspan class="cls-10" x="24.85" y="144">r</tspan><tspan class="cls-33" x="28.97" y="144">e</tspan><tspan class="cls-51" x="35.27" y="144">t</tspan><tspan x="39.54" y="144">e.</tspan></text></g></g></svg>