<svg xmlns="http://www.w3.org/2000/svg" viewBox="0 0 701.1 340.28"><defs><style>.cls-1{fill:#141414;}.cls-2{fill:#1e1e1e;}.cls-3,.cls-35,.cls-5{fill:#fff;}.cls-3{stroke:#1d1c1c;stroke-miterlimit:10;}.cls-35,.cls-4,.cls-5{isolation:isolate;}.cls-35,.cls-5{font-size:12px;font-family:Lato-Regular, Lato;}.cls-6{letter-spacing:-0.02em;}.cls-7{letter-spacing:-0.01em;}.cls-8{letter-spacing:-0.01em;}.cls-35,.cls-9{letter-spacing:-0.01em;}.cls-10{letter-spacing:0em;}.cls-11{letter-spacing:-0.01em;}.cls-12{letter-spacing:-0.01em;}.cls-13{letter-spacing:0em;}.cls-14{letter-spacing:0em;}.cls-15{letter-spacing:0em;}.cls-16{letter-spacing:-0.02em;}.cls-17{letter-spacing:-0.02em;}.cls-18{letter-spacing:-0.01em;}.cls-19{letter-spacing:-0.01em;}.cls-20{letter-spacing:0em;}.cls-21{letter-spacing:-0.01em;}.cls-22{letter-spacing:-0.01em;}.cls-23{letter-spacing:-0.04em;}.cls-24{letter-spacing:-0.02em;}.cls-25{letter-spacing:-0.01em;}.cls-26{letter-spacing:-0.02em;}.cls-27{letter-spacing:-0.01em;}.cls-28{letter-spacing:-0.03em;}.cls-29{letter-spacing:-0.01em;}.cls-30{letter-spacing:-0.01em;}.cls-31{letter-spacing:0em;}.cls-32{letter-spacing:-0.02em;}.cls-33{letter-spacing:-0.01em;}.cls-34{letter-spacing:-0.02em;}.cls-36{letter-spacing:-0.03em;}.cls-37{letter-spacing:-0.01em;}.cls-38{letter-spacing:-0.02em;}.cls-39{letter-spacing:-0.02em;}.cls-40{letter-spacing:0em;}</style></defs><g id="Calque_2" data-name="Calque 2"><g id="Calque_1-2" data-name="Calque 1"><g id="Groupe_1" data-name="Groupe 1"><g id="Groupe_6" data-name="Groupe 6"><path id="Tracé_2" data-name="Tracé 2" class="cls-1" d="M392.39,95.23s16.08-3.92,55.15-27.93S498,40,566,20.9s86.28-24,90.35-19.13,43.95,86.69,44.77,166c-5.12,67.7-21.44,122.24-34.44,162.44a14.47,14.47,0,0,1-17.44,9.54c-38-9.94-146.11-38.7-163.83-49.07-21.57-12.61-75.7-45.58-87.1-73.66-8.54-11.8-7.94-20.88-7.94-20.88Z"/><path id="Tracé_3" data-name="Tracé 3" class="cls-1" d="M308.71,95.23s-16.08-3.92-55.15-27.93S203.09,40,135.12,20.9,48.84-3.12,44.77,1.77.81,88.46,0,167.82c5.12,67.7,21.44,122.24,34.44,162.44a14.47,14.47,0,0,0,17.44,9.54c38-9.94,146.11-38.7,163.83-49.07,21.57-12.61,75.7-45.58,87.1-73.66,8.54-11.8,7.94-20.88,7.94-20.88Z"/><path id="Tracé_4" data-name="Tracé 4" class="cls-2" d="M392.36,138.61c60.47,26.31,135.92,17.6,189.56-20.78a316.29,316.29,0,0,1-190.63-.94l-.88,19.6-1.07-1.17-1.79,35.47c61.72,55.32,146.45,87.8,229.13,81.92C531.51,243.09,450.32,201.73,392.36,138.61Z"/><path id="Tracé_5" data-name="Tracé 5" class="cls-2" d="M308.74,138.61c-60.47,26.31-135.92,17.6-189.56-20.78a316.29,316.29,0,0,0,190.63-.94l.88,19.6,1.08-1.17,1.78,35.47c-61.72,55.32-146.45,87.8-229.13,81.92C169.6,243.09,250.78,201.73,308.74,138.61Z"/><path id="Tracé_6" data-name="Tracé 6" class="cls-3" d="M396.57,107.81q-.92-3.56-2.1-7c-.38-1.14-.79-2.27-1.23-3.4-.28-.72-.56-1.44-.86-2.15a4.87,4.87,0,0,0-2.32-2.67c-1.83-1-4.05-.94-6.14-.81-11.2.7-23.07,3.42-33.37,3-10.3.4-22.18-2.32-33.37-3-2.09-.13-4.32-.23-6.14.81a4.93,4.93,0,0,0-2.33,2.67c-.29.71-.58,1.43-.86,2.15-.43,1.13-.84,2.26-1.23,3.4q-1.17,3.48-2.1,7c-4,15.46-4.08,31.6-2.24,47.38.92,7.95,2.31,15.84,3.9,23.68,1.08,5.3,1.07,12.95,4.56,17.33,2.22,2.8,6.35,2.31,9.33,1.2a87.33,87.33,0,0,1,60.95,0c3,1.1,7.1,1.6,9.33-1.2,3.49-4.38,3.47-12,4.55-17.33,1.6-7.84,3-15.73,3.91-23.68C400.65,139.41,400.57,123.27,396.57,107.81Z"/></g><g id="Nous_avons_conscience_de_l_urgence_écologique_et_mettons_en_œuvre_de_nombreuses_actions_pour_contribuer_à_améliorer_notre_monde_à_notre_façon_au_trave" data-name="Nous avons conscience de l urgence écologique et mettons en œuvre de nombreuses actions pour contribuer à améliorer notre monde à notre façon au trave"><g id="Nous_avons_conscience_de_l_urgence" data-name="Nous avons conscience de l urgence" class="cls-4"><text class="cls-5" transform="translate(440.55 91.89)"><tspan class="cls-6">N</tspan><tspan x="8.98" y="0">ous </tspan><tspan class="cls-7" x="30.74" y="0">a</tspan><tspan class="cls-8" x="36.58" y="0">v</tspan><tspan x="42.6" y="0">ons </tspan><tspan class="cls-9" x="64.37" y="0">c</tspan><tspan class="cls-10" x="69.99" y="0">onscien</tspan><tspan class="cls-9" x="110.33" y="0">c</tspan><tspan x="115.95" y="0">e de l’u</tspan><tspan class="cls-11" x="153.57" y="0">r</tspan><tspan class="cls-12" x="157.8" y="0">g</tspan><tspan x="163.94" y="0">en</tspan><tspan class="cls-9" x="176.97" y="0">c</tspan><tspan x="182.6" y="0">e</tspan></text></g><g id="écologique_et_mettons_en_œuvre_de_" data-name="écologique et mettons en œuvre de " class="cls-4"><text class="cls-5" transform="translate(440.55 106.89)">é<tspan class="cls-9" x="6.34" y="0">c</tspan><tspan x="11.96" y="0">ol</tspan><tspan class="cls-13" x="21.59" y="0">o</tspan><tspan x="28.37" y="0">gique </tspan><tspan class="cls-14" x="60.31" y="0">e</tspan><tspan x="66.6" y="0">t m</tspan><tspan class="cls-14" x="83.84" y="0">e</tspan><tspan class="cls-15" x="90.14" y="0">tt</tspan><tspan x="98.3" y="0">ons en œuv</tspan><tspan class="cls-16" x="159.53" y="0">r</tspan><tspan x="163.65" y="0">e de</tspan></text></g><g id="nombreuses_actions_pour_contribuer_à_" data-name="nombreuses actions pour contribuer à " class="cls-4"><text class="cls-5" transform="translate(440.55 121.89)">nomb<tspan class="cls-16" x="30.09" y="0">r</tspan><tspan x="34.21" y="0">euses actions pou</tspan><tspan class="cls-17" x="128.11" y="0">r</tspan><tspan x="132.23" y="0"> </tspan><tspan class="cls-9" x="135.3" y="0">c</tspan><tspan x="140.92" y="0">o</tspan><tspan class="cls-18" x="147.72" y="0">n</tspan><tspan x="154.34" y="0">tribue</tspan><tspan class="cls-17" x="185.63" y="0">r</tspan><tspan x="189.75" y="0" xml:space="preserve"> à</tspan></text></g><g id="améliorer_notre_monde_à_notre_façon_au_" data-name="améliorer notre monde à notre façon au " class="cls-4"><text class="cls-5" transform="translate(440.55 136.89)">amélio<tspan class="cls-16" x="34.69" y="0">r</tspan><tspan x="38.81" y="0">e</tspan><tspan class="cls-17" x="45.14" y="0">r</tspan><tspan x="49.26" y="0" xml:space="preserve"> n</tspan><tspan class="cls-19" x="59.03" y="0">o</tspan><tspan x="65.72" y="0">t</tspan><tspan class="cls-16" x="70.03" y="0">r</tspan><tspan x="74.15" y="0">e monde à n</tspan><tspan class="cls-9" x="138.79" y="0">o</tspan><tspan x="145.48" y="0">t</tspan><tspan class="cls-16" x="149.78" y="0">r</tspan><tspan x="153.9" y="0">e </tspan><tspan class="cls-20" x="163.31" y="0">f</tspan><tspan x="167.48" y="0">a</tspan><tspan class="cls-19" x="173.45" y="0">ç</tspan><tspan x="179.08" y="0">on au</tspan></text></g><g id="travers_de_toutes_nos_pièces." data-name="travers de toutes nos pièces." class="cls-4"><text class="cls-5" transform="translate(440.55 151.89)">t<tspan class="cls-21" x="4.3" y="0">r</tspan><tspan class="cls-22" x="8.57" y="0">a</tspan><tspan class="cls-8" x="14.41" y="0">v</tspan><tspan x="20.44" y="0">e</tspan><tspan class="cls-20" x="26.77" y="0">r</tspan><tspan x="31.1" y="0">s de </tspan><tspan class="cls-13" x="55.5" y="0">t</tspan><tspan x="59.77" y="0">ou</tspan><tspan class="cls-13" x="73.27" y="0">t</tspan><tspan x="77.54" y="0">es nos piè</tspan><tspan class="cls-9" x="129.85" y="0">c</tspan><tspan x="135.47" y="0">es.</tspan></text></g><g id="Le_costume_vegan_en_plus_de_son_im-" data-name="Le costume vegan en plus de son im-" class="cls-4"><text class="cls-5" transform="translate(440.55 166.89)"><tspan class="cls-23">L</tspan><tspan class="cls-10" x="5.72" y="0">e </tspan><tspan class="cls-9" x="15.13" y="0">c</tspan><tspan x="20.75" y="0">ostume</tspan><tspan class="cls-24" x="59.95" y="0"> </tspan><tspan class="cls-25" x="62.74" y="0">v</tspan><tspan x="68.76" y="0">egan, en plus de son im-</tspan></text></g><g id="pact_écologique_faible_vise_à_s_adapter_à_une_" data-name="pact écologique faible vise à s adapter à une " class="cls-4"><text class="cls-5" transform="translate(440.55 181.89)">pact é<tspan class="cls-9" x="32.13" y="0">c</tspan><tspan class="cls-10" x="37.75" y="0">ol</tspan><tspan class="cls-13" x="47.39" y="0">o</tspan><tspan class="cls-10" x="54.16" y="0">gique </tspan><tspan class="cls-20" x="86.1" y="0">f</tspan><tspan x="90.27" y="0">aible,</tspan><tspan class="cls-26" x="117.72" y="0"> </tspan><tspan x="120.51" y="0">vise à </tspan><tspan class="cls-27" x="153.22" y="0">s</tspan><tspan class="cls-28" x="158.34" y="0">’</tspan><tspan x="160.59" y="0">ada</tspan><tspan class="cls-27" x="179.24" y="0">p</tspan><tspan class="cls-13" x="185.89" y="0">t</tspan><tspan x="190.16" y="0">e</tspan><tspan class="cls-17" x="196.5" y="0">r</tspan><tspan x="200.61" y="0" xml:space="preserve"> à une</tspan></text></g><g id="demande_croissante_de_matériaux_" data-name="demande croissante de matériaux " class="cls-4"><text class="cls-5" transform="translate(440.55 196.89)">demande c<tspan class="cls-16" x="57.44" y="0">r</tspan><tspan x="61.57" y="0">oissa</tspan><tspan class="cls-29" x="87.61" y="0">n</tspan><tspan class="cls-13" x="94.22" y="0">t</tspan><tspan class="cls-10" x="98.49" y="0">e de m</tspan><tspan class="cls-30" x="133.9" y="0">a</tspan><tspan class="cls-15" x="139.78" y="0">t</tspan><tspan x="144.05" y="0">ériaux</tspan></text></g><g id="respectueux_de_la_nature_et_des_animaux._" data-name="respectueux de la nature et des animaux. " class="cls-4"><text class="cls-5" transform="translate(440.55 211.89)"><tspan class="cls-16">r</tspan><tspan x="4.12" y="0">espectueux de la n</tspan><tspan class="cls-27" x="102.2" y="0">a</tspan><tspan x="108.09" y="0">tu</tspan><tspan class="cls-16" x="119.08" y="0">r</tspan><tspan x="123.2" y="0">e </tspan><tspan class="cls-31" x="132.61" y="0">e</tspan><tspan x="138.91" y="0">t des animaux.</tspan></text></g><g id="Nous_souhaitons_nous_engager_et_défendre_" data-name="Nous souhaitons nous engager et défendre " class="cls-4"><text class="cls-5" transform="translate(440.55 226.89)"><tspan class="cls-6">N</tspan><tspan x="8.98" y="0">ous souhai</tspan><tspan class="cls-13" x="64.97" y="0">t</tspan><tspan x="69.24" y="0">ons nous enga</tspan><tspan class="cls-12" x="144.7" y="0">g</tspan><tspan x="150.84" y="0">e</tspan><tspan class="cls-32" x="157.18" y="0">r</tspan><tspan class="cls-10" x="161.3" y="0"> </tspan><tspan class="cls-14" x="164.37" y="0">e</tspan><tspan x="170.66" y="0">t d</tspan><tspan class="cls-33" x="184.76" y="0">é</tspan><tspan class="cls-34" x="191.03" y="0">f</tspan><tspan x="195.04" y="0">end</tspan><tspan class="cls-16" x="214.79" y="0">r</tspan><tspan x="218.91" y="0">e</tspan></text></g><g id="cette_cause." data-name="cette cause." class="cls-4"><text class="cls-35" transform="translate(440.55 241.89)">c<tspan class="cls-14" x="5.62" y="0">e</tspan><tspan class="cls-13" x="11.92" y="0">tt</tspan><tspan class="cls-10" x="20.08" y="0">e cause.</tspan></text></g></g></g><g id="Pour_se_marier_avec_ces_nuances_elle_a_choisi_d_utiliser_des_matériaux_très_variés_comme_le_coton_la_laine_le_cachemire_ou_encore_le_tweed_et_la_soie._Notre_collection_tend_à_se_démarquer_par_un_produit_phare_:_un_costume_vegan._Simon_Laks_a_pour_vocat" data-name="Pour se marier avec ces nuances elle a choisi d utiliser des matériaux très variés comme le coton la laine le cachemire ou encore le tweed et la soie. Notre collection tend à se démarquer par un produit phare : un costume vegan. Simon Laks a pour vocat" class="cls-4"><text class="cls-5" transform="translate(24 119)"><tspan class="cls-36">P</tspan><tspan x="6.89" y="0">ou</tspan><tspan class="cls-17" x="20.38" y="0">r</tspan><tspan x="24.5" y="0" xml:space="preserve"> se marie</tspan><tspan class="cls-17" x="71.59" y="0">r</tspan><tspan x="75.71" y="0"> </tspan><tspan class="cls-7" x="78.78" y="0">a</tspan><tspan class="cls-25" x="84.62" y="0">v</tspan><tspan x="90.64" y="0">ec </tspan><tspan class="cls-9" x="105.78" y="0">c</tspan><tspan x="111.4" y="0">es nuan</tspan><tspan class="cls-9" x="152.05" y="0">c</tspan><tspan x="157.67" y="0">es, elle a choisi </tspan></text><text class="cls-5" transform="translate(24 134)">d’utilise<tspan class="cls-17" x="40.61" y="0">r</tspan><tspan x="44.72" y="0" xml:space="preserve"> des m</tspan><tspan class="cls-27" x="78.99" y="0">a</tspan><tspan class="cls-13" x="84.88" y="0">t</tspan><tspan x="89.15" y="0">ériaux t</tspan><tspan class="cls-16" x="128.73" y="0">r</tspan><tspan x="132.86" y="0">ès</tspan><tspan class="cls-26" x="144.39" y="0"> </tspan><tspan class="cls-37" x="147.17" y="0">v</tspan><tspan class="cls-10" x="153.23" y="0">ariés </tspan><tspan class="cls-9" x="181.05" y="0">c</tspan><tspan x="186.67" y="0">omme le </tspan></text><text class="cls-5" transform="translate(24 149)"><tspan class="cls-9">co</tspan><tspan class="cls-13" x="12.32" y="0">t</tspan><tspan class="cls-10" x="16.59" y="0">on, la laine, le cachemi</tspan><tspan class="cls-16" x="133.7" y="0">r</tspan><tspan x="137.82" y="0">e ou en</tspan><tspan class="cls-9" x="176.83" y="0">c</tspan><tspan class="cls-10" x="182.45" y="0">o</tspan><tspan class="cls-16" x="189.26" y="0">r</tspan><tspan x="193.38" y="0">e le </tspan></text><text class="cls-5" transform="translate(24 164)">t<tspan class="cls-18" x="4.3" y="0">w</tspan><tspan x="13.64" y="0">eed </tspan><tspan class="cls-14" x="36.11" y="0">e</tspan><tspan x="42.4" y="0">t la soie. </tspan><tspan class="cls-38" x="88.76" y="0">N</tspan><tspan class="cls-9" x="97.74" y="0">o</tspan><tspan x="104.44" y="0">t</tspan><tspan class="cls-16" x="108.74" y="0">r</tspan><tspan class="cls-10" x="112.86" y="0">e </tspan><tspan class="cls-9" x="122.27" y="0">c</tspan><tspan x="127.89" y="0">ollection </tspan><tspan class="cls-13" x="176.39" y="0">t</tspan><tspan class="cls-10" x="180.66" y="0">end à se </tspan></text><text class="cls-5" transform="translate(24 179)">déma<tspan class="cls-39" x="28.89" y="0">r</tspan><tspan class="cls-10" x="33.02" y="0">que</tspan><tspan class="cls-32" x="52.77" y="0">r</tspan><tspan class="cls-10" x="56.89" y="0" xml:space="preserve"> pa</tspan><tspan class="cls-17" x="72.65" y="0">r</tspan><tspan x="76.76" y="0" xml:space="preserve"> un p</tspan><tspan class="cls-16" x="103.02" y="0">r</tspan><tspan x="107.14" y="0">oduit pha</tspan><tspan class="cls-16" x="156.99" y="0">r</tspan><tspan x="161.12" y="0">e : un </tspan><tspan class="cls-9" x="193.05" y="0">c</tspan><tspan x="198.68" y="0">ostume </tspan></text><text class="cls-5" transform="translate(24 194)"><tspan class="cls-8">v</tspan><tspan x="6.02" y="0">egan. </tspan><tspan class="cls-40" x="37.16" y="0">S</tspan><tspan x="43.62" y="0">imon Laks a pou</tspan><tspan class="cls-17" x="128.69" y="0">r</tspan><tspan class="cls-26" x="132.8" y="0"> </tspan><tspan class="cls-8" x="135.59" y="0">v</tspan><tspan x="141.61" y="0">oc</tspan><tspan class="cls-30" x="154.14" y="0">a</tspan><tspan x="160.03" y="0">tion de </tspan></text><text class="cls-5" transform="translate(24 209)"><tspan class="cls-27">s</tspan><tspan class="cls-28" x="5.12" y="0">’</tspan><tspan x="7.37" y="0">ada</tspan><tspan class="cls-27" x="26.02" y="0">p</tspan><tspan class="cls-13" x="32.67" y="0">t</tspan><tspan x="36.94" y="0">e</tspan><tspan class="cls-17" x="43.28" y="0">r</tspan><tspan x="47.39" y="0" xml:space="preserve"> à ses clie</tspan><tspan class="cls-29" x="97.08" y="0">n</tspan><tspan x="103.69" y="0">ts pou</tspan><tspan class="cls-17" x="136.48" y="0">r</tspan><tspan x="140.6" y="0" xml:space="preserve"> leu</tspan><tspan class="cls-32" x="159.53" y="0">r</tspan><tspan class="cls-10" x="163.64" y="0" xml:space="preserve"> p</tspan><tspan class="cls-16" x="173.44" y="0">r</tspan><tspan class="cls-10" x="177.56" y="0">opose</tspan><tspan class="cls-32" x="209.43" y="0">r</tspan><tspan class="cls-10" x="213.54" y="0" xml:space="preserve"> des </tspan></text><text class="cls-5" transform="translate(24 224)"><tspan class="cls-9">c</tspan><tspan x="5.62" y="0">ostumes qui leu</tspan><tspan class="cls-17" x="88.31" y="0">r</tspan><tspan x="92.42" y="0"> </tspan><tspan class="cls-16" x="95.5" y="0">r</tspan><tspan x="99.62" y="0">essemble.</tspan></text></g></g></g></svg>