<svg xmlns="http://www.w3.org/2000/svg" viewBox="0 0 701.1 340.28"><defs><style>.cls-1{fill:#141414;}.cls-2{fill:#1e1e1e;}.cls-3,.cls-35,.cls-5,.cls-8,.cls-9{fill:#fff;}.cls-3{stroke:#1d1c1c;stroke-miterlimit:10;}.cls-35,.cls-4,.cls-5,.cls-8,.cls-9{isolation:isolate;}.cls-5,.cls-8{font-size:12px;}.cls-5,.cls-8,.cls-9{font-family:Lato-Regular, Lato;}.cls-15,.cls-5{letter-spacing:-0.01em;}.cls-6{letter-spacing:0em;}.cls-7{letter-spacing:0em;}.cls-9{font-size:10px;}.cls-10{letter-spacing:-0.01em;}.cls-11{letter-spacing:-0.01em;}.cls-12{letter-spacing:0em;}.cls-13{letter-spacing:-0.01em;}.cls-14{letter-spacing:0em;}.cls-16{letter-spacing:0em;}.cls-17{letter-spacing:-0.02em;}.cls-18{letter-spacing:-0.01em;}.cls-19{letter-spacing:-0.02em;}.cls-20{letter-spacing:0em;}.cls-21{letter-spacing:-0.01em;}.cls-22{letter-spacing:-0.02em;}.cls-23{letter-spacing:-0.01em;}.cls-24{letter-spacing:0em;}.cls-25{letter-spacing:-0.01em;}.cls-26{letter-spacing:-0.01em;}.cls-27{letter-spacing:-0.02em;}.cls-28{letter-spacing:-0.03em;}.cls-29{letter-spacing:-0.03em;}.cls-30{letter-spacing:-0.01em;}.cls-31{letter-spacing:0em;}.cls-32{letter-spacing:-0.02em;}.cls-33{letter-spacing:-0.01em;}.cls-34{letter-spacing:0em;}.cls-35{font-size:16px;font-family:Lato-Bold, Lato;font-weight:700;}.cls-35,.cls-37{letter-spacing:-0.02em;}.cls-36{letter-spacing:0em;}.cls-38{letter-spacing:-0.01em;}.cls-39{letter-spacing:-0.01em;}.cls-40{letter-spacing:-0.01em;}.cls-41{letter-spacing:-0.01em;}.cls-42{letter-spacing:-0.01em;}.cls-43{letter-spacing:-0.02em;}.cls-44{letter-spacing:-0.02em;}</style></defs><g id="Calque_2" data-name="Calque 2"><g id="Calque_1-2" data-name="Calque 1"><g id="Groupe_1" data-name="Groupe 1"><g id="Groupe_6" data-name="Groupe 6"><path id="Tracé_2" data-name="Tracé 2" class="cls-1" d="M392.38,95.23s16.09-3.92,55.16-27.93S498,40,566,20.9s86.29-24,90.36-19.13,43.95,86.69,44.77,166c-5.13,67.7-21.44,122.24-34.44,162.44a14.47,14.47,0,0,1-17.44,9.54c-38-9.94-146.11-38.7-163.83-49.07-21.57-12.61-75.7-45.58-87.1-73.66-8.55-11.8-7.94-20.88-7.94-20.88Z"/><path id="Tracé_3" data-name="Tracé 3" class="cls-1" d="M308.71,95.23s-16.09-3.92-55.16-27.93S203.09,40,135.12,20.9,48.84-3.12,44.77,1.77.81,88.46,0,167.82c5.12,67.7,21.44,122.24,34.44,162.44a14.47,14.47,0,0,0,17.44,9.54c38-9.94,146.11-38.7,163.83-49.07,21.57-12.61,75.7-45.58,87.1-73.66,8.54-11.8,7.94-20.88,7.94-20.88Z"/><path id="Tracé_4" data-name="Tracé 4" class="cls-2" d="M392.35,138.61c60.48,26.31,135.93,17.6,189.57-20.78a316.29,316.29,0,0,1-190.63-.94l-.89,19.6c-.35-.4-.72-.78-1.07-1.17l-1.78,35.47c61.72,55.32,146.45,87.8,229.12,81.92C531.5,243.09,450.32,201.73,392.35,138.61Z"/><path id="Tracé_5" data-name="Tracé 5" class="cls-2" d="M308.74,138.61c-60.47,26.31-135.92,17.6-189.56-20.78a316.26,316.26,0,0,0,190.62-.94l.89,19.6,1.07-1.17,1.79,35.47c-61.73,55.32-146.45,87.8-229.13,81.92C169.59,243.09,250.78,201.73,308.74,138.61Z"/><path id="Tracé_6" data-name="Tracé 6" class="cls-3" d="M396.57,107.81q-.92-3.56-2.1-7c-.39-1.14-.8-2.28-1.23-3.4-.28-.73-.56-1.44-.86-2.16a4.93,4.93,0,0,0-2.33-2.67c-1.82-1-4.05-.94-6.14-.81-11.19.7-23.06,3.43-33.36,3-10.3.4-22.18-2.32-33.37-3-2.09-.13-4.32-.23-6.14.81a4.93,4.93,0,0,0-2.33,2.67c-.3.72-.58,1.43-.86,2.16-.43,1.12-.84,2.25-1.23,3.4q-1.19,3.46-2.1,7c-4,15.46-4.08,31.6-2.25,47.39.93,7.94,2.32,15.83,3.91,23.67,1.08,5.3,1.07,12.95,4.55,17.33,2.23,2.8,6.36,2.31,9.33,1.2a87.36,87.36,0,0,1,61,0c3,1.11,7.1,1.6,9.33-1.2,3.48-4.38,3.47-12,4.55-17.33,1.6-7.84,3-15.72,3.91-23.67C400.65,139.41,400.57,123.27,396.57,107.81Z"/></g><g id="Défilé_en_ligne_10_juin_2020_-_9h_à_12h" data-name="Défilé en ligne 10 juin 2020 - 9h à 12h"><g id="Défilé_en_ligne" data-name="Défilé en ligne" class="cls-4"><text class="cls-5" transform="translate(89.29 91.89)">D<tspan class="cls-6" x="9.04" y="0">é</tspan><tspan class="cls-7" x="15.32" y="0">filé en ligne</tspan></text></g><g id="_10_juin_2020_-_9h_à_12h" data-name=" 10 juin 2020 - 9h à 12h" class="cls-4"><text class="cls-8" transform="translate(65.03 106.89)">10 juin 2020 - 9h à 12h</text></g></g><g id="Diffusable_immédiatement" data-name="Diffusable immédiatement"><g id="Diffusable_immédiatement-2" data-name="Diffusable immédiatement-2" class="cls-4"><text class="cls-9" transform="translate(69.19 122.89)"><tspan class="cls-10">D</tspan><tspan x="7.5" y="0">iffusable immédi</tspan><tspan class="cls-11" x="79.36" y="0">a</tspan><tspan class="cls-12" x="84.27" y="0">t</tspan><tspan x="87.83" y="0">eme</tspan><tspan class="cls-13" x="106.61" y="0">n</tspan><tspan x="112.12" y="0">t</tspan></text></g></g><g id="Simon_Laks_est_une_entreprise_lancée_par_six_personnes_ayant_les_mêmes_valeurs_et_les_mêmes_aspirations_pour_la_mode._Nous_sommes_d_anciens_camarades_" data-name="Simon Laks est une entreprise lancée par six personnes ayant les mêmes valeurs et les mêmes aspirations pour la mode. Nous sommes d anciens camarades "><g id="Simon_Laks_est_une_entreprise_lancée_par_" data-name="Simon Laks est une entreprise lancée par " class="cls-4"><text class="cls-8" transform="translate(28.55 151.89)"><tspan class="cls-14">S</tspan><tspan x="6.46" y="0">imon Laks est une e</tspan><tspan class="cls-15" x="110.3" y="0">n</tspan><tspan class="cls-16" x="116.92" y="0">t</tspan><tspan class="cls-17" x="121.22" y="0">r</tspan><tspan x="125.34" y="0">eprise lan</tspan><tspan class="cls-18" x="175.74" y="0">c</tspan><tspan x="181.37" y="0">ée pa</tspan><tspan class="cls-19" x="209.8" y="0">r</tspan></text></g><g id="six_personnes_ayant_les_mêmes_valeurs_et_" data-name="six personnes ayant les mêmes valeurs et " class="cls-4"><text class="cls-8" transform="translate(28.55 166.89)">six pe<tspan class="cls-20" x="30.19" y="0">r</tspan><tspan x="34.52" y="0">sonnes </tspan><tspan class="cls-21" x="74.51" y="0">a</tspan><tspan class="cls-10" x="80.33" y="0">y</tspan><tspan x="86.4" y="0">a</tspan><tspan class="cls-15" x="92.36" y="0">n</tspan><tspan class="cls-16" x="98.98" y="0">t les mêmes</tspan><tspan class="cls-22" x="161.39" y="0"> </tspan><tspan class="cls-23" x="164.18" y="0">v</tspan><tspan class="cls-16" x="170.24" y="0">aleu</tspan><tspan class="cls-20" x="192.06" y="0">r</tspan><tspan class="cls-16" x="196.39" y="0">s </tspan><tspan class="cls-24" x="204.66" y="0">e</tspan><tspan x="210.95" y="0">t</tspan></text></g><g id="les" class="cls-4"><text class="cls-8" transform="translate(28.55 181.89)">les</text></g><g id="mêmes_aspirations_pour_la_mode._Nous_" data-name="mêmes aspirations pour la mode. Nous " class="cls-4"><text class="cls-8" transform="translate(28.55 196.89)">mêmes aspi<tspan class="cls-25" x="61.45" y="0">r</tspan><tspan class="cls-26" x="65.72" y="0">a</tspan><tspan x="71.6" y="0">tions pou</tspan><tspan class="cls-19" x="120.98" y="0">r</tspan><tspan x="125.1" y="0" xml:space="preserve"> la mode. </tspan><tspan class="cls-27" x="175.67" y="0">N</tspan><tspan x="184.65" y="0">ous</tspan></text></g><g id="sommes_d_anciens_camarades_d_école_qui_" data-name="sommes d anciens camarades d école qui " class="cls-4"><text class="cls-8" transform="translate(28.55 211.89)">sommes d<tspan class="cls-28" x="53.06" y="0">’</tspan><tspan x="55.32" y="0">anciens cama</tspan><tspan class="cls-25" x="125.42" y="0">r</tspan><tspan x="129.69" y="0">ades d</tspan><tspan class="cls-29" x="163.7" y="0">’</tspan><tspan x="165.87" y="0">é</tspan><tspan class="cls-18" x="172.21" y="0">c</tspan><tspan x="177.83" y="0">ole qui</tspan></text></g><g id="ont_vu_en" data-name="ont vu en" class="cls-4"><text class="cls-8" transform="translate(28.55 226.89)">o<tspan class="cls-30" x="6.8" y="0">n</tspan><tspan x="13.42" y="0">t</tspan><tspan class="cls-22" x="17.72" y="0"> </tspan><tspan x="20.5" y="0">vu en</tspan></text></g><g id="Simon_Laks_une_opportunité_de_s_exprimer_" data-name="Simon Laks une opportunité de s exprimer " class="cls-4"><text class="cls-8" transform="translate(28.55 241.89)"><tspan class="cls-14">S</tspan><tspan x="6.46" y="0">imon Laks une opportuni</tspan><tspan class="cls-31" x="137.06" y="0">t</tspan><tspan x="141.33" y="0">é de </tspan><tspan class="cls-26" x="166.86" y="0">s</tspan><tspan class="cls-29" x="171.98" y="0">’</tspan><tspan class="cls-26" x="174.16" y="0">e</tspan><tspan class="cls-7" x="180.42" y="0">xprime</tspan><tspan class="cls-19" x="216.57" y="0">r</tspan></text></g><g id="tout_en_faisant_passer_un_message_et_des_" data-name="tout en faisant passer un message et des " class="cls-4"><text class="cls-8" transform="translate(28.55 256.89)"><tspan class="cls-31">t</tspan><tspan x="4.27" y="0">out en </tspan><tspan class="cls-20" x="41.24" y="0">f</tspan><tspan x="45.41" y="0">aisa</tspan><tspan class="cls-15" x="65.42" y="0">n</tspan><tspan class="cls-16" x="72.03" y="0">t passe</tspan><tspan class="cls-32" x="108.82" y="0">r</tspan><tspan x="112.94" y="0" xml:space="preserve"> un messa</tspan><tspan class="cls-33" x="165.03" y="0">g</tspan><tspan x="171.17" y="0">e </tspan><tspan class="cls-34" x="180.58" y="0">e</tspan><tspan class="cls-16" x="186.87" y="0">t des</tspan></text></g><g id="valeurs" class="cls-4"><text class="cls-8" transform="translate(28.55 271.89)"><tspan class="cls-23">v</tspan><tspan x="6.06" y="0">aleu</tspan><tspan class="cls-20" x="27.88" y="0">r</tspan><tspan class="cls-16" x="32.21" y="0">s</tspan></text></g><g id="importantes." class="cls-4"><text class="cls-8" transform="translate(28.55 286.89)">importa<tspan class="cls-30" x="40.91" y="0">n</tspan><tspan class="cls-31" x="47.53" y="0">t</tspan><tspan x="51.8" y="0">es.</tspan></text></g></g><g id="NOTRE_HISTOIRE" data-name="NOTRE HISTOIRE"><g id="COMMUNIQUÉ_DE_PRESSE" data-name="COMMUNIQUÉ DE PRESSE"><g id="COMMUNIQUÉ_DE_PRESSE-2" data-name="COMMUNIQUÉ DE PRESSE-2" class="cls-4"><text class="cls-35" transform="translate(23.55 71.89)">C<tspan class="cls-36" x="10.34" y="0">OMMUNIQUÉ DE PRESSE</tspan></text></g></g></g><g id="Nous_avons_orienté_notre_collection_sur_les_costumes_pour_hommes._Nous_voulons_faire_hommage_à_un_homme_qui_nous_inspire_nous_développons_donc_un_style_sobre_mais_original_de_par_les_matières_utilisées._En_effet_notre_direction_artistique_a_décidé_de_m" data-name="Nous avons orienté notre collection sur les costumes pour hommes. Nous voulons faire hommage à un homme qui nous inspire nous développons donc un style sobre mais original de par les matières utilisées. En effet notre direction artistique a décidé de m" class="cls-4"><text class="cls-8" transform="translate(431 107)"><tspan class="cls-37">N</tspan><tspan x="8.98" y="0">ous </tspan><tspan class="cls-38" x="30.74" y="0">a</tspan><tspan class="cls-39" x="36.58" y="0">v</tspan><tspan x="42.6" y="0">ons orie</tspan><tspan class="cls-30" x="84.75" y="0">n</tspan><tspan class="cls-31" x="91.37" y="0">t</tspan><tspan x="95.64" y="0">é n</tspan><tspan class="cls-40" x="111.74" y="0">o</tspan><tspan x="118.44" y="0">t</tspan><tspan class="cls-17" x="122.74" y="0">r</tspan><tspan x="126.86" y="0">e </tspan><tspan class="cls-18" x="136.27" y="0">c</tspan><tspan class="cls-16" x="141.89" y="0">ollection su</tspan><tspan class="cls-19" x="202.28" y="0">r</tspan><tspan x="206.39" y="0" xml:space="preserve"> les </tspan></text><text class="cls-8" transform="translate(431 122)"><tspan class="cls-18">c</tspan><tspan x="5.62" y="0">ostumes pou</tspan><tspan class="cls-19" x="73.31" y="0">r</tspan><tspan x="77.42" y="0" xml:space="preserve"> hommes. </tspan><tspan class="cls-37" x="131.17" y="0">N</tspan><tspan class="cls-16" x="140.15" y="0">ous</tspan><tspan class="cls-22" x="158.84" y="0"> </tspan><tspan class="cls-39" x="161.62" y="0">v</tspan><tspan x="167.64" y="0">oulons </tspan><tspan class="cls-20" x="205.74" y="0">f</tspan><tspan x="209.91" y="0">ai</tspan><tspan class="cls-17" x="218.75" y="0">r</tspan><tspan x="222.87" y="0">e </tspan></text><text class="cls-8" transform="translate(431 137)">homma<tspan class="cls-33" x="39.2" y="0">g</tspan><tspan x="45.35" y="0">e à un homme qui nous inspi</tspan><tspan class="cls-17" x="195.09" y="0">r</tspan><tspan x="199.22" y="0">e, nous </tspan></text><text class="cls-8" transform="translate(431 152)">d<tspan class="cls-41" x="6.72" y="0">é</tspan><tspan class="cls-39" x="12.92" y="0">v</tspan><tspan x="18.95" y="0">eloppons donc un style sob</tspan><tspan class="cls-17" x="162.26" y="0">r</tspan><tspan x="166.38" y="0">e mais original de</tspan></text><text class="cls-8" transform="translate(431 167)">pa<tspan class="cls-32" x="12.69" y="0">r</tspan><tspan class="cls-16" x="16.81" y="0" xml:space="preserve"> les m</tspan><tspan class="cls-26" x="47.18" y="0">a</tspan><tspan class="cls-7" x="53.07" y="0">tiè</tspan><tspan class="cls-17" x="66.8" y="0">r</tspan><tspan x="70.92" y="0">es utilisées. </tspan></text><text class="cls-8" transform="translate(431 182)"><tspan class="cls-39">E</tspan><tspan x="6.76" y="0">n </tspan><tspan class="cls-42" x="16.53" y="0">e</tspan><tspan class="cls-43" x="22.81" y="0">ff</tspan><tspan class="cls-34" x="30.59" y="0">e</tspan><tspan x="36.89" y="0">t, n</tspan><tspan class="cls-18" x="53.68" y="0">o</tspan><tspan x="60.38" y="0">t</tspan><tspan class="cls-17" x="64.68" y="0">r</tspan><tspan x="68.8" y="0">e di</tspan><tspan class="cls-17" x="87.81" y="0">r</tspan><tspan x="91.93" y="0">ection artistique a décidé de </tspan></text><text class="cls-8" transform="translate(431 197)">m<tspan class="cls-34" x="9.87" y="0">e</tspan><tspan x="16.16" y="0">tt</tspan><tspan class="cls-17" x="24.36" y="0">r</tspan><tspan x="28.48" y="0">e en </tspan><tspan class="cls-38" x="53.99" y="0">a</tspan><tspan class="cls-23" x="59.83" y="0">v</tspan><tspan x="65.89" y="0">a</tspan><tspan class="cls-15" x="71.86" y="0">n</tspan><tspan class="cls-16" x="78.47" y="0">t des </tspan><tspan class="cls-18" x="107.17" y="0">c</tspan><tspan x="112.79" y="0">ouleu</tspan><tspan class="cls-20" x="142.14" y="0">r</tspan><tspan x="146.47" y="0">s simples</tspan><tspan class="cls-22" x="193.77" y="0"> </tspan><tspan class="cls-23" x="196.56" y="0">v</tspan><tspan x="202.62" y="0">aria</tspan><tspan class="cls-30" x="221.79" y="0">n</tspan><tspan x="228.41" y="0">t du </tspan></text><text class="cls-8" transform="translate(431 212)">noi<tspan class="cls-32" x="16.38" y="0">r</tspan><tspan class="cls-16" x="20.5" y="0" xml:space="preserve"> au blanc en passa</tspan><tspan class="cls-15" x="115.46" y="0">n</tspan><tspan x="122.07" y="0">t pa</tspan><tspan class="cls-19" x="142.13" y="0">r</tspan><tspan x="146.25" y="0" xml:space="preserve"> le bei</tspan><tspan class="cls-33" x="177.5" y="0">g</tspan><tspan x="183.64" y="0">e </tspan><tspan class="cls-24" x="193.05" y="0">e</tspan><tspan x="199.34" y="0">t le </tspan><tspan class="cls-17" x="218.96" y="0">r</tspan><tspan x="223.08" y="0">ou</tspan><tspan class="cls-33" x="236.57" y="0">g</tspan><tspan x="242.72" y="0">e </tspan></text><text class="cls-8" transform="translate(431 227)">bo<tspan class="cls-44" x="13.52" y="0">r</tspan><tspan x="17.66" y="0">deaux.</tspan></text></g></g></g></g></svg>