<svg xmlns="http://www.w3.org/2000/svg" viewBox="0 0 701.1 340.28"><defs><style>.cls-1{fill:#1a1a1a;}.cls-2{fill:#282828;}.cls-3,.cls-5,.cls-9{fill:#fff;}.cls-3{stroke:#272525;stroke-miterlimit:10;}.cls-4,.cls-5,.cls-9{isolation:isolate;}.cls-5{font-size:14px;font-family:Lato-Bold, Lato;font-weight:700;}.cls-6{letter-spacing:-0.05em;}.cls-7{letter-spacing:-0.02em;}.cls-8{letter-spacing:0em;}.cls-9{font-size:12px;font-family:Lato-Regular, Lato;}.cls-10{letter-spacing:-0.02em;}.cls-11{letter-spacing:0em;}.cls-12{letter-spacing:-0.02em;}.cls-13{letter-spacing:0em;}.cls-14{letter-spacing:-0.02em;}.cls-15{letter-spacing:-0.02em;}.cls-16{letter-spacing:-0.01em;}.cls-17{letter-spacing:-0.01em;}.cls-18{letter-spacing:-0.01em;}.cls-19{letter-spacing:-0.01em;}.cls-20{letter-spacing:0em;}.cls-21{letter-spacing:-0.03em;}.cls-22{letter-spacing:-0.12em;}.cls-23{letter-spacing:-0.02em;}.cls-24{letter-spacing:0em;}.cls-25{letter-spacing:-0.01em;}.cls-26{letter-spacing:-0.01em;}.cls-27{letter-spacing:-0.01em;}.cls-28{letter-spacing:-0.01em;}.cls-29{letter-spacing:-0.06em;}.cls-30{letter-spacing:-0.02em;}.cls-31{letter-spacing:-0.04em;}.cls-32{letter-spacing:-0.01em;}.cls-33{letter-spacing:0em;}.cls-34{letter-spacing:-0.01em;}.cls-35{letter-spacing:-0.03em;}.cls-36{letter-spacing:-0.02em;}.cls-37{letter-spacing:-0.03em;}.cls-38{letter-spacing:-0.01em;}.cls-39{letter-spacing:-0.02em;}.cls-40{letter-spacing:-0.01em;}.cls-41{letter-spacing:-0.01em;}.cls-42{letter-spacing:-0.04em;}.cls-43{letter-spacing:0em;}.cls-44{letter-spacing:-0.01em;}.cls-45{letter-spacing:-0.01em;}</style></defs><g id="Calque_2" data-name="Calque 2"><g id="Calque_1-2" data-name="Calque 1"><g id="Groupe_6" data-name="Groupe 6"><path id="Tracé_2" data-name="Tracé 2" class="cls-1" d="M392.39,95.23s16.08-3.92,55.15-27.93S498,40,566,20.9s86.28-24,90.35-19.13,44,86.69,44.77,166c-5.12,67.7-21.44,122.24-34.44,162.44a14.47,14.47,0,0,1-17.44,9.54c-38-9.94-146.11-38.7-163.83-49.07-21.57-12.61-75.7-45.58-87.1-73.66-8.54-11.8-7.94-20.88-7.94-20.88Z"/><path id="Tracé_3" data-name="Tracé 3" class="cls-1" d="M308.71,95.23s-16.08-3.92-55.15-27.93S203.09,40,135.12,20.9,48.84-3.12,44.77,1.77.82,88.46,0,167.82c5.12,67.7,21.44,122.24,34.44,162.44a14.47,14.47,0,0,0,17.44,9.54c38-9.94,146.11-38.7,163.83-49.07,21.57-12.61,75.7-45.58,87.1-73.66,8.54-11.8,7.94-20.88,7.94-20.88Z"/><path id="Tracé_4" data-name="Tracé 4" class="cls-2" d="M392.36,138.61c60.47,26.31,135.92,17.6,189.56-20.78a316.29,316.29,0,0,1-190.63-.94l-.88,19.6-1.08-1.17-1.78,35.47c61.72,55.32,146.45,87.8,229.13,81.92C531.51,243.09,450.32,201.73,392.36,138.61Z"/><path id="Tracé_5" data-name="Tracé 5" class="cls-2" d="M308.75,138.61c-60.48,26.31-135.93,17.6-189.57-20.78a316.29,316.29,0,0,0,190.63-.94l.88,19.6,1.08-1.17,1.78,35.47c-61.72,55.32-146.45,87.8-229.13,81.92C169.6,243.09,250.78,201.73,308.75,138.61Z"/><path id="Tracé_6" data-name="Tracé 6" class="cls-3" d="M396.57,107.81q-.92-3.56-2.1-7c-.38-1.14-.79-2.27-1.23-3.4-.27-.72-.56-1.44-.86-2.15a4.87,4.87,0,0,0-2.32-2.67c-1.82-1-4.05-.94-6.14-.81-11.2.7-23.07,3.42-33.37,3-10.3.4-22.18-2.32-33.37-3-2.09-.13-4.32-.23-6.14.81a4.93,4.93,0,0,0-2.33,2.67c-.29.71-.58,1.43-.86,2.15-.43,1.13-.84,2.26-1.23,3.4q-1.17,3.48-2.1,7c-4,15.46-4.08,31.6-2.24,47.38.92,7.95,2.31,15.84,3.91,23.68,1.08,5.3,1.06,12.95,4.55,17.33,2.22,2.8,6.36,2.31,9.33,1.2a87.33,87.33,0,0,1,60.95,0c3,1.1,7.1,1.6,9.33-1.2,3.49-4.38,3.48-12,4.56-17.33,1.59-7.84,3-15.73,3.9-23.68C400.65,139.41,400.57,123.27,396.57,107.81Z"/></g><g id="NOS_PARTENAIRES" data-name="NOS PARTENAIRES" class="cls-4"><text class="cls-5" transform="translate(36.55 48.89)">NOS <tspan class="cls-6" x="33.18" y="0">P</tspan><tspan x="41.14" y="0">A</tspan><tspan class="cls-7" x="50.86" y="0">R</tspan><tspan class="cls-8" x="59.6" y="0">TENAIRES</tspan></text></g><g id="Nous_tenons_à_remercier_tous_nos_partenaires_pour_leur_soutien_tout_au_long_du_développement_de_notre_projet._Tod_s_pour_les_chaussures_de_nos_mannequins_pour_le_défilé_et_les_photos_des_publicités_ainsi_que_Dior_et_Nicolas_Waldorf_pour_respectivement_" data-name="Nous tenons à remercier tous nos partenaires pour leur soutien tout au long du développement de notre projet. Tod s pour les chaussures de nos mannequins pour le défilé et les photos des publicités ainsi que Dior et Nicolas Waldorf pour respectivement " class="cls-4"><text class="cls-9" transform="translate(26.55 97.89)"><tspan class="cls-10">N</tspan><tspan x="8.98" y="0">ous </tspan><tspan class="cls-11" x="30.74" y="0">t</tspan><tspan x="35.01" y="0">enons à </tspan><tspan class="cls-12" x="78.85" y="0">r</tspan><tspan class="cls-13" x="82.97" y="0">eme</tspan><tspan class="cls-12" x="105.51" y="0">r</tspan><tspan x="109.63" y="0">cie</tspan><tspan class="cls-14" x="124.58" y="0">r</tspan><tspan x="128.69" y="0"> </tspan><tspan class="cls-11" x="131.77" y="0">t</tspan><tspan class="cls-13" x="136.04" y="0">ous nos </tspan></text><text class="cls-9" transform="translate(26.55 112.89)">par<tspan class="cls-11" x="17.06" y="0">t</tspan><tspan class="cls-13" x="21.33" y="0">enai</tspan><tspan class="cls-12" x="43.21" y="0">r</tspan><tspan x="47.33" y="0">es pou</tspan><tspan class="cls-15" x="82.15" y="0">r</tspan><tspan class="cls-13" x="86.27" y="0" xml:space="preserve"> leu</tspan><tspan class="cls-15" x="105.2" y="0">r</tspan><tspan x="109.31" y="0" xml:space="preserve"> soutien </tspan><tspan class="cls-11" x="154.57" y="0">t</tspan><tspan x="158.84" y="0">out au long </tspan></text><text class="cls-9" transform="translate(26.55 127.89)">du d<tspan class="cls-16" x="23.2" y="0">é</tspan><tspan class="cls-17" x="29.41" y="0">v</tspan><tspan x="35.43" y="0">eloppeme</tspan><tspan class="cls-18" x="87.4" y="0">n</tspan><tspan class="cls-13" x="94.01" y="0">t de n</tspan><tspan class="cls-19" x="124.21" y="0">o</tspan><tspan x="130.9" y="0">t</tspan><tspan class="cls-12" x="135.2" y="0">r</tspan><tspan x="139.33" y="0">e p</tspan><tspan class="cls-12" x="155.46" y="0">r</tspan><tspan x="159.58" y="0">oj</tspan><tspan class="cls-20" x="169.26" y="0">e</tspan><tspan class="cls-13" x="175.56" y="0">t.</tspan><tspan class="cls-21" x="182.69" y="0"> </tspan><tspan class="cls-22" x="185.4" y="0">T</tspan><tspan class="cls-13" x="191.03" y="0">od</tspan><tspan class="cls-23" x="204.55" y="0">’</tspan><tspan x="206.84" y="0">s </tspan></text><text class="cls-9" transform="translate(26.55 142.89)">pou<tspan class="cls-15" x="20.22" y="0">r</tspan><tspan class="cls-13" x="24.34" y="0" xml:space="preserve"> les chaussu</tspan><tspan class="cls-12" x="87" y="0">r</tspan><tspan class="cls-13" x="91.13" y="0">es de nos mannequins </tspan></text><text class="cls-9" transform="translate(26.55 157.89)">pou<tspan class="cls-15" x="20.22" y="0">r</tspan><tspan class="cls-13" x="24.34" y="0" xml:space="preserve"> le d</tspan><tspan class="cls-24" x="46.37" y="0">é</tspan><tspan x="52.64" y="0">filé </tspan><tspan class="cls-20" x="71.75" y="0">e</tspan><tspan x="78.05" y="0">t les ph</tspan><tspan class="cls-19" x="116.28" y="0">o</tspan><tspan class="cls-11" x="122.98" y="0">t</tspan><tspan x="127.25" y="0">os des publici</tspan><tspan class="cls-11" x="198.1" y="0">t</tspan><tspan x="202.37" y="0">és, </tspan></text><text class="cls-9" transform="translate(26.55 172.89)">ainsi que <tspan class="cls-25" x="49.51" y="0">D</tspan><tspan x="58.51" y="0">io</tspan><tspan class="cls-14" x="68.2" y="0">r</tspan><tspan x="72.31" y="0"> </tspan><tspan class="cls-20" x="75.38" y="0">e</tspan><tspan x="81.68" y="0">t </tspan><tspan class="cls-26" x="89.05" y="0">N</tspan><tspan x="98.12" y="0">i</tspan><tspan class="cls-27" x="101" y="0">c</tspan><tspan x="106.63" y="0">olas</tspan><tspan class="cls-28" x="127.42" y="0"> </tspan><tspan class="cls-29" x="130.33" y="0">W</tspan><tspan x="142.08" y="0">aldor</tspan><tspan class="cls-30" x="168.77" y="0">f</tspan><tspan x="172.75" y="0" xml:space="preserve"> pou</tspan><tspan class="cls-31" x="196.04" y="0">r</tspan><tspan x="199.92" y="0">, </tspan></text><text class="cls-9" transform="translate(26.55 187.89)"><tspan class="cls-12">r</tspan><tspan x="4.12" y="0">especti</tspan><tspan class="cls-17" x="41.84" y="0">v</tspan><tspan x="47.86" y="0">eme</tspan><tspan class="cls-18" x="70.4" y="0">n</tspan><tspan class="cls-13" x="77.02" y="0">t, le maquilla</tspan><tspan class="cls-32" x="143.1" y="0">g</tspan><tspan class="cls-13" x="149.25" y="0">e </tspan><tspan class="cls-20" x="158.66" y="0">e</tspan><tspan x="164.95" y="0">t la </tspan><tspan class="cls-27" x="184.19" y="0">c</tspan><tspan x="189.81" y="0">oiffu</tspan><tspan class="cls-12" x="214.17" y="0">r</tspan><tspan class="cls-13" x="218.3" y="0">e </tspan></text><text class="cls-9" transform="translate(26.55 202.89)">de nos mannequins. <tspan class="cls-10" x="107.54" y="0">N</tspan><tspan class="cls-13" x="116.52" y="0">ous </tspan><tspan class="cls-11" x="138.28" y="0">t</tspan><tspan x="142.55" y="0">enons à </tspan></text><text class="cls-9" transform="translate(26.55 217.89)"><tspan class="cls-12">r</tspan><tspan x="4.12" y="0">eme</tspan><tspan class="cls-12" x="26.66" y="0">r</tspan><tspan x="30.79" y="0">cie</tspan><tspan class="cls-15" x="45.73" y="0">r</tspan><tspan class="cls-13" x="49.85" y="0" xml:space="preserve"> nos par</tspan><tspan class="cls-33" x="91.75" y="0">t</tspan><tspan x="96.02" y="0">enai</tspan><tspan class="cls-12" x="117.89" y="0">r</tspan><tspan x="122.02" y="0">es en </tspan><tspan class="cls-11" x="152.72" y="0">t</tspan><tspan x="157" y="0">ermes de </tspan></text><text class="cls-9" transform="translate(26.55 232.89)">boissons, <tspan class="cls-34" x="51.29" y="0">S</tspan><tspan x="57.71" y="0">an </tspan><tspan class="cls-35" x="73.45" y="0">P</tspan><tspan x="80.33" y="0">ellegrino </tspan><tspan class="cls-20" x="128.73" y="0">e</tspan><tspan class="cls-13" x="135.02" y="0">t </tspan><tspan class="cls-36" x="142.4" y="0">E</tspan><tspan x="149.05" y="0">vian pou</tspan><tspan class="cls-14" x="194.07" y="0">r</tspan><tspan x="198.19" y="0" xml:space="preserve"> l</tspan><tspan class="cls-37" x="204.09" y="0">’</tspan><tspan x="206.27" y="0">eau </tspan></text><text class="cls-9" transform="translate(26.55 247.89)"><tspan class="cls-20">e</tspan><tspan x="6.29" y="0">t </tspan><tspan class="cls-18" x="13.67" y="0">D</tspan><tspan x="22.71" y="0">om </tspan><tspan class="cls-35" x="42.46" y="0">P</tspan><tspan x="49.34" y="0">érignon pou</tspan><tspan class="cls-14" x="112.65" y="0">r</tspan><tspan x="116.77" y="0" xml:space="preserve"> le champagne, ainsi </tspan></text><text class="cls-9" transform="translate(26.55 262.89)">que <tspan class="cls-38" x="22.82" y="0">D</tspan><tspan x="31.79" y="0">all</tspan><tspan class="cls-39" x="43.42" y="0">o</tspan><tspan class="cls-40" x="50.03" y="0">y</tspan><tspan x="56.09" y="0">au pou</tspan><tspan class="cls-14" x="92.04" y="0">r</tspan><tspan x="96.16" y="0" xml:space="preserve"> la partie t</tspan><tspan class="cls-32" x="149.25" y="0">r</tspan><tspan x="153.53" y="0">ai</tspan><tspan class="cls-11" x="162.37" y="0">t</tspan><tspan class="cls-13" x="166.64" y="0">eu</tspan><tspan class="cls-14" x="179.67" y="0">r</tspan><tspan class="cls-13" x="183.78" y="0" xml:space="preserve"> de nos </tspan></text><text class="cls-9" transform="translate(26.55 277.89)"><tspan class="cls-41">é</tspan><tspan class="cls-17" x="6.2" y="0">v</tspan><tspan x="12.23" y="0">èneme</tspan><tspan class="cls-18" x="47.8" y="0">n</tspan><tspan x="54.41" y="0">ts.</tspan></text></g><g id="Particulièrement_nous_remercions_Lemon_Square_notre_agence_de_communication_pour_sa_contribution_importante._" data-name="Particulièrement nous remercions Lemon Square notre agence de communication pour sa contribution importante. " class="cls-4"><text class="cls-9" transform="translate(440.55 139.89)"><tspan class="cls-39">P</tspan><tspan x="7.01" y="0">articuliè</tspan><tspan class="cls-12" x="49.21" y="0">r</tspan><tspan x="53.33" y="0">eme</tspan><tspan class="cls-18" x="75.87" y="0">n</tspan><tspan class="cls-13" x="82.48" y="0">t, nous </tspan><tspan class="cls-12" x="121.04" y="0">r</tspan><tspan x="125.16" y="0">eme</tspan><tspan class="cls-12" x="147.7" y="0">r</tspan><tspan x="151.82" y="0">cions </tspan><tspan class="cls-42" x="182.2" y="0">L</tspan><tspan x="187.92" y="0">emon </tspan></text><text class="cls-9" transform="translate(440.55 154.89)"><tspan class="cls-43">S</tspan><tspan x="6.47" y="0">qua</tspan><tspan class="cls-12" x="25.85" y="0">r</tspan><tspan class="cls-13" x="29.97" y="0">e, n</tspan><tspan class="cls-27" x="48.8" y="0">o</tspan><tspan class="cls-13" x="55.49" y="0">t</tspan><tspan class="cls-12" x="59.8" y="0">r</tspan><tspan x="63.92" y="0">e a</tspan><tspan class="cls-44" x="79.29" y="0">g</tspan><tspan x="85.43" y="0">en</tspan><tspan class="cls-27" x="98.47" y="0">c</tspan><tspan class="cls-13" x="104.09" y="0">e de </tspan><tspan class="cls-27" x="129.62" y="0">c</tspan><tspan x="135.25" y="0">ommunic</tspan><tspan class="cls-45" x="183.79" y="0">a</tspan><tspan x="189.67" y="0">tion </tspan></text><text class="cls-9" transform="translate(440.55 169.89)">pou<tspan class="cls-15" x="20.22" y="0">r</tspan><tspan class="cls-13" x="24.34" y="0" xml:space="preserve"> sa </tspan><tspan class="cls-27" x="41.64" y="0">c</tspan><tspan x="47.26" y="0">o</tspan><tspan class="cls-34" x="54.07" y="0">n</tspan><tspan x="60.68" y="0">tribution importa</tspan><tspan class="cls-34" x="150.51" y="0">n</tspan><tspan class="cls-11" x="157.13" y="0">t</tspan><tspan x="161.4" y="0">e.</tspan></text></g></g></g></svg>