<svg xmlns="http://www.w3.org/2000/svg" viewBox="0 0 701.1 340.28"><defs><style>.cls-1{fill:#1a1a1a;}.cls-2{fill:#282828;}.cls-19,.cls-20,.cls-3,.cls-5{fill:#fff;}.cls-3{stroke:#272525;stroke-miterlimit:10;}.cls-19,.cls-4,.cls-5{isolation:isolate;}.cls-5{font-size:14px;font-family:Lato-Bold, Lato;}.cls-19,.cls-5{font-weight:700;}.cls-6{letter-spacing:-0.02em;}.cls-7{letter-spacing:-0.02em;}.cls-8{letter-spacing:-0.01em;}.cls-9{letter-spacing:-0.01em;}.cls-10{letter-spacing:-0.01em;}.cls-11{letter-spacing:0em;}.cls-12{letter-spacing:0em;}.cls-13{letter-spacing:-0.01em;}.cls-14{letter-spacing:0em;}.cls-15{letter-spacing:-0.01em;}.cls-16{letter-spacing:-0.01em;}.cls-17{letter-spacing:-0.02em;}.cls-18{fill:none;}.cls-19{font-size:23px;font-family:PrestijDemo-Bold, Prestij Demo;}</style></defs><g id="Calque_2" data-name="Calque 2"><g id="Calque_1-2" data-name="Calque 1"><g id="Groupe_6" data-name="Groupe 6"><path id="Tracé_2" data-name="Tracé 2" class="cls-1" d="M392.39,95.23s16.08-3.92,55.15-27.93S498,40,566,20.9s86.28-24,90.35-19.13,44,86.69,44.77,166c-5.12,67.7-21.44,122.24-34.44,162.44a14.47,14.47,0,0,1-17.44,9.54c-38-9.94-146.11-38.7-163.83-49.07-21.57-12.61-75.7-45.58-87.1-73.66-8.54-11.8-7.94-20.88-7.94-20.88Z"/><path id="Tracé_3" data-name="Tracé 3" class="cls-1" d="M308.71,95.23s-16.08-3.92-55.15-27.93S203.09,40,135.12,20.9,48.84-3.12,44.77,1.77.82,88.46,0,167.82c5.12,67.7,21.44,122.24,34.44,162.44a14.47,14.47,0,0,0,17.44,9.54c38-9.94,146.11-38.7,163.83-49.07,21.57-12.61,75.7-45.58,87.1-73.66,8.54-11.8,7.94-20.88,7.94-20.88Z"/><path id="Tracé_4" data-name="Tracé 4" class="cls-2" d="M392.36,138.61c60.47,26.31,135.92,17.6,189.56-20.78a316.29,316.29,0,0,1-190.63-.94l-.88,19.6-1.08-1.17-1.78,35.47c61.72,55.32,146.45,87.8,229.13,81.92C531.51,243.09,450.32,201.73,392.36,138.61Z"/><path id="Tracé_5" data-name="Tracé 5" class="cls-2" d="M308.75,138.61c-60.48,26.31-135.93,17.6-189.57-20.78a316.29,316.29,0,0,0,190.63-.94l.88,19.6,1.08-1.17,1.78,35.47c-61.72,55.32-146.45,87.8-229.13,81.92C169.6,243.09,250.78,201.73,308.75,138.61Z"/><path id="Tracé_6" data-name="Tracé 6" class="cls-3" d="M396.57,107.81q-.92-3.56-2.1-7c-.38-1.14-.79-2.27-1.23-3.4-.27-.72-.56-1.44-.86-2.15a4.87,4.87,0,0,0-2.32-2.67c-1.82-1-4.05-.94-6.14-.81-11.2.7-23.07,3.42-33.37,3-10.3.4-22.18-2.32-33.37-3-2.09-.13-4.32-.23-6.14.81a4.93,4.93,0,0,0-2.33,2.67c-.29.71-.58,1.43-.86,2.15-.43,1.13-.84,2.26-1.23,3.4q-1.17,3.48-2.1,7c-4,15.46-4.08,31.6-2.24,47.38.92,7.95,2.31,15.84,3.91,23.68,1.08,5.3,1.06,12.95,4.55,17.33,2.22,2.8,6.36,2.31,9.33,1.2a87.33,87.33,0,0,1,60.95,0c3,1.1,7.1,1.6,9.33-1.2,3.49-4.38,3.48-12,4.56-17.33,1.59-7.84,3-15.73,3.9-23.68C400.65,139.41,400.57,123.27,396.57,107.81Z"/></g><g id="Pour_plus_d_informations_téléchargez_notre_PDF" data-name="Pour plus d informations téléchargez notre PDF" class="cls-4"><text class="cls-5" transform="translate(17.55 151.89)"><tspan class="cls-6">P</tspan><tspan x="8.34" y="0">ou</tspan><tspan class="cls-7" x="24.28" y="0">r</tspan><tspan x="29.2" y="0" xml:space="preserve"> plus d’i</tspan><tspan class="cls-8" x="76.07" y="0">n</tspan><tspan class="cls-9" x="83.84" y="0">f</tspan><tspan x="88.67" y="0">orm</tspan><tspan class="cls-10" x="113.66" y="0">a</tspan><tspan class="cls-11" x="120.67" y="0">tions, </tspan><tspan class="cls-12" x="158.45" y="0">t</tspan><tspan x="163.6" y="0">élécha</tspan><tspan class="cls-13" x="203.78" y="0">r</tspan><tspan class="cls-8" x="208.93" y="0">g</tspan><tspan class="cls-14" x="216.19" y="0">ez n</tspan><tspan class="cls-15" x="241.4" y="0">o</tspan><tspan x="249.3" y="0">t</tspan><tspan class="cls-16" x="254.51" y="0">r</tspan><tspan class="cls-14" x="259.53" y="0">e </tspan></text><text class="cls-5" transform="translate(137.43 168.89)">PD<tspan class="cls-17" x="19.31" y="0">F</tspan></text></g><g id="Layer_2" data-name="Layer 2"><g id="Layer_1" data-name="Layer 1"><rect id="Rectangle_5" data-name="Rectangle 5" class="cls-18" x="429.24" y="36.58" width="230.31" height="230.31"/><g id="SIMON_LAKS" data-name="SIMON LAKS" class="cls-4"><text class="cls-19" transform="translate(473.65 235.83)">SIMON LAKS</text></g><path id="Tracé_7" data-name="Tracé 7" class="cls-20" d="M483.19,154c4.45,11.14,11.47,10.44,11.47,10.44h26.55q8.61,0,12.71-2.6,5.22-3.15,5.21-11.07,0-7.77-6.21-11-3.7-2-13.63-3.71-13.17-2.4-18.08-5.36-8.22-5-8.22-16.08,0-9.93,6.56-15.41Q505.72,94,516.89,94h35.36v7.8H516.91q-8,0-11.77,2.86-4.29,3.26-4.31,9.87a10.55,10.55,0,0,0,6.22,10q3.7,2,13.62,3.75,13.19,2.4,18.09,5.36,8.22,5,8.21,17.09,0,11.32-7.41,16.73-6.46,4.74-18.34,4.74H494.67s-11.91.35-16.26-13.91Z"/><path id="Tracé_8" data-name="Tracé 8" class="cls-20" d="M592.73,172.22H572.27a21,21,0,0,1-20.94-20.94V94h7.81v57.28a13.18,13.18,0,0,0,13.13,13.07h20.81s9.57,1.54,13.59-14.07l5.21,1.78S610.22,170.77,592.73,172.22Z"/><path id="Tracé_9" data-name="Tracé 9" class="cls-20" d="M544.39,203.86a70.75,70.75,0,1,1,70.75-70.74h0A70.82,70.82,0,0,1,544.39,203.86Zm0-134.94a64.2,64.2,0,1,0,64.2,64.2A64.2,64.2,0,0,0,544.39,68.92Z"/></g></g></g></g></svg>