<svg xmlns="http://www.w3.org/2000/svg" viewBox="0 0 701.1 340.28"><defs><style>.cls-1{fill:#1a1a1a;}.cls-2{fill:#282828;}.cls-21,.cls-3,.cls-5{fill:#fff;}.cls-3{stroke:#272525;stroke-miterlimit:10;}.cls-21,.cls-4,.cls-5{isolation:isolate;}.cls-5{font-size:10px;}.cls-21,.cls-5{font-family:Lato-Regular, Lato;}.cls-6{letter-spacing:-0.01em;}.cls-7{letter-spacing:0em;}.cls-8{letter-spacing:-0.01em;}.cls-9{letter-spacing:-0.01em;}.cls-10{letter-spacing:-0.04em;}.cls-11{letter-spacing:0em;}.cls-12{letter-spacing:-0.02em;}.cls-13{letter-spacing:0em;}.cls-14{letter-spacing:0em;}.cls-15{letter-spacing:-0.01em;}.cls-16{letter-spacing:-0.02em;}.cls-17{letter-spacing:-0.01em;}.cls-18{letter-spacing:-0.02em;}.cls-19{letter-spacing:-0.02em;}.cls-20{letter-spacing:-0.07em;}.cls-21{font-size:12px;}.cls-22{letter-spacing:-0.01em;}.cls-23{letter-spacing:-0.01em;}.cls-24{letter-spacing:0em;}.cls-25{letter-spacing:0em;}.cls-26{letter-spacing:-0.01em;}.cls-27{letter-spacing:-0.01em;}.cls-28{letter-spacing:-0.02em;}.cls-29{letter-spacing:-0.01em;}.cls-30{letter-spacing:-0.01em;}.cls-31{letter-spacing:-0.02em;}.cls-32{letter-spacing:-0.01em;}.cls-33{letter-spacing:-0.07em;}.cls-34{letter-spacing:-0.02em;}.cls-35{letter-spacing:0em;}.cls-36{letter-spacing:-0.01em;}.cls-37{letter-spacing:0em;}.cls-38{letter-spacing:-0.01em;}.cls-39{letter-spacing:0em;}.cls-40{letter-spacing:-0.02em;}.cls-41{letter-spacing:0em;}.cls-42{letter-spacing:0em;}.cls-43{letter-spacing:-0.02em;}.cls-44{letter-spacing:-0.01em;}.cls-45{letter-spacing:-0.03em;}</style></defs><g id="Calque_2" data-name="Calque 2"><g id="Calque_1-2" data-name="Calque 1"><g id="Groupe_6" data-name="Groupe 6"><path id="Tracé_2" data-name="Tracé 2" class="cls-1" d="M392.39,95.23s16.08-3.92,55.15-27.93S498,40,566,20.9s86.28-24,90.35-19.13,44,86.69,44.77,166c-5.12,67.7-21.44,122.24-34.44,162.44a14.47,14.47,0,0,1-17.44,9.54c-38-9.94-146.11-38.7-163.83-49.07-21.57-12.61-75.7-45.58-87.1-73.66-8.54-11.8-7.94-20.88-7.94-20.88Z"/><path id="Tracé_3" data-name="Tracé 3" class="cls-1" d="M308.71,95.23s-16.08-3.92-55.15-27.93S203.09,40,135.12,20.9,48.84-3.12,44.77,1.77.82,88.46,0,167.82c5.12,67.7,21.44,122.24,34.44,162.44a14.47,14.47,0,0,0,17.44,9.54c38-9.94,146.11-38.7,163.83-49.07,21.57-12.61,75.7-45.58,87.1-73.66,8.54-11.8,7.94-20.88,7.94-20.88Z"/><path id="Tracé_4" data-name="Tracé 4" class="cls-2" d="M392.36,138.61c60.47,26.31,135.92,17.6,189.56-20.78a316.29,316.29,0,0,1-190.63-.94l-.88,19.6-1.08-1.17-1.78,35.47c61.72,55.32,146.45,87.8,229.13,81.92C531.51,243.09,450.32,201.73,392.36,138.61Z"/><path id="Tracé_5" data-name="Tracé 5" class="cls-2" d="M308.75,138.61c-60.48,26.31-135.93,17.6-189.57-20.78a316.29,316.29,0,0,0,190.63-.94l.88,19.6,1.08-1.17,1.78,35.47c-61.72,55.32-146.45,87.8-229.13,81.92C169.6,243.09,250.78,201.73,308.75,138.61Z"/><path id="Tracé_6" data-name="Tracé 6" class="cls-3" d="M396.57,107.81q-.92-3.56-2.1-7c-.38-1.14-.79-2.27-1.23-3.4-.27-.72-.56-1.44-.86-2.15a4.87,4.87,0,0,0-2.32-2.67c-1.82-1-4.05-.94-6.14-.81-11.2.7-23.07,3.42-33.37,3-10.3.4-22.18-2.32-33.37-3-2.09-.13-4.32-.23-6.14.81a4.93,4.93,0,0,0-2.33,2.67c-.29.71-.58,1.43-.86,2.15-.43,1.13-.84,2.26-1.23,3.4q-1.17,3.48-2.1,7c-4,15.46-4.08,31.6-2.24,47.38.92,7.95,2.31,15.84,3.91,23.68,1.08,5.3,1.06,12.95,4.55,17.33,2.22,2.8,6.36,2.31,9.33,1.2a87.33,87.33,0,0,1,60.95,0c3,1.1,7.1,1.6,9.33-1.2,3.49-4.38,3.48-12,4.56-17.33,1.59-7.84,3-15.73,3.9-23.68C400.65,139.41,400.57,123.27,396.57,107.81Z"/></g><g id="Agence_de_communication_Lemon_Square_Alexandra_Bernard_06_16_73_24_24_lemonsquare.agency_gmail.com_Instagram_:_lemonsquare_agency_Page_Facebook_:_Lemon_Square" data-name="Agence de communication Lemon Square Alexandra Bernard 06 16 73 24 24 lemonsquare.agency gmail.com Instagram : lemonsquare agency Page Facebook : Lemon Square" class="cls-4"><text class="cls-5" transform="translate(64.55 200.89)">A<tspan class="cls-6" x="6.77" y="0">g</tspan><tspan class="cls-7" x="11.89" y="0">en</tspan><tspan class="cls-8" x="22.75" y="0">c</tspan><tspan x="27.44" y="0">e de </tspan><tspan class="cls-8" x="48.71" y="0">c</tspan><tspan x="53.4" y="0">ommunic</tspan><tspan class="cls-9" x="93.85" y="0">a</tspan><tspan x="98.75" y="0">tion</tspan></text><text class="cls-5" transform="translate(64.55 212.89)"><tspan class="cls-10">L</tspan><tspan x="4.77" y="0">emon </tspan><tspan class="cls-11" x="32.08" y="0">S</tspan><tspan x="37.48" y="0">qua</tspan><tspan class="cls-12" x="53.62" y="0">r</tspan><tspan class="cls-7" x="57.06" y="0">e</tspan></text><text class="cls-5" transform="translate(64.55 224.89)"><tspan class="cls-13">A</tspan><tspan x="6.75" y="0">l</tspan><tspan class="cls-9" x="9.11" y="0">e</tspan><tspan class="cls-14" x="14.33" y="0">xand</tspan><tspan class="cls-6" x="35.45" y="0">r</tspan><tspan class="cls-7" x="39.01" y="0">a </tspan><tspan class="cls-15" x="46.54" y="0">B</tspan><tspan class="cls-7" x="52.93" y="0">erna</tspan><tspan class="cls-16" x="72.4" y="0">r</tspan><tspan x="75.85" y="0">d</tspan></text><text class="cls-5" transform="translate(64.55 236.89)">06 16 73 24 24</text><text class="cls-5" transform="translate(64.55 248.89)">lemonsqua<tspan class="cls-12" x="47.59" y="0">r</tspan><tspan class="cls-7" x="51.02" y="0">e.a</tspan><tspan class="cls-17" x="63.63" y="0">g</tspan><tspan x="68.75" y="0">ency@gmail.</tspan><tspan class="cls-8" x="123.42" y="0">c</tspan><tspan class="cls-14" x="128.11" y="0">om</tspan></text><text class="cls-5" transform="translate(64.55 260.89)"><tspan class="cls-15">I</tspan><tspan x="2.73" y="0">nstag</tspan><tspan class="cls-6" x="26.39" y="0">r</tspan><tspan class="cls-7" x="29.95" y="0">am : @lemonsqua</tspan><tspan class="cls-12" x="106.72" y="0">r</tspan><tspan x="110.15" y="0">e_a</tspan><tspan class="cls-6" x="124.99" y="0">g</tspan><tspan class="cls-7" x="130.11" y="0">enc</tspan><tspan class="cls-18" x="145.75" y="0">y</tspan></text><text class="cls-5" transform="translate(64.55 272.89)"><tspan class="cls-19">P</tspan><tspan x="5.85" y="0">a</tspan><tspan class="cls-17" x="10.81" y="0">g</tspan><tspan x="15.94" y="0">e </tspan><tspan class="cls-20" x="23.77" y="0">F</tspan><tspan class="cls-7" x="28.72" y="0">a</tspan><tspan class="cls-8" x="33.69" y="0">c</tspan><tspan x="38.38" y="0">ebook : </tspan><tspan class="cls-10" x="73.29" y="0">L</tspan><tspan x="78.06" y="0">emon </tspan><tspan class="cls-11" x="105.38" y="0">S</tspan><tspan x="110.77" y="0">qua</tspan><tspan class="cls-12" x="126.92" y="0">r</tspan><tspan x="130.35" y="0">e</tspan></text></g><g id="Commercialisation_Simon_Laks_Inès_Richard_07_71_23_89_81_simon.laks_gmail.com_Instagram_:_simon_laks_Page_Facebook_:_Simon_Laks" data-name="Commercialisation Simon Laks Inès Richard 07 71 23 89 81 simon.laks gmail.com Instagram : simon laks Page Facebook : Simon Laks" class="cls-4"><text class="cls-21" transform="translate(471.55 120.89)"><tspan class="cls-22">C</tspan><tspan x="7.9" y="0">omme</tspan><tspan class="cls-12" x="40.78" y="0">r</tspan><tspan x="44.9" y="0">cialis</tspan><tspan class="cls-23" x="70.38" y="0">a</tspan><tspan class="cls-24" x="76.27" y="0">tion</tspan></text><text class="cls-21" transform="translate(471.55 135.89)"><tspan class="cls-25">S</tspan><tspan x="6.46" y="0">imon Laks</tspan></text><text class="cls-21" transform="translate(471.55 150.89)"><tspan class="cls-26">I</tspan><tspan x="3.27" y="0">nès </tspan><tspan class="cls-27" x="24.57" y="0">R</tspan><tspan x="32" y="0">icha</tspan><tspan class="cls-28" x="53.27" y="0">r</tspan><tspan class="cls-24" x="57.41" y="0">d</tspan></text><text class="cls-21" transform="translate(471.55 165.89)">07 71 23 89 81</text><text class="cls-21" transform="translate(471.55 180.89)">simon.laks@gmail.<tspan class="cls-29" x="95.02" y="0">c</tspan><tspan x="100.64" y="0">om</tspan></text><text class="cls-21" transform="translate(471.55 195.89)"><tspan class="cls-26">I</tspan><tspan x="3.27" y="0">nstag</tspan><tspan class="cls-30" x="31.67" y="0">r</tspan><tspan x="35.94" y="0">am : @simon_laks</tspan></text><text class="cls-21" transform="translate(471.55 210.89)"><tspan class="cls-31">P</tspan><tspan x="7.01" y="0">a</tspan><tspan class="cls-32" x="12.98" y="0">g</tspan><tspan x="19.12" y="0">e </tspan><tspan class="cls-33" x="28.53" y="0">F</tspan><tspan x="34.46" y="0">a</tspan><tspan class="cls-29" x="40.43" y="0">c</tspan><tspan x="46.05" y="0">ebook : </tspan><tspan class="cls-25" x="87.95" y="0">S</tspan><tspan x="94.41" y="0">imon Laks</tspan></text></g><g id="Notre_marque_se_destine_à_des_hommes_âgés_de_30_à_39_ans_des_clients_dynamiques_qui_apprécient_le_style_Sartorial_haut_de_gamme._En_effet_les_costumes_de_cette_collection_se_vendent_entre_550_et_1100_c_est_pourquoi_nous_les_destinons_à_une_clientèle_h" data-name="Notre marque se destine à des hommes âgés de 30 à 39 ans des clients dynamiques qui apprécient le style Sartorial haut de gamme. En effet les costumes de cette collection se vendent entre 550 et 1100 c est pourquoi nous les destinons à une clientèle h" class="cls-4"><text class="cls-21" transform="translate(23.55 79.89)"><tspan class="cls-34">N</tspan><tspan class="cls-29" x="8.98" y="0">o</tspan><tspan x="15.67" y="0">t</tspan><tspan class="cls-12" x="19.97" y="0">r</tspan><tspan class="cls-35" x="24.1" y="0">e ma</tspan><tspan class="cls-16" x="49.34" y="0">r</tspan><tspan x="53.47" y="0">que se destine à des hommes </tspan></text><text class="cls-21" transform="translate(23.55 94.89)">â<tspan class="cls-32" x="5.96" y="0">g</tspan><tspan x="12.11" y="0">és de 30 à 39 ans, des clie</tspan><tspan class="cls-36" x="148.61" y="0">n</tspan><tspan x="155.22" y="0">ts dynamiques </tspan></text><text class="cls-21" transform="translate(23.55 109.89)">qui app<tspan class="cls-12" x="38.78" y="0">r</tspan><tspan x="42.9" y="0">écie</tspan><tspan class="cls-36" x="64.18" y="0">n</tspan><tspan x="70.79" y="0">t le style </tspan><tspan class="cls-36" x="118.33" y="0">S</tspan><tspan x="124.76" y="0">ar</tspan><tspan class="cls-37" x="135.09" y="0">t</tspan><tspan x="139.36" y="0">orial haut de </tspan></text><text class="cls-21" transform="translate(23.55 124.89)">gamme. <tspan class="cls-38" x="44.18" y="0">E</tspan><tspan x="50.95" y="0">n </tspan><tspan class="cls-39" x="60.71" y="0">e</tspan><tspan class="cls-40" x="66.99" y="0">ff</tspan><tspan class="cls-41" x="74.78" y="0">e</tspan><tspan x="81.07" y="0">t, les </tspan><tspan class="cls-29" x="108.61" y="0">c</tspan><tspan x="114.23" y="0">ostumes de </tspan><tspan class="cls-29" x="177.82" y="0">c</tspan><tspan class="cls-41" x="183.44" y="0">et</tspan><tspan class="cls-42" x="189.74" y="0">t</tspan><tspan x="197.9" y="0">e </tspan></text><text class="cls-21" transform="translate(23.55 139.89)"><tspan class="cls-29">c</tspan><tspan x="5.62" y="0">ollection se</tspan><tspan class="cls-43" x="65.65" y="0"> </tspan><tspan class="cls-38" x="68.44" y="0">v</tspan><tspan x="74.46" y="0">ende</tspan><tspan class="cls-36" x="100.55" y="0">n</tspan><tspan x="107.16" y="0">t e</tspan><tspan class="cls-36" x="120.87" y="0">n</tspan><tspan x="127.48" y="0">t</tspan><tspan class="cls-12" x="131.78" y="0">r</tspan><tspan x="135.91" y="0">e 550€ </tspan><tspan class="cls-41" x="176.22" y="0">e</tspan><tspan class="cls-35" x="182.52" y="0">t 1100€, </tspan></text><text class="cls-21" transform="translate(23.55 154.89)"><tspan class="cls-44">c</tspan><tspan class="cls-45" x="5.66" y="0">’</tspan><tspan x="7.84" y="0">est pou</tspan><tspan class="cls-28" x="46.97" y="0">r</tspan><tspan class="cls-24" x="51.1" y="0">quoi nous les destinons à une </tspan></text><text class="cls-21" transform="translate(23.55 169.89)">clie<tspan class="cls-27" x="17.78" y="0">n</tspan><tspan class="cls-42" x="24.39" y="0">t</tspan><tspan x="28.66" y="0">èle haut de gamme.</tspan></text></g></g></g></svg>