<svg xmlns="http://www.w3.org/2000/svg" viewBox="0 0 701.1 340.28"><defs><style>.cls-1{fill:#1a1a1a;}.cls-2{fill:#282828;}.cls-3,.cls-34,.cls-5{fill:#fff;}.cls-3{stroke:#272525;stroke-miterlimit:10;}.cls-34,.cls-4,.cls-5{isolation:isolate;}.cls-5{font-size:12px;font-family:Lato-Regular, Lato;}.cls-6{letter-spacing:-0.02em;}.cls-7{letter-spacing:0em;}.cls-8{letter-spacing:0em;}.cls-9{letter-spacing:0em;}.cls-10{letter-spacing:-0.02em;}.cls-11{letter-spacing:-0.01em;}.cls-12{letter-spacing:-0.01em;}.cls-13{letter-spacing:-0.01em;}.cls-14{letter-spacing:-0.01em;}.cls-15{letter-spacing:-0.03em;}.cls-16{letter-spacing:-0.02em;}.cls-17{letter-spacing:-0.01em;}.cls-18{letter-spacing:-0.01em;}.cls-19{letter-spacing:-0.02em;}.cls-20{letter-spacing:-0.01em;}.cls-21{letter-spacing:-0.01em;}.cls-22{letter-spacing:-0.01em;}.cls-23{letter-spacing:-0.02em;}.cls-24{letter-spacing:-0.01em;}.cls-25{letter-spacing:-0.01em;}.cls-26{letter-spacing:-0.01em;}.cls-27{letter-spacing:0em;}.cls-28{letter-spacing:0em;}.cls-29{letter-spacing:-0.01em;}.cls-30{letter-spacing:-0.01em;}.cls-31{letter-spacing:-0.01em;}.cls-32{letter-spacing:-0.01em;}.cls-33{letter-spacing:-0.03em;}.cls-34{font-size:16px;font-family:Lato-Bold, Lato;font-weight:700;}.cls-35{letter-spacing:-0.02em;}.cls-36{letter-spacing:-0.03em;}.cls-37{letter-spacing:-0.02em;}.cls-38{letter-spacing:0em;}</style></defs><g id="Calque_2" data-name="Calque 2"><g id="Calque_1-2" data-name="Calque 1"><g id="Groupe_6" data-name="Groupe 6"><path id="Tracé_2" data-name="Tracé 2" class="cls-1" d="M392.39,95.23s16.08-3.92,55.15-27.93S498,40,566,20.9s86.28-24,90.35-19.13,44,86.69,44.77,166c-5.12,67.7-21.44,122.24-34.44,162.44a14.47,14.47,0,0,1-17.44,9.54c-38-9.94-146.11-38.7-163.83-49.07-21.57-12.61-75.7-45.58-87.1-73.66-8.54-11.8-7.94-20.88-7.94-20.88Z"/><path id="Tracé_3" data-name="Tracé 3" class="cls-1" d="M308.71,95.23s-16.08-3.92-55.15-27.93S203.09,40,135.12,20.9,48.84-3.12,44.77,1.77.82,88.46,0,167.82c5.12,67.7,21.44,122.24,34.44,162.44a14.47,14.47,0,0,0,17.44,9.54c38-9.94,146.11-38.7,163.83-49.07,21.57-12.61,75.7-45.58,87.1-73.66,8.54-11.8,7.94-20.88,7.94-20.88Z"/><path id="Tracé_4" data-name="Tracé 4" class="cls-2" d="M392.36,138.61c60.47,26.31,135.92,17.6,189.56-20.78a316.29,316.29,0,0,1-190.63-.94l-.88,19.6-1.08-1.17-1.78,35.47c61.72,55.32,146.45,87.8,229.13,81.92C531.51,243.09,450.32,201.73,392.36,138.61Z"/><path id="Tracé_5" data-name="Tracé 5" class="cls-2" d="M308.75,138.61c-60.48,26.31-135.93,17.6-189.57-20.78a316.29,316.29,0,0,0,190.63-.94l.88,19.6,1.08-1.17,1.78,35.47c-61.72,55.32-146.45,87.8-229.13,81.92C169.6,243.09,250.78,201.73,308.75,138.61Z"/><path id="Tracé_6" data-name="Tracé 6" class="cls-3" d="M396.57,107.81q-.92-3.56-2.1-7c-.38-1.14-.79-2.27-1.23-3.4-.27-.72-.56-1.44-.86-2.15a4.87,4.87,0,0,0-2.32-2.67c-1.82-1-4.05-.94-6.14-.81-11.2.7-23.07,3.42-33.37,3-10.3.4-22.18-2.32-33.37-3-2.09-.13-4.32-.23-6.14.81a4.93,4.93,0,0,0-2.33,2.67c-.29.71-.58,1.43-.86,2.15-.43,1.13-.84,2.26-1.23,3.4q-1.17,3.48-2.1,7c-4,15.46-4.08,31.6-2.24,47.38.92,7.95,2.31,15.84,3.91,23.68,1.08,5.3,1.06,12.95,4.55,17.33,2.22,2.8,6.36,2.31,9.33,1.2a87.33,87.33,0,0,1,60.95,0c3,1.1,7.1,1.6,9.33-1.2,3.49-4.38,3.48-12,4.56-17.33,1.59-7.84,3-15.73,3.9-23.68C400.65,139.41,400.57,123.27,396.57,107.81Z"/></g><g id="Nous_souhaitons_mettre_en_avant_dans_nos_collections_l_espoir_et_le_courage_pour_symboliser_le_combat_de_cet_homme_et_égayer_nos_créations_qui_seront_fortes." data-name="Nous souhaitons mettre en avant dans nos collections l espoir et le courage pour symboliser le combat de cet homme et égayer nos créations qui seront fortes." class="cls-4"><text class="cls-5" transform="translate(35.55 134.89)"><tspan class="cls-6">N</tspan><tspan x="8.98" y="0">ous souhai</tspan><tspan class="cls-7" x="64.97" y="0">t</tspan><tspan x="69.24" y="0">ons m</tspan><tspan class="cls-8" x="100.88" y="0">e</tspan><tspan class="cls-9" x="107.17" y="0">tt</tspan><tspan class="cls-10" x="115.37" y="0">r</tspan><tspan x="119.49" y="0">e en </tspan><tspan class="cls-11" x="145" y="0">a</tspan><tspan class="cls-12" x="150.84" y="0">v</tspan><tspan x="156.9" y="0">a</tspan><tspan class="cls-13" x="162.86" y="0">n</tspan><tspan x="169.48" y="0">t dans nos </tspan></text><text class="cls-5" transform="translate(35.55 149.89)"><tspan class="cls-14">c</tspan><tspan x="5.62" y="0">ollections l</tspan><tspan class="cls-15" x="62.15" y="0">’</tspan><tspan x="64.33" y="0">espoi</tspan><tspan class="cls-16" x="92.27" y="0">r</tspan><tspan x="96.38" y="0"> </tspan><tspan class="cls-8" x="99.45" y="0">e</tspan><tspan class="cls-9" x="105.75" y="0">t le </tspan><tspan class="cls-14" x="125.36" y="0">c</tspan><tspan x="130.98" y="0">ou</tspan><tspan class="cls-17" x="144.48" y="0">r</tspan><tspan x="148.75" y="0">a</tspan><tspan class="cls-18" x="154.71" y="0">g</tspan><tspan x="160.86" y="0">e pou</tspan><tspan class="cls-19" x="190.49" y="0">r</tspan></text><text class="cls-5" transform="translate(35.55 164.89)"><tspan class="cls-14">s</tspan><tspan x="5.09" y="0">ymbolise</tspan><tspan class="cls-19" x="51.91" y="0">r</tspan><tspan class="cls-9" x="56.03" y="0" xml:space="preserve"> le </tspan><tspan class="cls-14" x="71.34" y="0">c</tspan><tspan x="76.96" y="0">omb</tspan><tspan class="cls-20" x="100.35" y="0">a</tspan><tspan x="106.24" y="0">t de </tspan><tspan class="cls-14" x="129.74" y="0">c</tspan><tspan class="cls-8" x="135.37" y="0">e</tspan><tspan x="141.66" y="0">t homme </tspan><tspan class="cls-8" x="191.68" y="0">e</tspan><tspan x="197.97" y="0">t ég</tspan><tspan class="cls-21" x="217.92" y="0">a</tspan><tspan class="cls-22" x="223.74" y="0">y</tspan><tspan class="cls-9" x="229.76" y="0">e</tspan><tspan class="cls-19" x="236.1" y="0">r</tspan><tspan x="240.21" y="0"> </tspan></text><text class="cls-5" transform="translate(35.55 179.89)">nos c<tspan class="cls-10" x="27.5" y="0">r</tspan><tspan x="31.62" y="0">é</tspan><tspan class="cls-20" x="37.96" y="0">a</tspan><tspan x="43.84" y="0">tions qui se</tspan><tspan class="cls-10" x="103.9" y="0">r</tspan><tspan x="108.02" y="0">o</tspan><tspan class="cls-13" x="114.82" y="0">n</tspan><tspan x="121.43" y="0">t </tspan><tspan class="cls-23" x="128.81" y="0">f</tspan><tspan x="132.82" y="0">or</tspan><tspan class="cls-7" x="143.99" y="0">t</tspan><tspan class="cls-9" x="148.26" y="0">es.</tspan></text></g><g id="Au_niveau_de_notre_cahier_de_tendances_nous_avons_choisis_des_couleurs_sobres_et_simples_pour_mettre_en_avant_l_élégance_de_nos_produits._Nous_avons_également_travaillé_avec_des_matières_naturelles_pour_coller_avec_notre_désir_de_respect_de_l_environne" data-name="Au niveau de notre cahier de tendances nous avons choisis des couleurs sobres et simples pour mettre en avant l élégance de nos produits. Nous avons également travaillé avec des matières naturelles pour coller avec notre désir de respect de l environne" class="cls-4"><text class="cls-5" transform="translate(432.55 142.89)"><tspan class="cls-24">A</tspan><tspan class="cls-9" x="7.97" y="0">u ni</tspan><tspan class="cls-25" x="27.31" y="0">v</tspan><tspan class="cls-9" x="33.34" y="0">eau de n</tspan><tspan class="cls-26" x="78.22" y="0">o</tspan><tspan x="84.92" y="0">t</tspan><tspan class="cls-10" x="89.22" y="0">r</tspan><tspan x="93.34" y="0">e cahie</tspan><tspan class="cls-16" x="130.35" y="0">r</tspan><tspan x="134.47" y="0" xml:space="preserve"> de </tspan><tspan class="cls-7" x="153.67" y="0">t</tspan><tspan x="157.94" y="0">endan</tspan><tspan class="cls-14" x="190.35" y="0">c</tspan><tspan x="195.98" y="0">es nous </tspan></text><text class="cls-5" transform="translate(432.55 157.89)"><tspan class="cls-11">a</tspan><tspan class="cls-25" x="5.84" y="0">v</tspan><tspan class="cls-9" x="11.86" y="0">ons choisis des </tspan><tspan class="cls-14" x="93.41" y="0">c</tspan><tspan x="99.03" y="0">ouleu</tspan><tspan class="cls-27" x="128.38" y="0">r</tspan><tspan x="132.71" y="0">s sob</tspan><tspan class="cls-10" x="159.7" y="0">r</tspan><tspan x="163.82" y="0">es </tspan><tspan class="cls-8" x="178.43" y="0">e</tspan><tspan x="184.72" y="0">t simples </tspan></text><text class="cls-5" transform="translate(432.55 172.89)">pou<tspan class="cls-19" x="20.22" y="0">r</tspan><tspan class="cls-9" x="24.34" y="0" xml:space="preserve"> m</tspan><tspan class="cls-28" x="37.28" y="0">e</tspan><tspan x="43.57" y="0">tt</tspan><tspan class="cls-10" x="51.77" y="0">r</tspan><tspan x="55.89" y="0">e en </tspan><tspan class="cls-11" x="81.4" y="0">a</tspan><tspan class="cls-29" x="87.24" y="0">v</tspan><tspan x="93.3" y="0">a</tspan><tspan class="cls-30" x="99.26" y="0">n</tspan><tspan class="cls-9" x="105.88" y="0">t l</tspan><tspan class="cls-15" x="116.08" y="0">’</tspan><tspan x="118.26" y="0">élégan</tspan><tspan class="cls-14" x="152.66" y="0">c</tspan><tspan x="158.29" y="0">e de nos p</tspan><tspan class="cls-10" x="212.31" y="0">r</tspan><tspan x="216.44" y="0">oduits. </tspan></text><text class="cls-5" transform="translate(432.55 187.89)"><tspan class="cls-6">N</tspan><tspan x="8.98" y="0">ous </tspan><tspan class="cls-11" x="30.74" y="0">a</tspan><tspan class="cls-25" x="36.58" y="0">v</tspan><tspan x="42.6" y="0">ons égaleme</tspan><tspan class="cls-30" x="108.28" y="0">n</tspan><tspan class="cls-9" x="114.89" y="0">t t</tspan><tspan class="cls-17" x="126.57" y="0">r</tspan><tspan class="cls-11" x="130.84" y="0">a</tspan><tspan class="cls-12" x="136.68" y="0">v</tspan><tspan class="cls-9" x="142.74" y="0">aillé </tspan><tspan class="cls-31" x="166.65" y="0">a</tspan><tspan class="cls-25" x="172.49" y="0">v</tspan><tspan x="178.52" y="0">ec des </tspan></text><text class="cls-5" transform="translate(432.55 202.89)">m<tspan class="cls-32" x="9.87" y="0">a</tspan><tspan x="15.76" y="0">tiè</tspan><tspan class="cls-10" x="29.48" y="0">r</tspan><tspan x="33.61" y="0">es n</tspan><tspan class="cls-32" x="54.91" y="0">a</tspan><tspan x="60.79" y="0">tu</tspan><tspan class="cls-10" x="71.78" y="0">r</tspan><tspan x="75.91" y="0">elles pou</tspan><tspan class="cls-19" x="122.73" y="0">r</tspan><tspan class="cls-9" x="126.85" y="0"> </tspan><tspan class="cls-14" x="129.92" y="0">c</tspan><tspan x="135.54" y="0">olle</tspan><tspan class="cls-19" x="154.34" y="0">r</tspan><tspan class="cls-9" x="158.46" y="0"> </tspan><tspan class="cls-11" x="161.53" y="0">a</tspan><tspan class="cls-25" x="167.37" y="0">v</tspan><tspan x="173.39" y="0">ec n</tspan><tspan class="cls-14" x="195.23" y="0">o</tspan><tspan x="201.92" y="0">t</tspan><tspan class="cls-10" x="206.22" y="0">r</tspan><tspan x="210.35" y="0">e dési</tspan><tspan class="cls-19" x="240.89" y="0">r</tspan><tspan class="cls-9" x="245" y="0"> </tspan></text><text class="cls-5" transform="translate(432.55 217.89)">de <tspan class="cls-10" x="16.13" y="0">r</tspan><tspan x="20.25" y="0">espect de l</tspan><tspan class="cls-33" x="76.91" y="0">’</tspan><tspan x="79.09" y="0">e</tspan><tspan class="cls-11" x="85.42" y="0">n</tspan><tspan x="91.99" y="0">vi</tspan><tspan class="cls-10" x="101.06" y="0">r</tspan><tspan x="105.19" y="0">onneme</tspan><tspan class="cls-13" x="147.92" y="0">n</tspan><tspan x="154.54" y="0">t.</tspan></text></g><g id="NOTRE_HISTOIRE" data-name="NOTRE HISTOIRE"><g id="NOTRE_CAHIER_DE_TENDANCE" data-name="NOTRE CAHIER DE TENDANCE" class="cls-4"><text class="cls-34" transform="translate(440.55 99.89)">N<tspan class="cls-35" x="12.33" y="0">O</tspan><tspan x="24.86" y="0">TRE CAHIER DE</tspan><tspan class="cls-36" x="141.35" y="0"> </tspan><tspan x="144.75" y="0">TEN</tspan><tspan class="cls-37" x="175.88" y="0">D</tspan><tspan class="cls-38" x="187.69" y="0">ANCE</tspan></text></g></g></g></g></svg>