<svg xmlns="http://www.w3.org/2000/svg" viewBox="0 0 701.1 340.28"><defs><style>.cls-1,.cls-2,.cls-60{isolation:isolate;}.cls-2,.cls-50{font-size:12px;}.cls-2,.cls-49,.cls-50,.cls-60{fill:#fff;}.cls-2,.cls-50,.cls-60{font-family:Lato-Regular, Lato;}.cls-3{letter-spacing:-0.03em;}.cls-4{letter-spacing:-0.02em;}.cls-5{letter-spacing:-0.01em;}.cls-6{letter-spacing:-0.01em;}.cls-7{letter-spacing:-0.01em;}.cls-8{letter-spacing:-0.01em;}.cls-9{letter-spacing:0em;}.cls-10{letter-spacing:-0.02em;}.cls-11{letter-spacing:-0.01em;}.cls-12{letter-spacing:0em;}.cls-13{letter-spacing:0em;}.cls-14{letter-spacing:-0.01em;}.cls-15{letter-spacing:0em;}.cls-16{letter-spacing:-0.01em;}.cls-17{letter-spacing:0em;}.cls-18{letter-spacing:-0.02em;}.cls-19{letter-spacing:-0.03em;}.cls-20{letter-spacing:-0.01em;}.cls-21{letter-spacing:-0.01em;}.cls-22{letter-spacing:-0.01em;}.cls-23{letter-spacing:-0.01em;}.cls-24{letter-spacing:-0.02em;}.cls-25{letter-spacing:-0.02em;}.cls-26{letter-spacing:-0.04em;}.cls-27{letter-spacing:0em;}.cls-28{letter-spacing:-0.03em;}.cls-29{letter-spacing:0em;}.cls-30{letter-spacing:-0.02em;}.cls-31{letter-spacing:-0.03em;}.cls-32{letter-spacing:-0.01em;}.cls-33{letter-spacing:0em;}.cls-34{letter-spacing:-0.02em;}.cls-35{letter-spacing:-0.03em;}.cls-36{letter-spacing:-0.02em;}.cls-37{letter-spacing:0em;}.cls-38{letter-spacing:-0.02em;}.cls-39{letter-spacing:-0.01em;}.cls-40{letter-spacing:-0.03em;}.cls-41{letter-spacing:-0.04em;}.cls-42{letter-spacing:-0.01em;}.cls-43{letter-spacing:-0.03em;}.cls-44{letter-spacing:-0.01em;}.cls-45{letter-spacing:0em;}.cls-46{letter-spacing:-0.02em;}.cls-47{fill:#141414;}.cls-48{fill:#1e1e1e;}.cls-49{stroke:#1d1c1c;stroke-miterlimit:10;}.cls-51{letter-spacing:-0.02em;}.cls-52{letter-spacing:0em;}.cls-53{letter-spacing:0em;}.cls-54{letter-spacing:0em;}.cls-55{letter-spacing:-0.01em;}.cls-56{letter-spacing:-0.01em;}.cls-57{letter-spacing:-0.01em;}.cls-58{letter-spacing:-0.02em;}.cls-59{letter-spacing:-0.01em;}.cls-60{font-size:10px;}.cls-61{letter-spacing:-0.01em;}.cls-62{letter-spacing:-0.01em;}.cls-63{letter-spacing:-0.03em;}.cls-64{letter-spacing:-0.01em;}.cls-65{letter-spacing:-0.02em;}.cls-66{letter-spacing:-0.04em;}.cls-67{letter-spacing:0em;}.cls-68{letter-spacing:0em;}.cls-69{letter-spacing:0em;}.cls-70{letter-spacing:-0.01em;}.cls-71{letter-spacing:0em;}.cls-72{letter-spacing:-0.01em;}.cls-73{letter-spacing:-0.01em;}.cls-74{letter-spacing:-0.02em;}.cls-75{letter-spacing:-0.01em;}.cls-76{letter-spacing:-0.02em;}.cls-77{letter-spacing:-0.07em;}.cls-78{letter-spacing:-0.03em;}.cls-79{letter-spacing:0em;}.cls-80{letter-spacing:-0.07em;}</style></defs><g id="Calque_2" data-name="Calque 2"><g id="Calque_1-2" data-name="Calque 1"><g id="Groupe_1" data-name="Groupe 1"><g id="Pour_ceux_qui_pratiquaient_la_musique_elle_représentait_un_capital_survie._Pendant_les_cours_instants_que_dure_la_musique_il_retrouve_son_identité._Il" data-name="Pour ceux qui pratiquaient la musique elle représentait un capital survie. Pendant les cours instants que dure la musique il retrouve son identité. Il"><g id="Pour_ceux_qui" data-name="Pour ceux qui" class="cls-1"><text class="cls-2" transform="translate(446.55 75.39)"><tspan class="cls-3">P</tspan><tspan x="6.89" y="0">ou</tspan><tspan class="cls-4" x="20.38" y="0">r</tspan><tspan x="24.5" y="0"> </tspan><tspan class="cls-5" x="27.57" y="0">c</tspan><tspan x="33.19" y="0">eux qui</tspan></text></g><g id="pratiquaient_la_musique_elle_représentait_un_" data-name="pratiquaient la musique elle représentait un " class="cls-1"><text class="cls-2" transform="translate(446.55 90.39)">p<tspan class="cls-6" x="6.73" y="0">r</tspan><tspan class="cls-7" x="11" y="0">a</tspan><tspan x="16.88" y="0">tiquaie</tspan><tspan class="cls-8" x="52.87" y="0">n</tspan><tspan class="cls-9" x="59.48" y="0">t la musique, elle </tspan><tspan class="cls-10" x="150.3" y="0">r</tspan><tspan x="154.43" y="0">ep</tspan><tspan class="cls-10" x="167.49" y="0">r</tspan><tspan x="171.61" y="0">ése</tspan><tspan class="cls-11" x="189.48" y="0">n</tspan><tspan x="196.09" y="0">tait un</tspan></text></g><g id="capital_survie._Pendant_les_cours_instants_que" data-name="capital survie. Pendant les cours instants que" class="cls-1"><text class="cls-2" transform="translate(446.55 105.39)">capital survie. <tspan class="cls-3" x="75.03" y="0">P</tspan><tspan x="81.92" y="0">enda</tspan><tspan class="cls-11" x="107.64" y="0">n</tspan><tspan x="114.25" y="0">t les </tspan><tspan class="cls-5" x="139.06" y="0">c</tspan><tspan x="144.68" y="0">ou</tspan><tspan class="cls-12" x="158.18" y="0">r</tspan><tspan class="cls-9" x="162.51" y="0">s insta</tspan><tspan class="cls-11" x="195.81" y="0">n</tspan><tspan x="202.43" y="0">ts que</tspan></text></g><g id="dure_la_musique_il_retrouve_son_identité._Il_n_est_" data-name="dure la musique il retrouve son identité. Il n est " class="cls-1"><text class="cls-2" transform="translate(446.55 120.39)">du<tspan class="cls-10" x="13.41" y="0">r</tspan><tspan x="17.53" y="0">e la musique il </tspan><tspan class="cls-10" x="95.04" y="0">r</tspan><tspan class="cls-13" x="99.17" y="0">e</tspan><tspan x="105.46" y="0">t</tspan><tspan class="cls-10" x="109.76" y="0">r</tspan><tspan x="113.89" y="0">ou</tspan><tspan class="cls-14" x="127.38" y="0">v</tspan><tspan x="133.4" y="0">e son ide</tspan><tspan class="cls-8" x="180.51" y="0">n</tspan><tspan x="187.13" y="0">ti</tspan><tspan class="cls-15" x="194.52" y="0">t</tspan><tspan x="198.79" y="0">é. </tspan><tspan class="cls-16" x="211.03" y="0">I</tspan><tspan class="cls-17" x="214.3" y="0">l </tspan><tspan class="cls-18" x="220.2" y="0">n</tspan><tspan class="cls-19" x="226.71" y="0">’</tspan><tspan x="228.89" y="0">est</tspan></text></g><g id="plus_un_anonyme_au_crâne_rasé_avec_un" data-name="plus un anonyme au crâne rasé avec un" class="cls-1"><text class="cls-2" transform="translate(446.55 135.39)">plus un ano<tspan class="cls-20" x="60.44" y="0">n</tspan><tspan class="cls-17" x="66.98" y="0">yme au c</tspan><tspan class="cls-21" x="113.9" y="0">r</tspan><tspan x="118.17" y="0">âne </tspan><tspan class="cls-21" x="140.24" y="0">r</tspan><tspan x="144.51" y="0">asé </tspan><tspan class="cls-22" x="165.08" y="0">a</tspan><tspan class="cls-14" x="170.92" y="0">v</tspan><tspan x="176.94" y="0">ec un</tspan></text></g><g id="numéro_tatoué_sur_le_bras_perdu_dans_cette_" data-name="numéro tatoué sur le bras perdu dans cette " class="cls-1"><text class="cls-2" transform="translate(446.55 150.39)">numé<tspan class="cls-10" x="29.59" y="0">r</tspan><tspan x="33.71" y="0">o t</tspan><tspan class="cls-23" x="47.89" y="0">a</tspan><tspan class="cls-15" x="53.78" y="0">t</tspan><tspan x="58.05" y="0">oué su</tspan><tspan class="cls-4" x="92.84" y="0">r</tspan><tspan x="96.95" y="0" xml:space="preserve"> le b</tspan><tspan class="cls-21" x="118.99" y="0">r</tspan><tspan x="123.26" y="0">as, pe</tspan><tspan class="cls-24" x="153.27" y="0">r</tspan><tspan x="157.41" y="0">du dans </tspan><tspan class="cls-5" x="201.54" y="0">c</tspan><tspan class="cls-13" x="207.16" y="0">e</tspan><tspan class="cls-15" x="213.46" y="0">tt</tspan><tspan x="221.62" y="0">e</tspan></text></g><g id="foule._Lors_de_ses_divertissements_très" data-name="foule. Lors de ses divertissements très" class="cls-1"><text class="cls-2" transform="translate(446.55 165.39)"><tspan class="cls-25">f</tspan><tspan class="cls-9" x="4.01" y="0">oule. </tspan><tspan class="cls-26" x="32.57" y="0">L</tspan><tspan x="38.3" y="0">o</tspan><tspan class="cls-27" x="45.1" y="0">r</tspan><tspan x="49.43" y="0">s de ses di</tspan><tspan class="cls-14" x="103.23" y="0">v</tspan><tspan x="109.25" y="0">ertisseme</tspan><tspan class="cls-11" x="160.28" y="0">n</tspan><tspan x="166.9" y="0">ts t</tspan><tspan class="cls-10" x="183.77" y="0">r</tspan><tspan x="187.89" y="0">ès</tspan></text></g><g id="apprécié_des_Allemands_il_n_avait_plus_" data-name="apprécié des Allemands il n avait plus " class="cls-1"><text class="cls-2" transform="translate(446.55 180.39)">app<tspan class="cls-10" x="19.42" y="0">r</tspan><tspan x="23.54" y="0">écié des</tspan><tspan class="cls-28" x="66.14" y="0"> </tspan><tspan class="cls-29" x="68.81" y="0">A</tspan><tspan x="76.91" y="0">llemands il </tspan><tspan class="cls-30" x="135.21" y="0">n</tspan><tspan class="cls-31" x="141.72" y="0">’</tspan><tspan class="cls-22" x="143.98" y="0">a</tspan><tspan class="cls-32" x="149.82" y="0">v</tspan><tspan class="cls-9" x="155.88" y="0">ait plus</tspan></text></g><g id="l_impression_d_être_un_prisonnier_d_un_camp" data-name="l impression d être un prisonnier d un camp" class="cls-1"><text class="cls-2" transform="translate(446.55 195.39)">l’imp<tspan class="cls-10" x="24.87" y="0">r</tspan><tspan class="cls-9" x="28.99" y="0">ession d</tspan><tspan class="cls-19" x="71.89" y="0">’</tspan><tspan class="cls-33" x="74.07" y="0">ê</tspan><tspan class="cls-9" x="80.36" y="0">t</tspan><tspan class="cls-10" x="84.67" y="0">r</tspan><tspan x="88.79" y="0">e un prisonnie</tspan><tspan class="cls-34" x="163.23" y="0">r</tspan><tspan x="167.35" y="0" xml:space="preserve"> d’un camp</tspan></text></g><g id="d_extermination._Mais_cette_position_lui_valut_de_" data-name="d extermination. Mais cette position lui valut de " class="cls-1"><text class="cls-2" transform="translate(446.55 210.39)">d<tspan class="cls-35" x="6.72" y="0">’</tspan><tspan class="cls-23" x="8.9" y="0">e</tspan><tspan class="cls-17" x="15.16" y="0">x</tspan><tspan class="cls-15" x="21.13" y="0">t</tspan><tspan x="25.4" y="0">ermin</tspan><tspan class="cls-23" x="55.55" y="0">a</tspan><tspan class="cls-17" x="61.44" y="0">tion. </tspan><tspan class="cls-36" x="88.24" y="0">M</tspan><tspan x="99.2" y="0">ais </tspan><tspan class="cls-5" x="116.31" y="0">c</tspan><tspan class="cls-33" x="121.93" y="0">et</tspan><tspan class="cls-37" x="128.23" y="0">t</tspan><tspan x="136.39" y="0">e position lui</tspan><tspan class="cls-38" x="203.77" y="0"> </tspan><tspan class="cls-32" x="206.55" y="0">v</tspan><tspan x="212.61" y="0">alut de</tspan></text></g><g id="nombreuses_critiques_car_considéré_comme" data-name="nombreuses critiques car considéré comme" class="cls-1"><text class="cls-2" transform="translate(446.55 225.39)">nomb<tspan class="cls-10" x="30.09" y="0">r</tspan><tspan x="34.21" y="0">euses critiques ca</tspan><tspan class="cls-34" x="127.12" y="0">r</tspan><tspan class="cls-9" x="131.23" y="0"> </tspan><tspan class="cls-5" x="134.3" y="0">c</tspan><tspan x="139.93" y="0">onsidé</tspan><tspan class="cls-10" x="174.56" y="0">r</tspan><tspan x="178.68" y="0">é </tspan><tspan class="cls-5" x="188.09" y="0">c</tspan><tspan x="193.71" y="0">omme</tspan></text></g><g id="un_collaborateur_par_les_autres_prisonniers_du_" data-name="un collaborateur par les autres prisonniers du " class="cls-1"><text class="cls-2" transform="translate(446.55 240.39)">un <tspan class="cls-5" x="16.46" y="0">c</tspan><tspan x="22.08" y="0">ollabo</tspan><tspan class="cls-6" x="54.04" y="0">r</tspan><tspan class="cls-7" x="58.31" y="0">a</tspan><tspan class="cls-15" x="64.19" y="0">t</tspan><tspan class="cls-9" x="68.47" y="0">eu</tspan><tspan class="cls-4" x="81.49" y="0">r</tspan><tspan class="cls-9" x="85.61" y="0" xml:space="preserve"> pa</tspan><tspan class="cls-4" x="101.37" y="0">r</tspan><tspan x="105.49" y="0" xml:space="preserve"> les aut</tspan><tspan class="cls-10" x="142.95" y="0">r</tspan><tspan x="147.07" y="0">es prisonnie</tspan><tspan class="cls-12" x="210.26" y="0">r</tspan><tspan x="214.59" y="0">s du</tspan></text></g><g id="camp._Il_se_sentait_donc_coupable." data-name="camp. Il se sentait donc coupable." class="cls-1"><text class="cls-2" transform="translate(446.55 255.39)">camp. <tspan class="cls-39" x="34.19" y="0">I</tspan><tspan x="37.46" y="0">l se se</tspan><tspan class="cls-8" x="69.5" y="0">n</tspan><tspan class="cls-9" x="76.12" y="0">tait donc </tspan><tspan class="cls-5" x="125.66" y="0">c</tspan><tspan x="131.28" y="0">oupable.</tspan></text></g></g><g id="Simon_Laks_fut_arrêté_en_1941_lors_des_premières_grandes_rafles_interné_à_Beaune-la-_Rolande_puis_à_Drancy_déporté_à_Auschwitz_où_il_demeura_jusqu_à_l" data-name="Simon Laks fut arrêté en 1941 lors des premières grandes rafles interné à Beaune-la- Rolande puis à Drancy déporté à Auschwitz où il demeura jusqu à l"><g id="Rolande_puis_à_Drancy_déporté_à_Auschwitz_où_" data-name="Rolande puis à Drancy déporté à Auschwitz où " class="cls-1"><text class="cls-2" transform="translate(24.55 115.39)"><tspan class="cls-40">R</tspan><tspan class="cls-9" x="7.13" y="0">olande puis à </tspan><tspan class="cls-22" x="79.15" y="0">D</tspan><tspan class="cls-21" x="88.15" y="0">r</tspan><tspan x="92.42" y="0">anc</tspan><tspan class="cls-41" x="110.81" y="0">y</tspan><tspan x="116.55" y="0">, dépor</tspan><tspan class="cls-15" x="153.3" y="0">t</tspan><tspan x="157.57" y="0">é à</tspan><tspan class="cls-28" x="172.94" y="0"> </tspan><tspan class="cls-20" x="175.61" y="0">A</tspan><tspan x="183.59" y="0">usc</tspan><tspan class="cls-15" x="201.2" y="0">h</tspan><tspan x="207.87" y="0">witz où</tspan></text></g><g id="il_demeura_jusqu_à_l_évacuation_du_camp_de" data-name="il demeura jusqu à l évacuation du camp de" class="cls-1"><text class="cls-2" transform="translate(24.55 130.39)">il demeu<tspan class="cls-6" x="44.74" y="0">r</tspan><tspan x="49.01" y="0">a jusqu</tspan><tspan class="cls-31" x="86.22" y="0">’</tspan><tspan x="88.48" y="0">à l</tspan><tspan class="cls-19" x="100.34" y="0">’</tspan><tspan class="cls-42" x="102.52" y="0">év</tspan><tspan x="114.79" y="0">acu</tspan><tspan class="cls-7" x="133.17" y="0">a</tspan><tspan x="139.05" y="0">tion du camp de</tspan></text></g><g id="Birkenau_en_octobre_1944." data-name="Birkenau en octobre 1944." class="cls-1"><text class="cls-2" transform="translate(24.55 160.39)"><tspan class="cls-22">B</tspan><tspan x="7.63" y="0">ir</tspan><tspan class="cls-43" x="14.88" y="0">k</tspan><tspan x="20.63" y="0">enau en oc</tspan><tspan class="cls-37" x="78.03" y="0">t</tspan><tspan x="82.3" y="0">ob</tspan><tspan class="cls-10" x="95.83" y="0">r</tspan><tspan x="99.95" y="0">e 1944.</tspan></text></g><g id="Il_fut_sauvé_par_son_habilité_à_jouer_au_bridge_qui_" data-name="Il fut sauvé par son habilité à jouer au bridge qui " class="cls-1"><text class="cls-2" transform="translate(24.55 175.39)"><tspan class="cls-39">I</tspan><tspan x="3.27" y="0">l fut sau</tspan><tspan class="cls-14" x="45.29" y="0">v</tspan><tspan x="51.32" y="0">é pa</tspan><tspan class="cls-4" x="73.42" y="0">r</tspan><tspan x="77.53" y="0" xml:space="preserve"> son habili</tspan><tspan class="cls-15" x="130.34" y="0">t</tspan><tspan x="134.61" y="0">é à joue</tspan><tspan class="cls-4" x="175.77" y="0">r</tspan><tspan x="179.88" y="0" xml:space="preserve"> au brid</tspan><tspan class="cls-6" x="219.37" y="0">g</tspan><tspan x="225.51" y="0">e qui</tspan></text></g><g id="le_conduisit_ensuite_à_l_orchestre._Il_savait" data-name="le conduisit ensuite à l orchestre. Il savait" class="cls-1"><text class="cls-2" transform="translate(24.55 190.39)">le <tspan class="cls-5" x="12.24" y="0">c</tspan><tspan class="cls-9" x="17.86" y="0">onduisit ensui</tspan><tspan class="cls-15" x="90.9" y="0">t</tspan><tspan x="95.17" y="0">e à l</tspan><tspan class="cls-19" x="116.45" y="0">’</tspan><tspan class="cls-9" x="118.62" y="0">o</tspan><tspan class="cls-10" x="125.43" y="0">r</tspan><tspan class="cls-17" x="129.55" y="0">chest</tspan><tspan class="cls-10" x="157.81" y="0">r</tspan><tspan x="161.93" y="0">e. </tspan><tspan class="cls-39" x="174.17" y="0">I</tspan><tspan x="177.44" y="0">l s</tspan><tspan class="cls-44" x="188.54" y="0">a</tspan><tspan class="cls-32" x="194.38" y="0">v</tspan><tspan x="200.44" y="0">ait</tspan></text></g><g id="jouer_du_violon_et_parler_polonais_cela_lui_permit_" data-name="jouer du violon et parler polonais cela lui permit " class="cls-1"><text class="cls-2" transform="translate(24.55 205.39)">joue<tspan class="cls-4" x="22.71" y="0">r</tspan><tspan x="26.83" y="0" xml:space="preserve"> du</tspan><tspan class="cls-38" x="43.31" y="0"> </tspan><tspan x="46.09" y="0">violon </tspan><tspan class="cls-33" x="81.37" y="0">e</tspan><tspan x="87.67" y="0">t parle</tspan><tspan class="cls-34" x="121.26" y="0">r</tspan><tspan class="cls-9" x="125.38" y="0" xml:space="preserve"> polonais, </tspan><tspan class="cls-5" x="178.15" y="0">c</tspan><tspan x="183.77" y="0">ela lui permit</tspan></text></g><g id="de_monter_les_échelons_jusqu_à_devenir" data-name="de monter les échelons jusqu à devenir" class="cls-1"><text class="cls-2" transform="translate(24.55 220.39)">de mo<tspan class="cls-11" x="32.8" y="0">n</tspan><tspan class="cls-15" x="39.41" y="0">t</tspan><tspan x="43.69" y="0">e</tspan><tspan class="cls-34" x="50.02" y="0">r</tspan><tspan class="cls-9" x="54.14" y="0" xml:space="preserve"> les échelons jusqu</tspan><tspan class="cls-31" x="152.52" y="0">’</tspan><tspan x="154.77" y="0">à d</tspan><tspan class="cls-32" x="170.53" y="0">e</tspan><tspan class="cls-14" x="176.73" y="0">v</tspan><tspan x="182.76" y="0">eni</tspan><tspan class="cls-34" x="198.67" y="0">r</tspan></text></g><g id="chef_d_orchestre_du_camp._C_est_grâce_à_la_" data-name="chef d orchestre du camp. C est grâce à la " class="cls-1"><text class="cls-2" transform="translate(24.55 235.39)">ch<tspan class="cls-45" x="12.43" y="0">e</tspan><tspan class="cls-46" x="18.7" y="0">f</tspan><tspan x="22.69" y="0" xml:space="preserve"> d</tspan><tspan class="cls-19" x="32.48" y="0">’</tspan><tspan x="34.66" y="0">o</tspan><tspan class="cls-10" x="41.46" y="0">r</tspan><tspan x="45.58" y="0">chest</tspan><tspan class="cls-10" x="73.84" y="0">r</tspan><tspan class="cls-9" x="77.96" y="0">e du camp. C</tspan><tspan class="cls-19" x="146.06" y="0">’</tspan><tspan x="148.24" y="0">est g</tspan><tspan class="cls-21" x="173.39" y="0">r</tspan><tspan class="cls-9" x="177.66" y="0">â</tspan><tspan class="cls-5" x="183.62" y="0">c</tspan><tspan x="189.24" y="0">e à la</tspan></text></g><g id="musique_qu_il_a_survécu." data-name="musique qu il a survécu." class="cls-1"><text class="cls-2" transform="translate(24.55 250.39)">musique qu’il a sur<tspan class="cls-14" x="97.5" y="0">v</tspan><tspan x="103.52" y="0">écu.</tspan></text></g></g><g id="Groupe_6" data-name="Groupe 6"><path id="Tracé_2" data-name="Tracé 2" class="cls-47" d="M392.38,95.23s16.09-3.92,55.16-27.93S498,40,566,20.9s86.28-24,90.35-19.13,43.95,86.69,44.77,166c-5.13,67.7-21.44,122.24-34.44,162.44a14.47,14.47,0,0,1-17.44,9.54c-38-9.94-146.11-38.7-163.83-49.07-21.57-12.61-75.7-45.58-87.1-73.66-8.54-11.8-7.94-20.88-7.94-20.88Z"/><path id="Tracé_3" data-name="Tracé 3" class="cls-47" d="M308.71,95.23s-16.08-3.92-55.15-27.93S203.09,40,135.12,20.9,48.84-3.12,44.77,1.77.81,88.46,0,167.82c5.12,67.7,21.44,122.24,34.44,162.44a14.47,14.47,0,0,0,17.44,9.54c38-9.94,146.11-38.7,163.83-49.07,21.57-12.61,75.7-45.58,87.1-73.66,8.54-11.8,7.94-20.88,7.94-20.88Z"/><path id="Tracé_4" data-name="Tracé 4" class="cls-48" d="M392.35,138.61c60.48,26.31,135.93,17.6,189.57-20.78a316.29,316.29,0,0,1-190.63-.94l-.88,19.6-1.08-1.17-1.78,35.47c61.72,55.32,146.45,87.8,229.13,81.92C531.51,243.09,450.32,201.73,392.35,138.61Z"/><path id="Tracé_5" data-name="Tracé 5" class="cls-48" d="M308.74,138.61c-60.47,26.31-135.92,17.6-189.56-20.78a316.29,316.29,0,0,0,190.63-.94l.88,19.6,1.07-1.17,1.79,35.47c-61.72,55.32-146.45,87.8-229.13,81.92C169.59,243.09,250.78,201.73,308.74,138.61Z"/><path id="Tracé_6" data-name="Tracé 6" class="cls-49" d="M396.57,107.81q-.92-3.56-2.1-7c-.39-1.14-.8-2.27-1.23-3.4-.28-.72-.56-1.44-.86-2.15a4.87,4.87,0,0,0-2.32-2.67c-1.83-1-4.05-.94-6.14-.81-11.2.7-23.07,3.42-33.37,3-10.3.4-22.18-2.32-33.37-3-2.09-.13-4.32-.23-6.14.81a4.93,4.93,0,0,0-2.33,2.67c-.29.71-.58,1.43-.86,2.15-.43,1.13-.84,2.26-1.23,3.4q-1.19,3.48-2.1,7c-4,15.46-4.08,31.6-2.24,47.38.92,7.95,2.31,15.84,3.9,23.68,1.08,5.3,1.07,12.95,4.56,17.33,2.22,2.8,6.35,2.31,9.33,1.2a87.33,87.33,0,0,1,60.95,0c3,1.1,7.1,1.6,9.33-1.2,3.49-4.38,3.47-12,4.55-17.33,1.6-7.84,3-15.73,3.91-23.68C400.65,139.41,400.57,123.27,396.57,107.81Z"/></g><text class="cls-50" transform="translate(18.85 86.38)"><tspan class="cls-39">O</tspan><tspan x="9.52" y="0">u</tspan><tspan class="cls-4" x="16.21" y="0">r</tspan><tspan x="20.32" y="0" xml:space="preserve"> b</tspan><tspan class="cls-6" x="30.11" y="0">r</tspan><tspan x="34.39" y="0">and is aimed </tspan><tspan class="cls-7" x="102.83" y="0">a</tspan><tspan x="108.71" y="0">t men b</tspan><tspan class="cls-33" x="148.78" y="0">e</tspan><tspan x="155.08" y="0">t</tspan><tspan class="cls-8" x="159.38" y="0">w</tspan><tspan x="168.72" y="0">een 30 and 39 </tspan><tspan class="cls-14" x="0" y="14.4">y</tspan><tspan x="6.02" y="14.4">ea</tspan><tspan class="cls-12" x="18.32" y="14.4">r</tspan><tspan x="22.65" y="14.4">s </tspan><tspan class="cls-32" x="30.92" y="14.4">o</tspan><tspan class="cls-51" x="37.59" y="14.4">f</tspan><tspan x="41.57" y="14.4" xml:space="preserve"> a</tspan><tspan class="cls-6" x="50.61" y="14.4">g</tspan><tspan x="56.75" y="14.4">e, dynamic cus</tspan><tspan class="cls-52" x="133.62" y="14.4">t</tspan><tspan x="137.89" y="14.4">ome</tspan><tspan class="cls-12" x="160.9" y="14.4">r</tspan><tspan class="cls-53" x="165.23" y="14.4">s</tspan><tspan class="cls-10" x="170.43" y="14.4"> </tspan><tspan x="173.26" y="14.4">who app</tspan><tspan class="cls-10" x="218.67" y="14.4">r</tspan><tspan x="222.79" y="14.4">eci</tspan><tspan class="cls-7" x="237.74" y="14.4">a</tspan><tspan class="cls-37" x="243.62" y="14.4">t</tspan><tspan x="247.89" y="14.4">e </tspan><tspan x="0" y="28.8">the high-end </tspan><tspan class="cls-8" x="70.2" y="28.8">S</tspan><tspan x="76.63" y="28.8">ar</tspan><tspan class="cls-37" x="86.96" y="28.8">t</tspan><tspan x="91.23" y="28.8">orial style. </tspan><tspan class="cls-39" x="147.91" y="28.8">I</tspan><tspan class="cls-54" x="151.18" y="28.8">ndeed, the suits </tspan><tspan class="cls-32" x="237.52" y="28.8">o</tspan><tspan class="cls-51" x="244.2" y="28.8">f</tspan><tspan x="248.18" y="28.8"> </tspan><tspan x="0" y="43.2">this </tspan><tspan class="cls-55" x="22.15" y="43.2">c</tspan><tspan x="27.77" y="43.2">ollection sell b</tspan><tspan class="cls-33" x="103.25" y="43.2">e</tspan><tspan x="109.55" y="43.2">t</tspan><tspan class="cls-8" x="113.85" y="43.2">w</tspan><tspan x="123.19" y="43.2">een 550€ and 1100€, </tspan><tspan x="0" y="57.6">th</tspan><tspan class="cls-7" x="11" y="57.6">a</tspan><tspan x="16.88" y="57.6">t</tspan><tspan class="cls-56" x="21.19" y="57.6">&apos;</tspan><tspan x="23.53" y="57.6">s</tspan><tspan class="cls-10" x="28.73" y="57.6"> </tspan><tspan x="31.55" y="57.6">w</tspan><tspan class="cls-57" x="40.98" y="57.6">h</tspan><tspan class="cls-58" x="47.53" y="57.6">y</tspan><tspan class="cls-10" x="53.42" y="57.6"> </tspan><tspan class="cls-8" x="56.25" y="57.6">w</tspan><tspan x="65.59" y="57.6">e </tspan><tspan class="cls-32" x="75" y="57.6">o</tspan><tspan class="cls-25" x="81.67" y="57.6">ff</tspan><tspan x="89.46" y="57.6">e</tspan><tspan class="cls-4" x="95.79" y="57.6">r</tspan><tspan x="99.91" y="57.6" xml:space="preserve"> them </tspan><tspan class="cls-37" x="133.26" y="57.6">t</tspan><tspan x="137.53" y="57.6">o a high end clie</tspan><tspan class="cls-8" x="222.63" y="57.6">n</tspan><tspan class="cls-52" x="229.24" y="57.6">t</tspan><tspan x="233.51" y="57.6">ele.</tspan><tspan class="cls-6" x="0" y="72">r</tspan><tspan x="4.27" y="72">an</tspan><tspan class="cls-59" x="16.93" y="72">g</tspan><tspan x="23.08" y="72">e.</tspan></text></g><g id="Agence_de_communication_Lemon_Square_Alexandra_Bernard_06_16_73_24_24_lemonsquare.agency_gmail.com_Instagram_:_lemonsquare_agency_Page_Facebook_:_Lemon_Square" data-name="Agence de communication Lemon Square Alexandra Bernard 06 16 73 24 24 lemonsquare.agency gmail.com Instagram : lemonsquare agency Page Facebook : Lemon Square" class="cls-1"><text class="cls-60" transform="translate(70.41 190.14)"><tspan class="cls-61">C</tspan><tspan x="6.58" y="0">ommunic</tspan><tspan class="cls-62" x="47.03" y="0">a</tspan><tspan x="51.93" y="0">tion</tspan><tspan class="cls-63" x="69.34" y="0"> </tspan><tspan x="71.57" y="0">A</tspan><tspan class="cls-64" x="78.34" y="0">g</tspan><tspan x="83.46" y="0">enc</tspan><tspan class="cls-65" x="99.09" y="0">y</tspan></text><text class="cls-60" transform="translate(70.41 202.14)"><tspan class="cls-66">L</tspan><tspan x="4.77" y="0">emon </tspan><tspan class="cls-67" x="32.08" y="0">S</tspan><tspan x="37.48" y="0">qua</tspan><tspan class="cls-10" x="53.62" y="0">r</tspan><tspan class="cls-68" x="57.06" y="0">e</tspan></text><text class="cls-60" transform="translate(70.41 214.14)"><tspan class="cls-69">A</tspan><tspan x="6.75" y="0">l</tspan><tspan class="cls-70" x="9.11" y="0">e</tspan><tspan class="cls-71" x="14.33" y="0">xand</tspan><tspan class="cls-72" x="35.45" y="0">r</tspan><tspan class="cls-68" x="39.01" y="0">a </tspan><tspan class="cls-73" x="46.54" y="0">B</tspan><tspan class="cls-68" x="52.93" y="0">erna</tspan><tspan class="cls-74" x="72.4" y="0">r</tspan><tspan x="75.85" y="0">d</tspan></text><text class="cls-60" transform="translate(70.41 226.14)">06 16 73 24 24</text><text class="cls-60" transform="translate(70.41 238.14)">lemonsqua<tspan class="cls-10" x="47.59" y="0">r</tspan><tspan class="cls-68" x="51.02" y="0">e.a</tspan><tspan class="cls-64" x="63.63" y="0">g</tspan><tspan x="68.75" y="0">ency@gmail.</tspan><tspan class="cls-75" x="123.42" y="0">c</tspan><tspan class="cls-71" x="128.11" y="0">om</tspan></text><text class="cls-60" transform="translate(70.41 250.14)"><tspan class="cls-73">I</tspan><tspan x="2.73" y="0">nstag</tspan><tspan class="cls-72" x="26.39" y="0">r</tspan><tspan class="cls-68" x="29.95" y="0">am : @lemonsqua</tspan><tspan class="cls-10" x="106.72" y="0">r</tspan><tspan x="110.15" y="0">e_a</tspan><tspan class="cls-72" x="124.99" y="0">g</tspan><tspan class="cls-68" x="130.11" y="0">enc</tspan><tspan class="cls-76" x="145.75" y="0">y</tspan></text><text class="cls-60" transform="translate(70.41 262.14)"><tspan class="cls-77">F</tspan><tspan class="cls-68" x="4.94" y="0">a</tspan><tspan class="cls-75" x="9.92" y="0">c</tspan><tspan x="14.6" y="0">ebook pa</tspan><tspan class="cls-64" x="55.03" y="0">g</tspan><tspan x="60.15" y="0">e : </tspan><tspan class="cls-66" x="73.05" y="0">L</tspan><tspan x="77.82" y="0">emon </tspan><tspan class="cls-67" x="105.14" y="0">S</tspan><tspan x="110.53" y="0">qua</tspan><tspan class="cls-10" x="126.68" y="0">r</tspan><tspan class="cls-68" x="130.11" y="0">e</tspan></text></g><g id="Commercialisation_Simon_Laks_Inès_Richard_07_71_23_89_81_simon.laks_gmail.com_Instagram_:_simon_laks_Page_Facebook_:_Simon_Laks" data-name="Commercialisation Simon Laks Inès Richard 07 71 23 89 81 simon.laks gmail.com Instagram : simon laks Page Facebook : Simon Laks" class="cls-1"><text class="cls-2" transform="translate(476.89 110.14)"><tspan class="cls-36">M</tspan><tspan x="10.96" y="0">ar</tspan><tspan class="cls-78" x="21.29" y="0">k</tspan><tspan class="cls-33" x="27.05" y="0">e</tspan><tspan x="33.34" y="0">ting</tspan></text><text class="cls-2" transform="translate(476.89 125.14)"><tspan class="cls-79">S</tspan><tspan x="6.46" y="0">imon Laks</tspan></text><text class="cls-2" transform="translate(476.89 140.14)"><tspan class="cls-39">I</tspan><tspan x="3.27" y="0">nès </tspan><tspan class="cls-8" x="24.57" y="0">R</tspan><tspan x="32" y="0">icha</tspan><tspan class="cls-24" x="53.27" y="0">r</tspan><tspan class="cls-17" x="57.41" y="0">d</tspan></text><text class="cls-2" transform="translate(476.89 155.14)">07 71 23 89 81</text><text class="cls-2" transform="translate(476.89 170.14)">simon.laks@gmail.<tspan class="cls-5" x="95.02" y="0">c</tspan><tspan x="100.64" y="0">om</tspan></text><text class="cls-2" transform="translate(476.89 185.14)"><tspan class="cls-39">I</tspan><tspan x="3.27" y="0">nstag</tspan><tspan class="cls-21" x="31.67" y="0">r</tspan><tspan x="35.94" y="0">am : @simon_laks</tspan></text><text class="cls-2" transform="translate(476.89 200.14)"><tspan class="cls-80">F</tspan><tspan x="5.93" y="0">a</tspan><tspan class="cls-5" x="11.9" y="0">c</tspan><tspan x="17.52" y="0">ebook pa</tspan><tspan class="cls-6" x="66.04" y="0">g</tspan><tspan x="72.19" y="0">e : </tspan><tspan class="cls-79" x="87.67" y="0">S</tspan><tspan x="94.12" y="0">imon Laks</tspan></text></g></g></g></svg>