<svg xmlns="http://www.w3.org/2000/svg" viewBox="0 0 701.1 340.28"><defs><style>.cls-1,.cls-2{isolation:isolate;}.cls-2{font-size:12px;font-family:Lato-Regular, Lato;}.cls-2,.cls-49{fill:#fff;}.cls-3{letter-spacing:-0.03em;}.cls-4{letter-spacing:-0.02em;}.cls-5{letter-spacing:-0.01em;}.cls-6{letter-spacing:-0.01em;}.cls-7{letter-spacing:-0.01em;}.cls-8{letter-spacing:-0.01em;}.cls-9{letter-spacing:0em;}.cls-10{letter-spacing:-0.02em;}.cls-11{letter-spacing:-0.01em;}.cls-12{letter-spacing:0em;}.cls-13{letter-spacing:0em;}.cls-14{letter-spacing:-0.01em;}.cls-15{letter-spacing:0em;}.cls-16{letter-spacing:-0.01em;}.cls-17{letter-spacing:0em;}.cls-18{letter-spacing:-0.02em;}.cls-19{letter-spacing:-0.03em;}.cls-20{letter-spacing:-0.01em;}.cls-21{letter-spacing:-0.01em;}.cls-22{letter-spacing:-0.01em;}.cls-23{letter-spacing:-0.01em;}.cls-24{letter-spacing:-0.02em;}.cls-25{letter-spacing:-0.02em;}.cls-26{letter-spacing:-0.04em;}.cls-27{letter-spacing:0em;}.cls-28{letter-spacing:-0.03em;}.cls-29{letter-spacing:0em;}.cls-30{letter-spacing:-0.02em;}.cls-31{letter-spacing:-0.03em;}.cls-32{letter-spacing:-0.01em;}.cls-33{letter-spacing:0em;}.cls-34{letter-spacing:-0.02em;}.cls-35{letter-spacing:-0.03em;}.cls-36{letter-spacing:-0.02em;}.cls-37{letter-spacing:0em;}.cls-38{letter-spacing:-0.02em;}.cls-39{letter-spacing:-0.01em;}.cls-40{letter-spacing:-0.03em;}.cls-41{letter-spacing:-0.04em;}.cls-42{letter-spacing:-0.01em;}.cls-43{letter-spacing:-0.03em;}.cls-44{letter-spacing:-0.01em;}.cls-45{letter-spacing:0em;}.cls-46{letter-spacing:-0.02em;}.cls-47{fill:#141414;}.cls-48{fill:#1e1e1e;}.cls-49{stroke:#1d1c1c;stroke-miterlimit:10;}.cls-50{letter-spacing:-0.01em;}.cls-51{letter-spacing:-0.01em;}.cls-52{letter-spacing:-0.02em;}.cls-53{letter-spacing:0em;}.cls-54{letter-spacing:-0.02em;}.cls-55{letter-spacing:-0.02em;}</style></defs><g id="Calque_2" data-name="Calque 2"><g id="Calque_1-2" data-name="Calque 1"><g id="Groupe_1" data-name="Groupe 1"><g id="Pour_ceux_qui_pratiquaient_la_musique_elle_représentait_un_capital_survie._Pendant_les_cours_instants_que_dure_la_musique_il_retrouve_son_identité._Il" data-name="Pour ceux qui pratiquaient la musique elle représentait un capital survie. Pendant les cours instants que dure la musique il retrouve son identité. Il"><g id="Pour_ceux_qui" data-name="Pour ceux qui" class="cls-1"><text class="cls-2" transform="translate(446.55 75.39)"><tspan class="cls-3">P</tspan><tspan x="6.89" y="0">ou</tspan><tspan class="cls-4" x="20.38" y="0">r</tspan><tspan x="24.5" y="0"> </tspan><tspan class="cls-5" x="27.57" y="0">c</tspan><tspan x="33.19" y="0">eux qui</tspan></text></g><g id="pratiquaient_la_musique_elle_représentait_un_" data-name="pratiquaient la musique elle représentait un " class="cls-1"><text class="cls-2" transform="translate(446.55 90.39)">p<tspan class="cls-6" x="6.73" y="0">r</tspan><tspan class="cls-7" x="11" y="0">a</tspan><tspan x="16.88" y="0">tiquaie</tspan><tspan class="cls-8" x="52.87" y="0">n</tspan><tspan class="cls-9" x="59.48" y="0">t la musique, elle </tspan><tspan class="cls-10" x="150.3" y="0">r</tspan><tspan x="154.43" y="0">ep</tspan><tspan class="cls-10" x="167.49" y="0">r</tspan><tspan x="171.61" y="0">ése</tspan><tspan class="cls-11" x="189.48" y="0">n</tspan><tspan x="196.09" y="0">tait un</tspan></text></g><g id="capital_survie._Pendant_les_cours_instants_que" data-name="capital survie. Pendant les cours instants que" class="cls-1"><text class="cls-2" transform="translate(446.55 105.39)">capital survie. <tspan class="cls-3" x="75.03" y="0">P</tspan><tspan x="81.92" y="0">enda</tspan><tspan class="cls-11" x="107.64" y="0">n</tspan><tspan x="114.25" y="0">t les </tspan><tspan class="cls-5" x="139.06" y="0">c</tspan><tspan x="144.68" y="0">ou</tspan><tspan class="cls-12" x="158.18" y="0">r</tspan><tspan class="cls-9" x="162.51" y="0">s insta</tspan><tspan class="cls-11" x="195.81" y="0">n</tspan><tspan x="202.43" y="0">ts que</tspan></text></g><g id="dure_la_musique_il_retrouve_son_identité._Il_n_est_" data-name="dure la musique il retrouve son identité. Il n est " class="cls-1"><text class="cls-2" transform="translate(446.55 120.39)">du<tspan class="cls-10" x="13.41" y="0">r</tspan><tspan x="17.53" y="0">e la musique il </tspan><tspan class="cls-10" x="95.04" y="0">r</tspan><tspan class="cls-13" x="99.17" y="0">e</tspan><tspan x="105.46" y="0">t</tspan><tspan class="cls-10" x="109.76" y="0">r</tspan><tspan x="113.89" y="0">ou</tspan><tspan class="cls-14" x="127.38" y="0">v</tspan><tspan x="133.4" y="0">e son ide</tspan><tspan class="cls-8" x="180.51" y="0">n</tspan><tspan x="187.13" y="0">ti</tspan><tspan class="cls-15" x="194.52" y="0">t</tspan><tspan x="198.79" y="0">é. </tspan><tspan class="cls-16" x="211.03" y="0">I</tspan><tspan class="cls-17" x="214.3" y="0">l </tspan><tspan class="cls-18" x="220.2" y="0">n</tspan><tspan class="cls-19" x="226.71" y="0">’</tspan><tspan x="228.89" y="0">est</tspan></text></g><g id="plus_un_anonyme_au_crâne_rasé_avec_un" data-name="plus un anonyme au crâne rasé avec un" class="cls-1"><text class="cls-2" transform="translate(446.55 135.39)">plus un ano<tspan class="cls-20" x="60.44" y="0">n</tspan><tspan class="cls-17" x="66.98" y="0">yme au c</tspan><tspan class="cls-21" x="113.9" y="0">r</tspan><tspan x="118.17" y="0">âne </tspan><tspan class="cls-21" x="140.24" y="0">r</tspan><tspan x="144.51" y="0">asé </tspan><tspan class="cls-22" x="165.08" y="0">a</tspan><tspan class="cls-14" x="170.92" y="0">v</tspan><tspan x="176.94" y="0">ec un</tspan></text></g><g id="numéro_tatoué_sur_le_bras_perdu_dans_cette_" data-name="numéro tatoué sur le bras perdu dans cette " class="cls-1"><text class="cls-2" transform="translate(446.55 150.39)">numé<tspan class="cls-10" x="29.59" y="0">r</tspan><tspan x="33.71" y="0">o t</tspan><tspan class="cls-23" x="47.89" y="0">a</tspan><tspan class="cls-15" x="53.78" y="0">t</tspan><tspan x="58.05" y="0">oué su</tspan><tspan class="cls-4" x="92.84" y="0">r</tspan><tspan x="96.95" y="0" xml:space="preserve"> le b</tspan><tspan class="cls-21" x="118.99" y="0">r</tspan><tspan x="123.26" y="0">as, pe</tspan><tspan class="cls-24" x="153.27" y="0">r</tspan><tspan x="157.41" y="0">du dans </tspan><tspan class="cls-5" x="201.54" y="0">c</tspan><tspan class="cls-13" x="207.16" y="0">e</tspan><tspan class="cls-15" x="213.46" y="0">tt</tspan><tspan x="221.62" y="0">e</tspan></text></g><g id="foule._Lors_de_ses_divertissements_très" data-name="foule. Lors de ses divertissements très" class="cls-1"><text class="cls-2" transform="translate(446.55 165.39)"><tspan class="cls-25">f</tspan><tspan class="cls-9" x="4.01" y="0">oule. </tspan><tspan class="cls-26" x="32.57" y="0">L</tspan><tspan x="38.3" y="0">o</tspan><tspan class="cls-27" x="45.1" y="0">r</tspan><tspan x="49.43" y="0">s de ses di</tspan><tspan class="cls-14" x="103.23" y="0">v</tspan><tspan x="109.25" y="0">ertisseme</tspan><tspan class="cls-11" x="160.28" y="0">n</tspan><tspan x="166.9" y="0">ts t</tspan><tspan class="cls-10" x="183.77" y="0">r</tspan><tspan x="187.89" y="0">ès</tspan></text></g><g id="apprécié_des_Allemands_il_n_avait_plus_" data-name="apprécié des Allemands il n avait plus " class="cls-1"><text class="cls-2" transform="translate(446.55 180.39)">app<tspan class="cls-10" x="19.42" y="0">r</tspan><tspan x="23.54" y="0">écié des</tspan><tspan class="cls-28" x="66.14" y="0"> </tspan><tspan class="cls-29" x="68.81" y="0">A</tspan><tspan x="76.91" y="0">llemands il </tspan><tspan class="cls-30" x="135.21" y="0">n</tspan><tspan class="cls-31" x="141.72" y="0">’</tspan><tspan class="cls-22" x="143.98" y="0">a</tspan><tspan class="cls-32" x="149.82" y="0">v</tspan><tspan class="cls-9" x="155.88" y="0">ait plus</tspan></text></g><g id="l_impression_d_être_un_prisonnier_d_un_camp" data-name="l impression d être un prisonnier d un camp" class="cls-1"><text class="cls-2" transform="translate(446.55 195.39)">l’imp<tspan class="cls-10" x="24.87" y="0">r</tspan><tspan class="cls-9" x="28.99" y="0">ession d</tspan><tspan class="cls-19" x="71.89" y="0">’</tspan><tspan class="cls-33" x="74.07" y="0">ê</tspan><tspan class="cls-9" x="80.36" y="0">t</tspan><tspan class="cls-10" x="84.67" y="0">r</tspan><tspan x="88.79" y="0">e un prisonnie</tspan><tspan class="cls-34" x="163.23" y="0">r</tspan><tspan x="167.35" y="0" xml:space="preserve"> d’un camp</tspan></text></g><g id="d_extermination._Mais_cette_position_lui_valut_de_" data-name="d extermination. Mais cette position lui valut de " class="cls-1"><text class="cls-2" transform="translate(446.55 210.39)">d<tspan class="cls-35" x="6.72" y="0">’</tspan><tspan class="cls-23" x="8.9" y="0">e</tspan><tspan class="cls-17" x="15.16" y="0">x</tspan><tspan class="cls-15" x="21.13" y="0">t</tspan><tspan x="25.4" y="0">ermin</tspan><tspan class="cls-23" x="55.55" y="0">a</tspan><tspan class="cls-17" x="61.44" y="0">tion. </tspan><tspan class="cls-36" x="88.24" y="0">M</tspan><tspan x="99.2" y="0">ais </tspan><tspan class="cls-5" x="116.31" y="0">c</tspan><tspan class="cls-33" x="121.93" y="0">et</tspan><tspan class="cls-37" x="128.23" y="0">t</tspan><tspan x="136.39" y="0">e position lui</tspan><tspan class="cls-38" x="203.77" y="0"> </tspan><tspan class="cls-32" x="206.55" y="0">v</tspan><tspan x="212.61" y="0">alut de</tspan></text></g><g id="nombreuses_critiques_car_considéré_comme" data-name="nombreuses critiques car considéré comme" class="cls-1"><text class="cls-2" transform="translate(446.55 225.39)">nomb<tspan class="cls-10" x="30.09" y="0">r</tspan><tspan x="34.21" y="0">euses critiques ca</tspan><tspan class="cls-34" x="127.12" y="0">r</tspan><tspan class="cls-9" x="131.23" y="0"> </tspan><tspan class="cls-5" x="134.3" y="0">c</tspan><tspan x="139.93" y="0">onsidé</tspan><tspan class="cls-10" x="174.56" y="0">r</tspan><tspan x="178.68" y="0">é </tspan><tspan class="cls-5" x="188.09" y="0">c</tspan><tspan x="193.71" y="0">omme</tspan></text></g><g id="un_collaborateur_par_les_autres_prisonniers_du_" data-name="un collaborateur par les autres prisonniers du " class="cls-1"><text class="cls-2" transform="translate(446.55 240.39)">un <tspan class="cls-5" x="16.46" y="0">c</tspan><tspan x="22.08" y="0">ollabo</tspan><tspan class="cls-6" x="54.04" y="0">r</tspan><tspan class="cls-7" x="58.31" y="0">a</tspan><tspan class="cls-15" x="64.19" y="0">t</tspan><tspan class="cls-9" x="68.47" y="0">eu</tspan><tspan class="cls-4" x="81.49" y="0">r</tspan><tspan class="cls-9" x="85.61" y="0" xml:space="preserve"> pa</tspan><tspan class="cls-4" x="101.37" y="0">r</tspan><tspan x="105.49" y="0" xml:space="preserve"> les aut</tspan><tspan class="cls-10" x="142.95" y="0">r</tspan><tspan x="147.07" y="0">es prisonnie</tspan><tspan class="cls-12" x="210.26" y="0">r</tspan><tspan x="214.59" y="0">s du</tspan></text></g><g id="camp._Il_se_sentait_donc_coupable." data-name="camp. Il se sentait donc coupable." class="cls-1"><text class="cls-2" transform="translate(446.55 255.39)">camp. <tspan class="cls-39" x="34.19" y="0">I</tspan><tspan x="37.46" y="0">l se se</tspan><tspan class="cls-8" x="69.5" y="0">n</tspan><tspan class="cls-9" x="76.12" y="0">tait donc </tspan><tspan class="cls-5" x="125.66" y="0">c</tspan><tspan x="131.28" y="0">oupable.</tspan></text></g></g><g id="Simon_Laks_fut_arrêté_en_1941_lors_des_premières_grandes_rafles_interné_à_Beaune-la-_Rolande_puis_à_Drancy_déporté_à_Auschwitz_où_il_demeura_jusqu_à_l" data-name="Simon Laks fut arrêté en 1941 lors des premières grandes rafles interné à Beaune-la- Rolande puis à Drancy déporté à Auschwitz où il demeura jusqu à l"><g id="Rolande_puis_à_Drancy_déporté_à_Auschwitz_où_" data-name="Rolande puis à Drancy déporté à Auschwitz où " class="cls-1"><text class="cls-2" transform="translate(24.55 115.39)"><tspan class="cls-40">R</tspan><tspan class="cls-9" x="7.13" y="0">olande puis à </tspan><tspan class="cls-22" x="79.15" y="0">D</tspan><tspan class="cls-21" x="88.15" y="0">r</tspan><tspan x="92.42" y="0">anc</tspan><tspan class="cls-41" x="110.81" y="0">y</tspan><tspan x="116.55" y="0">, dépor</tspan><tspan class="cls-15" x="153.3" y="0">t</tspan><tspan x="157.57" y="0">é à</tspan><tspan class="cls-28" x="172.94" y="0"> </tspan><tspan class="cls-20" x="175.61" y="0">A</tspan><tspan x="183.59" y="0">usc</tspan><tspan class="cls-15" x="201.2" y="0">h</tspan><tspan x="207.87" y="0">witz où</tspan></text></g><g id="il_demeura_jusqu_à_l_évacuation_du_camp_de" data-name="il demeura jusqu à l évacuation du camp de" class="cls-1"><text class="cls-2" transform="translate(24.55 130.39)">il demeu<tspan class="cls-6" x="44.74" y="0">r</tspan><tspan x="49.01" y="0">a jusqu</tspan><tspan class="cls-31" x="86.22" y="0">’</tspan><tspan x="88.48" y="0">à l</tspan><tspan class="cls-19" x="100.34" y="0">’</tspan><tspan class="cls-42" x="102.52" y="0">év</tspan><tspan x="114.79" y="0">acu</tspan><tspan class="cls-7" x="133.17" y="0">a</tspan><tspan x="139.05" y="0">tion du camp de</tspan></text></g><g id="Birkenau_en_octobre_1944." data-name="Birkenau en octobre 1944." class="cls-1"><text class="cls-2" transform="translate(24.55 160.39)"><tspan class="cls-22">B</tspan><tspan x="7.63" y="0">ir</tspan><tspan class="cls-43" x="14.88" y="0">k</tspan><tspan x="20.63" y="0">enau en oc</tspan><tspan class="cls-37" x="78.03" y="0">t</tspan><tspan x="82.3" y="0">ob</tspan><tspan class="cls-10" x="95.83" y="0">r</tspan><tspan x="99.95" y="0">e 1944.</tspan></text></g><g id="Il_fut_sauvé_par_son_habilité_à_jouer_au_bridge_qui_" data-name="Il fut sauvé par son habilité à jouer au bridge qui " class="cls-1"><text class="cls-2" transform="translate(24.55 175.39)"><tspan class="cls-39">I</tspan><tspan x="3.27" y="0">l fut sau</tspan><tspan class="cls-14" x="45.29" y="0">v</tspan><tspan x="51.32" y="0">é pa</tspan><tspan class="cls-4" x="73.42" y="0">r</tspan><tspan x="77.53" y="0" xml:space="preserve"> son habili</tspan><tspan class="cls-15" x="130.34" y="0">t</tspan><tspan x="134.61" y="0">é à joue</tspan><tspan class="cls-4" x="175.77" y="0">r</tspan><tspan x="179.88" y="0" xml:space="preserve"> au brid</tspan><tspan class="cls-6" x="219.37" y="0">g</tspan><tspan x="225.51" y="0">e qui</tspan></text></g><g id="le_conduisit_ensuite_à_l_orchestre._Il_savait" data-name="le conduisit ensuite à l orchestre. Il savait" class="cls-1"><text class="cls-2" transform="translate(24.55 190.39)">le <tspan class="cls-5" x="12.24" y="0">c</tspan><tspan class="cls-9" x="17.86" y="0">onduisit ensui</tspan><tspan class="cls-15" x="90.9" y="0">t</tspan><tspan x="95.17" y="0">e à l</tspan><tspan class="cls-19" x="116.45" y="0">’</tspan><tspan class="cls-9" x="118.62" y="0">o</tspan><tspan class="cls-10" x="125.43" y="0">r</tspan><tspan class="cls-17" x="129.55" y="0">chest</tspan><tspan class="cls-10" x="157.81" y="0">r</tspan><tspan x="161.93" y="0">e. </tspan><tspan class="cls-39" x="174.17" y="0">I</tspan><tspan x="177.44" y="0">l s</tspan><tspan class="cls-44" x="188.54" y="0">a</tspan><tspan class="cls-32" x="194.38" y="0">v</tspan><tspan x="200.44" y="0">ait</tspan></text></g><g id="jouer_du_violon_et_parler_polonais_cela_lui_permit_" data-name="jouer du violon et parler polonais cela lui permit " class="cls-1"><text class="cls-2" transform="translate(24.55 205.39)">joue<tspan class="cls-4" x="22.71" y="0">r</tspan><tspan x="26.83" y="0" xml:space="preserve"> du</tspan><tspan class="cls-38" x="43.31" y="0"> </tspan><tspan x="46.09" y="0">violon </tspan><tspan class="cls-33" x="81.37" y="0">e</tspan><tspan x="87.67" y="0">t parle</tspan><tspan class="cls-34" x="121.26" y="0">r</tspan><tspan class="cls-9" x="125.38" y="0" xml:space="preserve"> polonais, </tspan><tspan class="cls-5" x="178.15" y="0">c</tspan><tspan x="183.77" y="0">ela lui permit</tspan></text></g><g id="de_monter_les_échelons_jusqu_à_devenir" data-name="de monter les échelons jusqu à devenir" class="cls-1"><text class="cls-2" transform="translate(24.55 220.39)">de mo<tspan class="cls-11" x="32.8" y="0">n</tspan><tspan class="cls-15" x="39.41" y="0">t</tspan><tspan x="43.69" y="0">e</tspan><tspan class="cls-34" x="50.02" y="0">r</tspan><tspan class="cls-9" x="54.14" y="0" xml:space="preserve"> les échelons jusqu</tspan><tspan class="cls-31" x="152.52" y="0">’</tspan><tspan x="154.77" y="0">à d</tspan><tspan class="cls-32" x="170.53" y="0">e</tspan><tspan class="cls-14" x="176.73" y="0">v</tspan><tspan x="182.76" y="0">eni</tspan><tspan class="cls-34" x="198.67" y="0">r</tspan></text></g><g id="chef_d_orchestre_du_camp._C_est_grâce_à_la_" data-name="chef d orchestre du camp. C est grâce à la " class="cls-1"><text class="cls-2" transform="translate(24.55 235.39)">ch<tspan class="cls-45" x="12.43" y="0">e</tspan><tspan class="cls-46" x="18.7" y="0">f</tspan><tspan x="22.69" y="0" xml:space="preserve"> d</tspan><tspan class="cls-19" x="32.48" y="0">’</tspan><tspan x="34.66" y="0">o</tspan><tspan class="cls-10" x="41.46" y="0">r</tspan><tspan x="45.58" y="0">chest</tspan><tspan class="cls-10" x="73.84" y="0">r</tspan><tspan class="cls-9" x="77.96" y="0">e du camp. C</tspan><tspan class="cls-19" x="146.06" y="0">’</tspan><tspan x="148.24" y="0">est g</tspan><tspan class="cls-21" x="173.39" y="0">r</tspan><tspan class="cls-9" x="177.66" y="0">â</tspan><tspan class="cls-5" x="183.62" y="0">c</tspan><tspan x="189.24" y="0">e à la</tspan></text></g><g id="musique_qu_il_a_survécu." data-name="musique qu il a survécu." class="cls-1"><text class="cls-2" transform="translate(24.55 250.39)">musique qu’il a sur<tspan class="cls-14" x="97.5" y="0">v</tspan><tspan x="103.52" y="0">écu.</tspan></text></g></g><g id="Groupe_6" data-name="Groupe 6"><path id="Tracé_2" data-name="Tracé 2" class="cls-47" d="M392.38,95.23s16.09-3.92,55.16-27.93S498,40,566,20.9s86.28-24,90.35-19.13,43.95,86.69,44.77,166c-5.13,67.7-21.44,122.24-34.44,162.44a14.47,14.47,0,0,1-17.44,9.54c-38-9.94-146.11-38.7-163.83-49.07-21.57-12.61-75.7-45.58-87.1-73.66-8.54-11.8-7.94-20.88-7.94-20.88Z"/><path id="Tracé_3" data-name="Tracé 3" class="cls-47" d="M308.71,95.23s-16.08-3.92-55.15-27.93S203.09,40,135.12,20.9,48.84-3.12,44.77,1.77.81,88.46,0,167.82c5.12,67.7,21.44,122.24,34.44,162.44a14.47,14.47,0,0,0,17.44,9.54c38-9.94,146.11-38.7,163.83-49.07,21.57-12.61,75.7-45.58,87.1-73.66,8.54-11.8,7.94-20.88,7.94-20.88Z"/><path id="Tracé_4" data-name="Tracé 4" class="cls-48" d="M392.35,138.61c60.48,26.31,135.93,17.6,189.57-20.78a316.29,316.29,0,0,1-190.63-.94l-.88,19.6-1.08-1.17-1.78,35.47c61.72,55.32,146.45,87.8,229.13,81.92C531.51,243.09,450.32,201.73,392.35,138.61Z"/><path id="Tracé_5" data-name="Tracé 5" class="cls-48" d="M308.74,138.61c-60.47,26.31-135.92,17.6-189.56-20.78a316.29,316.29,0,0,0,190.63-.94l.88,19.6,1.07-1.17,1.79,35.47c-61.72,55.32-146.45,87.8-229.13,81.92C169.59,243.09,250.78,201.73,308.74,138.61Z"/><path id="Tracé_6" data-name="Tracé 6" class="cls-49" d="M396.57,107.81q-.92-3.56-2.1-7c-.39-1.14-.8-2.27-1.23-3.4-.28-.72-.56-1.44-.86-2.15a4.87,4.87,0,0,0-2.32-2.67c-1.83-1-4.05-.94-6.14-.81-11.2.7-23.07,3.42-33.37,3-10.3.4-22.18-2.32-33.37-3-2.09-.13-4.32-.23-6.14.81a4.93,4.93,0,0,0-2.33,2.67c-.29.71-.58,1.43-.86,2.15-.43,1.13-.84,2.26-1.23,3.4q-1.19,3.48-2.1,7c-4,15.46-4.08,31.6-2.24,47.38.92,7.95,2.31,15.84,3.9,23.68,1.08,5.3,1.07,12.95,4.56,17.33,2.22,2.8,6.35,2.31,9.33,1.2a87.33,87.33,0,0,1,60.95,0c3,1.1,7.1,1.6,9.33-1.2,3.49-4.38,3.47-12,4.55-17.33,1.6-7.84,3-15.73,3.91-23.68C400.65,139.41,400.57,123.27,396.57,107.81Z"/></g><g id="C_était_une_surprise_pour_la_famille_qui_ne_soupçonnait_pas_cela._Ces_croquis_étaient_travaillés_professionnels_et_exprimaient_surtout_une_forte_passi" data-name="C était une surprise pour la famille qui ne soupçonnait pas cela. Ces croquis étaient travaillés professionnels et exprimaient surtout une forte passi"><g id="C_était_une_surprise_pour_la_famille" data-name="C était une surprise pour la famille" class="cls-1"><text class="cls-2" transform="translate(437.55 89.89)">C<tspan class="cls-19" x="8.02" y="0">’</tspan><tspan class="cls-33" x="10.19" y="0">é</tspan><tspan class="cls-9" x="16.49" y="0">tait une surprise pou</tspan><tspan class="cls-4" x="124.85" y="0">r</tspan><tspan x="128.97" y="0" xml:space="preserve"> la </tspan><tspan class="cls-12" x="143.91" y="0">f</tspan><tspan x="148.08" y="0">amille</tspan></text></g><g id="qui_ne_soupçonnait_pas_cela._Ces_croquis_étaient_" data-name="qui ne soupçonnait pas cela. Ces croquis étaient " class="cls-1"><text class="cls-2" transform="translate(437.55 104.89)">qui ne soup<tspan class="cls-5" x="60.88" y="0">ç</tspan><tspan class="cls-9" x="66.51" y="0">onnait pas </tspan><tspan class="cls-5" x="123.88" y="0">c</tspan><tspan class="cls-9" x="129.5" y="0">ela. </tspan><tspan class="cls-50" x="150.54" y="0">C</tspan><tspan x="158.43" y="0">es c</tspan><tspan class="cls-10" x="178.77" y="0">r</tspan><tspan class="cls-9" x="182.89" y="0">oquis </tspan><tspan class="cls-33" x="214.25" y="0">é</tspan><tspan x="220.55" y="0">taie</tspan><tspan class="cls-8" x="240.03" y="0">n</tspan><tspan x="246.64" y="0">t</tspan></text></g><g id="travaillés_professionnels_et_exprimaient" data-name="travaillés professionnels et exprimaient" class="cls-1"><text class="cls-2" transform="translate(437.55 119.89)">t<tspan class="cls-21" x="4.3" y="0">r</tspan><tspan class="cls-44" x="8.57" y="0">a</tspan><tspan class="cls-51" x="14.41" y="0">v</tspan><tspan class="cls-9" x="20.47" y="0">aillés, p</tspan><tspan class="cls-10" x="59.03" y="0">r</tspan><tspan class="cls-32" x="63.16" y="0">o</tspan><tspan class="cls-52" x="69.83" y="0">f</tspan><tspan x="73.84" y="0">essionnels, </tspan><tspan class="cls-33" x="133.8" y="0">e</tspan><tspan x="140.09" y="0">t </tspan><tspan class="cls-7" x="147.47" y="0">e</tspan><tspan class="cls-9" x="153.72" y="0">xprimaie</tspan><tspan class="cls-8" x="198.72" y="0">n</tspan><tspan class="cls-9" x="205.34" y="0">t</tspan></text></g><g id="surtout_une_forte_passion_pour_la_mode." data-name="surtout une forte passion pour la mode." class="cls-1"><text class="cls-2" transform="translate(437.55 134.89)">sur<tspan class="cls-15" x="16.25" y="0">t</tspan><tspan x="20.53" y="0">out une </tspan><tspan class="cls-25" x="64.19" y="0">f</tspan><tspan x="68.2" y="0">or</tspan><tspan class="cls-15" x="79.37" y="0">t</tspan><tspan x="83.64" y="0">e passion pou</tspan><tspan class="cls-34" x="155.8" y="0">r</tspan><tspan class="cls-9" x="159.92" y="0" xml:space="preserve"> la mode.</tspan></text></g><g id="Le_petit_neveu_de_Simon_Laks_étant_dans_notre_" data-name="Le petit neveu de Simon Laks étant dans notre " class="cls-1"><text class="cls-2" transform="translate(437.55 149.89)"><tspan class="cls-26">L</tspan><tspan class="cls-9" x="5.72" y="0">e p</tspan><tspan class="cls-13" x="21.86" y="0">e</tspan><tspan x="28.15" y="0">tit n</tspan><tspan class="cls-42" x="49.61" y="0">e</tspan><tspan class="cls-14" x="55.82" y="0">v</tspan><tspan x="61.84" y="0">eu de </tspan><tspan class="cls-53" x="94.07" y="0">S</tspan><tspan x="100.52" y="0">imon Laks </tspan><tspan class="cls-33" x="156.33" y="0">é</tspan><tspan x="162.63" y="0">ta</tspan><tspan class="cls-11" x="172.89" y="0">n</tspan><tspan x="179.51" y="0">t dans n</tspan><tspan class="cls-5" x="221.22" y="0">o</tspan><tspan class="cls-9" x="227.92" y="0">t</tspan><tspan class="cls-10" x="232.22" y="0">r</tspan><tspan x="236.34" y="0">e</tspan></text></g><g id="équipe_nous_avons_été_touchés_par_cette" data-name="équipe nous avons été touchés par cette" class="cls-1"><text class="cls-2" transform="translate(437.55 164.89)">équipe, nous <tspan class="cls-22" x="69.94" y="0">a</tspan><tspan class="cls-14" x="75.78" y="0">v</tspan><tspan x="81.8" y="0">ons </tspan><tspan class="cls-33" x="103.57" y="0">é</tspan><tspan class="cls-15" x="109.86" y="0">t</tspan><tspan class="cls-9" x="114.14" y="0">é </tspan><tspan class="cls-15" x="123.54" y="0">t</tspan><tspan x="127.82" y="0">ouchés pa</tspan><tspan class="cls-4" x="181.03" y="0">r</tspan><tspan x="185.15" y="0"> </tspan><tspan class="cls-5" x="188.22" y="0">c</tspan><tspan class="cls-33" x="193.84" y="0">e</tspan><tspan class="cls-37" x="200.13" y="0">tt</tspan><tspan x="208.3" y="0">e</tspan></text></g><g id="histoire._Nous_voulons_faire_vivre_l_héritage_" data-name="histoire. Nous voulons faire vivre l héritage " class="cls-1"><text class="cls-2" transform="translate(437.55 179.89)">his<tspan class="cls-15" x="14.77" y="0">t</tspan><tspan x="19.04" y="0">oi</tspan><tspan class="cls-10" x="28.73" y="0">r</tspan><tspan x="32.85" y="0">e. </tspan><tspan class="cls-18" x="45.09" y="0">N</tspan><tspan x="54.07" y="0">ous</tspan><tspan class="cls-38" x="72.76" y="0"> </tspan><tspan class="cls-14" x="75.54" y="0">v</tspan><tspan x="81.56" y="0">oulons </tspan><tspan class="cls-27" x="119.66" y="0">f</tspan><tspan x="123.83" y="0">ai</tspan><tspan class="cls-10" x="132.67" y="0">r</tspan><tspan x="136.79" y="0">e</tspan><tspan class="cls-38" x="143.13" y="0"> </tspan><tspan x="145.91" y="0">viv</tspan><tspan class="cls-10" x="161.18" y="0">r</tspan><tspan x="165.3" y="0">e l’hérita</tspan><tspan class="cls-6" x="210.65" y="0">g</tspan><tspan x="216.79" y="0">e</tspan></text></g><g id="artistique_de_cet_homme_courageux_qui_est" data-name="artistique de cet homme courageux qui est" class="cls-1"><text class="cls-2" transform="translate(437.55 194.89)">artistique de <tspan class="cls-5" x="69.26" y="0">c</tspan><tspan class="cls-33" x="74.88" y="0">e</tspan><tspan x="81.17" y="0">t homme </tspan><tspan class="cls-5" x="131.2" y="0">c</tspan><tspan x="136.82" y="0">ou</tspan><tspan class="cls-21" x="150.31" y="0">r</tspan><tspan x="154.58" y="0">a</tspan><tspan class="cls-6" x="160.55" y="0">g</tspan><tspan x="166.69" y="0">eux qui est</tspan></text></g><g id="passé_par_une_épreuve_traumatisante._Nous_" data-name="passé par une épreuve traumatisante. Nous " class="cls-1"><text class="cls-2" transform="translate(437.55 209.89)">passé pa<tspan class="cls-34" x="45.18" y="0">r</tspan><tspan x="49.3" y="0" xml:space="preserve"> une ép</tspan><tspan class="cls-10" x="88.22" y="0">r</tspan><tspan x="92.35" y="0">eu</tspan><tspan class="cls-14" x="105.37" y="0">v</tspan><tspan x="111.4" y="0">e t</tspan><tspan class="cls-21" x="125.1" y="0">r</tspan><tspan x="129.38" y="0">aum</tspan><tspan class="cls-23" x="151.9" y="0">a</tspan><tspan class="cls-17" x="157.79" y="0">tisa</tspan><tspan class="cls-11" x="176.34" y="0">n</tspan><tspan class="cls-15" x="182.95" y="0">t</tspan><tspan x="187.22" y="0">e. </tspan><tspan class="cls-30" x="199.46" y="0">N</tspan><tspan x="208.44" y="0">ous</tspan></text></g><g id="souhaitons_faire_de_ce_talent_une_réalisation" data-name="souhaitons faire de ce talent une réalisation" class="cls-1"><text class="cls-2" transform="translate(437.55 224.89)">souhai<tspan class="cls-15" x="34.23" y="0">t</tspan><tspan class="cls-9" x="38.5" y="0">ons </tspan><tspan class="cls-12" x="60.27" y="0">f</tspan><tspan x="64.44" y="0">ai</tspan><tspan class="cls-10" x="73.28" y="0">r</tspan><tspan x="77.41" y="0">e de </tspan><tspan class="cls-5" x="102.94" y="0">c</tspan><tspan x="108.56" y="0">e tale</tspan><tspan class="cls-11" x="137.4" y="0">n</tspan><tspan x="144.02" y="0">t, une </tspan><tspan class="cls-10" x="176.91" y="0">r</tspan><tspan x="181.03" y="0">éalis</tspan><tspan class="cls-23" x="204.24" y="0">a</tspan><tspan x="210.12" y="0">tion</tspan></text></g><g id="concrète." class="cls-1"><text class="cls-2" transform="translate(437.55 239.89)"><tspan class="cls-5">c</tspan><tspan x="5.62" y="0">onc</tspan><tspan class="cls-10" x="24.85" y="0">r</tspan><tspan class="cls-13" x="28.97" y="0">è</tspan><tspan class="cls-15" x="35.27" y="0">t</tspan><tspan x="39.54" y="0">e.</tspan></text></g></g><g id="Il_est_tombé_malade_par_la_suite_mais_fut_sauvé_par_ses_compagnons_infirmiers_à_l_hôpital._Il_y_est_resté_sept_mois_et_a_été_guéri_par_miracle._En_1945_le_camp_a_été_libéré_par_les_alliés._Il_est_rentré_chez_lui_traumatisé._Il_continue_la_musique_sans_" data-name="Il est tombé malade par la suite mais fut sauvé par ses compagnons infirmiers à l hôpital. Il y est resté sept mois et a été guéri par miracle. En 1945 le camp a été libéré par les alliés. Il est rentré chez lui traumatisé. Il continue la musique sans " class="cls-1"><text class="cls-2" transform="translate(19 81)"><tspan class="cls-39">I</tspan><tspan x="3.27" y="0">l est </tspan><tspan class="cls-15" x="28.08" y="0">t</tspan><tspan class="cls-9" x="32.35" y="0">ombé malade pa</tspan><tspan class="cls-34" x="118.6" y="0">r</tspan><tspan class="cls-9" x="122.72" y="0" xml:space="preserve"> la sui</tspan><tspan class="cls-15" x="152.42" y="0">t</tspan><tspan x="156.69" y="0">e mais fut sau</tspan><tspan class="cls-14" x="229.2" y="0">v</tspan><tspan x="235.23" y="0">é </tspan></text><text class="cls-2" transform="translate(19 96)">pa<tspan class="cls-34" x="12.69" y="0">r</tspan><tspan class="cls-9" x="16.81" y="0" xml:space="preserve"> ses </tspan><tspan class="cls-5" x="39.68" y="0">c</tspan><tspan x="45.3" y="0">ompagnons i</tspan><tspan class="cls-6" x="112.25" y="0">n</tspan><tspan x="118.85" y="0">firmie</tspan><tspan class="cls-12" x="149.17" y="0">r</tspan><tspan class="cls-9" x="153.5" y="0">s à l’hôpital. </tspan><tspan class="cls-39" x="218.31" y="0">I</tspan><tspan x="221.58" y="0">l</tspan></text><text class="cls-2" transform="translate(19 111)"><tspan class="cls-54">y</tspan><tspan x="5.89" y="0" xml:space="preserve"> est </tspan><tspan class="cls-10" x="27.87" y="0">r</tspan><tspan x="31.99" y="0">es</tspan><tspan class="cls-15" x="43.52" y="0">t</tspan><tspan x="47.8" y="0">é se</tspan><tspan class="cls-7" x="68.74" y="0">p</tspan><tspan x="75.38" y="0">t mois </tspan><tspan class="cls-33" x="110.58" y="0">e</tspan><tspan class="cls-9" x="116.87" y="0">t a </tspan><tspan class="cls-33" x="133.28" y="0">é</tspan><tspan class="cls-15" x="139.58" y="0">t</tspan><tspan x="143.85" y="0">é guéri pa</tspan><tspan class="cls-4" x="195.53" y="0">r</tspan><tspan class="cls-9" x="199.65" y="0" xml:space="preserve"> mi</tspan><tspan class="cls-21" x="215.47" y="0">r</tspan><tspan x="219.74" y="0">acle.</tspan></text><text class="cls-2" transform="translate(19 126)"><tspan class="cls-14">E</tspan><tspan x="6.76" y="0">n 1945, le camp a </tspan><tspan class="cls-33" x="102.8" y="0">é</tspan><tspan class="cls-15" x="109.1" y="0">t</tspan><tspan x="113.37" y="0">é libé</tspan><tspan class="cls-10" x="141.54" y="0">r</tspan><tspan x="145.67" y="0">é pa</tspan><tspan class="cls-4" x="167.76" y="0">r</tspan><tspan x="171.88" y="0" xml:space="preserve"> les alliés. </tspan><tspan class="cls-39" x="224.33" y="0">I</tspan><tspan x="227.6" y="0">l est </tspan></text><text class="cls-2" transform="translate(19 141)"><tspan class="cls-10">r</tspan><tspan x="4.12" y="0">e</tspan><tspan class="cls-11" x="10.46" y="0">n</tspan><tspan x="17.07" y="0">t</tspan><tspan class="cls-10" x="21.37" y="0">r</tspan><tspan x="25.49" y="0">é chez lui, t</tspan><tspan class="cls-6" x="84.66" y="0">r</tspan><tspan x="88.93" y="0">aum</tspan><tspan class="cls-23" x="111.46" y="0">a</tspan><tspan x="117.34" y="0">tisé. </tspan><tspan class="cls-16" x="142.17" y="0">I</tspan><tspan class="cls-17" x="145.44" y="0">l </tspan><tspan class="cls-5" x="151.34" y="0">c</tspan><tspan x="156.97" y="0">o</tspan><tspan class="cls-8" x="163.77" y="0">nt</tspan><tspan x="170.38" y="0">inue la</tspan></text><text class="cls-2" transform="translate(19 156)">musique sans plaisi<tspan class="cls-4" x="100.05" y="0">r</tspan><tspan x="104.17" y="0" xml:space="preserve"> à cause du passé. </tspan><tspan class="cls-39" x="201.07" y="0">I</tspan><tspan x="204.34" y="0">l finit sa </tspan></text><text class="cls-2" transform="translate(19 171)">vie à <tspan class="cls-55" x="27.52" y="0">P</tspan><tspan x="34.53" y="0">aris </tspan><tspan class="cls-22" x="56.01" y="0">a</tspan><tspan class="cls-14" x="61.85" y="0">v</tspan><tspan class="cls-9" x="67.87" y="0">ec sa </tspan><tspan class="cls-25" x="97.24" y="0">f</tspan><tspan x="101.25" y="0">emme </tspan><tspan class="cls-33" x="136.73" y="0">e</tspan><tspan class="cls-9" x="143.03" y="0">t son fils p</tspan><tspan class="cls-10" x="196.86" y="0">r</tspan><tspan x="200.99" y="0">ès</tspan></text><text class="cls-2" transform="translate(19 186)">de chez son f<tspan class="cls-10" x="69.36" y="0">r</tspan><tspan x="73.48" y="0">è</tspan><tspan class="cls-10" x="79.82" y="0">r</tspan><tspan x="83.94" y="0">e. </tspan><tspan class="cls-26" x="96.18" y="0">L</tspan><tspan x="101.9" y="0">o</tspan><tspan class="cls-12" x="108.71" y="0">r</tspan><tspan class="cls-9" x="113.04" y="0">s de son dé</tspan><tspan class="cls-5" x="172.26" y="0">c</tspan><tspan x="177.88" y="0">ès, </tspan><tspan class="cls-15" x="195.21" y="0">t</tspan><tspan x="199.48" y="0">ou</tspan><tspan class="cls-15" x="212.97" y="0">t</tspan><tspan x="217.25" y="0">e sa </tspan></text><text class="cls-2" transform="translate(19 201)"><tspan class="cls-12">f</tspan><tspan x="4.17" y="0">amille se </tspan><tspan class="cls-10" x="52.56" y="0">r</tspan><tspan x="56.68" y="0">éunit </tspan><tspan class="cls-33" x="86.66" y="0">e</tspan><tspan x="92.95" y="0">t</tspan><tspan class="cls-38" x="97.25" y="0"> </tspan><tspan x="100.04" y="0">vide ses</tspan><tspan class="cls-38" x="141.96" y="0"> </tspan><tspan x="144.75" y="0">vieilles </tspan><tspan class="cls-39" x="183.3" y="0">a</tspan><tspan class="cls-12" x="189.18" y="0">ff</tspan><tspan class="cls-9" x="197.13" y="0">ai</tspan><tspan class="cls-10" x="205.97" y="0">r</tspan><tspan x="210.09" y="0">es.</tspan></text><text class="cls-2" transform="translate(19 216)"><tspan class="cls-39">I</tspan><tspan x="3.27" y="0">ls </tspan><tspan class="cls-10" x="14.37" y="0">r</tspan><tspan class="cls-33" x="18.49" y="0">e</tspan><tspan x="24.79" y="0">t</tspan><tspan class="cls-10" x="29.09" y="0">r</tspan><tspan x="33.21" y="0">ou</tspan><tspan class="cls-14" x="46.7" y="0">v</tspan><tspan class="cls-9" x="52.73" y="0">e</tspan><tspan class="cls-8" x="59.06" y="0">n</tspan><tspan x="65.68" y="0">t, cachés au </tspan><tspan class="cls-25" x="130.22" y="0">f</tspan><tspan class="cls-9" x="134.23" y="0">ond d’un car</tspan><tspan class="cls-37" x="199.32" y="0">t</tspan><tspan x="203.6" y="0">on, </tspan></text><text class="cls-2" transform="translate(19 231)">plusieu<tspan class="cls-12" x="37.35" y="0">r</tspan><tspan x="41.68" y="0">s carn</tspan><tspan class="cls-33" x="72.71" y="0">e</tspan><tspan x="79" y="0">ts à dessin </tspan><tspan class="cls-5" x="136.7" y="0">c</tspan><tspan x="142.33" y="0">o</tspan><tspan class="cls-8" x="149.13" y="0">n</tspan><tspan class="cls-15" x="155.74" y="0">t</tspan><tspan class="cls-9" x="160.01" y="0">ena</tspan><tspan class="cls-11" x="179.01" y="0">n</tspan><tspan x="185.62" y="0">t des </tspan></text><text class="cls-2" transform="translate(19 246)">c<tspan class="cls-10" x="5.73" y="0">r</tspan><tspan x="9.85" y="0">oquis de mode. </tspan></text><text class="cls-2" transform="translate(19 261)"><tspan class="cls-8">D</tspan><tspan x="9.04" y="0">e nomb</tspan><tspan class="cls-10" x="48.54" y="0">r</tspan><tspan x="52.66" y="0">euses </tspan><tspan class="cls-15" x="85.49" y="0">t</tspan><tspan x="89.76" y="0">enues, imaginées pa</tspan><tspan class="cls-4" x="194.97" y="0">r</tspan><tspan x="199.08" y="0"> </tspan><tspan class="cls-53" x="202.16" y="0">S</tspan><tspan x="208.61" y="0">imon.</tspan></text></g></g></g></g></svg>