<svg xmlns="http://www.w3.org/2000/svg" viewBox="0 0 701.1 340.28"><defs><style>.cls-1{fill:#141414;}.cls-2{fill:#1e1e1e;}.cls-3,.cls-5{fill:#fff;}.cls-3{stroke:#1d1c1c;stroke-miterlimit:10;}.cls-4,.cls-5{isolation:isolate;}.cls-5{font-size:12px;font-family:Lato-Regular, Lato;}.cls-6{letter-spacing:-0.02em;}.cls-7{letter-spacing:-0.01em;}.cls-8{letter-spacing:-0.02em;}.cls-9{letter-spacing:0em;}.cls-10{letter-spacing:0em;}.cls-11{letter-spacing:-0.02em;}.cls-12{letter-spacing:-0.01em;}.cls-13{letter-spacing:0em;}.cls-14{letter-spacing:-0.01em;}.cls-15{letter-spacing:-0.02em;}.cls-16{letter-spacing:-0.02em;}.cls-17{letter-spacing:-0.01em;}.cls-18{letter-spacing:-0.03em;}.cls-19{letter-spacing:0em;}.cls-20{letter-spacing:-0.01em;}.cls-21{letter-spacing:-0.02em;}.cls-22{letter-spacing:-0.01em;}.cls-23{letter-spacing:-0.02em;}.cls-24{letter-spacing:-0.01em;}.cls-25{letter-spacing:-0.01em;}.cls-26{letter-spacing:0em;}.cls-27{letter-spacing:-0.01em;}.cls-28{letter-spacing:-0.03em;}.cls-29{letter-spacing:-0.01em;}.cls-30{letter-spacing:-0.01em;}.cls-31{letter-spacing:-0.04em;}.cls-32{letter-spacing:0em;}.cls-33{letter-spacing:-0.01em;}.cls-34{letter-spacing:-0.02em;}.cls-35{letter-spacing:-0.01em;}.cls-36{letter-spacing:-0.02em;}.cls-37{letter-spacing:-0.01em;}.cls-38{letter-spacing:-0.04em;}.cls-39{letter-spacing:-0.01em;}.cls-40{letter-spacing:-0.01em;}.cls-41{letter-spacing:-0.01em;}.cls-42{letter-spacing:0em;}.cls-43{letter-spacing:0em;}</style></defs><g id="Calque_2" data-name="Calque 2"><g id="Calque_1-2" data-name="Calque 1"><g id="Groupe_1" data-name="Groupe 1"><g id="Groupe_6" data-name="Groupe 6"><path id="Tracé_2" data-name="Tracé 2" class="cls-1" d="M392.39,95.23s16.08-3.92,55.15-27.93S498,40,566,20.9s86.28-24,90.35-19.13,44,86.69,44.77,166c-5.12,67.7-21.44,122.24-34.44,162.44a14.47,14.47,0,0,1-17.44,9.54c-38-9.94-146.11-38.7-163.83-49.07-21.57-12.61-75.7-45.58-87.1-73.66-8.54-11.8-7.94-20.88-7.94-20.88Z"/><path id="Tracé_3" data-name="Tracé 3" class="cls-1" d="M308.71,95.23s-16.08-3.92-55.15-27.93S203.09,40,135.12,20.9,48.84-3.12,44.77,1.77.81,88.46,0,167.82c5.12,67.7,21.44,122.24,34.44,162.44a14.47,14.47,0,0,0,17.44,9.54c38-9.94,146.11-38.7,163.83-49.07,21.57-12.61,75.7-45.58,87.1-73.66,8.54-11.8,7.94-20.88,7.94-20.88Z"/><path id="Tracé_4" data-name="Tracé 4" class="cls-2" d="M392.36,138.61c60.47,26.31,135.92,17.6,189.56-20.78a316.26,316.26,0,0,1-190.62-.94l-.89,19.6c-.35-.4-.72-.78-1.07-1.17l-1.79,35.47c61.73,55.32,146.45,87.8,229.13,81.92C531.51,243.09,450.32,201.73,392.36,138.61Z"/><path id="Tracé_5" data-name="Tracé 5" class="cls-2" d="M308.75,138.61c-60.48,26.31-135.93,17.6-189.57-20.78a316.29,316.29,0,0,0,190.63-.94l.88,19.6,1.08-1.17,1.78,35.47c-61.72,55.32-146.45,87.8-229.13,81.92C169.6,243.09,250.78,201.73,308.75,138.61Z"/><path id="Tracé_6" data-name="Tracé 6" class="cls-3" d="M396.57,107.81q-.92-3.56-2.1-7c-.39-1.14-.8-2.27-1.23-3.4-.28-.72-.56-1.44-.86-2.15a4.87,4.87,0,0,0-2.32-2.67c-1.82-1-4.05-.94-6.14-.81-11.2.7-23.07,3.42-33.37,3-10.3.4-22.18-2.32-33.37-3-2.09-.13-4.32-.23-6.14.81a4.93,4.93,0,0,0-2.33,2.67c-.29.71-.58,1.43-.86,2.15-.43,1.13-.84,2.26-1.23,3.4q-1.17,3.48-2.1,7c-4,15.46-4.08,31.6-2.24,47.38.92,7.95,2.31,15.84,3.9,23.68,1.08,5.3,1.07,12.95,4.56,17.33,2.22,2.8,6.35,2.3,9.33,1.2a87.22,87.22,0,0,1,60.95,0c3,1.1,7.1,1.6,9.33-1.2,3.49-4.38,3.47-12,4.55-17.33,1.6-7.84,3-15.73,3.91-23.68C400.65,139.41,400.57,123.28,396.57,107.81Z"/></g><g id="Notre_collection_porte_des_valeurs_positives_nous_voulons_communiquer_un_message_d_espoir_et_de_courage_pour_rappeler_l_histoire_de_notre_marque_et_do" data-name="Notre collection porte des valeurs positives nous voulons communiquer un message d espoir et de courage pour rappeler l histoire de notre marque et do"><g id="Notre_collection_porte_des_valeurs_positives_" data-name="Notre collection porte des valeurs positives " class="cls-4"><text class="cls-5" transform="translate(22.55 103.89)"><tspan class="cls-6">N</tspan><tspan class="cls-7" x="8.98" y="0">o</tspan><tspan x="15.67" y="0">t</tspan><tspan class="cls-8" x="19.97" y="0">r</tspan><tspan class="cls-9" x="24.1" y="0">e </tspan><tspan class="cls-7" x="33.5" y="0">c</tspan><tspan x="39.13" y="0">ollection por</tspan><tspan class="cls-10" x="105.52" y="0">t</tspan><tspan x="109.79" y="0">e des</tspan><tspan class="cls-11" x="137.45" y="0"> </tspan><tspan class="cls-12" x="140.24" y="0">v</tspan><tspan x="146.3" y="0">aleu</tspan><tspan class="cls-13" x="168.12" y="0">r</tspan><tspan x="172.45" y="0">s positi</tspan><tspan class="cls-14" x="209.72" y="0">v</tspan><tspan x="215.74" y="0">es,</tspan></text></g><g id="nous_voulons_communiquer_un_message_" data-name="nous voulons communiquer un message " class="cls-4"><text class="cls-5" transform="translate(22.55 118.89)">nous<tspan class="cls-15" x="25.39" y="0"> </tspan><tspan class="cls-14" x="28.17" y="0">v</tspan><tspan x="34.19" y="0">oulons </tspan><tspan class="cls-7" x="72.29" y="0">c</tspan><tspan class="cls-9" x="77.91" y="0">ommunique</tspan><tspan class="cls-16" x="140.46" y="0">r</tspan><tspan x="144.58" y="0" xml:space="preserve"> un messa</tspan><tspan class="cls-17" x="196.67" y="0">g</tspan><tspan x="202.82" y="0">e</tspan></text></g><g id="d_espoir_et_de_courage_pour_rappeler_" data-name="d espoir et de courage pour rappeler " class="cls-4"><text class="cls-5" transform="translate(22.55 133.89)">d<tspan class="cls-18" x="6.72" y="0">’</tspan><tspan x="8.9" y="0">espoi</tspan><tspan class="cls-16" x="36.84" y="0">r</tspan><tspan x="40.96" y="0"> </tspan><tspan class="cls-19" x="44.03" y="0">e</tspan><tspan x="50.32" y="0">t de </tspan><tspan class="cls-7" x="73.82" y="0">c</tspan><tspan x="79.45" y="0">ou</tspan><tspan class="cls-20" x="92.94" y="0">r</tspan><tspan x="97.21" y="0">a</tspan><tspan class="cls-17" x="103.17" y="0">g</tspan><tspan x="109.32" y="0">e, pou</tspan><tspan class="cls-21" x="141.67" y="0">r</tspan><tspan class="cls-9" x="145.79" y="0"> </tspan><tspan class="cls-20" x="148.86" y="0">r</tspan><tspan x="153.13" y="0">appele</tspan><tspan class="cls-16" x="188.05" y="0">r</tspan></text></g><g id="l_histoire_de_notre_marque_et_donc_l_homme_" data-name="l histoire de notre marque et donc l homme " class="cls-4"><text class="cls-5" transform="translate(22.55 148.89)">l’his<tspan class="cls-10" x="20.17" y="0">t</tspan><tspan x="24.44" y="0">oi</tspan><tspan class="cls-8" x="34.12" y="0">r</tspan><tspan class="cls-9" x="38.24" y="0">e de n</tspan><tspan class="cls-22" x="70.48" y="0">o</tspan><tspan x="77.17" y="0">t</tspan><tspan class="cls-8" x="81.47" y="0">r</tspan><tspan x="85.6" y="0">e ma</tspan><tspan class="cls-23" x="110.84" y="0">r</tspan><tspan x="114.97" y="0">que </tspan><tspan class="cls-19" x="137.79" y="0">e</tspan><tspan x="144.08" y="0">t donc l’homme</tspan></text></g><g id="dont_nous_nous_sommes_inspirés._Il_a_vécu_" data-name="dont nous nous sommes inspirés. Il a vécu " class="cls-4"><text class="cls-5" transform="translate(22.55 163.89)">do<tspan class="cls-24" x="13.52" y="0">n</tspan><tspan class="cls-9" x="20.14" y="0">t nous nous sommes inspi</tspan><tspan class="cls-8" x="155.15" y="0">r</tspan><tspan x="159.27" y="0">és. </tspan><tspan class="cls-25" x="176.7" y="0">I</tspan><tspan class="cls-26" x="179.97" y="0">l a</tspan><tspan class="cls-15" x="191.84" y="0"> </tspan><tspan class="cls-14" x="194.63" y="0">v</tspan><tspan x="200.65" y="0">écu</tspan></text></g><g id="dans_la_peur_avec_de_l_espoir_et_du_courage_" data-name="dans la peur avec de l espoir et du courage " class="cls-4"><text class="cls-5" transform="translate(22.55 178.89)">dans la peu<tspan class="cls-21" x="59.27" y="0">r</tspan><tspan class="cls-9" x="63.38" y="0"> </tspan><tspan class="cls-27" x="66.46" y="0">a</tspan><tspan class="cls-14" x="72.29" y="0">v</tspan><tspan x="78.32" y="0">ec de l</tspan><tspan class="cls-28" x="112.42" y="0">’</tspan><tspan x="114.59" y="0">espoi</tspan><tspan class="cls-16" x="142.53" y="0">r</tspan><tspan class="cls-9" x="146.65" y="0"> </tspan><tspan class="cls-19" x="149.72" y="0">e</tspan><tspan x="156.02" y="0">t du </tspan><tspan class="cls-7" x="179.87" y="0">c</tspan><tspan x="185.49" y="0">ou</tspan><tspan class="cls-20" x="198.99" y="0">r</tspan><tspan x="203.26" y="0">a</tspan><tspan class="cls-17" x="209.22" y="0">g</tspan><tspan x="215.37" y="0">e</tspan></text></g><g id="pour_pouvoir_s_en_sortir_et_nous_voulons_" data-name="pour pouvoir s en sortir et nous voulons " class="cls-4"><text class="cls-5" transform="translate(22.55 193.89)">pou<tspan class="cls-21" x="20.22" y="0">r</tspan><tspan class="cls-9" x="24.34" y="0" xml:space="preserve"> pou</tspan><tspan class="cls-29" x="47.63" y="0">v</tspan><tspan x="53.65" y="0">oi</tspan><tspan class="cls-16" x="63.33" y="0">r</tspan><tspan x="67.45" y="0"> </tspan><tspan class="cls-30" x="70.52" y="0">s</tspan><tspan class="cls-28" x="75.64" y="0">’</tspan><tspan x="77.82" y="0">en sorti</tspan><tspan class="cls-31" x="117.68" y="0">r</tspan><tspan x="121.56" y="0">, </tspan><tspan class="cls-19" x="127.36" y="0">e</tspan><tspan class="cls-9" x="133.65" y="0">t nous</tspan><tspan class="cls-15" x="166.41" y="0"> </tspan><tspan class="cls-14" x="169.2" y="0">v</tspan><tspan x="175.22" y="0">oulons</tspan></text></g><g id="transmettre_ces_valeurs_à_travers_notre_" data-name="transmettre ces valeurs à travers notre " class="cls-4"><text class="cls-5" transform="translate(22.55 208.89)">t<tspan class="cls-20" x="4.3" y="0">r</tspan><tspan class="cls-9" x="8.57" y="0">ansm</tspan><tspan class="cls-19" x="36.3" y="0">e</tspan><tspan class="cls-9" x="42.59" y="0">tt</tspan><tspan class="cls-8" x="50.79" y="0">r</tspan><tspan x="54.91" y="0">e </tspan><tspan class="cls-7" x="64.32" y="0">c</tspan><tspan x="69.94" y="0">es</tspan><tspan class="cls-15" x="81.47" y="0"> </tspan><tspan class="cls-12" x="84.26" y="0">v</tspan><tspan class="cls-9" x="90.32" y="0">aleu</tspan><tspan class="cls-32" x="112.14" y="0">r</tspan><tspan class="cls-9" x="116.47" y="0">s à t</tspan><tspan class="cls-20" x="138.08" y="0">r</tspan><tspan class="cls-27" x="142.35" y="0">a</tspan><tspan class="cls-14" x="148.19" y="0">v</tspan><tspan class="cls-9" x="154.21" y="0">e</tspan><tspan class="cls-32" x="160.55" y="0">r</tspan><tspan x="164.88" y="0">s n</tspan><tspan class="cls-7" x="179.84" y="0">o</tspan><tspan x="186.54" y="0">t</tspan><tspan class="cls-8" x="190.84" y="0">r</tspan><tspan class="cls-9" x="194.96" y="0">e</tspan></text></g><g id="collection." class="cls-4"><text class="cls-5" transform="translate(22.55 223.89)"><tspan class="cls-7">c</tspan><tspan x="5.62" y="0">ollection.</tspan></text></g><g id="Nous_souhaitons_également_transmettre_des_" data-name="Nous souhaitons également transmettre des " class="cls-4"><text class="cls-5" transform="translate(22.55 238.89)"><tspan class="cls-6">N</tspan><tspan x="8.98" y="0">ous souhai</tspan><tspan class="cls-10" x="64.97" y="0">t</tspan><tspan x="69.24" y="0">ons égaleme</tspan><tspan class="cls-24" x="134.92" y="0">n</tspan><tspan class="cls-9" x="141.53" y="0">t t</tspan><tspan class="cls-20" x="153.21" y="0">r</tspan><tspan x="157.48" y="0">ansm</tspan><tspan class="cls-19" x="185.21" y="0">e</tspan><tspan x="191.5" y="0">tt</tspan><tspan class="cls-8" x="199.7" y="0">r</tspan><tspan x="203.82" y="0">e des</tspan></text></g><g id="valeurs_responsables." data-name="valeurs responsables." class="cls-4"><text class="cls-5" transform="translate(22.55 253.89)"><tspan class="cls-12">v</tspan><tspan x="6.06" y="0">aleu</tspan><tspan class="cls-32" x="27.88" y="0">r</tspan><tspan class="cls-9" x="32.21" y="0">s </tspan><tspan class="cls-8" x="40.48" y="0">r</tspan><tspan x="44.6" y="0">esponsables.</tspan></text></g></g><g id="En_effet_nous_produisons_exclusivement_nos_produits_en_France_afin_de_préserver_le_savoir-faire_de_notre_pays_et_nous_agissons_en_terme_environnemental_pour_préserver_notre_planète." data-name="En effet nous produisons exclusivement nos produits en France afin de préserver le savoir-faire de notre pays et nous agissons en terme environnemental pour préserver notre planète." class="cls-4"><text class="cls-5" transform="translate(433 130)"><tspan class="cls-14">E</tspan><tspan x="6.76" y="0">n </tspan><tspan class="cls-33" x="16.53" y="0">e</tspan><tspan class="cls-34" x="22.81" y="0">ff</tspan><tspan class="cls-19" x="30.59" y="0">e</tspan><tspan x="36.89" y="0">t, nous p</tspan><tspan class="cls-8" x="82.17" y="0">r</tspan><tspan x="86.29" y="0">oduisons </tspan><tspan class="cls-35" x="136.35" y="0">e</tspan><tspan class="cls-36" x="142.61" y="0">x</tspan><tspan x="148.31" y="0">clusi</tspan><tspan class="cls-14" x="171.64" y="0">v</tspan><tspan x="177.66" y="0">eme</tspan><tspan class="cls-37" x="200.21" y="0">n</tspan><tspan x="206.82" y="0">t nos </tspan></text><text class="cls-5" transform="translate(433 145)">p<tspan class="cls-8" x="6.73" y="0">r</tspan><tspan class="cls-9" x="10.85" y="0">oduits en </tspan><tspan class="cls-38" x="62.62" y="0">F</tspan><tspan class="cls-20" x="68.89" y="0">r</tspan><tspan x="73.16" y="0">an</tspan><tspan class="cls-7" x="85.82" y="0">c</tspan><tspan x="91.44" y="0">e </tspan><tspan class="cls-39" x="100.85" y="0">a</tspan><tspan x="106.72" y="0">fin de p</tspan><tspan class="cls-8" x="146.21" y="0">r</tspan><tspan x="150.33" y="0">éser</tspan><tspan class="cls-14" x="172.57" y="0">v</tspan><tspan x="178.59" y="0">e</tspan><tspan class="cls-16" x="184.93" y="0">r</tspan><tspan x="189.05" y="0" xml:space="preserve"> le </tspan></text><text class="cls-5" transform="translate(433 160)">s<tspan class="cls-40" x="5.2" y="0">a</tspan><tspan class="cls-14" x="11.03" y="0">v</tspan><tspan x="17.06" y="0">oi</tspan><tspan class="cls-8" x="26.74" y="0">r</tspan><tspan x="30.86" y="0">-</tspan><tspan class="cls-32" x="35.32" y="0">f</tspan><tspan x="39.49" y="0">ai</tspan><tspan class="cls-8" x="48.34" y="0">r</tspan><tspan x="52.46" y="0">e de n</tspan><tspan class="cls-7" x="84.69" y="0">o</tspan><tspan class="cls-9" x="91.39" y="0">t</tspan><tspan class="cls-8" x="95.69" y="0">r</tspan><tspan x="99.81" y="0">e p</tspan><tspan class="cls-41" x="115.94" y="0">a</tspan><tspan class="cls-7" x="121.76" y="0">y</tspan><tspan x="127.84" y="0">s </tspan><tspan class="cls-42" x="136.11" y="0">e</tspan><tspan x="142.4" y="0">t nous agissons </tspan></text><text class="cls-5" transform="translate(433 175)">en <tspan class="cls-10" x="16.1" y="0">t</tspan><tspan x="20.38" y="0">erme e</tspan><tspan class="cls-27" x="56.69" y="0">n</tspan><tspan x="63.26" y="0">vi</tspan><tspan class="cls-8" x="72.34" y="0">r</tspan><tspan class="cls-9" x="76.46" y="0">onneme</tspan><tspan class="cls-37" x="119.2" y="0">n</tspan><tspan x="125.81" y="0">tal pou</tspan><tspan class="cls-16" x="162.2" y="0">r</tspan><tspan x="166.31" y="0" xml:space="preserve"> p</tspan><tspan class="cls-8" x="176.11" y="0">r</tspan><tspan x="180.23" y="0">éser</tspan><tspan class="cls-14" x="202.47" y="0">v</tspan><tspan x="208.49" y="0">e</tspan><tspan class="cls-16" x="214.83" y="0">r</tspan><tspan x="218.94" y="0"> </tspan></text><text class="cls-5" transform="translate(433 190)">n<tspan class="cls-22" x="6.7" y="0">o</tspan><tspan x="13.39" y="0">t</tspan><tspan class="cls-8" x="17.69" y="0">r</tspan><tspan x="21.82" y="0">e plan</tspan><tspan class="cls-19" x="53.44" y="0">è</tspan><tspan class="cls-43" x="59.74" y="0">t</tspan><tspan x="64.01" y="0">e.</tspan></text></g></g></g></g></svg>