<svg xmlns="http://www.w3.org/2000/svg" viewBox="0 0 701.1 340.28"><defs><style>.cls-1,.cls-2{isolation:isolate;}.cls-2,.cls-50{font-size:12px;font-family:Lato-Regular, Lato;}.cls-2,.cls-49,.cls-50,.cls-64{fill:#fff;}.cls-3{letter-spacing:-0.03em;}.cls-4{letter-spacing:-0.02em;}.cls-5{letter-spacing:-0.01em;}.cls-6{letter-spacing:-0.01em;}.cls-7{letter-spacing:-0.01em;}.cls-8{letter-spacing:-0.01em;}.cls-9{letter-spacing:0em;}.cls-10{letter-spacing:-0.02em;}.cls-11{letter-spacing:-0.01em;}.cls-12{letter-spacing:0em;}.cls-13{letter-spacing:0em;}.cls-14{letter-spacing:-0.01em;}.cls-15{letter-spacing:0em;}.cls-16{letter-spacing:-0.01em;}.cls-17{letter-spacing:0em;}.cls-18{letter-spacing:-0.02em;}.cls-19{letter-spacing:-0.03em;}.cls-20{letter-spacing:-0.01em;}.cls-21{letter-spacing:-0.01em;}.cls-22{letter-spacing:-0.01em;}.cls-23{letter-spacing:-0.01em;}.cls-24{letter-spacing:-0.02em;}.cls-25{letter-spacing:-0.02em;}.cls-26{letter-spacing:-0.04em;}.cls-27{letter-spacing:0em;}.cls-28{letter-spacing:-0.03em;}.cls-29{letter-spacing:0em;}.cls-30{letter-spacing:-0.02em;}.cls-31{letter-spacing:-0.03em;}.cls-32{letter-spacing:-0.01em;}.cls-33{letter-spacing:0em;}.cls-34{letter-spacing:-0.02em;}.cls-35{letter-spacing:-0.03em;}.cls-36{letter-spacing:-0.02em;}.cls-37{letter-spacing:0em;}.cls-38{letter-spacing:-0.02em;}.cls-39{letter-spacing:-0.01em;}.cls-40{letter-spacing:-0.03em;}.cls-41{letter-spacing:-0.04em;}.cls-42{letter-spacing:-0.01em;}.cls-43{letter-spacing:-0.03em;}.cls-44{letter-spacing:-0.01em;}.cls-45{letter-spacing:0em;}.cls-46{letter-spacing:-0.02em;}.cls-47{fill:#141414;}.cls-48{fill:#1e1e1e;}.cls-49{stroke:#1d1c1c;stroke-miterlimit:10;}.cls-51{letter-spacing:-0.01em;}.cls-52{letter-spacing:0em;}.cls-53{letter-spacing:-0.02em;}.cls-54{letter-spacing:-0.01em;}.cls-55{letter-spacing:0em;}.cls-56{letter-spacing:-0.02em;}.cls-57{letter-spacing:-0.01em;}.cls-58{letter-spacing:-0.02em;}.cls-59{letter-spacing:-0.02em;}.cls-60{letter-spacing:-0.02em;}.cls-61{letter-spacing:-0.01em;}.cls-62{letter-spacing:-0.01em;}.cls-63{letter-spacing:-0.06em;}</style></defs><g id="Calque_2" data-name="Calque 2"><g id="Calque_1-2" data-name="Calque 1"><g id="Groupe_1" data-name="Groupe 1"><g id="Pour_ceux_qui_pratiquaient_la_musique_elle_représentait_un_capital_survie._Pendant_les_cours_instants_que_dure_la_musique_il_retrouve_son_identité._Il" data-name="Pour ceux qui pratiquaient la musique elle représentait un capital survie. Pendant les cours instants que dure la musique il retrouve son identité. Il"><g id="Pour_ceux_qui" data-name="Pour ceux qui" class="cls-1"><text class="cls-2" transform="translate(446.55 75.39)"><tspan class="cls-3">P</tspan><tspan x="6.89" y="0">ou</tspan><tspan class="cls-4" x="20.38" y="0">r</tspan><tspan x="24.5" y="0"> </tspan><tspan class="cls-5" x="27.57" y="0">c</tspan><tspan x="33.19" y="0">eux qui</tspan></text></g><g id="pratiquaient_la_musique_elle_représentait_un_" data-name="pratiquaient la musique elle représentait un " class="cls-1"><text class="cls-2" transform="translate(446.55 90.39)">p<tspan class="cls-6" x="6.73" y="0">r</tspan><tspan class="cls-7" x="11" y="0">a</tspan><tspan x="16.88" y="0">tiquaie</tspan><tspan class="cls-8" x="52.87" y="0">n</tspan><tspan class="cls-9" x="59.48" y="0">t la musique, elle </tspan><tspan class="cls-10" x="150.3" y="0">r</tspan><tspan x="154.43" y="0">ep</tspan><tspan class="cls-10" x="167.49" y="0">r</tspan><tspan x="171.61" y="0">ése</tspan><tspan class="cls-11" x="189.48" y="0">n</tspan><tspan x="196.09" y="0">tait un</tspan></text></g><g id="capital_survie._Pendant_les_cours_instants_que" data-name="capital survie. Pendant les cours instants que" class="cls-1"><text class="cls-2" transform="translate(446.55 105.39)">capital survie. <tspan class="cls-3" x="75.03" y="0">P</tspan><tspan x="81.92" y="0">enda</tspan><tspan class="cls-11" x="107.64" y="0">n</tspan><tspan x="114.25" y="0">t les </tspan><tspan class="cls-5" x="139.06" y="0">c</tspan><tspan x="144.68" y="0">ou</tspan><tspan class="cls-12" x="158.18" y="0">r</tspan><tspan class="cls-9" x="162.51" y="0">s insta</tspan><tspan class="cls-11" x="195.81" y="0">n</tspan><tspan x="202.43" y="0">ts que</tspan></text></g><g id="dure_la_musique_il_retrouve_son_identité._Il_n_est_" data-name="dure la musique il retrouve son identité. Il n est " class="cls-1"><text class="cls-2" transform="translate(446.55 120.39)">du<tspan class="cls-10" x="13.41" y="0">r</tspan><tspan x="17.53" y="0">e la musique il </tspan><tspan class="cls-10" x="95.04" y="0">r</tspan><tspan class="cls-13" x="99.17" y="0">e</tspan><tspan x="105.46" y="0">t</tspan><tspan class="cls-10" x="109.76" y="0">r</tspan><tspan x="113.89" y="0">ou</tspan><tspan class="cls-14" x="127.38" y="0">v</tspan><tspan x="133.4" y="0">e son ide</tspan><tspan class="cls-8" x="180.51" y="0">n</tspan><tspan x="187.13" y="0">ti</tspan><tspan class="cls-15" x="194.52" y="0">t</tspan><tspan x="198.79" y="0">é. </tspan><tspan class="cls-16" x="211.03" y="0">I</tspan><tspan class="cls-17" x="214.3" y="0">l </tspan><tspan class="cls-18" x="220.2" y="0">n</tspan><tspan class="cls-19" x="226.71" y="0">’</tspan><tspan x="228.89" y="0">est</tspan></text></g><g id="plus_un_anonyme_au_crâne_rasé_avec_un" data-name="plus un anonyme au crâne rasé avec un" class="cls-1"><text class="cls-2" transform="translate(446.55 135.39)">plus un ano<tspan class="cls-20" x="60.44" y="0">n</tspan><tspan class="cls-17" x="66.98" y="0">yme au c</tspan><tspan class="cls-21" x="113.9" y="0">r</tspan><tspan x="118.17" y="0">âne </tspan><tspan class="cls-21" x="140.24" y="0">r</tspan><tspan x="144.51" y="0">asé </tspan><tspan class="cls-22" x="165.08" y="0">a</tspan><tspan class="cls-14" x="170.92" y="0">v</tspan><tspan x="176.94" y="0">ec un</tspan></text></g><g id="numéro_tatoué_sur_le_bras_perdu_dans_cette_" data-name="numéro tatoué sur le bras perdu dans cette " class="cls-1"><text class="cls-2" transform="translate(446.55 150.39)">numé<tspan class="cls-10" x="29.59" y="0">r</tspan><tspan x="33.71" y="0">o t</tspan><tspan class="cls-23" x="47.89" y="0">a</tspan><tspan class="cls-15" x="53.78" y="0">t</tspan><tspan x="58.05" y="0">oué su</tspan><tspan class="cls-4" x="92.84" y="0">r</tspan><tspan x="96.95" y="0" xml:space="preserve"> le b</tspan><tspan class="cls-21" x="118.99" y="0">r</tspan><tspan x="123.26" y="0">as, pe</tspan><tspan class="cls-24" x="153.27" y="0">r</tspan><tspan x="157.41" y="0">du dans </tspan><tspan class="cls-5" x="201.54" y="0">c</tspan><tspan class="cls-13" x="207.16" y="0">e</tspan><tspan class="cls-15" x="213.46" y="0">tt</tspan><tspan x="221.62" y="0">e</tspan></text></g><g id="foule._Lors_de_ses_divertissements_très" data-name="foule. Lors de ses divertissements très" class="cls-1"><text class="cls-2" transform="translate(446.55 165.39)"><tspan class="cls-25">f</tspan><tspan class="cls-9" x="4.01" y="0">oule. </tspan><tspan class="cls-26" x="32.57" y="0">L</tspan><tspan x="38.3" y="0">o</tspan><tspan class="cls-27" x="45.1" y="0">r</tspan><tspan x="49.43" y="0">s de ses di</tspan><tspan class="cls-14" x="103.23" y="0">v</tspan><tspan x="109.25" y="0">ertisseme</tspan><tspan class="cls-11" x="160.28" y="0">n</tspan><tspan x="166.9" y="0">ts t</tspan><tspan class="cls-10" x="183.77" y="0">r</tspan><tspan x="187.89" y="0">ès</tspan></text></g><g id="apprécié_des_Allemands_il_n_avait_plus_" data-name="apprécié des Allemands il n avait plus " class="cls-1"><text class="cls-2" transform="translate(446.55 180.39)">app<tspan class="cls-10" x="19.42" y="0">r</tspan><tspan x="23.54" y="0">écié des</tspan><tspan class="cls-28" x="66.14" y="0"> </tspan><tspan class="cls-29" x="68.81" y="0">A</tspan><tspan x="76.91" y="0">llemands il </tspan><tspan class="cls-30" x="135.21" y="0">n</tspan><tspan class="cls-31" x="141.72" y="0">’</tspan><tspan class="cls-22" x="143.98" y="0">a</tspan><tspan class="cls-32" x="149.82" y="0">v</tspan><tspan class="cls-9" x="155.88" y="0">ait plus</tspan></text></g><g id="l_impression_d_être_un_prisonnier_d_un_camp" data-name="l impression d être un prisonnier d un camp" class="cls-1"><text class="cls-2" transform="translate(446.55 195.39)">l’imp<tspan class="cls-10" x="24.87" y="0">r</tspan><tspan class="cls-9" x="28.99" y="0">ession d</tspan><tspan class="cls-19" x="71.89" y="0">’</tspan><tspan class="cls-33" x="74.07" y="0">ê</tspan><tspan class="cls-9" x="80.36" y="0">t</tspan><tspan class="cls-10" x="84.67" y="0">r</tspan><tspan x="88.79" y="0">e un prisonnie</tspan><tspan class="cls-34" x="163.23" y="0">r</tspan><tspan x="167.35" y="0" xml:space="preserve"> d’un camp</tspan></text></g><g id="d_extermination._Mais_cette_position_lui_valut_de_" data-name="d extermination. Mais cette position lui valut de " class="cls-1"><text class="cls-2" transform="translate(446.55 210.39)">d<tspan class="cls-35" x="6.72" y="0">’</tspan><tspan class="cls-23" x="8.9" y="0">e</tspan><tspan class="cls-17" x="15.16" y="0">x</tspan><tspan class="cls-15" x="21.13" y="0">t</tspan><tspan x="25.4" y="0">ermin</tspan><tspan class="cls-23" x="55.55" y="0">a</tspan><tspan class="cls-17" x="61.44" y="0">tion. </tspan><tspan class="cls-36" x="88.24" y="0">M</tspan><tspan x="99.2" y="0">ais </tspan><tspan class="cls-5" x="116.31" y="0">c</tspan><tspan class="cls-33" x="121.93" y="0">et</tspan><tspan class="cls-37" x="128.23" y="0">t</tspan><tspan x="136.39" y="0">e position lui</tspan><tspan class="cls-38" x="203.77" y="0"> </tspan><tspan class="cls-32" x="206.55" y="0">v</tspan><tspan x="212.61" y="0">alut de</tspan></text></g><g id="nombreuses_critiques_car_considéré_comme" data-name="nombreuses critiques car considéré comme" class="cls-1"><text class="cls-2" transform="translate(446.55 225.39)">nomb<tspan class="cls-10" x="30.09" y="0">r</tspan><tspan x="34.21" y="0">euses critiques ca</tspan><tspan class="cls-34" x="127.12" y="0">r</tspan><tspan class="cls-9" x="131.23" y="0"> </tspan><tspan class="cls-5" x="134.3" y="0">c</tspan><tspan x="139.93" y="0">onsidé</tspan><tspan class="cls-10" x="174.56" y="0">r</tspan><tspan x="178.68" y="0">é </tspan><tspan class="cls-5" x="188.09" y="0">c</tspan><tspan x="193.71" y="0">omme</tspan></text></g><g id="un_collaborateur_par_les_autres_prisonniers_du_" data-name="un collaborateur par les autres prisonniers du " class="cls-1"><text class="cls-2" transform="translate(446.55 240.39)">un <tspan class="cls-5" x="16.46" y="0">c</tspan><tspan x="22.08" y="0">ollabo</tspan><tspan class="cls-6" x="54.04" y="0">r</tspan><tspan class="cls-7" x="58.31" y="0">a</tspan><tspan class="cls-15" x="64.19" y="0">t</tspan><tspan class="cls-9" x="68.47" y="0">eu</tspan><tspan class="cls-4" x="81.49" y="0">r</tspan><tspan class="cls-9" x="85.61" y="0" xml:space="preserve"> pa</tspan><tspan class="cls-4" x="101.37" y="0">r</tspan><tspan x="105.49" y="0" xml:space="preserve"> les aut</tspan><tspan class="cls-10" x="142.95" y="0">r</tspan><tspan x="147.07" y="0">es prisonnie</tspan><tspan class="cls-12" x="210.26" y="0">r</tspan><tspan x="214.59" y="0">s du</tspan></text></g><g id="camp._Il_se_sentait_donc_coupable." data-name="camp. Il se sentait donc coupable." class="cls-1"><text class="cls-2" transform="translate(446.55 255.39)">camp. <tspan class="cls-39" x="34.19" y="0">I</tspan><tspan x="37.46" y="0">l se se</tspan><tspan class="cls-8" x="69.5" y="0">n</tspan><tspan class="cls-9" x="76.12" y="0">tait donc </tspan><tspan class="cls-5" x="125.66" y="0">c</tspan><tspan x="131.28" y="0">oupable.</tspan></text></g></g><g id="Simon_Laks_fut_arrêté_en_1941_lors_des_premières_grandes_rafles_interné_à_Beaune-la-_Rolande_puis_à_Drancy_déporté_à_Auschwitz_où_il_demeura_jusqu_à_l" data-name="Simon Laks fut arrêté en 1941 lors des premières grandes rafles interné à Beaune-la- Rolande puis à Drancy déporté à Auschwitz où il demeura jusqu à l"><g id="Rolande_puis_à_Drancy_déporté_à_Auschwitz_où_" data-name="Rolande puis à Drancy déporté à Auschwitz où " class="cls-1"><text class="cls-2" transform="translate(24.55 115.39)"><tspan class="cls-40">R</tspan><tspan class="cls-9" x="7.13" y="0">olande puis à </tspan><tspan class="cls-22" x="79.15" y="0">D</tspan><tspan class="cls-21" x="88.15" y="0">r</tspan><tspan x="92.42" y="0">anc</tspan><tspan class="cls-41" x="110.81" y="0">y</tspan><tspan x="116.55" y="0">, dépor</tspan><tspan class="cls-15" x="153.3" y="0">t</tspan><tspan x="157.57" y="0">é à</tspan><tspan class="cls-28" x="172.94" y="0"> </tspan><tspan class="cls-20" x="175.61" y="0">A</tspan><tspan x="183.59" y="0">usc</tspan><tspan class="cls-15" x="201.2" y="0">h</tspan><tspan x="207.87" y="0">witz où</tspan></text></g><g id="il_demeura_jusqu_à_l_évacuation_du_camp_de" data-name="il demeura jusqu à l évacuation du camp de" class="cls-1"><text class="cls-2" transform="translate(24.55 130.39)">il demeu<tspan class="cls-6" x="44.74" y="0">r</tspan><tspan x="49.01" y="0">a jusqu</tspan><tspan class="cls-31" x="86.22" y="0">’</tspan><tspan x="88.48" y="0">à l</tspan><tspan class="cls-19" x="100.34" y="0">’</tspan><tspan class="cls-42" x="102.52" y="0">év</tspan><tspan x="114.79" y="0">acu</tspan><tspan class="cls-7" x="133.17" y="0">a</tspan><tspan x="139.05" y="0">tion du camp de</tspan></text></g><g id="Birkenau_en_octobre_1944." data-name="Birkenau en octobre 1944." class="cls-1"><text class="cls-2" transform="translate(24.55 160.39)"><tspan class="cls-22">B</tspan><tspan x="7.63" y="0">ir</tspan><tspan class="cls-43" x="14.88" y="0">k</tspan><tspan x="20.63" y="0">enau en oc</tspan><tspan class="cls-37" x="78.03" y="0">t</tspan><tspan x="82.3" y="0">ob</tspan><tspan class="cls-10" x="95.83" y="0">r</tspan><tspan x="99.95" y="0">e 1944.</tspan></text></g><g id="Il_fut_sauvé_par_son_habilité_à_jouer_au_bridge_qui_" data-name="Il fut sauvé par son habilité à jouer au bridge qui " class="cls-1"><text class="cls-2" transform="translate(24.55 175.39)"><tspan class="cls-39">I</tspan><tspan x="3.27" y="0">l fut sau</tspan><tspan class="cls-14" x="45.29" y="0">v</tspan><tspan x="51.32" y="0">é pa</tspan><tspan class="cls-4" x="73.42" y="0">r</tspan><tspan x="77.53" y="0" xml:space="preserve"> son habili</tspan><tspan class="cls-15" x="130.34" y="0">t</tspan><tspan x="134.61" y="0">é à joue</tspan><tspan class="cls-4" x="175.77" y="0">r</tspan><tspan x="179.88" y="0" xml:space="preserve"> au brid</tspan><tspan class="cls-6" x="219.37" y="0">g</tspan><tspan x="225.51" y="0">e qui</tspan></text></g><g id="le_conduisit_ensuite_à_l_orchestre._Il_savait" data-name="le conduisit ensuite à l orchestre. Il savait" class="cls-1"><text class="cls-2" transform="translate(24.55 190.39)">le <tspan class="cls-5" x="12.24" y="0">c</tspan><tspan class="cls-9" x="17.86" y="0">onduisit ensui</tspan><tspan class="cls-15" x="90.9" y="0">t</tspan><tspan x="95.17" y="0">e à l</tspan><tspan class="cls-19" x="116.45" y="0">’</tspan><tspan class="cls-9" x="118.62" y="0">o</tspan><tspan class="cls-10" x="125.43" y="0">r</tspan><tspan class="cls-17" x="129.55" y="0">chest</tspan><tspan class="cls-10" x="157.81" y="0">r</tspan><tspan x="161.93" y="0">e. </tspan><tspan class="cls-39" x="174.17" y="0">I</tspan><tspan x="177.44" y="0">l s</tspan><tspan class="cls-44" x="188.54" y="0">a</tspan><tspan class="cls-32" x="194.38" y="0">v</tspan><tspan x="200.44" y="0">ait</tspan></text></g><g id="jouer_du_violon_et_parler_polonais_cela_lui_permit_" data-name="jouer du violon et parler polonais cela lui permit " class="cls-1"><text class="cls-2" transform="translate(24.55 205.39)">joue<tspan class="cls-4" x="22.71" y="0">r</tspan><tspan x="26.83" y="0" xml:space="preserve"> du</tspan><tspan class="cls-38" x="43.31" y="0"> </tspan><tspan x="46.09" y="0">violon </tspan><tspan class="cls-33" x="81.37" y="0">e</tspan><tspan x="87.67" y="0">t parle</tspan><tspan class="cls-34" x="121.26" y="0">r</tspan><tspan class="cls-9" x="125.38" y="0" xml:space="preserve"> polonais, </tspan><tspan class="cls-5" x="178.15" y="0">c</tspan><tspan x="183.77" y="0">ela lui permit</tspan></text></g><g id="de_monter_les_échelons_jusqu_à_devenir" data-name="de monter les échelons jusqu à devenir" class="cls-1"><text class="cls-2" transform="translate(24.55 220.39)">de mo<tspan class="cls-11" x="32.8" y="0">n</tspan><tspan class="cls-15" x="39.41" y="0">t</tspan><tspan x="43.69" y="0">e</tspan><tspan class="cls-34" x="50.02" y="0">r</tspan><tspan class="cls-9" x="54.14" y="0" xml:space="preserve"> les échelons jusqu</tspan><tspan class="cls-31" x="152.52" y="0">’</tspan><tspan x="154.77" y="0">à d</tspan><tspan class="cls-32" x="170.53" y="0">e</tspan><tspan class="cls-14" x="176.73" y="0">v</tspan><tspan x="182.76" y="0">eni</tspan><tspan class="cls-34" x="198.67" y="0">r</tspan></text></g><g id="chef_d_orchestre_du_camp._C_est_grâce_à_la_" data-name="chef d orchestre du camp. C est grâce à la " class="cls-1"><text class="cls-2" transform="translate(24.55 235.39)">ch<tspan class="cls-45" x="12.43" y="0">e</tspan><tspan class="cls-46" x="18.7" y="0">f</tspan><tspan x="22.69" y="0" xml:space="preserve"> d</tspan><tspan class="cls-19" x="32.48" y="0">’</tspan><tspan x="34.66" y="0">o</tspan><tspan class="cls-10" x="41.46" y="0">r</tspan><tspan x="45.58" y="0">chest</tspan><tspan class="cls-10" x="73.84" y="0">r</tspan><tspan class="cls-9" x="77.96" y="0">e du camp. C</tspan><tspan class="cls-19" x="146.06" y="0">’</tspan><tspan x="148.24" y="0">est g</tspan><tspan class="cls-21" x="173.39" y="0">r</tspan><tspan class="cls-9" x="177.66" y="0">â</tspan><tspan class="cls-5" x="183.62" y="0">c</tspan><tspan x="189.24" y="0">e à la</tspan></text></g><g id="musique_qu_il_a_survécu." data-name="musique qu il a survécu." class="cls-1"><text class="cls-2" transform="translate(24.55 250.39)">musique qu’il a sur<tspan class="cls-14" x="97.5" y="0">v</tspan><tspan x="103.52" y="0">écu.</tspan></text></g></g><g id="Groupe_6" data-name="Groupe 6"><path id="Tracé_2" data-name="Tracé 2" class="cls-47" d="M392.38,95.23s16.09-3.92,55.16-27.93S498,40,566,20.9s86.28-24,90.35-19.13,43.95,86.69,44.77,166c-5.13,67.7-21.44,122.24-34.44,162.44a14.47,14.47,0,0,1-17.44,9.54c-38-9.94-146.11-38.7-163.83-49.07-21.57-12.61-75.7-45.58-87.1-73.66-8.54-11.8-7.94-20.88-7.94-20.88Z"/><path id="Tracé_3" data-name="Tracé 3" class="cls-47" d="M308.71,95.23s-16.08-3.92-55.15-27.93S203.09,40,135.12,20.9,48.84-3.12,44.77,1.77.81,88.46,0,167.82c5.12,67.7,21.44,122.24,34.44,162.44a14.47,14.47,0,0,0,17.44,9.54c38-9.94,146.11-38.7,163.83-49.07,21.57-12.61,75.7-45.58,87.1-73.66,8.54-11.8,7.94-20.88,7.94-20.88Z"/><path id="Tracé_4" data-name="Tracé 4" class="cls-48" d="M392.35,138.61c60.48,26.31,135.93,17.6,189.57-20.78a316.29,316.29,0,0,1-190.63-.94l-.88,19.6-1.08-1.17-1.78,35.47c61.72,55.32,146.45,87.8,229.13,81.92C531.51,243.09,450.32,201.73,392.35,138.61Z"/><path id="Tracé_5" data-name="Tracé 5" class="cls-48" d="M308.74,138.61c-60.47,26.31-135.92,17.6-189.56-20.78a316.29,316.29,0,0,0,190.63-.94l.88,19.6,1.07-1.17,1.79,35.47c-61.72,55.32-146.45,87.8-229.13,81.92C169.59,243.09,250.78,201.73,308.74,138.61Z"/><path id="Tracé_6" data-name="Tracé 6" class="cls-49" d="M396.57,107.81q-.92-3.56-2.1-7c-.39-1.14-.8-2.27-1.23-3.4-.28-.72-.56-1.44-.86-2.15a4.87,4.87,0,0,0-2.32-2.67c-1.83-1-4.05-.94-6.14-.81-11.2.7-23.07,3.42-33.37,3-10.3.4-22.18-2.32-33.37-3-2.09-.13-4.32-.23-6.14.81a4.93,4.93,0,0,0-2.33,2.67c-.29.71-.58,1.43-.86,2.15-.43,1.13-.84,2.26-1.23,3.4q-1.19,3.48-2.1,7c-4,15.46-4.08,31.6-2.24,47.38.92,7.95,2.31,15.84,3.9,23.68,1.08,5.3,1.07,12.95,4.56,17.33,2.22,2.8,6.35,2.31,9.33,1.2a87.33,87.33,0,0,1,60.95,0c3,1.1,7.1,1.6,9.33-1.2,3.49-4.38,3.47-12,4.55-17.33,1.6-7.84,3-15.73,3.91-23.68C400.65,139.41,400.57,123.27,396.57,107.81Z"/></g><text class="cls-50" transform="translate(24.87 124.01)"><tspan class="cls-39">O</tspan><tspan x="9.52" y="0">u</tspan><tspan class="cls-4" x="16.21" y="0">r</tspan><tspan x="20.32" y="0"> </tspan><tspan class="cls-51" x="23.39" y="0">c</tspan><tspan class="cls-52" x="29.02" y="0">ollection carries positi</tspan><tspan class="cls-14" x="144.42" y="0">v</tspan><tspan x="150.45" y="0">e</tspan><tspan class="cls-53" x="156.78" y="0"> </tspan><tspan class="cls-32" x="159.57" y="0">v</tspan><tspan x="165.63" y="0">alues,</tspan><tspan class="cls-10" x="195.37" y="0"> </tspan><tspan class="cls-8" x="198.2" y="0">w</tspan><tspan x="207.54" y="0">e</tspan><tspan class="cls-10" x="213.87" y="0"> </tspan><tspan class="cls-54" x="216.7" y="0">w</tspan><tspan x="226.05" y="0">a</tspan><tspan class="cls-8" x="232.02" y="0">n</tspan><tspan x="238.63" y="0">t </tspan><tspan class="cls-55" x="246" y="0">t</tspan><tspan x="250.28" y="0">o </tspan><tspan class="cls-51" x="0" y="14.4">c</tspan><tspan x="5.62" y="14.4">ommunic</tspan><tspan class="cls-7" x="54.16" y="14.4">a</tspan><tspan class="cls-55" x="60.05" y="14.4">t</tspan><tspan x="64.32" y="14.4">e a messa</tspan><tspan class="cls-6" x="115.33" y="14.4">g</tspan><tspan x="121.47" y="14.4">e </tspan><tspan class="cls-32" x="130.88" y="14.4">o</tspan><tspan class="cls-56" x="137.55" y="14.4">f</tspan><tspan x="141.53" y="14.4" xml:space="preserve"> hope and </tspan><tspan class="cls-57" x="196.69" y="14.4">c</tspan><tspan x="202.31" y="14.4">ou</tspan><tspan class="cls-6" x="215.81" y="14.4">r</tspan><tspan x="220.08" y="14.4">a</tspan><tspan class="cls-6" x="226.04" y="14.4">g</tspan><tspan x="232.19" y="14.4">e, </tspan><tspan class="cls-55" x="244.32" y="14.4">t</tspan><tspan x="248.59" y="14.4">o </tspan><tspan class="cls-10" x="0" y="28.8">r</tspan><tspan x="4.12" y="28.8">ecall the his</tspan><tspan class="cls-37" x="66.07" y="28.8">t</tspan><tspan x="70.34" y="28.8">or</tspan><tspan class="cls-58" x="81.51" y="28.8">y</tspan><tspan x="87.4" y="28.8"> </tspan><tspan class="cls-32" x="90.47" y="28.8">o</tspan><tspan class="cls-59" x="97.15" y="28.8">f</tspan><tspan x="101.13" y="28.8" xml:space="preserve"> ou</tspan><tspan class="cls-4" x="117.7" y="28.8">r</tspan><tspan x="121.81" y="28.8" xml:space="preserve"> b</tspan><tspan class="cls-6" x="131.6" y="28.8">r</tspan><tspan x="135.88" y="28.8">and and the</tspan><tspan class="cls-10" x="198.11" y="28.8">r</tspan><tspan class="cls-45" x="202.24" y="28.8">e</tspan><tspan class="cls-25" x="208.51" y="28.8">f</tspan><tspan x="212.52" y="28.8">o</tspan><tspan class="cls-60" x="219.32" y="28.8">r</tspan><tspan x="223.45" y="28.8">e the </tspan><tspan x="0" y="43.2">man f</tspan><tspan class="cls-10" x="29.81" y="43.2">r</tspan><tspan x="33.93" y="43.2">om</tspan><tspan class="cls-10" x="50.6" y="43.2"> </tspan><tspan x="53.43" y="43.2">whom</tspan><tspan class="cls-60" x="86.23" y="43.2"> </tspan><tspan class="cls-8" x="89.05" y="43.2">w</tspan><tspan x="98.4" y="43.2">e</tspan><tspan class="cls-10" x="104.73" y="43.2"> </tspan><tspan class="cls-8" x="107.56" y="43.2">w</tspan><tspan x="116.9" y="43.2">e</tspan><tspan class="cls-10" x="123.24" y="43.2">r</tspan><tspan x="127.36" y="43.2">e inspi</tspan><tspan class="cls-10" x="161.14" y="43.2">r</tspan><tspan x="165.27" y="43.2">ed. </tspan><tspan class="cls-18" x="184.23" y="43.2">H</tspan><tspan x="193.2" y="43.2">e li</tspan><tspan class="cls-14" x="208.32" y="43.2">v</tspan><tspan x="214.35" y="43.2">ed in </tspan><tspan class="cls-25" x="0" y="57.6">f</tspan><tspan x="4.01" y="57.6">ea</tspan><tspan class="cls-4" x="16.31" y="57.6">r</tspan><tspan class="cls-10" x="20.42" y="57.6"> </tspan><tspan x="23.25" y="57.6">with hope and </tspan><tspan class="cls-57" x="101.71" y="57.6">c</tspan><tspan x="107.33" y="57.6">ou</tspan><tspan class="cls-6" x="120.83" y="57.6">r</tspan><tspan x="125.1" y="57.6">a</tspan><tspan class="cls-6" x="131.06" y="57.6">g</tspan><tspan x="137.21" y="57.6">e </tspan><tspan class="cls-55" x="146.62" y="57.6">t</tspan><tspan x="150.89" y="57.6">o be able </tspan><tspan class="cls-55" x="201.82" y="57.6">t</tspan><tspan x="206.09" y="57.6">o </tspan><tspan class="cls-51" x="215.96" y="57.6">c</tspan><tspan x="221.58" y="57.6">ope, </tspan><tspan x="0" y="72">and</tspan><tspan class="cls-10" x="19.38" y="72"> </tspan><tspan class="cls-8" x="22.21" y="72">w</tspan><tspan x="31.55" y="72">e</tspan><tspan class="cls-60" x="37.88" y="72"> </tspan><tspan class="cls-61" x="40.71" y="72">w</tspan><tspan x="50.06" y="72">a</tspan><tspan class="cls-8" x="56.03" y="72">n</tspan><tspan x="62.64" y="72">t </tspan><tspan class="cls-55" x="70.01" y="72">t</tspan><tspan x="74.29" y="72">o t</tspan><tspan class="cls-6" x="88.46" y="72">r</tspan><tspan x="92.74" y="72">ansmit these</tspan><tspan class="cls-53" x="159.58" y="72"> </tspan><tspan class="cls-32" x="162.37" y="72">v</tspan><tspan x="168.43" y="72">alues th</tspan><tspan class="cls-60" x="209.52" y="72">r</tspan><tspan x="213.64" y="72">ough ou</tspan><tspan class="cls-4" x="256.64" y="72">r</tspan><tspan x="260.75" y="72"> </tspan><tspan class="cls-51" x="0" y="86.4">c</tspan><tspan x="5.62" y="86.4">ollection.</tspan><tspan class="cls-62" x="53.88" y="86.4"> </tspan><tspan class="cls-63" x="56.79" y="86.4">W</tspan><tspan x="68.54" y="86.4">e also</tspan><tspan class="cls-10" x="98.74" y="86.4"> </tspan><tspan class="cls-61" x="101.57" y="86.4">w</tspan><tspan x="110.92" y="86.4">a</tspan><tspan class="cls-8" x="116.88" y="86.4">n</tspan><tspan x="123.5" y="86.4">t </tspan><tspan class="cls-37" x="130.87" y="86.4">t</tspan><tspan x="135.14" y="86.4">o t</tspan><tspan class="cls-6" x="149.32" y="86.4">r</tspan><tspan class="cls-52" x="153.59" y="86.4">ansmit </tspan><tspan class="cls-10" x="191.57" y="86.4">r</tspan><tspan x="195.7" y="86.4">esponsible </tspan><tspan class="cls-32" x="0" y="100.8">v</tspan><tspan x="6.06" y="100.8">alues.</tspan></text></g><path class="cls-64" d="M448.81,135.6h-1.16V127h1.16Z"/><path class="cls-64" d="M451.68,130.4a4,4,0,0,1,.42-.4,2.55,2.55,0,0,1,.47-.31,2.25,2.25,0,0,1,1.13-.26,2.23,2.23,0,0,1,.88.16,1.74,1.74,0,0,1,.63.47,2,2,0,0,1,.39.73,3.05,3.05,0,0,1,.13.94v3.87h-1.07v-3.87a1.63,1.63,0,0,0-.32-1.07,1.15,1.15,0,0,0-.95-.38,1.83,1.83,0,0,0-.89.22,3.14,3.14,0,0,0-.76.62v4.48h-1.07v-6.08h.64a.26.26,0,0,1,.28.22Z"/><path class="cls-64" d="M462.39,126.76v8.84h-.63a.27.27,0,0,1-.29-.22l-.1-.74a3.18,3.18,0,0,1-.89.75,2.16,2.16,0,0,1-1.15.29,2.13,2.13,0,0,1-.95-.2,1.94,1.94,0,0,1-.72-.59,2.65,2.65,0,0,1-.46-1,5,5,0,0,1-.17-1.34,3.9,3.9,0,0,1,.19-1.25,3,3,0,0,1,.51-1,2.26,2.26,0,0,1,.83-.67,2.32,2.32,0,0,1,1.1-.25,2.26,2.26,0,0,1,.95.19,2.17,2.17,0,0,1,.71.53v-3.37ZM461.32,131a1.65,1.65,0,0,0-.64-.56,1.85,1.85,0,0,0-.78-.16,1.55,1.55,0,0,0-1.31.6,2.87,2.87,0,0,0-.45,1.73,4.29,4.29,0,0,0,.1,1,2,2,0,0,0,.3.69,1.11,1.11,0,0,0,.49.4,1.51,1.51,0,0,0,.65.13,1.73,1.73,0,0,0,.92-.24,2.7,2.7,0,0,0,.72-.68Z"/><path class="cls-64" d="M469,134.75a1.9,1.9,0,0,1-.48.41,2.49,2.49,0,0,1-.59.29,3.69,3.69,0,0,1-.65.18,5,5,0,0,1-.67.05,3.15,3.15,0,0,1-1.16-.21,2.5,2.5,0,0,1-.91-.62,3,3,0,0,1-.61-1,4.23,4.23,0,0,1-.21-1.39,3.54,3.54,0,0,1,.19-1.19,2.86,2.86,0,0,1,.56-1,2.52,2.52,0,0,1,.9-.63,3.07,3.07,0,0,1,2.2,0,2.28,2.28,0,0,1,.8.53,2.36,2.36,0,0,1,.53.85,3.19,3.19,0,0,1,.19,1.15.83.83,0,0,1-.05.34.23.23,0,0,1-.21.08h-4.06a3.55,3.55,0,0,0,.16,1,2.24,2.24,0,0,0,.39.72,1.56,1.56,0,0,0,.6.42,2,2,0,0,0,.78.14,2.43,2.43,0,0,0,.7-.09,3.46,3.46,0,0,0,.5-.2l.35-.2a.47.47,0,0,1,.24-.1.25.25,0,0,1,.21.11Zm-.87-2.85a2.07,2.07,0,0,0-.1-.68,1.44,1.44,0,0,0-.31-.54,1.46,1.46,0,0,0-.49-.35,1.67,1.67,0,0,0-.65-.12,1.65,1.65,0,0,0-1.22.45,2.13,2.13,0,0,0-.55,1.24Z"/><path class="cls-64" d="M475.35,134.75a1.85,1.85,0,0,1-.47.41,2.69,2.69,0,0,1-.59.29,3.69,3.69,0,0,1-.65.18,5.16,5.16,0,0,1-.67.05,3.11,3.11,0,0,1-1.16-.21,2.62,2.62,0,0,1-.92-.62,2.87,2.87,0,0,1-.6-1,4,4,0,0,1-.22-1.39,3.54,3.54,0,0,1,.2-1.19,2.7,2.7,0,0,1,.56-1,2.48,2.48,0,0,1,.89-.63,2.84,2.84,0,0,1,1.19-.23,2.79,2.79,0,0,1,1,.18,2.32,2.32,0,0,1,.81.53,2.51,2.51,0,0,1,.53.85,3.42,3.42,0,0,1,.19,1.15.66.66,0,0,1-.06.34c0,.06-.1.08-.2.08h-4.06a3.22,3.22,0,0,0,.16,1,1.91,1.91,0,0,0,.39.72,1.56,1.56,0,0,0,.6.42,1.94,1.94,0,0,0,.78.14,2.31,2.31,0,0,0,.69-.09,3.05,3.05,0,0,0,.5-.2l.36-.2a.47.47,0,0,1,.24-.1.23.23,0,0,1,.2.11Zm-.86-2.85a2.06,2.06,0,0,0-.11-.68,1.39,1.39,0,0,0-.79-.89,1.69,1.69,0,0,0-.66-.12,1.63,1.63,0,0,0-1.21.45,2.14,2.14,0,0,0-.56,1.24Z"/><path class="cls-64" d="M481.78,126.76v8.84h-.63a.27.27,0,0,1-.29-.22l-.1-.74a3.28,3.28,0,0,1-.88.75,2.22,2.22,0,0,1-1.16.29,2.09,2.09,0,0,1-.94-.2,1.89,1.89,0,0,1-.73-.59,2.82,2.82,0,0,1-.46-1,5,5,0,0,1-.16-1.34,4.2,4.2,0,0,1,.18-1.25,3,3,0,0,1,.51-1,2.34,2.34,0,0,1,.83-.67,2.32,2.32,0,0,1,1.1-.25,2.35,2.35,0,0,1,1,.19,2.4,2.4,0,0,1,.71.53v-3.37ZM480.72,131a1.67,1.67,0,0,0-.65-.56,1.78,1.78,0,0,0-.78-.16,1.52,1.52,0,0,0-1.3.6,2.8,2.8,0,0,0-.46,1.73,4.29,4.29,0,0,0,.1,1,2,2,0,0,0,.3.69,1.11,1.11,0,0,0,.49.4,1.51,1.51,0,0,0,.65.13,1.73,1.73,0,0,0,.92-.24,2.59,2.59,0,0,0,.73-.68Z"/><path class="cls-64" d="M483.41,137.05l-.07-.08a.22.22,0,0,1,0-.09.31.31,0,0,1,0-.08.27.27,0,0,1,.07-.08l.15-.17.19-.26a2.4,2.4,0,0,0,.17-.32,1.29,1.29,0,0,0,.12-.38H484a.66.66,0,0,1-.5-.21.74.74,0,0,1-.2-.53.66.66,0,0,1,.2-.48.7.7,0,0,1,.52-.2.62.62,0,0,1,.31.07.61.61,0,0,1,.24.18,1.15,1.15,0,0,1,.14.27,1.18,1.18,0,0,1,0,.34,2.32,2.32,0,0,1-.07.56,3.34,3.34,0,0,1-.22.57,3.79,3.79,0,0,1-.36.56,3.17,3.17,0,0,1-.48.49Z"/><path class="cls-64" d="M497.41,129.52l-2,6.08h-.85q-.15,0-.21-.21L493,131.27A2.29,2.29,0,0,1,493,131l-.06-.28-.06.28c0,.1,0,.19-.08.29l-1.37,4.11a.24.24,0,0,1-.24.21h-.8l-2-6.08h.84a.31.31,0,0,1,.21.07.29.29,0,0,1,.12.15l1.16,3.92c.07.28.12.55.16.81,0-.13.08-.27.11-.4s.08-.28.13-.41l1.28-3.94a.33.33,0,0,1,.11-.15.28.28,0,0,1,.18-.06h.47a.34.34,0,0,1,.2.06.31.31,0,0,1,.1.15l1.26,3.94.12.41.1.4a3.14,3.14,0,0,1,.08-.4l.09-.41,1.19-3.92a.36.36,0,0,1,.12-.16.31.31,0,0,1,.19-.06Z"/><path class="cls-64" d="M503.3,134.75a1.85,1.85,0,0,1-.47.41,2.77,2.77,0,0,1-.6.29,3.46,3.46,0,0,1-.65.18,4.89,4.89,0,0,1-.66.05,3.11,3.11,0,0,1-1.16-.21,2.54,2.54,0,0,1-.92-.62,2.87,2.87,0,0,1-.6-1,4,4,0,0,1-.22-1.39,3.31,3.31,0,0,1,.2-1.19,2.56,2.56,0,0,1,.56-1,2.48,2.48,0,0,1,.89-.63,2.84,2.84,0,0,1,1.19-.23,2.79,2.79,0,0,1,1,.18,2.2,2.2,0,0,1,.8.53,2.23,2.23,0,0,1,.53.85,3.19,3.19,0,0,1,.2,1.15.66.66,0,0,1-.06.34c0,.06-.1.08-.2.08h-4.06a3.57,3.57,0,0,0,.15,1,2.08,2.08,0,0,0,.4.72,1.56,1.56,0,0,0,.6.42,1.94,1.94,0,0,0,.78.14,2.31,2.31,0,0,0,.69-.09,3.46,3.46,0,0,0,.5-.2l.35-.2a.54.54,0,0,1,.25-.1.24.24,0,0,1,.2.11Zm-.86-2.85a2.06,2.06,0,0,0-.11-.68,1.44,1.44,0,0,0-.31-.54,1.42,1.42,0,0,0-.48-.35,1.73,1.73,0,0,0-.66-.12,1.63,1.63,0,0,0-1.21.45,2.08,2.08,0,0,0-.56,1.24Z"/><path class="cls-64" d="M508.8,130.46a3.18,3.18,0,0,1,.88-.76,2.32,2.32,0,0,1,1.16-.29,2.24,2.24,0,0,1,1,.2,2.1,2.1,0,0,1,.73.6,2.82,2.82,0,0,1,.46,1,5,5,0,0,1,.16,1.34,4.15,4.15,0,0,1-.18,1.25,2.88,2.88,0,0,1-.52,1,2.26,2.26,0,0,1-.83.67,2.44,2.44,0,0,1-1.1.24,2.1,2.1,0,0,1-1.66-.71v2.69h-1.07v-8.14h.64a.27.27,0,0,1,.28.22Zm.05,3.67a1.74,1.74,0,0,0,.64.56,1.79,1.79,0,0,0,.78.17,1.55,1.55,0,0,0,1.31-.61,2.85,2.85,0,0,0,.46-1.73,4.3,4.3,0,0,0-.11-1,2.05,2.05,0,0,0-.3-.7,1.26,1.26,0,0,0-.49-.4,1.67,1.67,0,0,0-.65-.12,1.75,1.75,0,0,0-.92.24,2.55,2.55,0,0,0-.72.68Z"/><path class="cls-64" d="M515.52,130.74a2.74,2.74,0,0,1,.7-1,1.57,1.57,0,0,1,1-.35,2.21,2.21,0,0,1,.37,0,1,1,0,0,1,.31.14l-.07.79c0,.11-.09.16-.18.16l-.25,0a1.4,1.4,0,0,0-.37,0,1.36,1.36,0,0,0-.51.09,1.12,1.12,0,0,0-.4.25,1.61,1.61,0,0,0-.32.4,3.63,3.63,0,0,0-.25.56v3.84H514.5v-6.08h.61a.3.3,0,0,1,.24.07.32.32,0,0,1,.09.22Z"/><path class="cls-64" d="M521.19,129.43a3.09,3.09,0,0,1,1.2.22,2.52,2.52,0,0,1,.91.63,2.9,2.9,0,0,1,.58,1,4.08,4.08,0,0,1,.2,1.3,4,4,0,0,1-.2,1.29,2.94,2.94,0,0,1-.58,1,2.5,2.5,0,0,1-.91.62,3.41,3.41,0,0,1-2.41,0,2.45,2.45,0,0,1-.92-.62,2.94,2.94,0,0,1-.58-1,4,4,0,0,1-.2-1.29,4.08,4.08,0,0,1,.2-1.3,2.9,2.9,0,0,1,.58-1,2.48,2.48,0,0,1,.92-.63A3.07,3.07,0,0,1,521.19,129.43Zm0,5.42a1.56,1.56,0,0,0,1.34-.6,3.47,3.47,0,0,0,0-3.38,1.56,1.56,0,0,0-1.34-.6,2,2,0,0,0-.8.15,1.55,1.55,0,0,0-.56.45,2,2,0,0,0-.34.72,4.11,4.11,0,0,0-.11,1,2.8,2.8,0,0,0,.45,1.69A1.57,1.57,0,0,0,521.19,134.85Z"/><path class="cls-64" d="M530.46,126.76v8.84h-.64a.27.27,0,0,1-.29-.22l-.1-.74a3.14,3.14,0,0,1-.88.75,2.19,2.19,0,0,1-1.15.29,2.1,2.1,0,0,1-.95-.2,1.89,1.89,0,0,1-.73-.59,2.82,2.82,0,0,1-.46-1,5,5,0,0,1-.16-1.34,4.2,4.2,0,0,1,.18-1.25,3,3,0,0,1,.51-1,2.34,2.34,0,0,1,.83-.67,2.32,2.32,0,0,1,1.1-.25,2.35,2.35,0,0,1,1,.19,2.4,2.4,0,0,1,.71.53v-3.37ZM529.39,131a1.67,1.67,0,0,0-.65-.56,1.78,1.78,0,0,0-.78-.16,1.53,1.53,0,0,0-1.3.6,2.8,2.8,0,0,0-.46,1.73,4.88,4.88,0,0,0,.1,1,2,2,0,0,0,.3.69,1.16,1.16,0,0,0,.49.4,1.51,1.51,0,0,0,.65.13,1.73,1.73,0,0,0,.92-.24,2.59,2.59,0,0,0,.73-.68Z"/><path class="cls-64" d="M537.14,129.52v6.08h-.63a.27.27,0,0,1-.29-.22l-.08-.66a3.32,3.32,0,0,1-.89.71,2.3,2.3,0,0,1-1.13.27,2.23,2.23,0,0,1-.88-.17,1.67,1.67,0,0,1-.64-.47,1.84,1.84,0,0,1-.38-.72,3.14,3.14,0,0,1-.13-.94v-3.88h1.06v3.88a1.6,1.6,0,0,0,.32,1.06,1.16,1.16,0,0,0,1,.38,1.83,1.83,0,0,0,.89-.22,3.09,3.09,0,0,0,.76-.62v-4.48Z"/><path class="cls-64" d="M543.07,130.6l-.1.1a.18.18,0,0,1-.13,0,.37.37,0,0,1-.2-.08l-.27-.16a1.73,1.73,0,0,0-1-.24,1.84,1.84,0,0,0-.8.16,1.57,1.57,0,0,0-.57.46,2.2,2.2,0,0,0-.35.72,4,4,0,0,0-.11,1,3.65,3.65,0,0,0,.12,1,2.43,2.43,0,0,0,.36.72,1.5,1.5,0,0,0,.56.44,1.7,1.7,0,0,0,.73.16,1.87,1.87,0,0,0,.64-.1,1.64,1.64,0,0,0,.42-.21l.28-.2a.34.34,0,0,1,.22-.1.24.24,0,0,1,.2.11l.3.39a2.24,2.24,0,0,1-.45.42,3.5,3.5,0,0,1-.54.29,3.25,3.25,0,0,1-.61.17,4.62,4.62,0,0,1-.65.05,2.67,2.67,0,0,1-1.06-.21,2.42,2.42,0,0,1-.85-.61,2.68,2.68,0,0,1-.56-1,3.89,3.89,0,0,1-.21-1.32,4.26,4.26,0,0,1,.19-1.26,2.83,2.83,0,0,1,.56-1,2.42,2.42,0,0,1,.89-.65,2.92,2.92,0,0,1,1.22-.23,2.82,2.82,0,0,1,1.13.2,2.58,2.58,0,0,1,.87.59Z"/><path class="cls-64" d="M549.39,134.75a1.85,1.85,0,0,1-.47.41,2.69,2.69,0,0,1-.59.29,3.57,3.57,0,0,1-.66.18,4.89,4.89,0,0,1-.66.05,3.11,3.11,0,0,1-1.16-.21,2.54,2.54,0,0,1-.92-.62,2.87,2.87,0,0,1-.6-1,4,4,0,0,1-.22-1.39,3.54,3.54,0,0,1,.2-1.19,2.7,2.7,0,0,1,.56-1,2.48,2.48,0,0,1,.89-.63,2.84,2.84,0,0,1,1.19-.23,2.79,2.79,0,0,1,1,.18,2.2,2.2,0,0,1,.8.53,2.23,2.23,0,0,1,.53.85,3.19,3.19,0,0,1,.2,1.15.66.66,0,0,1-.06.34c0,.06-.1.08-.2.08h-4.06a3.22,3.22,0,0,0,.16,1,1.91,1.91,0,0,0,.39.72,1.56,1.56,0,0,0,.6.42,1.94,1.94,0,0,0,.78.14,2.31,2.31,0,0,0,.69-.09,3.05,3.05,0,0,0,.5-.2l.35-.2a.54.54,0,0,1,.25-.1.24.24,0,0,1,.2.11Zm-.86-2.85a2.06,2.06,0,0,0-.11-.68,1.39,1.39,0,0,0-.79-.89,1.73,1.73,0,0,0-.66-.12,1.63,1.63,0,0,0-1.21.45,2.08,2.08,0,0,0-.56,1.24Z"/><path class="cls-64" d="M556.43,129.43a3.09,3.09,0,0,1,1.2.22,2.52,2.52,0,0,1,.91.63,2.74,2.74,0,0,1,.58,1,4.08,4.08,0,0,1,.2,1.3,4,4,0,0,1-.2,1.29,2.79,2.79,0,0,1-.58,1,2.5,2.5,0,0,1-.91.62,3.41,3.41,0,0,1-2.41,0,2.54,2.54,0,0,1-.92-.62,2.77,2.77,0,0,1-.57-1,3.71,3.71,0,0,1-.21-1.29,3.81,3.81,0,0,1,.21-1.3,2.72,2.72,0,0,1,.57-1,2.56,2.56,0,0,1,.92-.63A3.11,3.11,0,0,1,556.43,129.43Zm0,5.42a1.55,1.55,0,0,0,1.34-.6,3.4,3.4,0,0,0,0-3.38,1.55,1.55,0,0,0-1.34-.6,2,2,0,0,0-.8.15,1.64,1.64,0,0,0-.56.45,2.18,2.18,0,0,0-.34.72,4.11,4.11,0,0,0-.11,1,2.8,2.8,0,0,0,.45,1.69A1.59,1.59,0,0,0,556.43,134.85Z"/><path class="cls-64" d="M565.67,129.52v6.08H565a.27.27,0,0,1-.29-.22l-.08-.66a3.17,3.17,0,0,1-.89.71,2.3,2.3,0,0,1-1.13.27,2.14,2.14,0,0,1-.87-.17,1.59,1.59,0,0,1-.64-.47,1.85,1.85,0,0,1-.39-.72,3.14,3.14,0,0,1-.13-.94v-3.88h1.07v3.88a1.6,1.6,0,0,0,.31,1.06,1.16,1.16,0,0,0,1,.38,1.8,1.8,0,0,0,.88-.22,2.76,2.76,0,0,0,.76-.62v-4.48Z"/><path class="cls-64" d="M568.37,130.74a2.89,2.89,0,0,1,.71-1,1.57,1.57,0,0,1,1-.35,2.21,2.21,0,0,1,.37,0,1.09,1.09,0,0,1,.31.14l-.08.79a.17.17,0,0,1-.18.16l-.24,0a1.4,1.4,0,0,0-.37,0,1.36,1.36,0,0,0-.51.09,1.12,1.12,0,0,0-.4.25,1.61,1.61,0,0,0-.32.4,3.63,3.63,0,0,0-.26.56v3.84h-1.07v-6.08H568a.3.3,0,0,1,.24.07.32.32,0,0,1,.09.22Z"/><path class="cls-64" d="M575.57,130.46a3.08,3.08,0,0,1,.89-.76,2.28,2.28,0,0,1,1.15-.29,2.24,2.24,0,0,1,.95.2,2,2,0,0,1,.73.6,2.82,2.82,0,0,1,.46,1,5,5,0,0,1,.16,1.34,4.15,4.15,0,0,1-.18,1.25,2.88,2.88,0,0,1-.52,1,2.26,2.26,0,0,1-.83.67,2.44,2.44,0,0,1-1.1.24,2.12,2.12,0,0,1-.95-.19,2.24,2.24,0,0,1-.71-.52v2.69h-1.07v-8.14h.64a.26.26,0,0,1,.28.22Zm0,3.67a1.74,1.74,0,0,0,.64.56,1.85,1.85,0,0,0,.78.17,1.55,1.55,0,0,0,1.31-.61,2.78,2.78,0,0,0,.46-1.73,4.3,4.3,0,0,0-.11-1,2.05,2.05,0,0,0-.3-.7,1.19,1.19,0,0,0-.49-.4,1.67,1.67,0,0,0-.65-.12,1.75,1.75,0,0,0-.92.24,2.55,2.55,0,0,0-.72.68Z"/><path class="cls-64" d="M582.29,130.74a2.76,2.76,0,0,1,.71-1,1.56,1.56,0,0,1,1-.35,2.21,2.21,0,0,1,.37,0,1.15,1.15,0,0,1,.32.14l-.08.79c0,.11-.09.16-.18.16l-.25,0a1.58,1.58,0,0,0-.88.05,1.12,1.12,0,0,0-.4.25,1.87,1.87,0,0,0-.32.4,3.63,3.63,0,0,0-.25.56v3.84h-1.08v-6.08h.62a.33.33,0,0,1,.24.07.45.45,0,0,1,.09.22Z"/><path class="cls-64" d="M588,129.43a3.09,3.09,0,0,1,1.2.22,2.52,2.52,0,0,1,.91.63,2.9,2.9,0,0,1,.58,1,4.08,4.08,0,0,1,.2,1.3,4,4,0,0,1-.2,1.29,2.94,2.94,0,0,1-.58,1,2.5,2.5,0,0,1-.91.62,3.41,3.41,0,0,1-2.41,0,2.54,2.54,0,0,1-.92-.62,2.77,2.77,0,0,1-.57-1,3.71,3.71,0,0,1-.21-1.29,3.81,3.81,0,0,1,.21-1.3,2.72,2.72,0,0,1,.57-1,2.56,2.56,0,0,1,.92-.63A3.11,3.11,0,0,1,588,129.43Zm0,5.42a1.55,1.55,0,0,0,1.34-.6,3.4,3.4,0,0,0,0-3.38,1.55,1.55,0,0,0-1.34-.6,2,2,0,0,0-.8.15,1.64,1.64,0,0,0-.56.45,2.18,2.18,0,0,0-.34.72,4.11,4.11,0,0,0-.11,1,2.8,2.8,0,0,0,.45,1.69A1.59,1.59,0,0,0,588,134.85Z"/><path class="cls-64" d="M597.23,126.76v8.84h-.64a.27.27,0,0,1-.29-.22l-.09-.74a3.32,3.32,0,0,1-.89.75,2.19,2.19,0,0,1-1.15.29,2.1,2.1,0,0,1-.95-.2,2,2,0,0,1-.73-.59,2.82,2.82,0,0,1-.46-1,5,5,0,0,1-.16-1.34,4.2,4.2,0,0,1,.18-1.25,2.88,2.88,0,0,1,.52-1,2.23,2.23,0,0,1,.82-.67,2.53,2.53,0,0,1,2.06-.06,2.28,2.28,0,0,1,.71.53v-3.37ZM596.16,131a1.67,1.67,0,0,0-.65-.56,1.78,1.78,0,0,0-.78-.16,1.53,1.53,0,0,0-1.3.6,2.87,2.87,0,0,0-.46,1.73,4.24,4.24,0,0,0,.11,1,1.68,1.68,0,0,0,.3.69,1.08,1.08,0,0,0,.48.4,1.53,1.53,0,0,0,.66.13,1.73,1.73,0,0,0,.92-.24,2.7,2.7,0,0,0,.72-.68Z"/><path class="cls-64" d="M603.92,129.52v6.08h-.64a.27.27,0,0,1-.29-.22l-.08-.66a3.17,3.17,0,0,1-.89.71,2.3,2.3,0,0,1-1.13.27,2.23,2.23,0,0,1-.88-.17,1.63,1.63,0,0,1-.63-.47,1.73,1.73,0,0,1-.39-.72,3.14,3.14,0,0,1-.13-.94v-3.88h1.07v3.88a1.6,1.6,0,0,0,.31,1.06,1.16,1.16,0,0,0,1,.38,1.8,1.8,0,0,0,.88-.22,2.92,2.92,0,0,0,.76-.62v-4.48Z"/><path class="cls-64" d="M609.84,130.6a.32.32,0,0,1-.1.1.17.17,0,0,1-.13,0,.4.4,0,0,1-.2-.08l-.26-.16a2.4,2.4,0,0,0-.39-.17,1.93,1.93,0,0,0-.57-.07,1.8,1.8,0,0,0-.79.16,1.52,1.52,0,0,0-.58.46,2,2,0,0,0-.34.72,3.55,3.55,0,0,0-.12,1,3.28,3.28,0,0,0,.13,1,2.2,2.2,0,0,0,.35.72,1.59,1.59,0,0,0,.56.44,1.75,1.75,0,0,0,.74.16,1.91,1.91,0,0,0,.64-.1,1.42,1.42,0,0,0,.41-.21l.28-.2a.39.39,0,0,1,.22-.1.22.22,0,0,1,.2.11l.3.39a2.24,2.24,0,0,1-.45.42,3.09,3.09,0,0,1-.54.29,3.05,3.05,0,0,1-.61.17,4.62,4.62,0,0,1-.65.05,2.67,2.67,0,0,1-1.06-.21,2.39,2.39,0,0,1-.84-.61,2.85,2.85,0,0,1-.57-1,4.16,4.16,0,0,1-.2-1.32,4,4,0,0,1,.19-1.26,2.81,2.81,0,0,1,.55-1,2.42,2.42,0,0,1,.89-.65,3,3,0,0,1,1.22-.23,2.9,2.9,0,0,1,1.14.2,2.64,2.64,0,0,1,.86.59Z"/><path class="cls-64" d="M613.21,135.7a1.47,1.47,0,0,1-1.11-.41,1.58,1.58,0,0,1-.39-1.16v-3.72H611a.22.22,0,0,1-.16,0,.21.21,0,0,1-.07-.18v-.43l1-.12.24-1.88a.36.36,0,0,1,.08-.15.31.31,0,0,1,.17,0h.54v2.09h1.76v.77h-1.76v3.65a.74.74,0,0,0,.19.57.62.62,0,0,0,.48.19.88.88,0,0,0,.29,0l.21-.09.15-.1a.21.21,0,0,1,.11-.05.17.17,0,0,1,.15.1l.32.51a2.15,2.15,0,0,1-.67.41A2.22,2.22,0,0,1,613.21,135.7Z"/><path class="cls-64" d="M619.18,130.52a.24.24,0,0,1-.22.14.44.44,0,0,1-.2-.07l-.28-.15-.4-.15a2.08,2.08,0,0,0-.54-.07,1.73,1.73,0,0,0-.48.07,1.17,1.17,0,0,0-.37.19.92.92,0,0,0-.24.28.82.82,0,0,0-.08.35.56.56,0,0,0,.14.38,1.15,1.15,0,0,0,.36.28,3.46,3.46,0,0,0,.5.2l.58.18.58.22a2.07,2.07,0,0,1,.5.3,1.39,1.39,0,0,1,.36.44,1.36,1.36,0,0,1,.13.63,2,2,0,0,1-.15.78,1.64,1.64,0,0,1-.44.61,2,2,0,0,1-.72.41,2.93,2.93,0,0,1-1,.16,3.06,3.06,0,0,1-1.15-.21,3.11,3.11,0,0,1-.87-.53l.25-.41a.43.43,0,0,1,.11-.12.31.31,0,0,1,.17,0,.38.38,0,0,1,.23.08l.29.19a2.11,2.11,0,0,0,.42.18,1.78,1.78,0,0,0,.61.09,1.82,1.82,0,0,0,.55-.08,1.47,1.47,0,0,0,.39-.22.9.9,0,0,0,.23-.32,1,1,0,0,0,.07-.38.64.64,0,0,0-.13-.42,1,1,0,0,0-.36-.28,3,3,0,0,0-.51-.21l-.58-.18a5.77,5.77,0,0,1-.58-.22,1.88,1.88,0,0,1-.51-.31,1.37,1.37,0,0,1-.36-.46,1.47,1.47,0,0,1-.13-.66,1.71,1.71,0,0,1,.14-.67,1.76,1.76,0,0,1,.42-.56,1.89,1.89,0,0,1,.68-.39,2.65,2.65,0,0,1,.92-.14,3.06,3.06,0,0,1,1.08.18,2.67,2.67,0,0,1,.82.52Z"/><path class="cls-64" d="M628.84,134.75a1.85,1.85,0,0,1-.47.41,2.69,2.69,0,0,1-.59.29,3.69,3.69,0,0,1-.65.18,5.16,5.16,0,0,1-.67.05,3.11,3.11,0,0,1-1.16-.21,2.54,2.54,0,0,1-.92-.62,2.87,2.87,0,0,1-.6-1,4,4,0,0,1-.22-1.39,3.54,3.54,0,0,1,.2-1.19,2.7,2.7,0,0,1,.56-1,2.48,2.48,0,0,1,.89-.63,2.84,2.84,0,0,1,1.19-.23,2.79,2.79,0,0,1,1,.18,2.32,2.32,0,0,1,.81.53,2.51,2.51,0,0,1,.53.85,3.42,3.42,0,0,1,.19,1.15.66.66,0,0,1-.06.34c0,.06-.1.08-.2.08h-4.06a3.22,3.22,0,0,0,.16,1,1.91,1.91,0,0,0,.39.72,1.56,1.56,0,0,0,.6.42,1.94,1.94,0,0,0,.78.14,2.31,2.31,0,0,0,.69-.09,3.05,3.05,0,0,0,.5-.2l.35-.2a.54.54,0,0,1,.25-.1.23.23,0,0,1,.2.11ZM628,131.9a2.06,2.06,0,0,0-.11-.68,1.39,1.39,0,0,0-.79-.89,1.69,1.69,0,0,0-.66-.12,1.63,1.63,0,0,0-1.21.45,2.14,2.14,0,0,0-.56,1.24Z"/><path class="cls-64" d="M635.16,135.6h-1a.27.27,0,0,1-.2-.07l-.13-.15L632.27,133a.84.84,0,0,1,0,.17.51.51,0,0,1-.07.15l-1.42,2.07-.13.15a.24.24,0,0,1-.19.07h-.95l2.13-3.12-2.05-3h1a.41.41,0,0,1,.19,0,.43.43,0,0,1,.11.12l1.49,2.28a2.41,2.41,0,0,1,.15-.33l1.31-1.92a.87.87,0,0,1,.12-.14.25.25,0,0,1,.15,0h1L633,132.43Z"/><path class="cls-64" d="M640.1,130.6a.45.45,0,0,1-.09.1.18.18,0,0,1-.13,0,.37.37,0,0,1-.2-.08l-.27-.16a2.4,2.4,0,0,0-.39-.17,1.85,1.85,0,0,0-.57-.07,1.8,1.8,0,0,0-.79.16,1.42,1.42,0,0,0-.57.46,2,2,0,0,0-.35.72,3.55,3.55,0,0,0-.12,1,3.63,3.63,0,0,0,.13,1,2,2,0,0,0,.36.72,1.55,1.55,0,0,0,.55.44,1.78,1.78,0,0,0,.74.16,1.91,1.91,0,0,0,.64-.1,1.64,1.64,0,0,0,.42-.21,2.37,2.37,0,0,0,.27-.2.39.39,0,0,1,.22-.1.25.25,0,0,1,.21.11l.3.39a2.24,2.24,0,0,1-.45.42,3.19,3.19,0,0,1-.55.29,3,3,0,0,1-.6.17,4.74,4.74,0,0,1-.65.05,2.64,2.64,0,0,1-1.06-.21,2.34,2.34,0,0,1-.85-.61,2.68,2.68,0,0,1-.56-1,3.89,3.89,0,0,1-.21-1.32,4,4,0,0,1,.19-1.26,3,3,0,0,1,.55-1,2.37,2.37,0,0,1,.9-.65,2.92,2.92,0,0,1,1.22-.23,2.85,2.85,0,0,1,1.13.2,2.79,2.79,0,0,1,.87.59Z"/><path class="cls-64" d="M642.71,126.76v8.84h-1.07v-8.84Z"/><path class="cls-64" d="M649.43,129.52v6.08h-.63a.27.27,0,0,1-.29-.22l-.08-.66a3.32,3.32,0,0,1-.89.71,2.33,2.33,0,0,1-1.13.27,2.19,2.19,0,0,1-.88-.17,1.67,1.67,0,0,1-.64-.47,2,2,0,0,1-.39-.72,3.51,3.51,0,0,1-.12-.94v-3.88h1.06v3.88a1.6,1.6,0,0,0,.32,1.06,1.16,1.16,0,0,0,1,.38,1.83,1.83,0,0,0,.89-.22,3.09,3.09,0,0,0,.76-.62v-4.48Z"/><path class="cls-64" d="M651,131.55h3v.9h-3Z"/><path class="cls-64" d="M450.94,144.92a.23.23,0,0,1-.22.13.48.48,0,0,1-.21-.06l-.28-.15-.39-.15a2.08,2.08,0,0,0-.54-.07,1.87,1.87,0,0,0-.49.07,1.43,1.43,0,0,0-.37.19.77.77,0,0,0-.23.28.81.81,0,0,0-.08.34.61.61,0,0,0,.13.39,1,1,0,0,0,.36.27,3,3,0,0,0,.51.21l.58.18c.19.07.39.14.57.22a2.14,2.14,0,0,1,.51.3,1.34,1.34,0,0,1,.49,1.07,2,2,0,0,1-.15.78,1.76,1.76,0,0,1-.44.61,2.14,2.14,0,0,1-.72.42,3.32,3.32,0,0,1-1,.15,3,3,0,0,1-1.15-.21,3.17,3.17,0,0,1-.88-.53l.26-.41a.43.43,0,0,1,.11-.12.29.29,0,0,1,.17,0,.38.38,0,0,1,.23.08l.29.19a2.28,2.28,0,0,0,.41.18,1.85,1.85,0,0,0,.62.09,1.75,1.75,0,0,0,.54-.08A1.21,1.21,0,0,0,450,149a.79.79,0,0,0,.23-.32,1,1,0,0,0,.08-.38.64.64,0,0,0-.14-.42,1.08,1.08,0,0,0-.35-.28,3,3,0,0,0-.51-.21l-.58-.18a5,5,0,0,1-.58-.22,2.17,2.17,0,0,1-.51-.31,1.37,1.37,0,0,1-.36-.46,1.47,1.47,0,0,1-.13-.66,1.55,1.55,0,0,1,.14-.67,1.76,1.76,0,0,1,.42-.56,1.81,1.81,0,0,1,.68-.39,2.62,2.62,0,0,1,.92-.14,3,3,0,0,1,1.07.18,2.6,2.6,0,0,1,.83.52Z"/><path class="cls-64" d="M454,142a.68.68,0,0,1-.06.29,1,1,0,0,1-.17.24.74.74,0,0,1-.25.17.72.72,0,0,1-.29.06.73.73,0,0,1-.3-.06.91.91,0,0,1-.23-.17.78.78,0,0,1-.16-.24.68.68,0,0,1-.06-.29.82.82,0,0,1,.22-.54,1.24,1.24,0,0,1,.23-.17.76.76,0,0,1,.59,0,.81.81,0,0,1,.42.42A.72.72,0,0,1,454,142Zm-.23,1.91V150h-1.07v-6.08Z"/><path class="cls-64" d="M460.68,143.92,458.2,150h-1l-2.47-6.08h.87a.3.3,0,0,1,.21.07.29.29,0,0,1,.12.15l1.54,3.91a4.16,4.16,0,0,1,.12.44c0,.14.07.28.11.42,0-.14.06-.28.1-.42a4.29,4.29,0,0,1,.13-.44l1.56-3.91a.36.36,0,0,1,.12-.16.34.34,0,0,1,.2-.06Z"/><path class="cls-64" d="M466.43,149.15a1.85,1.85,0,0,1-.47.41,3.27,3.27,0,0,1-.59.3,4.55,4.55,0,0,1-.66.17,4.89,4.89,0,0,1-.66.05,3.11,3.11,0,0,1-1.16-.21,2.54,2.54,0,0,1-.92-.62,2.87,2.87,0,0,1-.6-1,4,4,0,0,1-.22-1.39,3.54,3.54,0,0,1,.2-1.19,2.7,2.7,0,0,1,.56-1,2.48,2.48,0,0,1,.89-.63,2.84,2.84,0,0,1,1.19-.23,2.79,2.79,0,0,1,1,.18,2.2,2.2,0,0,1,.8.53,2.23,2.23,0,0,1,.53.85,3.19,3.19,0,0,1,.2,1.15.66.66,0,0,1-.06.34c0,.06-.1.08-.2.08h-4.06a3.22,3.22,0,0,0,.16,1,1.91,1.91,0,0,0,.39.72,1.56,1.56,0,0,0,.6.42,1.94,1.94,0,0,0,.78.14,2.31,2.31,0,0,0,.69-.09,3.05,3.05,0,0,0,.5-.2,3.34,3.34,0,0,0,.35-.2.54.54,0,0,1,.25-.1.24.24,0,0,1,.2.11Zm-.86-2.85a2.06,2.06,0,0,0-.11-.68,1.39,1.39,0,0,0-.79-.89,1.73,1.73,0,0,0-.66-.12,1.63,1.63,0,0,0-1.21.45,2.08,2.08,0,0,0-.56,1.24Z"/><path class="cls-64" d="M468.94,141.16V150h-1.07v-8.84Z"/><path class="cls-64" d="M475.91,143.92l-3.39,7.87a.57.57,0,0,1-.13.19.37.37,0,0,1-.25.08h-.8l1.11-2.42-2.5-5.72h.92a.31.31,0,0,1,.22.07.48.48,0,0,1,.11.15l1.63,3.83c.06.17.11.34.16.53a4.27,4.27,0,0,1,.18-.54l1.58-3.82a.36.36,0,0,1,.12-.16.33.33,0,0,1,.19-.06Z"/><path class="cls-64" d="M481,142a.57.57,0,0,1-.07.29.78.78,0,0,1-.16.24.85.85,0,0,1-.25.17.73.73,0,0,1-.3.06.72.72,0,0,1-.29-.06.81.81,0,0,1-.24-.17,1,1,0,0,1-.16-.24.68.68,0,0,1-.06-.29.72.72,0,0,1,.06-.29.89.89,0,0,1,.16-.25,1,1,0,0,1,.24-.17.76.76,0,0,1,.59,0,1.1,1.1,0,0,1,.25.17.72.72,0,0,1,.16.25A.59.59,0,0,1,481,142Zm-.23,1.91V150h-1.07v-6.08Z"/><path class="cls-64" d="M483.52,144.8a4,4,0,0,1,.42-.4,2.94,2.94,0,0,1,.47-.31,3.05,3.05,0,0,1,.53-.2,2.77,2.77,0,0,1,.6-.06,2.19,2.19,0,0,1,.88.16,1.74,1.74,0,0,1,.63.47,2,2,0,0,1,.39.73,3.1,3.1,0,0,1,.13.94V150H486.5v-3.87a1.63,1.63,0,0,0-.31-1.07,1.17,1.17,0,0,0-1-.38,1.83,1.83,0,0,0-.89.22,3.34,3.34,0,0,0-.76.62V150h-1.07v-6.08h.64a.26.26,0,0,1,.28.22Z"/><path class="cls-64" d="M493.69,142.35v3h3.54v.94h-3.54V150h-1.16v-8.6h5.3v.95Z"/><path class="cls-64" d="M499.56,145.14a2.89,2.89,0,0,1,.71-1,1.57,1.57,0,0,1,1-.35,1.5,1.5,0,0,1,.37.05.85.85,0,0,1,.31.13l-.08.8a.17.17,0,0,1-.18.15l-.24,0a1.4,1.4,0,0,0-.37,0,1.36,1.36,0,0,0-.51.09,1,1,0,0,0-.4.25,1.61,1.61,0,0,0-.32.4,3.63,3.63,0,0,0-.26.56V150h-1.07v-6.08h.61a.3.3,0,0,1,.24.07.38.38,0,0,1,.09.22Z"/><path class="cls-64" d="M502.67,144.78a3.28,3.28,0,0,1,1.08-.73,3.37,3.37,0,0,1,1.29-.24,2.38,2.38,0,0,1,.91.17,1.85,1.85,0,0,1,.66.47,2,2,0,0,1,.41.72,3.14,3.14,0,0,1,.14.94V150h-.48a.54.54,0,0,1-.24-.05.39.39,0,0,1-.13-.2l-.12-.58a4,4,0,0,1-.47.39,2.36,2.36,0,0,1-.48.29,2.21,2.21,0,0,1-.53.18,3.06,3.06,0,0,1-.64.07,2.39,2.39,0,0,1-.66-.1,1.57,1.57,0,0,1-.54-.3,1.34,1.34,0,0,1-.37-.5,1.74,1.74,0,0,1-.14-.72,1.34,1.34,0,0,1,.2-.69,1.72,1.72,0,0,1,.65-.59,4.2,4.2,0,0,1,1.15-.43,9.17,9.17,0,0,1,1.75-.19v-.47a1.64,1.64,0,0,0-.3-1.07,1.11,1.11,0,0,0-.89-.36,1.86,1.86,0,0,0-.67.1,2.19,2.19,0,0,0-.46.22l-.34.22a.43.43,0,0,1-.27.1.29.29,0,0,1-.19-.06.44.44,0,0,1-.13-.14Zm3.44,2.48a9.64,9.64,0,0,0-1.25.12,3.5,3.5,0,0,0-.85.24,1.13,1.13,0,0,0-.47.36.74.74,0,0,0-.15.45,1.08,1.08,0,0,0,.08.42.77.77,0,0,0,.53.44,1.23,1.23,0,0,0,.39.06,2.12,2.12,0,0,0,.52-.06,1.82,1.82,0,0,0,.44-.17,3.34,3.34,0,0,0,.4-.25,3.91,3.91,0,0,0,.36-.35Z"/><path class="cls-64" d="M509.79,144.8c.14-.14.28-.28.42-.4a3.46,3.46,0,0,1,.47-.31,3.39,3.39,0,0,1,.53-.2,2.93,2.93,0,0,1,.61-.06,2.14,2.14,0,0,1,.87.16,1.69,1.69,0,0,1,.64.47,2,2,0,0,1,.39.73,3.1,3.1,0,0,1,.13.94V150h-1.07v-3.87a1.63,1.63,0,0,0-.32-1.07,1.16,1.16,0,0,0-1-.38,1.8,1.8,0,0,0-.88.22,3,3,0,0,0-.76.62V150h-1.07v-6.08h.64a.26.26,0,0,1,.28.22Z"/><path class="cls-64" d="M519.71,145a.45.45,0,0,1-.09.1.21.21,0,0,1-.14,0,.34.34,0,0,1-.19-.08l-.27-.16a2.4,2.4,0,0,0-.39-.17,1.89,1.89,0,0,0-.57-.07,1.8,1.8,0,0,0-.79.16,1.42,1.42,0,0,0-.57.46,2,2,0,0,0-.35.72,3.6,3.6,0,0,0-.12,1,3.28,3.28,0,0,0,.13,1,2.2,2.2,0,0,0,.35.72,1.59,1.59,0,0,0,.56.44,1.75,1.75,0,0,0,.74.15,1.93,1.93,0,0,0,.64-.09,1.64,1.64,0,0,0,.42-.21,2.37,2.37,0,0,0,.27-.2.39.39,0,0,1,.22-.1.22.22,0,0,1,.2.11l.3.39a2.49,2.49,0,0,1-.44.42,3.19,3.19,0,0,1-.55.29,2.88,2.88,0,0,1-.61.17,4.51,4.51,0,0,1-.65.05,2.59,2.59,0,0,1-1-.21,2.34,2.34,0,0,1-.85-.61,2.85,2.85,0,0,1-.57-1,4.16,4.16,0,0,1-.2-1.32,3.92,3.92,0,0,1,.19-1.26,2.81,2.81,0,0,1,.55-1,2.42,2.42,0,0,1,.89-.65,3,3,0,0,1,1.23-.23,2.88,2.88,0,0,1,1.13.2,2.81,2.81,0,0,1,.86.59Z"/><path class="cls-64" d="M526,149.15a1.9,1.9,0,0,1-.48.41,3,3,0,0,1-.59.3,4.77,4.77,0,0,1-.65.17,5.16,5.16,0,0,1-.67.05,3.15,3.15,0,0,1-1.16-.21,2.62,2.62,0,0,1-.92-.62,3.2,3.2,0,0,1-.6-1,4.23,4.23,0,0,1-.21-1.39,3.54,3.54,0,0,1,.19-1.19,2.86,2.86,0,0,1,.56-1,2.52,2.52,0,0,1,.9-.63,2.79,2.79,0,0,1,1.18-.23,2.75,2.75,0,0,1,1,.18,2.32,2.32,0,0,1,.81.53,2.51,2.51,0,0,1,.53.85,3.19,3.19,0,0,1,.19,1.15.83.83,0,0,1,0,.34.23.23,0,0,1-.21.08h-4.06a3.55,3.55,0,0,0,.16,1,2.06,2.06,0,0,0,.39.72,1.56,1.56,0,0,0,.6.42,2,2,0,0,0,.78.14,2.43,2.43,0,0,0,.7-.09,3.46,3.46,0,0,0,.5-.2c.14-.07.25-.14.35-.2a.47.47,0,0,1,.24-.1.22.22,0,0,1,.2.11Zm-.87-2.85a2.07,2.07,0,0,0-.1-.68,1.59,1.59,0,0,0-.31-.54,1.46,1.46,0,0,0-.49-.35,1.67,1.67,0,0,0-.65-.12,1.64,1.64,0,0,0-1.22.45,2.07,2.07,0,0,0-.55,1.24Z"/><path class="cls-64" d="M531.87,142a.57.57,0,0,1-.07.29.78.78,0,0,1-.16.24.85.85,0,0,1-.25.17.73.73,0,0,1-.3.06.72.72,0,0,1-.29-.06.66.66,0,0,1-.23-.17.81.81,0,0,1-.17-.24.68.68,0,0,1-.06-.29.72.72,0,0,1,.06-.29.74.74,0,0,1,.17-.25.81.81,0,0,1,.23-.17.76.76,0,0,1,.59,0,1.1,1.1,0,0,1,.25.17.72.72,0,0,1,.16.25A.59.59,0,0,1,531.87,142Zm-.23,1.91V150h-1.07v-6.08Z"/><path class="cls-64" d="M534.4,144.8a4,4,0,0,1,.42-.4,2.94,2.94,0,0,1,.47-.31,3.05,3.05,0,0,1,.53-.2,2.84,2.84,0,0,1,.6-.06,2.19,2.19,0,0,1,.88.16,1.78,1.78,0,0,1,.64.47,1.88,1.88,0,0,1,.38.73,3.09,3.09,0,0,1,.14.94V150h-1.08v-3.87a1.63,1.63,0,0,0-.31-1.07,1.16,1.16,0,0,0-1-.38,1.83,1.83,0,0,0-.89.22,3.09,3.09,0,0,0-.75.62V150h-1.08v-6.08H534a.26.26,0,0,1,.28.22Z"/><path class="cls-64" d="M545.72,143.83a3,3,0,0,1,1.2.22,2.56,2.56,0,0,1,.91.63,2.61,2.61,0,0,1,.58,1,3.82,3.82,0,0,1,.2,1.3,3.72,3.72,0,0,1-.2,1.29,2.65,2.65,0,0,1-.58,1,2.42,2.42,0,0,1-.91.62,3,3,0,0,1-1.2.22,3.11,3.11,0,0,1-1.21-.22,2.42,2.42,0,0,1-.91-.62,2.79,2.79,0,0,1-.58-1,3.72,3.72,0,0,1-.2-1.29,3.82,3.82,0,0,1,.2-1.3,2.74,2.74,0,0,1,.58-1,2.56,2.56,0,0,1,.91-.63A3.11,3.11,0,0,1,545.72,143.83Zm0,5.42a1.58,1.58,0,0,0,1.35-.6,3.47,3.47,0,0,0,0-3.38,1.59,1.59,0,0,0-1.35-.61,1.92,1.92,0,0,0-.79.16,1.59,1.59,0,0,0-.57.45,2,2,0,0,0-.33.72,3.64,3.64,0,0,0-.11,1,2.8,2.8,0,0,0,.44,1.69A1.59,1.59,0,0,0,545.72,149.25Z"/><path class="cls-64" d="M551,145.14a2.76,2.76,0,0,1,.71-1,1.56,1.56,0,0,1,1-.35,1.5,1.5,0,0,1,.37.05.9.9,0,0,1,.32.13l-.08.8a.19.19,0,0,1-.18.15l-.25,0a1.58,1.58,0,0,0-.88,0,1.12,1.12,0,0,0-.4.25,1.87,1.87,0,0,0-.32.4,3.63,3.63,0,0,0-.25.56V150H550v-6.08h.62a.33.33,0,0,1,.24.07.45.45,0,0,1,.09.22Z"/><path class="cls-64" d="M559.13,141.16V150h-.64a.27.27,0,0,1-.29-.22l-.09-.74a3.32,3.32,0,0,1-.89.75,2.19,2.19,0,0,1-1.15.29,2.1,2.1,0,0,1-1-.2,1.89,1.89,0,0,1-.73-.59,2.82,2.82,0,0,1-.46-1,5,5,0,0,1-.16-1.34,4.2,4.2,0,0,1,.18-1.25,3.2,3.2,0,0,1,.51-1,2.43,2.43,0,0,1,.83-.66,2.53,2.53,0,0,1,2.06-.06,2.4,2.4,0,0,1,.71.53v-3.37Zm-1.07,4.21a1.67,1.67,0,0,0-.65-.56,1.78,1.78,0,0,0-.78-.16,1.53,1.53,0,0,0-1.3.6,2.8,2.8,0,0,0-.46,1.73,4.88,4.88,0,0,0,.1,1,2,2,0,0,0,.3.69,1.16,1.16,0,0,0,.49.4,1.51,1.51,0,0,0,.65.13,1.76,1.76,0,0,0,.93-.24,2.7,2.7,0,0,0,.72-.68Z"/><path class="cls-64" d="M565.75,149.15a1.85,1.85,0,0,1-.47.41,3.36,3.36,0,0,1-.6.3,4.42,4.42,0,0,1-.65.17,4.89,4.89,0,0,1-.66.05,3.11,3.11,0,0,1-1.16-.21,2.54,2.54,0,0,1-.92-.62,2.87,2.87,0,0,1-.6-1,4,4,0,0,1-.22-1.39,3.31,3.31,0,0,1,.2-1.19,2.7,2.7,0,0,1,.56-1,2.48,2.48,0,0,1,.89-.63,2.84,2.84,0,0,1,1.19-.23,2.79,2.79,0,0,1,1,.18,2.2,2.2,0,0,1,.8.53,2.23,2.23,0,0,1,.53.85,3.19,3.19,0,0,1,.2,1.15.66.66,0,0,1-.06.34c0,.06-.1.08-.2.08h-4.06a3.57,3.57,0,0,0,.15,1,2.08,2.08,0,0,0,.4.72,1.56,1.56,0,0,0,.6.42,1.94,1.94,0,0,0,.78.14,2.31,2.31,0,0,0,.69-.09,3.46,3.46,0,0,0,.5-.2l.35-.2a.54.54,0,0,1,.25-.1.24.24,0,0,1,.2.11Zm-.86-2.85a2.06,2.06,0,0,0-.11-.68,1.44,1.44,0,0,0-.31-.54,1.42,1.42,0,0,0-.48-.35,1.73,1.73,0,0,0-.66-.12,1.63,1.63,0,0,0-1.21.45,2.08,2.08,0,0,0-.56,1.24Z"/><path class="cls-64" d="M568.17,145.14a2.76,2.76,0,0,1,.71-1,1.56,1.56,0,0,1,1-.35,1.5,1.5,0,0,1,.37.05.9.9,0,0,1,.32.13l-.08.8a.19.19,0,0,1-.18.15l-.25,0a1.58,1.58,0,0,0-.88,0,1.12,1.12,0,0,0-.4.25,1.87,1.87,0,0,0-.32.4,3.63,3.63,0,0,0-.25.56V150h-1.08v-6.08h.62a.33.33,0,0,1,.24.07.45.45,0,0,1,.09.22Z"/><path class="cls-64" d="M576.21,150.1a1.47,1.47,0,0,1-1.11-.41,1.57,1.57,0,0,1-.39-1.15v-3.73H574a.22.22,0,0,1-.16-.05.25.25,0,0,1-.07-.18v-.43l1-.12.25-1.88a.28.28,0,0,1,.08-.15.25.25,0,0,1,.16-.05h.54V144h1.76v.77h-1.76v3.65a.74.74,0,0,0,.19.57.62.62,0,0,0,.48.19.84.84,0,0,0,.29-.05l.21-.09.16-.1a.18.18,0,0,1,.11,0,.19.19,0,0,1,.15.1l.31.51a2.15,2.15,0,0,1-.67.41A2.22,2.22,0,0,1,576.21,150.1Z"/><path class="cls-64" d="M581.18,143.83a3.09,3.09,0,0,1,1.2.22,2.65,2.65,0,0,1,.91.63,2.9,2.9,0,0,1,.58,1,4.08,4.08,0,0,1,.2,1.3,4,4,0,0,1-.2,1.29,2.94,2.94,0,0,1-.58,1,2.5,2.5,0,0,1-.91.62,3.41,3.41,0,0,1-2.41,0,2.45,2.45,0,0,1-.92-.62,2.94,2.94,0,0,1-.58-1,4,4,0,0,1-.2-1.29,4.08,4.08,0,0,1,.2-1.3,2.9,2.9,0,0,1,.58-1,2.6,2.6,0,0,1,.92-.63A3.07,3.07,0,0,1,581.18,143.83Zm0,5.42a1.56,1.56,0,0,0,1.34-.6,3.47,3.47,0,0,0,0-3.38,1.57,1.57,0,0,0-1.34-.61,2,2,0,0,0-.8.16,1.55,1.55,0,0,0-.56.45,2,2,0,0,0-.34.72,4.11,4.11,0,0,0-.11,1,2.8,2.8,0,0,0,.45,1.69A1.57,1.57,0,0,0,581.18,149.25Z"/><path class="cls-64" d="M589.51,144.86a3.21,3.21,0,0,1,.89-.76,2.28,2.28,0,0,1,1.15-.29,2.24,2.24,0,0,1,1,.2,2,2,0,0,1,.73.6,2.91,2.91,0,0,1,.46,1,5,5,0,0,1,.16,1.34,4.15,4.15,0,0,1-.18,1.25,2.88,2.88,0,0,1-.52,1,2.31,2.31,0,0,1-.82.67,2.5,2.5,0,0,1-1.1.24,2.13,2.13,0,0,1-1-.19,2.24,2.24,0,0,1-.71-.52v2.69h-1.07v-8.14h.64a.26.26,0,0,1,.28.22Zm0,3.68a1.74,1.74,0,0,0,.65.55,1.78,1.78,0,0,0,.78.16,1.53,1.53,0,0,0,1.3-.6,2.8,2.8,0,0,0,.46-1.73,3.89,3.89,0,0,0-.11-1,2.05,2.05,0,0,0-.3-.7,1.23,1.23,0,0,0-.48-.4,1.73,1.73,0,0,0-.66-.12,1.69,1.69,0,0,0-.91.24,2.45,2.45,0,0,0-.73.68Z"/><path class="cls-64" d="M596.23,145.14a2.76,2.76,0,0,1,.71-1,1.56,1.56,0,0,1,1-.35,1.5,1.5,0,0,1,.37.05.9.9,0,0,1,.32.13l-.08.8a.17.17,0,0,1-.18.15l-.25,0a1.32,1.32,0,0,0-.36,0,1.42,1.42,0,0,0-.52.09,1.12,1.12,0,0,0-.4.25,1.87,1.87,0,0,0-.32.4,4.93,4.93,0,0,0-.25.56V150h-1.07v-6.08h.61a.33.33,0,0,1,.24.07.45.45,0,0,1,.09.22Z"/><path class="cls-64" d="M604.27,149.15a1.85,1.85,0,0,1-.47.41,3.36,3.36,0,0,1-.6.3,4.42,4.42,0,0,1-.65.17,4.89,4.89,0,0,1-.66.05,3.11,3.11,0,0,1-1.16-.21,2.54,2.54,0,0,1-.92-.62,2.87,2.87,0,0,1-.6-1,4,4,0,0,1-.22-1.39,3.54,3.54,0,0,1,.19-1.19,2.72,2.72,0,0,1,.57-1,2.48,2.48,0,0,1,.89-.63,2.84,2.84,0,0,1,1.19-.23,2.79,2.79,0,0,1,1,.18,2.2,2.2,0,0,1,.8.53,2.23,2.23,0,0,1,.53.85,3.19,3.19,0,0,1,.2,1.15.66.66,0,0,1-.06.34c0,.06-.1.08-.2.08h-4.06a3.57,3.57,0,0,0,.15,1,2.08,2.08,0,0,0,.4.72,1.56,1.56,0,0,0,.6.42,1.94,1.94,0,0,0,.78.14,2.31,2.31,0,0,0,.69-.09,3.46,3.46,0,0,0,.5-.2l.35-.2a.54.54,0,0,1,.25-.1.24.24,0,0,1,.2.11Zm-.86-2.85a2.06,2.06,0,0,0-.11-.68,1.44,1.44,0,0,0-.31-.54,1.42,1.42,0,0,0-.48-.35,1.76,1.76,0,0,0-.66-.12,1.61,1.61,0,0,0-1.21.45,2.08,2.08,0,0,0-.56,1.24Z"/><path class="cls-64" d="M609.21,144.92a.22.22,0,0,1-.22.13.41.41,0,0,1-.2-.06l-.28-.15-.39-.15a2.21,2.21,0,0,0-.54-.07,1.81,1.81,0,0,0-.49.07,1.29,1.29,0,0,0-.37.19.77.77,0,0,0-.23.28.68.68,0,0,0-.08.34.56.56,0,0,0,.13.39,1,1,0,0,0,.36.27,2.89,2.89,0,0,0,.5.21l.58.18.58.22a1.9,1.9,0,0,1,.5.3,1.39,1.39,0,0,1,.36.44,1.36,1.36,0,0,1,.13.63,2,2,0,0,1-.14.78,1.79,1.79,0,0,1-.45.61,2,2,0,0,1-.72.42,3.2,3.2,0,0,1-1,.15,3,3,0,0,1-1.15-.21,3,3,0,0,1-.88-.53l.25-.41a.43.43,0,0,1,.11-.12.33.33,0,0,1,.17,0,.36.36,0,0,1,.23.08l.29.19a2.79,2.79,0,0,0,.42.18,1.78,1.78,0,0,0,.61.09,1.82,1.82,0,0,0,.55-.08,1.47,1.47,0,0,0,.39-.22.9.9,0,0,0,.23-.32,1,1,0,0,0,.07-.38.64.64,0,0,0-.13-.42,1,1,0,0,0-.36-.28,3,3,0,0,0-.51-.21l-.58-.18a5.77,5.77,0,0,1-.58-.22,2.17,2.17,0,0,1-.51-.31,1.43,1.43,0,0,1-.49-1.12,1.56,1.56,0,0,1,.15-.67,1.5,1.5,0,0,1,.42-.56,1.85,1.85,0,0,1,.67-.39,2.65,2.65,0,0,1,.92-.14,3.06,3.06,0,0,1,1.08.18,2.55,2.55,0,0,1,.82.52Z"/><path class="cls-64" d="M615.8,149.15a1.85,1.85,0,0,1-.47.41,3.27,3.27,0,0,1-.59.3,4.77,4.77,0,0,1-.65.17,5.16,5.16,0,0,1-.67.05,3.11,3.11,0,0,1-1.16-.21,2.54,2.54,0,0,1-.92-.62,2.87,2.87,0,0,1-.6-1,4,4,0,0,1-.22-1.39,3.54,3.54,0,0,1,.2-1.19,2.7,2.7,0,0,1,.56-1,2.48,2.48,0,0,1,.89-.63,2.84,2.84,0,0,1,1.19-.23,2.79,2.79,0,0,1,1,.18,2.32,2.32,0,0,1,.81.53,2.51,2.51,0,0,1,.53.85,3.42,3.42,0,0,1,.19,1.15.66.66,0,0,1-.06.34c0,.06-.1.08-.2.08h-4.06a3.22,3.22,0,0,0,.16,1,1.91,1.91,0,0,0,.39.72,1.56,1.56,0,0,0,.6.42,1.94,1.94,0,0,0,.78.14,2.31,2.31,0,0,0,.69-.09,3.05,3.05,0,0,0,.5-.2,3.34,3.34,0,0,0,.35-.2.54.54,0,0,1,.25-.1.23.23,0,0,1,.2.11Zm-.86-2.85a2.06,2.06,0,0,0-.11-.68,1.39,1.39,0,0,0-.79-.89,1.69,1.69,0,0,0-.66-.12,1.63,1.63,0,0,0-1.21.45,2.14,2.14,0,0,0-.56,1.24Z"/><path class="cls-64" d="M618.22,145.14a2.76,2.76,0,0,1,.71-1,1.56,1.56,0,0,1,1-.35,1.5,1.5,0,0,1,.37.05.83.83,0,0,1,.32.13l-.08.8a.17.17,0,0,1-.18.15l-.25,0a1.32,1.32,0,0,0-.36,0,1.42,1.42,0,0,0-.52.09,1.12,1.12,0,0,0-.4.25,1.87,1.87,0,0,0-.32.4,4.93,4.93,0,0,0-.25.56V150h-1.07v-6.08h.61a.33.33,0,0,1,.24.07.45.45,0,0,1,.09.22Z"/><path class="cls-64" d="M626.78,143.92,624.3,150h-1l-2.47-6.08h.87a.3.3,0,0,1,.21.07.29.29,0,0,1,.12.15l1.54,3.91a4.16,4.16,0,0,1,.12.44c0,.14.07.28.11.42,0-.14.06-.28.1-.42a4.29,4.29,0,0,1,.13-.44l1.56-3.91a.36.36,0,0,1,.12-.16.34.34,0,0,1,.2-.06Z"/><path class="cls-64" d="M632.53,149.15a1.85,1.85,0,0,1-.47.41,3.27,3.27,0,0,1-.59.3,4.55,4.55,0,0,1-.66.17,4.89,4.89,0,0,1-.66.05,3.11,3.11,0,0,1-1.16-.21,2.54,2.54,0,0,1-.92-.62,2.87,2.87,0,0,1-.6-1,4,4,0,0,1-.22-1.39,3.31,3.31,0,0,1,.2-1.19,2.7,2.7,0,0,1,.56-1,2.48,2.48,0,0,1,.89-.63,2.84,2.84,0,0,1,1.19-.23,2.79,2.79,0,0,1,1,.18,2.2,2.2,0,0,1,.8.53,2.23,2.23,0,0,1,.53.85,3.19,3.19,0,0,1,.2,1.15.66.66,0,0,1-.06.34c0,.06-.1.08-.2.08h-4.06a3.22,3.22,0,0,0,.16,1,1.91,1.91,0,0,0,.39.72,1.56,1.56,0,0,0,.6.42,1.94,1.94,0,0,0,.78.14,2.31,2.31,0,0,0,.69-.09,3.05,3.05,0,0,0,.5-.2,3.34,3.34,0,0,0,.35-.2.54.54,0,0,1,.25-.1.24.24,0,0,1,.2.11Zm-.86-2.85a2.06,2.06,0,0,0-.11-.68,1.39,1.39,0,0,0-.79-.89,1.73,1.73,0,0,0-.66-.12,1.63,1.63,0,0,0-1.21.45,2.08,2.08,0,0,0-.56,1.24Z"/><path class="cls-64" d="M638.87,150.1a1.43,1.43,0,0,1-1.1-.41,1.57,1.57,0,0,1-.39-1.15v-3.73h-.73a.2.2,0,0,1-.23-.23v-.43l1-.12.25-1.88a.28.28,0,0,1,.08-.15.29.29,0,0,1,.17-.05h.54V144h1.75v.77h-1.75v3.65a.78.78,0,0,0,.18.57.65.65,0,0,0,.48.19.84.84,0,0,0,.29-.05l.22-.09.15-.1a.21.21,0,0,1,.11,0,.17.17,0,0,1,.15.1l.31.51a2,2,0,0,1-.66.41A2.24,2.24,0,0,1,638.87,150.1Z"/><path class="cls-64" d="M642.38,144.73a3,3,0,0,1,.87-.66,2.37,2.37,0,0,1,1.09-.24,2.23,2.23,0,0,1,.88.16,1.74,1.74,0,0,1,.63.47,2,2,0,0,1,.39.73,3.1,3.1,0,0,1,.13.94V150H645.3v-3.87a1.63,1.63,0,0,0-.32-1.07,1.15,1.15,0,0,0-1-.38,1.83,1.83,0,0,0-.89.22,3.14,3.14,0,0,0-.76.62V150h-1.07v-8.84h1.07Z"/><path class="cls-64" d="M652.94,149.15a1.9,1.9,0,0,1-.48.41,3,3,0,0,1-.59.3,4.77,4.77,0,0,1-.65.17,5,5,0,0,1-.67.05,3.15,3.15,0,0,1-1.16-.21,2.5,2.5,0,0,1-.91-.62,3,3,0,0,1-.61-1,4.23,4.23,0,0,1-.21-1.39,3.54,3.54,0,0,1,.19-1.19,2.86,2.86,0,0,1,.56-1,2.52,2.52,0,0,1,.9-.63,3.07,3.07,0,0,1,2.2-.05,2.28,2.28,0,0,1,.8.53,2.36,2.36,0,0,1,.53.85,3.19,3.19,0,0,1,.19,1.15.83.83,0,0,1,0,.34.23.23,0,0,1-.21.08h-4.06a3.55,3.55,0,0,0,.16,1,2.24,2.24,0,0,0,.39.72,1.56,1.56,0,0,0,.6.42,2,2,0,0,0,.78.14,2.43,2.43,0,0,0,.7-.09,3.46,3.46,0,0,0,.5-.2l.35-.2a.47.47,0,0,1,.24-.1.25.25,0,0,1,.21.11Zm-.87-2.85a2.07,2.07,0,0,0-.1-.68,1.44,1.44,0,0,0-.31-.54,1.46,1.46,0,0,0-.49-.35,1.67,1.67,0,0,0-.65-.12,1.65,1.65,0,0,0-1.22.45,2.13,2.13,0,0,0-.55,1.24Z"/><path class="cls-64" d="M448.47,155.56v5.2h.28a.6.6,0,0,0,.2,0,.5.5,0,0,0,.17-.14l1.92-2.05a.67.67,0,0,1,.18-.16.44.44,0,0,1,.25-.06h1l-2.24,2.38a1.13,1.13,0,0,1-.34.32,1,1,0,0,1,.19.17,1.93,1.93,0,0,1,.17.21l2.37,3h-.95a.6.6,0,0,1-.24-.05.42.42,0,0,1-.17-.16l-2-2.49a.67.67,0,0,0-.17-.17.85.85,0,0,0-.27,0h-.31v2.91H447.4v-8.84Z"/><path class="cls-64" d="M454.5,159.2a3.16,3.16,0,0,1,.42-.4,3.46,3.46,0,0,1,.47-.31,3.05,3.05,0,0,1,.53-.2,2.9,2.9,0,0,1,.6-.07,2.16,2.16,0,0,1,.88.17,1.69,1.69,0,0,1,.64.47,2,2,0,0,1,.39.73,3.44,3.44,0,0,1,.13.94v3.87h-1.08v-3.87a1.63,1.63,0,0,0-.31-1.07,1.16,1.16,0,0,0-1-.38,1.8,1.8,0,0,0-.88.22,3,3,0,0,0-.76.62v4.48h-1.08v-6.08h.65a.26.26,0,0,1,.28.22Z"/><path class="cls-64" d="M462.75,158.22a3,3,0,0,1,1.2.23,2.33,2.33,0,0,1,.91.63,2.61,2.61,0,0,1,.58,1,3.82,3.82,0,0,1,.2,1.3,3.72,3.72,0,0,1-.2,1.29,2.57,2.57,0,0,1-.58,1,2.42,2.42,0,0,1-.91.62,3,3,0,0,1-1.2.22,3.11,3.11,0,0,1-1.21-.22,2.42,2.42,0,0,1-.91-.62,2.7,2.7,0,0,1-.58-1,4,4,0,0,1-.2-1.29,4.08,4.08,0,0,1,.2-1.3,2.74,2.74,0,0,1,.58-1,2.33,2.33,0,0,1,.91-.63A3.11,3.11,0,0,1,462.75,158.22Zm0,5.43a1.58,1.58,0,0,0,1.35-.6,3.47,3.47,0,0,0,0-3.38,1.59,1.59,0,0,0-1.35-.61,1.92,1.92,0,0,0-.79.16,1.48,1.48,0,0,0-.57.45,2,2,0,0,0-.33.72,3.64,3.64,0,0,0-.11,1,2.8,2.8,0,0,0,.44,1.69A1.59,1.59,0,0,0,462.75,163.65Z"/><path class="cls-64" d="M475.29,158.32l-2,6.08h-.85c-.1,0-.17-.07-.21-.2l-1.35-4.13a2.29,2.29,0,0,1-.08-.28l-.06-.27-.06.27c0,.1,0,.19-.07.29l-1.37,4.12a.24.24,0,0,1-.24.2h-.81l-2-6.08h.84a.31.31,0,0,1,.21.07.29.29,0,0,1,.12.15l1.16,3.91c.07.29.12.57.16.82,0-.13.07-.27.11-.4s.08-.27.13-.42l1.28-3.93a.27.27,0,0,1,.11-.15.28.28,0,0,1,.18-.06H471a.29.29,0,0,1,.19.06.27.27,0,0,1,.11.15l1.26,3.93.12.42.1.4c0-.13,0-.26.07-.4s.07-.27.1-.42l1.19-3.91a.42.42,0,0,1,.11-.16.36.36,0,0,1,.2-.06Z"/><path class="cls-64" d="M476.23,160.35h3v.9h-3Z"/><path class="cls-64" d="M481.86,159.13a3.23,3.23,0,0,1,.87-.66,2.37,2.37,0,0,1,1.09-.25,2.23,2.23,0,0,1,.88.17,1.74,1.74,0,0,1,.63.47,2,2,0,0,1,.39.73,3.1,3.1,0,0,1,.13.94v3.87h-1.07v-3.87a1.63,1.63,0,0,0-.32-1.07,1.15,1.15,0,0,0-.95-.38,1.81,1.81,0,0,0-.89.22,3.14,3.14,0,0,0-.76.62v4.48h-1.07v-8.84h1.07Z"/><path class="cls-64" d="M490.05,158.22a3.09,3.09,0,0,1,1.2.23,2.41,2.41,0,0,1,.91.63,2.9,2.9,0,0,1,.58,1,4.08,4.08,0,0,1,.2,1.3,4,4,0,0,1-.2,1.29,2.85,2.85,0,0,1-.58,1,2.5,2.5,0,0,1-.91.62,3.41,3.41,0,0,1-2.41,0,2.45,2.45,0,0,1-.92-.62,2.85,2.85,0,0,1-.58-1,4,4,0,0,1-.2-1.29,4.08,4.08,0,0,1,.2-1.3,2.9,2.9,0,0,1,.58-1,2.37,2.37,0,0,1,.92-.63A3.07,3.07,0,0,1,490.05,158.22Zm0,5.43a1.56,1.56,0,0,0,1.34-.6,3.47,3.47,0,0,0,0-3.38,1.57,1.57,0,0,0-1.34-.61,2,2,0,0,0-.8.16,1.45,1.45,0,0,0-.56.45,2.18,2.18,0,0,0-.34.72,4.11,4.11,0,0,0-.11,1,2.8,2.8,0,0,0,.45,1.69A1.57,1.57,0,0,0,490.05,163.65Z"/><path class="cls-64" d="M502.58,158.32l-2,6.08h-.84c-.11,0-.18-.07-.22-.2l-1.34-4.13a1.29,1.29,0,0,1-.08-.28l-.06-.27-.06.27c0,.1-.05.19-.08.29l-1.37,4.12a.23.23,0,0,1-.24.2h-.8l-2-6.08h.84a.3.3,0,0,1,.21.07.29.29,0,0,1,.12.15l1.16,3.91c.07.29.13.57.17.82,0-.13.07-.27.11-.4s.08-.27.12-.42l1.28-3.93a.33.33,0,0,1,.11-.15.28.28,0,0,1,.18-.06h.47a.32.32,0,0,1,.2.06.33.33,0,0,1,.11.15l1.25,3.93.12.42c0,.13.07.27.1.4,0-.13,0-.26.08-.4s.06-.27.1-.42l1.18-3.91a.36.36,0,0,1,.12-.16.32.32,0,0,1,.2-.06Z"/><path class="cls-64" d="M509,158.22a3,3,0,0,1,1.2.23,2.33,2.33,0,0,1,.91.63,2.61,2.61,0,0,1,.58,1,3.82,3.82,0,0,1,.2,1.3,3.72,3.72,0,0,1-.2,1.29,2.57,2.57,0,0,1-.58,1,2.42,2.42,0,0,1-.91.62,3,3,0,0,1-1.2.22,3.11,3.11,0,0,1-1.21-.22,2.42,2.42,0,0,1-.91-.62,2.7,2.7,0,0,1-.58-1,4,4,0,0,1-.2-1.29,4.08,4.08,0,0,1,.2-1.3,2.74,2.74,0,0,1,.58-1,2.33,2.33,0,0,1,.91-.63A3.11,3.11,0,0,1,509,158.22Zm0,5.43a1.58,1.58,0,0,0,1.35-.6,3.47,3.47,0,0,0,0-3.38,1.59,1.59,0,0,0-1.35-.61,1.92,1.92,0,0,0-.79.16,1.48,1.48,0,0,0-.57.45,2,2,0,0,0-.33.72,3.64,3.64,0,0,0-.11,1,2.8,2.8,0,0,0,.44,1.69A1.59,1.59,0,0,0,509,163.65Z"/><path class="cls-64" d="M513.52,164.4v-5.17l-.67-.08a.51.51,0,0,1-.21-.09.19.19,0,0,1-.08-.18v-.44h1v-.59a2.87,2.87,0,0,1,.14-.92,2,2,0,0,1,.42-.69,1.91,1.91,0,0,1,.66-.42,2.41,2.41,0,0,1,.87-.15,2.27,2.27,0,0,1,.75.12l0,.54a.15.15,0,0,1-.16.15l-.39,0a1.59,1.59,0,0,0-.5.07,1.09,1.09,0,0,0-.39.23,1.06,1.06,0,0,0-.25.43,2,2,0,0,0-.08.65v.56h1.75v.77h-1.72v5.19Z"/><path class="cls-64" d="M522.74,158.22a3.09,3.09,0,0,1,1.2.23,2.33,2.33,0,0,1,.91.63,2.74,2.74,0,0,1,.58,1,3.82,3.82,0,0,1,.2,1.3,3.72,3.72,0,0,1-.2,1.29,2.7,2.7,0,0,1-.58,1,2.42,2.42,0,0,1-.91.62,3.41,3.41,0,0,1-2.41,0,2.42,2.42,0,0,1-.91-.62,2.57,2.57,0,0,1-.58-1,3.72,3.72,0,0,1-.2-1.29,3.82,3.82,0,0,1,.2-1.3,2.61,2.61,0,0,1,.58-1,2.33,2.33,0,0,1,.91-.63A3.11,3.11,0,0,1,522.74,158.22Zm0,5.43a1.55,1.55,0,0,0,1.34-.6,3.4,3.4,0,0,0,0-3.38,1.55,1.55,0,0,0-1.34-.61,1.92,1.92,0,0,0-.79.16,1.48,1.48,0,0,0-.57.45,2,2,0,0,0-.33.72,3.63,3.63,0,0,0-.12,1,2.8,2.8,0,0,0,.45,1.69A1.59,1.59,0,0,0,522.74,163.65Z"/><path class="cls-64" d="M532,158.32v6.08h-.64a.26.26,0,0,1-.28-.22l-.09-.66a3.36,3.36,0,0,1-.89.71,2.26,2.26,0,0,1-1.12.26,2.16,2.16,0,0,1-.88-.16,1.78,1.78,0,0,1-.64-.46,2.22,2.22,0,0,1-.39-.73,3.44,3.44,0,0,1-.13-.94v-3.88H528v3.88a1.64,1.64,0,0,0,.31,1.07,1.2,1.2,0,0,0,1,.37,1.8,1.8,0,0,0,.88-.22,2.76,2.76,0,0,0,.76-.62v-4.48Z"/><path class="cls-64" d="M534.69,159.54a2.74,2.74,0,0,1,.7-1,1.59,1.59,0,0,1,1-.35,2.21,2.21,0,0,1,.37,0,1,1,0,0,1,.31.14l-.07.8a.17.17,0,0,1-.18.14l-.25,0a2,2,0,0,0-.37,0,1.36,1.36,0,0,0-.51.09,1.12,1.12,0,0,0-.4.25,1.61,1.61,0,0,0-.32.4,3.63,3.63,0,0,0-.25.56v3.84h-1.08v-6.08h.61a.3.3,0,0,1,.24.07.33.33,0,0,1,.09.23Z"/><path class="cls-64" d="M545.09,159.4a.3.3,0,0,1-.09.1.21.21,0,0,1-.14,0,.34.34,0,0,1-.19-.08l-.27-.16a2.4,2.4,0,0,0-.39-.17,1.89,1.89,0,0,0-.57-.07,1.8,1.8,0,0,0-.79.16,1.42,1.42,0,0,0-.57.46,2,2,0,0,0-.35.72,3.55,3.55,0,0,0-.12,1,3.32,3.32,0,0,0,.13,1,2.2,2.2,0,0,0,.35.72,1.59,1.59,0,0,0,.56.44,1.75,1.75,0,0,0,.74.15,1.93,1.93,0,0,0,.64-.09,2.06,2.06,0,0,0,.42-.2l.27-.21a.39.39,0,0,1,.22-.1.22.22,0,0,1,.2.11l.3.39a2.49,2.49,0,0,1-.44.42,3.19,3.19,0,0,1-.55.29,3.05,3.05,0,0,1-.61.17,4.51,4.51,0,0,1-.65,0,2.59,2.59,0,0,1-1.05-.21,2.34,2.34,0,0,1-.85-.61,2.85,2.85,0,0,1-.57-1,4.16,4.16,0,0,1-.2-1.32,3.92,3.92,0,0,1,.19-1.26,2.81,2.81,0,0,1,.55-1,2.53,2.53,0,0,1,.89-.65,3,3,0,0,1,1.23-.24,2.88,2.88,0,0,1,1.13.21,2.81,2.81,0,0,1,.86.59Z"/><path class="cls-64" d="M549,158.22a3,3,0,0,1,1.2.23,2.44,2.44,0,0,1,.92.63,2.72,2.72,0,0,1,.57,1,3.81,3.81,0,0,1,.21,1.3,3.71,3.71,0,0,1-.21,1.29,2.68,2.68,0,0,1-.57,1,2.54,2.54,0,0,1-.92.62,3,3,0,0,1-1.2.22,3.06,3.06,0,0,1-1.2-.22,2.45,2.45,0,0,1-.92-.62,2.7,2.7,0,0,1-.58-1,4,4,0,0,1-.2-1.29,4.08,4.08,0,0,1,.2-1.3,2.74,2.74,0,0,1,.58-1,2.37,2.37,0,0,1,.92-.63A3.06,3.06,0,0,1,549,158.22Zm0,5.43a1.58,1.58,0,0,0,1.35-.6,3.47,3.47,0,0,0,0-3.38,1.59,1.59,0,0,0-1.35-.61,1.92,1.92,0,0,0-.79.16,1.56,1.56,0,0,0-.57.45,2.17,2.17,0,0,0-.33.72,3.64,3.64,0,0,0-.11,1,2.88,2.88,0,0,0,.44,1.69A1.6,1.6,0,0,0,549,163.65Z"/><path class="cls-64" d="M558.28,158.32v6.08h-.63a.27.27,0,0,1-.29-.22l-.08-.66a3.52,3.52,0,0,1-.89.71,2.33,2.33,0,0,1-1.13.26,2.19,2.19,0,0,1-.88-.16,1.87,1.87,0,0,1-.64-.46,2.22,2.22,0,0,1-.39-.73,3.45,3.45,0,0,1-.12-.94v-3.88h1.06v3.88a1.65,1.65,0,0,0,.32,1.07,1.18,1.18,0,0,0,1,.37,1.83,1.83,0,0,0,.89-.22,3.09,3.09,0,0,0,.76-.62v-4.48Z"/><path class="cls-64" d="M561,159.2a5.16,5.16,0,0,1,.42-.4,3,3,0,0,1,.48-.31,3,3,0,0,1,.52-.2,2.92,2.92,0,0,1,.61-.07,2.14,2.14,0,0,1,.87.17,1.69,1.69,0,0,1,.64.47,2,2,0,0,1,.39.73,3.1,3.1,0,0,1,.13.94v3.87H564v-3.87a1.63,1.63,0,0,0-.32-1.07,1.16,1.16,0,0,0-1-.38,1.8,1.8,0,0,0-.88.22,3.14,3.14,0,0,0-.76.62v4.48H560v-6.08h.64a.26.26,0,0,1,.28.22Z"/><path class="cls-64" d="M568.45,164.49a1.44,1.44,0,0,1-1.1-.4,1.57,1.57,0,0,1-.39-1.15v-3.73h-.73a.21.21,0,0,1-.16-.05A.21.21,0,0,1,566,159v-.43l1-.12.24-1.88a.28.28,0,0,1,.08-.15.31.31,0,0,1,.17-.05H568v2.09h1.76v.77H568v3.65a.78.78,0,0,0,.18.57.65.65,0,0,0,.48.19.9.9,0,0,0,.3-.05,1,1,0,0,0,.21-.1l.15-.09a.21.21,0,0,1,.11,0,.19.19,0,0,1,.15.1l.31.51a1.85,1.85,0,0,1-.66.41A2.23,2.23,0,0,1,568.45,164.49Z"/><path class="cls-64" d="M571.91,159.54a2.74,2.74,0,0,1,.7-1,1.57,1.57,0,0,1,1-.35,2.21,2.21,0,0,1,.37,0,1,1,0,0,1,.31.14l-.07.8a.18.18,0,0,1-.19.14l-.24,0a2,2,0,0,0-.37,0,1.36,1.36,0,0,0-.51.09,1.12,1.12,0,0,0-.4.25,1.61,1.61,0,0,0-.32.4,3.63,3.63,0,0,0-.25.56v3.84h-1.08v-6.08h.61a.3.3,0,0,1,.24.07.33.33,0,0,1,.09.23Z"/><path class="cls-64" d="M580.5,158.32l-3.39,7.87a.46.46,0,0,1-.13.19.37.37,0,0,1-.25.08h-.79l1.11-2.42-2.51-5.72h.92a.31.31,0,0,1,.22.07.36.36,0,0,1,.11.15l1.63,3.83a4.1,4.1,0,0,1,.16.53c.06-.19.12-.37.18-.53l1.58-3.83a.36.36,0,0,1,.12-.16.34.34,0,0,1,.2-.06Z"/><path class="cls-64" d="M584.07,159.18a3.44,3.44,0,0,1,1.08-.73,3.37,3.37,0,0,1,1.29-.24,2.34,2.34,0,0,1,.91.17,1.77,1.77,0,0,1,.66.47,1.83,1.83,0,0,1,.41.72,3.14,3.14,0,0,1,.14.94v3.89h-.47a.48.48,0,0,1-.24-.05.34.34,0,0,1-.13-.2l-.13-.58a5,5,0,0,1-.46.39,2.67,2.67,0,0,1-.48.29,2.45,2.45,0,0,1-.54.18,3.06,3.06,0,0,1-.63.06,2.41,2.41,0,0,1-.67-.09,1.57,1.57,0,0,1-.54-.3,1.34,1.34,0,0,1-.37-.5,1.75,1.75,0,0,1-.13-.72,1.25,1.25,0,0,1,.2-.69,1.68,1.68,0,0,1,.64-.59,3.9,3.9,0,0,1,1.15-.43,9.28,9.28,0,0,1,1.76-.19v-.47a1.59,1.59,0,0,0-.31-1.07,1.1,1.1,0,0,0-.89-.36,1.86,1.86,0,0,0-.67.1,2.46,2.46,0,0,0-.46.22l-.33.22a.48.48,0,0,1-.28.1.31.31,0,0,1-.19-.06.58.58,0,0,1-.13-.14Zm3.45,2.48a10,10,0,0,0-1.26.12,3.5,3.5,0,0,0-.85.24,1.2,1.2,0,0,0-.47.36.72.72,0,0,0-.15.45,1.08,1.08,0,0,0,.08.42.77.77,0,0,0,.53.44,1.29,1.29,0,0,0,.4.05,2.05,2.05,0,0,0,.51-.05,2.11,2.11,0,0,0,.44-.17,2.42,2.42,0,0,0,.4-.25c.12-.11.25-.22.37-.35Z"/><path class="cls-64" d="M591.19,159.2a4,4,0,0,1,.43-.4,2.55,2.55,0,0,1,.47-.31,3,3,0,0,1,.52-.2,2.92,2.92,0,0,1,.61-.07,2.23,2.23,0,0,1,.88.17,1.74,1.74,0,0,1,.63.47,2,2,0,0,1,.39.73,3.1,3.1,0,0,1,.13.94v3.87h-1.07v-3.87a1.63,1.63,0,0,0-.32-1.07,1.15,1.15,0,0,0-1-.38,1.81,1.81,0,0,0-.89.22,3.14,3.14,0,0,0-.76.62v4.48h-1.07v-6.08h.64a.26.26,0,0,1,.28.22Z"/><path class="cls-64" d="M601.91,155.56v8.84h-.63a.27.27,0,0,1-.29-.22l-.1-.74a3.39,3.39,0,0,1-.89.76,2.25,2.25,0,0,1-1.15.28,2.13,2.13,0,0,1-1-.2,1.94,1.94,0,0,1-.72-.59,2.65,2.65,0,0,1-.46-1,5,5,0,0,1-.17-1.34,4.2,4.2,0,0,1,.18-1.25,3.22,3.22,0,0,1,.52-1,2.42,2.42,0,0,1,1.93-.91,2.11,2.11,0,0,1,1.66.72v-3.37Zm-1.07,4.21a1.65,1.65,0,0,0-.64-.56,1.85,1.85,0,0,0-.78-.16,1.55,1.55,0,0,0-1.31.6,2.87,2.87,0,0,0-.45,1.73,4.29,4.29,0,0,0,.1,1,2,2,0,0,0,.3.69,1.05,1.05,0,0,0,.49.4,1.51,1.51,0,0,0,.65.13,1.73,1.73,0,0,0,.92-.24,2.7,2.7,0,0,0,.72-.68Z"/><path class="cls-64" d="M614.81,158.32l-2,6.08H612c-.11,0-.18-.07-.22-.2l-1.34-4.13a2.29,2.29,0,0,1-.08-.28l-.06-.27-.06.27c0,.1,0,.19-.08.29l-1.37,4.12a.23.23,0,0,1-.24.2h-.8l-2-6.08h.84a.28.28,0,0,1,.21.07.29.29,0,0,1,.12.15l1.17,3.91c.06.29.12.57.16.82,0-.13.07-.27.11-.4s.08-.27.12-.42l1.29-3.93a.31.31,0,0,1,.1-.15.28.28,0,0,1,.18-.06h.47a.32.32,0,0,1,.2.06.33.33,0,0,1,.11.15l1.25,3.93a3.86,3.86,0,0,1,.12.42c0,.13.07.27.1.4,0-.13,0-.26.08-.4s.06-.27.1-.42l1.19-3.91a.33.33,0,0,1,.11-.16.34.34,0,0,1,.2-.06Z"/><path class="cls-64" d="M620.7,163.55a1.85,1.85,0,0,1-.47.41,2.49,2.49,0,0,1-.59.29,3.69,3.69,0,0,1-.65.18,5.16,5.16,0,0,1-.67,0,3.11,3.11,0,0,1-1.16-.21,2.62,2.62,0,0,1-.92-.62,2.87,2.87,0,0,1-.6-1,4.27,4.27,0,0,1-.22-1.39,3.54,3.54,0,0,1,.2-1.19,2.7,2.7,0,0,1,.56-1,2.48,2.48,0,0,1,.89-.63,2.88,2.88,0,0,1,1.19-.24,2.75,2.75,0,0,1,1,.19,2.32,2.32,0,0,1,.81.53,2.51,2.51,0,0,1,.53.85,3.42,3.42,0,0,1,.19,1.15.83.83,0,0,1,0,.34.26.26,0,0,1-.21.08h-4.06a3.34,3.34,0,0,0,.16,1,2,2,0,0,0,.39.71,1.56,1.56,0,0,0,.6.42,1.94,1.94,0,0,0,.78.14,2.31,2.31,0,0,0,.69-.09,2.73,2.73,0,0,0,.5-.2,3.61,3.61,0,0,0,.36-.2.47.47,0,0,1,.24-.1.23.23,0,0,1,.2.11Zm-.86-2.85a2.06,2.06,0,0,0-.11-.68,1.39,1.39,0,0,0-.79-.89,1.67,1.67,0,0,0-.65-.12,1.64,1.64,0,0,0-1.22.45,2.14,2.14,0,0,0-.56,1.24Z"/><path class="cls-64" d="M625,159.18a3.6,3.6,0,0,1,1.09-.73,3.37,3.37,0,0,1,1.29-.24,2.29,2.29,0,0,1,.9.17,1.8,1.8,0,0,1,.67.47,2,2,0,0,1,.41.72,3.14,3.14,0,0,1,.14.94v3.89H629a.54.54,0,0,1-.24-.05.39.39,0,0,1-.13-.2l-.12-.58a4,4,0,0,1-.47.39,2.6,2.6,0,0,1-1,.47,3.1,3.1,0,0,1-.64.06,2.34,2.34,0,0,1-.66-.09,1.72,1.72,0,0,1-.55-.3,1.43,1.43,0,0,1-.36-.5,1.74,1.74,0,0,1-.14-.72,1.34,1.34,0,0,1,.2-.69,1.76,1.76,0,0,1,.64-.59,4.09,4.09,0,0,1,1.16-.43,9.17,9.17,0,0,1,1.75-.19v-.47a1.64,1.64,0,0,0-.3-1.07,1.12,1.12,0,0,0-.9-.36,1.83,1.83,0,0,0-.66.1,2.19,2.19,0,0,0-.46.22l-.34.22a.44.44,0,0,1-.28.1.28.28,0,0,1-.18-.06.44.44,0,0,1-.13-.14Zm3.45,2.48a9.64,9.64,0,0,0-1.25.12,3.5,3.5,0,0,0-.85.24,1.07,1.07,0,0,0-.47.36.72.72,0,0,0-.15.45,1.08,1.08,0,0,0,.08.42.77.77,0,0,0,.53.44,1.23,1.23,0,0,0,.39.05,2.14,2.14,0,0,0,.52-.05,2.35,2.35,0,0,0,.44-.17,2,2,0,0,0,.39-.25,4,4,0,0,0,.37-.35Z"/><path class="cls-64" d="M635.37,159.4a.3.3,0,0,1-.09.1.2.2,0,0,1-.14,0,.37.37,0,0,1-.19-.08l-.27-.16a2.4,2.4,0,0,0-.39-.17,1.85,1.85,0,0,0-.57-.07,1.8,1.8,0,0,0-.79.16,1.42,1.42,0,0,0-.57.46,2,2,0,0,0-.35.72,3.55,3.55,0,0,0-.12,1,3.32,3.32,0,0,0,.13,1,2,2,0,0,0,.36.72,1.55,1.55,0,0,0,.55.44,1.78,1.78,0,0,0,.74.15,1.93,1.93,0,0,0,.64-.09,2.06,2.06,0,0,0,.42-.2l.27-.21a.39.39,0,0,1,.22-.1.25.25,0,0,1,.21.11l.3.39a2.55,2.55,0,0,1-.45.42,3.19,3.19,0,0,1-.55.29,3,3,0,0,1-.6.17,4.74,4.74,0,0,1-.65,0,2.64,2.64,0,0,1-1.06-.21,2.34,2.34,0,0,1-.85-.61,2.68,2.68,0,0,1-.56-1,4.26,4.26,0,0,1,0-2.58,3,3,0,0,1,.55-1,2.48,2.48,0,0,1,.9-.65,2.92,2.92,0,0,1,1.22-.24,2.85,2.85,0,0,1,1.13.21,3,3,0,0,1,.87.59Z"/><path class="cls-64" d="M638.74,164.49a1.47,1.47,0,0,1-1.11-.4,1.57,1.57,0,0,1-.39-1.15v-3.73h-.73a.22.22,0,0,1-.16-.05.25.25,0,0,1-.07-.18v-.43l1-.12.25-1.88a.28.28,0,0,1,.08-.15.25.25,0,0,1,.16-.05h.54v2.09h1.76v.77h-1.76v3.65a.74.74,0,0,0,.19.57.62.62,0,0,0,.48.19.84.84,0,0,0,.29-.05,1,1,0,0,0,.21-.1l.16-.09a.18.18,0,0,1,.11,0,.22.22,0,0,1,.15.1l.31.51a2,2,0,0,1-.67.41A2.21,2.21,0,0,1,638.74,164.49Z"/><path class="cls-64" d="M645.6,156.41a.68.68,0,0,1-.06.29.77.77,0,0,1-.71.47.68.68,0,0,1-.29-.06.81.81,0,0,1-.24-.17.78.78,0,0,1-.16-.24.68.68,0,0,1-.06-.29.82.82,0,0,1,.22-.54.81.81,0,0,1,.24-.17.68.68,0,0,1,.29-.06.72.72,0,0,1,.54.23.74.74,0,0,1,.17.25A.72.72,0,0,1,645.6,156.41Zm-.23,1.91v6.08h-1.06v-6.08Z"/><path class="cls-64" d="M648.13,159.2a5.16,5.16,0,0,1,.42-.4,3,3,0,0,1,.48-.31,3,3,0,0,1,.52-.2,2.92,2.92,0,0,1,.61-.07,2.23,2.23,0,0,1,.88.17,1.74,1.74,0,0,1,.63.47,2,2,0,0,1,.39.73,3.1,3.1,0,0,1,.13.94v3.87h-1.07v-3.87a1.63,1.63,0,0,0-.32-1.07,1.16,1.16,0,0,0-1-.38,1.8,1.8,0,0,0-.88.22,3.14,3.14,0,0,0-.76.62v4.48h-1.07v-6.08h.64a.26.26,0,0,1,.28.22Z"/><path class="cls-64" d="M452.33,178a1.85,1.85,0,0,1-.47.41,2.77,2.77,0,0,1-.6.29,3.46,3.46,0,0,1-.65.18,4.89,4.89,0,0,1-.66,0,3.11,3.11,0,0,1-1.16-.21,2.54,2.54,0,0,1-.92-.62,2.87,2.87,0,0,1-.6-1,4,4,0,0,1-.22-1.39,3.31,3.31,0,0,1,.2-1.19,2.7,2.7,0,0,1,.56-1,2.48,2.48,0,0,1,.89-.63,2.84,2.84,0,0,1,1.19-.24,2.79,2.79,0,0,1,1,.19,2.2,2.2,0,0,1,.8.53,2.23,2.23,0,0,1,.53.85,3.19,3.19,0,0,1,.2,1.15.66.66,0,0,1-.06.34.22.22,0,0,1-.2.08h-4.06a3.57,3.57,0,0,0,.15,1,2.08,2.08,0,0,0,.4.72,1.56,1.56,0,0,0,.6.42,1.94,1.94,0,0,0,.78.14,2.31,2.31,0,0,0,.69-.09,3.05,3.05,0,0,0,.5-.2l.35-.2a.54.54,0,0,1,.25-.1.24.24,0,0,1,.2.11Zm-.86-2.85a2.06,2.06,0,0,0-.11-.68,1.44,1.44,0,0,0-.31-.54,1.42,1.42,0,0,0-.48-.35,1.73,1.73,0,0,0-.66-.12,1.63,1.63,0,0,0-1.21.45,2.08,2.08,0,0,0-.56,1.24Z"/><path class="cls-64" d="M454.74,173.6a3.16,3.16,0,0,1,.42-.4,3.46,3.46,0,0,1,.47-.31,3.05,3.05,0,0,1,.53-.2,2.9,2.9,0,0,1,.6-.07,2.16,2.16,0,0,1,.88.17,1.69,1.69,0,0,1,.64.47,2,2,0,0,1,.39.73,3.39,3.39,0,0,1,.13.94v3.87h-1.08v-3.87a1.63,1.63,0,0,0-.31-1.07,1.16,1.16,0,0,0-1-.38,1.8,1.8,0,0,0-.88.22,3,3,0,0,0-.76.62v4.48h-1.08v-6.08h.65a.26.26,0,0,1,.28.22Z"/><path class="cls-64" d="M465.51,172.72,463,178.8h-1l-2.47-6.08h.87a.3.3,0,0,1,.21.07.29.29,0,0,1,.12.15l1.54,3.92a3.45,3.45,0,0,1,.12.43c0,.14.07.28.11.42,0-.14.06-.28.1-.42a3.52,3.52,0,0,1,.13-.43l1.56-3.92a.36.36,0,0,1,.12-.16.34.34,0,0,1,.2-.06Z"/><path class="cls-64" d="M467.85,170.81a.68.68,0,0,1-.06.29.81.81,0,0,1-.17.24.74.74,0,0,1-.25.17.72.72,0,0,1-.29.06.68.68,0,0,1-.29-.06.81.81,0,0,1-.24-.17.78.78,0,0,1-.16-.24.68.68,0,0,1-.06-.29.82.82,0,0,1,.22-.54.63.63,0,0,1,.24-.16.57.57,0,0,1,.29-.07.59.59,0,0,1,.29.07.6.6,0,0,1,.25.16.74.74,0,0,1,.17.25A.72.72,0,0,1,467.85,170.81Zm-.23,1.91v6.08h-1.06v-6.08Z"/><path class="cls-64" d="M470.39,173.94a2.76,2.76,0,0,1,.71-1,1.56,1.56,0,0,1,1-.35,2.21,2.21,0,0,1,.37,0,1,1,0,0,1,.32.14l-.08.79a.16.16,0,0,1-.18.15l-.25,0a1.32,1.32,0,0,0-.36,0,1.42,1.42,0,0,0-.52.09,1.12,1.12,0,0,0-.4.25,1.87,1.87,0,0,0-.32.4,4.93,4.93,0,0,0-.25.56v3.84h-1.07v-6.08H470a.33.33,0,0,1,.24.07.45.45,0,0,1,.09.22Z"/><path class="cls-64" d="M476.06,172.62a3.09,3.09,0,0,1,1.2.23,2.33,2.33,0,0,1,.91.63,2.74,2.74,0,0,1,.58,1,4.08,4.08,0,0,1,.2,1.3,4,4,0,0,1-.2,1.29,2.79,2.79,0,0,1-.58,1,2.42,2.42,0,0,1-.91.62,3.41,3.41,0,0,1-2.41,0,2.42,2.42,0,0,1-.91-.62,2.65,2.65,0,0,1-.58-1,3.72,3.72,0,0,1-.2-1.29,3.82,3.82,0,0,1,.2-1.3,2.61,2.61,0,0,1,.58-1,2.33,2.33,0,0,1,.91-.63A3.11,3.11,0,0,1,476.06,172.62Zm0,5.43a1.55,1.55,0,0,0,1.34-.6,3.4,3.4,0,0,0,0-3.38,1.55,1.55,0,0,0-1.34-.61,2,2,0,0,0-.8.16,1.44,1.44,0,0,0-.56.45,2.18,2.18,0,0,0-.34.72,4.11,4.11,0,0,0-.11,1,2.8,2.8,0,0,0,.45,1.69A1.59,1.59,0,0,0,476.06,178.05Z"/><path class="cls-64" d="M481.31,173.6a3.16,3.16,0,0,1,.42-.4,2.94,2.94,0,0,1,.47-.31,3.05,3.05,0,0,1,.53-.2,2.82,2.82,0,0,1,.6-.07,2.19,2.19,0,0,1,.88.17,1.78,1.78,0,0,1,.64.47,1.88,1.88,0,0,1,.38.73,3,3,0,0,1,.14.94v3.87h-1.08v-3.87a1.63,1.63,0,0,0-.31-1.07,1.16,1.16,0,0,0-1-.38,1.83,1.83,0,0,0-.89.22,3.09,3.09,0,0,0-.75.62v4.48H480.3v-6.08h.64a.26.26,0,0,1,.28.22Z"/><path class="cls-64" d="M487,178.8v-6.08h.64a.26.26,0,0,1,.28.22l.08.63a2.86,2.86,0,0,1,.76-.68,1.75,1.75,0,0,1,1-.27,1.41,1.41,0,0,1,1,.35,1.93,1.93,0,0,1,.55.92,2,2,0,0,1,.34-.57,2.17,2.17,0,0,1,.46-.4,2,2,0,0,1,.55-.22,2.39,2.39,0,0,1,.59-.08,2.31,2.31,0,0,1,.86.16,1.67,1.67,0,0,1,.63.44,1.91,1.91,0,0,1,.4.73,2.94,2.94,0,0,1,.14,1v3.87h-1.07v-3.87a1.66,1.66,0,0,0-.31-1.08,1.11,1.11,0,0,0-.9-.37,1.44,1.44,0,0,0-.51.09,1.22,1.22,0,0,0-.41.27,1.25,1.25,0,0,0-.29.46,1.74,1.74,0,0,0-.1.63v3.87h-1.08v-3.87a1.67,1.67,0,0,0-.29-1.09,1,1,0,0,0-.86-.36,1.35,1.35,0,0,0-.73.21,2.58,2.58,0,0,0-.62.58v4.53Z"/><path class="cls-64" d="M501.8,178a1.85,1.85,0,0,1-.47.41,2.77,2.77,0,0,1-.6.29,3.46,3.46,0,0,1-.65.18,4.89,4.89,0,0,1-.66,0,3.11,3.11,0,0,1-1.16-.21,2.54,2.54,0,0,1-.92-.62,2.87,2.87,0,0,1-.6-1,4,4,0,0,1-.22-1.39,3.31,3.31,0,0,1,.2-1.19,2.56,2.56,0,0,1,.56-1,2.48,2.48,0,0,1,.89-.63,2.84,2.84,0,0,1,1.19-.24,2.79,2.79,0,0,1,1,.19,2.2,2.2,0,0,1,.8.53,2.23,2.23,0,0,1,.53.85,3.19,3.19,0,0,1,.2,1.15.66.66,0,0,1-.06.34.22.22,0,0,1-.2.08h-4.06a3.57,3.57,0,0,0,.15,1,2.08,2.08,0,0,0,.4.72,1.56,1.56,0,0,0,.6.42,1.94,1.94,0,0,0,.78.14,2.31,2.31,0,0,0,.69-.09,3.46,3.46,0,0,0,.5-.2l.35-.2a.54.54,0,0,1,.25-.1.24.24,0,0,1,.2.11Zm-.86-2.85a2.06,2.06,0,0,0-.11-.68,1.44,1.44,0,0,0-.31-.54,1.42,1.42,0,0,0-.48-.35,1.73,1.73,0,0,0-.66-.12,1.63,1.63,0,0,0-1.21.45,2.08,2.08,0,0,0-.56,1.24Z"/><path class="cls-64" d="M504.21,173.6a3.16,3.16,0,0,1,.42-.4,3.46,3.46,0,0,1,.47-.31,3.05,3.05,0,0,1,.53-.2,2.9,2.9,0,0,1,.6-.07,2.16,2.16,0,0,1,.88.17,1.69,1.69,0,0,1,.64.47,2,2,0,0,1,.39.73,3.39,3.39,0,0,1,.13.94v3.87h-1.08v-3.87a1.63,1.63,0,0,0-.31-1.07,1.16,1.16,0,0,0-1-.38,1.8,1.8,0,0,0-.88.22,3,3,0,0,0-.76.62v4.48H503.2v-6.08h.65a.26.26,0,0,1,.28.22Z"/><path class="cls-64" d="M511.68,178.89a1.43,1.43,0,0,1-1.1-.4,1.6,1.6,0,0,1-.39-1.16v-3.71h-.73a.25.25,0,0,1-.17-.06.24.24,0,0,1-.06-.18V173l1-.12.25-1.88a.28.28,0,0,1,.08-.15.29.29,0,0,1,.17-.05h.54v2.09H513v.78h-1.75v3.64a.78.78,0,0,0,.18.57.65.65,0,0,0,.48.19.84.84,0,0,0,.29-.05.9.9,0,0,0,.22-.1l.15-.09a.21.21,0,0,1,.11-.05.17.17,0,0,1,.15.1l.31.51a2,2,0,0,1-.66.41A2.23,2.23,0,0,1,511.68,178.89Z"/><path class="cls-64" d="M514,173.58a3.42,3.42,0,0,1,1.09-.73,3.37,3.37,0,0,1,1.29-.24,2.29,2.29,0,0,1,.9.17,1.8,1.8,0,0,1,.67.47,2,2,0,0,1,.41.72,3.14,3.14,0,0,1,.14.94v3.89H518a.54.54,0,0,1-.24-.05.39.39,0,0,1-.13-.2l-.12-.58a5.09,5.09,0,0,1-.47.39,2.36,2.36,0,0,1-.48.29,2.55,2.55,0,0,1-.53.18,3.24,3.24,0,0,1-.64.06,2.34,2.34,0,0,1-.66-.09,1.72,1.72,0,0,1-.55-.3,1.43,1.43,0,0,1-.36-.5,1.74,1.74,0,0,1-.14-.72,1.34,1.34,0,0,1,.2-.69,1.76,1.76,0,0,1,.64-.59,4,4,0,0,1,1.16-.43,9.17,9.17,0,0,1,1.75-.19v-.47a1.64,1.64,0,0,0-.3-1.07,1.13,1.13,0,0,0-.9-.36,1.83,1.83,0,0,0-.66.1,2.19,2.19,0,0,0-.46.22c-.13.08-.25.15-.34.22a.46.46,0,0,1-.28.1.28.28,0,0,1-.18-.06.47.47,0,0,1-.14-.14Zm3.45,2.48a10,10,0,0,0-1.26.12,3.55,3.55,0,0,0-.84.24,1.07,1.07,0,0,0-.47.36.72.72,0,0,0-.15.45.93.93,0,0,0,.08.42.77.77,0,0,0,.53.44,1.23,1.23,0,0,0,.39,0,2.14,2.14,0,0,0,.52,0,2.35,2.35,0,0,0,.44-.17,2.41,2.41,0,0,0,.39-.26,2.92,2.92,0,0,0,.37-.34Z"/><path class="cls-64" d="M521.19,170v8.84h-1.07V170Z"/><path class="cls-64" d="M527.85,178.89a1.43,1.43,0,0,1-1.1-.4,1.6,1.6,0,0,1-.39-1.16v-3.71h-.73a.25.25,0,0,1-.17-.06.24.24,0,0,1-.06-.18V173l1-.12.25-1.88a.28.28,0,0,1,.08-.15.29.29,0,0,1,.17-.05h.54v2.09h1.75v.78h-1.75v3.64a.78.78,0,0,0,.18.57.65.65,0,0,0,.48.19.84.84,0,0,0,.29-.05.9.9,0,0,0,.22-.1l.15-.09a.21.21,0,0,1,.11-.05.17.17,0,0,1,.15.1l.31.51a2,2,0,0,1-.66.41A2.23,2.23,0,0,1,527.85,178.89Z"/><path class="cls-64" d="M535.19,178a1.85,1.85,0,0,1-.47.41,2.69,2.69,0,0,1-.59.29,3.57,3.57,0,0,1-.66.18,4.89,4.89,0,0,1-.66,0,3.11,3.11,0,0,1-1.16-.21,2.54,2.54,0,0,1-.92-.62,2.87,2.87,0,0,1-.6-1,4,4,0,0,1-.22-1.39,3.31,3.31,0,0,1,.2-1.19,2.7,2.7,0,0,1,.56-1,2.48,2.48,0,0,1,.89-.63,2.84,2.84,0,0,1,1.19-.24,2.79,2.79,0,0,1,1,.19,2.2,2.2,0,0,1,.8.53,2.23,2.23,0,0,1,.53.85,3.19,3.19,0,0,1,.2,1.15.66.66,0,0,1-.06.34.22.22,0,0,1-.2.08H531a3.22,3.22,0,0,0,.16,1,1.91,1.91,0,0,0,.39.72,1.56,1.56,0,0,0,.6.42,1.94,1.94,0,0,0,.78.14,2.31,2.31,0,0,0,.69-.09,3.05,3.05,0,0,0,.5-.2l.35-.2a.54.54,0,0,1,.25-.1.24.24,0,0,1,.2.11Zm-.86-2.85a2.06,2.06,0,0,0-.11-.68,1.39,1.39,0,0,0-.79-.89,1.73,1.73,0,0,0-.66-.12,1.63,1.63,0,0,0-1.21.45,2.08,2.08,0,0,0-.56,1.24Z"/><path class="cls-64" d="M537.61,173.94a2.76,2.76,0,0,1,.71-1,1.56,1.56,0,0,1,1-.35,2.21,2.21,0,0,1,.37,0,1.15,1.15,0,0,1,.32.14l-.08.79a.17.17,0,0,1-.18.15l-.25,0a1.58,1.58,0,0,0-.88.05,1.12,1.12,0,0,0-.4.25,1.87,1.87,0,0,0-.32.4,3.63,3.63,0,0,0-.25.56v3.84h-1.08v-6.08h.62a.33.33,0,0,1,.24.07.45.45,0,0,1,.09.22Z"/><path class="cls-64" d="M541,178.8v-6.08h.64a.27.27,0,0,1,.29.22l.07.63a3,3,0,0,1,.76-.68,1.75,1.75,0,0,1,1-.27,1.45,1.45,0,0,1,1,.35,1.91,1.91,0,0,1,.54.92,2.27,2.27,0,0,1,.34-.57,2.22,2.22,0,0,1,.47-.4,1.76,1.76,0,0,1,.55-.22,2.33,2.33,0,0,1,.59-.08,2.26,2.26,0,0,1,.85.16,1.7,1.7,0,0,1,.64.44,2.06,2.06,0,0,1,.4.73,3.22,3.22,0,0,1,.14,1v3.87h-1.08v-3.87a1.6,1.6,0,0,0-.31-1.08,1.11,1.11,0,0,0-.9-.37,1.39,1.39,0,0,0-.5.09,1.17,1.17,0,0,0-.42.27,1.23,1.23,0,0,0-.28.46,1.73,1.73,0,0,0-.11.63v3.87h-1.07v-3.87a1.67,1.67,0,0,0-.3-1.09,1,1,0,0,0-.85-.36,1.38,1.38,0,0,0-.74.21,2.38,2.38,0,0,0-.61.58v4.53Z"/><path class="cls-64" d="M554.37,173.72a.24.24,0,0,1-.22.14.44.44,0,0,1-.2-.07l-.28-.15-.4-.15a2.08,2.08,0,0,0-.54-.07,1.73,1.73,0,0,0-.48.07,1.17,1.17,0,0,0-.37.19.77.77,0,0,0-.23.28.69.69,0,0,0-.09.34.61.61,0,0,0,.14.4,1.11,1.11,0,0,0,.36.26,2.59,2.59,0,0,0,.5.21l.58.18.58.22a2.07,2.07,0,0,1,.5.3,1.27,1.27,0,0,1,.49,1.07,2,2,0,0,1-.15.78,1.64,1.64,0,0,1-.44.61,2.12,2.12,0,0,1-.72.41,2.93,2.93,0,0,1-1,.15,3.07,3.07,0,0,1-1.16-.2,3.11,3.11,0,0,1-.87-.53l.25-.41a.43.43,0,0,1,.11-.12.31.31,0,0,1,.17,0,.46.46,0,0,1,.23.08l.29.19a2.4,2.4,0,0,0,.42.18,1.78,1.78,0,0,0,.61.09,1.82,1.82,0,0,0,.55-.08,1.47,1.47,0,0,0,.39-.22.89.89,0,0,0,.3-.71.63.63,0,0,0-.13-.41,1,1,0,0,0-.36-.28,3,3,0,0,0-.51-.21l-.58-.18-.58-.22a2.17,2.17,0,0,1-.51-.31,1.34,1.34,0,0,1-.35-.46,1.46,1.46,0,0,1-.14-.66,1.71,1.71,0,0,1,.14-.67,1.76,1.76,0,0,1,.42-.56,2.05,2.05,0,0,1,.68-.39,2.65,2.65,0,0,1,.92-.15,3.06,3.06,0,0,1,1.08.19,2.55,2.55,0,0,1,.82.52Z"/><path class="cls-64" d="M561,178.89a1.47,1.47,0,0,1-1.11-.4,1.6,1.6,0,0,1-.39-1.16v-3.71h-.73a.23.23,0,0,1-.16-.06.25.25,0,0,1-.07-.18V173l1-.12.25-1.88a.22.22,0,0,1,.08-.15.25.25,0,0,1,.16-.05h.54v2.09h1.76v.78h-1.76v3.64a.74.74,0,0,0,.19.57.62.62,0,0,0,.48.19.84.84,0,0,0,.29-.05,1,1,0,0,0,.21-.1l.15-.09a.25.25,0,0,1,.11-.05.19.19,0,0,1,.16.1l.31.51a2.15,2.15,0,0,1-.67.41A2.21,2.21,0,0,1,561,178.89Z"/><path class="cls-64" d="M565.93,172.62a3,3,0,0,1,1.2.23,2.44,2.44,0,0,1,.92.63,2.9,2.9,0,0,1,.58,1,4.08,4.08,0,0,1,.2,1.3,4,4,0,0,1-.2,1.29,2.94,2.94,0,0,1-.58,1,2.54,2.54,0,0,1-.92.62,3,3,0,0,1-1.2.22,3.06,3.06,0,0,1-1.2-.22,2.45,2.45,0,0,1-.92-.62,2.94,2.94,0,0,1-.58-1,4,4,0,0,1-.2-1.29,4.08,4.08,0,0,1,.2-1.3,2.9,2.9,0,0,1,.58-1,2.37,2.37,0,0,1,.92-.63A3.06,3.06,0,0,1,565.93,172.62Zm0,5.43a1.58,1.58,0,0,0,1.35-.6,3.47,3.47,0,0,0,0-3.38,1.59,1.59,0,0,0-1.35-.61,2,2,0,0,0-.79.16,1.37,1.37,0,0,0-.56.45,2,2,0,0,0-.34.72,4.11,4.11,0,0,0-.11,1,2.8,2.8,0,0,0,.45,1.69A1.57,1.57,0,0,0,565.93,178.05Z"/><path class="cls-64" d="M574.27,173.66a3.08,3.08,0,0,1,.89-.76,2.28,2.28,0,0,1,1.15-.29,2.24,2.24,0,0,1,1,.2,2,2,0,0,1,.73.6,2.82,2.82,0,0,1,.46,1,5,5,0,0,1,.16,1.34,4.15,4.15,0,0,1-.18,1.25,2.88,2.88,0,0,1-.52,1,2.31,2.31,0,0,1-.82.67,2.51,2.51,0,0,1-1.11.24,2.12,2.12,0,0,1-1-.19,2.24,2.24,0,0,1-.71-.52v2.69h-1.07v-8.14h.64a.26.26,0,0,1,.28.22Zm.05,3.67a1.65,1.65,0,0,0,.64.56,1.85,1.85,0,0,0,.78.16,1.54,1.54,0,0,0,1.31-.6,2.8,2.8,0,0,0,.46-1.73,4.24,4.24,0,0,0-.11-1,2.05,2.05,0,0,0-.3-.7,1.19,1.19,0,0,0-.49-.4,1.67,1.67,0,0,0-.65-.12,1.69,1.69,0,0,0-.91.24,2.55,2.55,0,0,0-.73.67Z"/><path class="cls-64" d="M581,173.94a2.76,2.76,0,0,1,.71-1,1.56,1.56,0,0,1,1-.35,2.21,2.21,0,0,1,.37,0,1.15,1.15,0,0,1,.32.14l-.08.79a.17.17,0,0,1-.18.15l-.25,0a1.58,1.58,0,0,0-.88.05,1.12,1.12,0,0,0-.4.25,1.87,1.87,0,0,0-.32.4,3.63,3.63,0,0,0-.25.56v3.84H580v-6.08h.62a.33.33,0,0,1,.24.07.45.45,0,0,1,.09.22Z"/><path class="cls-64" d="M589,178a1.74,1.74,0,0,1-.48.41,2.49,2.49,0,0,1-.59.29,3.46,3.46,0,0,1-.65.18,4.89,4.89,0,0,1-.66,0,3.11,3.11,0,0,1-1.16-.21,2.54,2.54,0,0,1-.92-.62,3,3,0,0,1-.61-1,4.27,4.27,0,0,1-.21-1.39,3.54,3.54,0,0,1,.19-1.19,2.86,2.86,0,0,1,.56-1,2.61,2.61,0,0,1,.9-.63,2.84,2.84,0,0,1,1.19-.24,2.79,2.79,0,0,1,1,.19,2.2,2.2,0,0,1,.8.53,2.36,2.36,0,0,1,.53.85,3.19,3.19,0,0,1,.19,1.15.68.68,0,0,1,0,.34.23.23,0,0,1-.2.08H584.8a4,4,0,0,0,.16,1,2.08,2.08,0,0,0,.4.72,1.42,1.42,0,0,0,.6.42,1.94,1.94,0,0,0,.78.14,2.36,2.36,0,0,0,.69-.09,3.46,3.46,0,0,0,.5-.2,3.34,3.34,0,0,0,.35-.2.55.55,0,0,1,.24-.1.25.25,0,0,1,.21.11Zm-.87-2.85a2.07,2.07,0,0,0-.1-.68,1.44,1.44,0,0,0-.31-.54,1.37,1.37,0,0,0-.49-.35,1.67,1.67,0,0,0-.65-.12,1.65,1.65,0,0,0-1.22.45,2.13,2.13,0,0,0-.55,1.24Z"/><path class="cls-64" d="M594,173.72a.24.24,0,0,1-.22.14.44.44,0,0,1-.2-.07l-.28-.15-.4-.15a2.08,2.08,0,0,0-.54-.07,1.73,1.73,0,0,0-.48.07,1.17,1.17,0,0,0-.37.19.77.77,0,0,0-.23.28.69.69,0,0,0-.09.34.61.61,0,0,0,.14.4,1.11,1.11,0,0,0,.36.26,2.59,2.59,0,0,0,.5.21l.58.18.58.22a2.07,2.07,0,0,1,.5.3,1.27,1.27,0,0,1,.49,1.07,2,2,0,0,1-.15.78,1.64,1.64,0,0,1-.44.61,2.12,2.12,0,0,1-.72.41,2.93,2.93,0,0,1-1,.15,3.07,3.07,0,0,1-1.16-.2,3.11,3.11,0,0,1-.87-.53l.25-.41a.43.43,0,0,1,.11-.12.31.31,0,0,1,.17,0,.46.46,0,0,1,.23.08l.29.19a2.4,2.4,0,0,0,.42.18,1.78,1.78,0,0,0,.61.09,1.82,1.82,0,0,0,.55-.08,1.47,1.47,0,0,0,.39-.22.89.89,0,0,0,.3-.71.63.63,0,0,0-.13-.41,1,1,0,0,0-.36-.28,3,3,0,0,0-.51-.21l-.58-.18-.58-.22a2.17,2.17,0,0,1-.51-.31,1.34,1.34,0,0,1-.35-.46,1.46,1.46,0,0,1-.14-.66,1.71,1.71,0,0,1,.14-.67,1.76,1.76,0,0,1,.42-.56,2.05,2.05,0,0,1,.68-.39,2.65,2.65,0,0,1,.92-.15,3.06,3.06,0,0,1,1.08.19,2.55,2.55,0,0,1,.82.52Z"/><path class="cls-64" d="M600.56,178a1.85,1.85,0,0,1-.47.41,2.69,2.69,0,0,1-.59.29,3.57,3.57,0,0,1-.66.18,4.89,4.89,0,0,1-.66,0,3.11,3.11,0,0,1-1.16-.21,2.54,2.54,0,0,1-.92-.62,2.87,2.87,0,0,1-.6-1,4,4,0,0,1-.22-1.39,3.31,3.31,0,0,1,.2-1.19,2.7,2.7,0,0,1,.56-1,2.48,2.48,0,0,1,.89-.63,2.84,2.84,0,0,1,1.19-.24,2.79,2.79,0,0,1,1,.19,2.2,2.2,0,0,1,.8.53,2.23,2.23,0,0,1,.53.85,3.19,3.19,0,0,1,.2,1.15.66.66,0,0,1-.06.34.22.22,0,0,1-.2.08h-4.06a3.22,3.22,0,0,0,.16,1,1.91,1.91,0,0,0,.39.72,1.56,1.56,0,0,0,.6.42,1.94,1.94,0,0,0,.78.14A2.31,2.31,0,0,0,599,178a3.05,3.05,0,0,0,.5-.2,3.34,3.34,0,0,0,.35-.2.54.54,0,0,1,.25-.1.24.24,0,0,1,.2.11Zm-.86-2.85a2.06,2.06,0,0,0-.11-.68,1.39,1.39,0,0,0-.79-.89,1.73,1.73,0,0,0-.66-.12,1.63,1.63,0,0,0-1.21.45,2.08,2.08,0,0,0-.56,1.24Z"/><path class="cls-64" d="M603,173.94a2.76,2.76,0,0,1,.71-1,1.56,1.56,0,0,1,1-.35,2.21,2.21,0,0,1,.37,0,1.15,1.15,0,0,1,.32.14l-.08.79a.17.17,0,0,1-.18.15l-.25,0a1.58,1.58,0,0,0-.88.05,1.12,1.12,0,0,0-.4.25,1.87,1.87,0,0,0-.32.4,3.63,3.63,0,0,0-.25.56v3.84H602v-6.08h.62a.33.33,0,0,1,.24.07.45.45,0,0,1,.09.22Z"/><path class="cls-64" d="M611.54,172.72l-2.48,6.08h-1l-2.48-6.08h.87a.32.32,0,0,1,.22.07.27.27,0,0,1,.11.15l1.55,3.92c0,.14.09.29.12.43s.07.28.1.42c0-.14.07-.28.11-.42a3.52,3.52,0,0,1,.13-.43l1.56-3.92a.36.36,0,0,1,.12-.16.32.32,0,0,1,.2-.06Z"/><path class="cls-64" d="M617.29,178a1.74,1.74,0,0,1-.48.41,2.49,2.49,0,0,1-.59.29,3.46,3.46,0,0,1-.65.18,4.89,4.89,0,0,1-.66,0,3.11,3.11,0,0,1-1.16-.21,2.54,2.54,0,0,1-.92-.62,3,3,0,0,1-.61-1,4.27,4.27,0,0,1-.21-1.39,3.54,3.54,0,0,1,.19-1.19,2.86,2.86,0,0,1,.56-1,2.61,2.61,0,0,1,.9-.63,2.84,2.84,0,0,1,1.19-.24,2.79,2.79,0,0,1,1,.19,2.28,2.28,0,0,1,.8.53,2.36,2.36,0,0,1,.53.85,3.19,3.19,0,0,1,.19,1.15.68.68,0,0,1,0,.34.23.23,0,0,1-.2.08h-4.07a4,4,0,0,0,.16,1,2.08,2.08,0,0,0,.4.72,1.42,1.42,0,0,0,.6.42,1.94,1.94,0,0,0,.78.14,2.36,2.36,0,0,0,.69-.09,3.46,3.46,0,0,0,.5-.2,3.34,3.34,0,0,0,.35-.2.51.51,0,0,1,.24-.1.25.25,0,0,1,.21.11Zm-.87-2.85a2.07,2.07,0,0,0-.1-.68,1.44,1.44,0,0,0-.31-.54,1.37,1.37,0,0,0-.49-.35,1.67,1.67,0,0,0-.65-.12,1.65,1.65,0,0,0-1.22.45,2.13,2.13,0,0,0-.55,1.24Z"/><path class="cls-64" d="M624.33,172.62a3.09,3.09,0,0,1,1.2.23,2.41,2.41,0,0,1,.91.63,2.9,2.9,0,0,1,.58,1,4.08,4.08,0,0,1,.2,1.3,4,4,0,0,1-.2,1.29,2.94,2.94,0,0,1-.58,1,2.5,2.5,0,0,1-.91.62,3.41,3.41,0,0,1-2.41,0,2.45,2.45,0,0,1-.92-.62,2.94,2.94,0,0,1-.58-1,4,4,0,0,1-.2-1.29,4.08,4.08,0,0,1,.2-1.3,2.9,2.9,0,0,1,.58-1,2.37,2.37,0,0,1,.92-.63A3.07,3.07,0,0,1,624.33,172.62Zm0,5.43a1.56,1.56,0,0,0,1.34-.6,3.47,3.47,0,0,0,0-3.38,1.57,1.57,0,0,0-1.34-.61,2,2,0,0,0-.8.16,1.37,1.37,0,0,0-.56.45,2.18,2.18,0,0,0-.34.72,4.11,4.11,0,0,0-.11,1,2.8,2.8,0,0,0,.45,1.69A1.57,1.57,0,0,0,624.33,178.05Z"/><path class="cls-64" d="M633.57,172.72v6.08h-.64a.28.28,0,0,1-.29-.22l-.08-.66a3.52,3.52,0,0,1-.89.71,2.3,2.3,0,0,1-1.13.26,2.23,2.23,0,0,1-.88-.16,1.87,1.87,0,0,1-.64-.47,1.91,1.91,0,0,1-.38-.72,3.14,3.14,0,0,1-.13-.94v-3.88h1.07v3.88a1.6,1.6,0,0,0,.31,1.06,1.16,1.16,0,0,0,1,.38,1.81,1.81,0,0,0,.89-.22,2.92,2.92,0,0,0,.76-.62v-4.48Z"/><path class="cls-64" d="M636.27,173.94a2.76,2.76,0,0,1,.71-1,1.57,1.57,0,0,1,1-.35,2.33,2.33,0,0,1,.37,0,1.09,1.09,0,0,1,.31.14l-.08.79a.16.16,0,0,1-.18.15l-.24,0a1.4,1.4,0,0,0-.37,0,1.36,1.36,0,0,0-.51.09,1,1,0,0,0-.4.25,1.61,1.61,0,0,0-.32.4,3.63,3.63,0,0,0-.26.56v3.84h-1.07v-6.08h.61a.3.3,0,0,1,.24.07.45.45,0,0,1,.09.22Z"/><path class="cls-64" d="M448.42,188.06a3.08,3.08,0,0,1,.89-.76,2.28,2.28,0,0,1,1.15-.29,2.24,2.24,0,0,1,1,.2,2,2,0,0,1,.73.6,2.82,2.82,0,0,1,.46,1,5,5,0,0,1,.16,1.34,4.15,4.15,0,0,1-.18,1.25,2.88,2.88,0,0,1-.52,1,2.26,2.26,0,0,1-.83.67,2.44,2.44,0,0,1-1.1.24,2.12,2.12,0,0,1-.95-.19,2.24,2.24,0,0,1-.71-.52v2.69H447.4v-8.14H448a.26.26,0,0,1,.28.22Zm.05,3.67a1.74,1.74,0,0,0,.64.56,1.85,1.85,0,0,0,.78.16,1.54,1.54,0,0,0,1.31-.6,2.78,2.78,0,0,0,.46-1.73,4.24,4.24,0,0,0-.11-1,2.05,2.05,0,0,0-.3-.7,1.19,1.19,0,0,0-.49-.4,1.67,1.67,0,0,0-.65-.12,1.75,1.75,0,0,0-.92.24,2.65,2.65,0,0,0-.72.67Z"/><path class="cls-64" d="M455.23,184.36v8.84h-1.07v-8.84Z"/><path class="cls-64" d="M456.8,188a3.42,3.42,0,0,1,1.09-.73,3.3,3.3,0,0,1,1.29-.24,2.29,2.29,0,0,1,.9.17,1.8,1.8,0,0,1,.67.47,2.12,2.12,0,0,1,.41.72,3.14,3.14,0,0,1,.13.94v3.89h-.47a.54.54,0,0,1-.24,0,.34.34,0,0,1-.13-.2l-.12-.58a5.09,5.09,0,0,1-.47.39,2.36,2.36,0,0,1-.48.29,2.45,2.45,0,0,1-.54.18,3.06,3.06,0,0,1-.63.06,2.41,2.41,0,0,1-.67-.09,1.67,1.67,0,0,1-.54-.3,1.45,1.45,0,0,1-.37-.5,1.75,1.75,0,0,1-.13-.72,1.34,1.34,0,0,1,.2-.69,1.68,1.68,0,0,1,.64-.59,4,4,0,0,1,1.16-.43,8.41,8.41,0,0,1,1.75-.18v-.48a1.59,1.59,0,0,0-.31-1.07,1.1,1.1,0,0,0-.89-.36,1.8,1.8,0,0,0-.66.1,2,2,0,0,0-.46.22,2.89,2.89,0,0,0-.34.22.48.48,0,0,1-.28.1.33.33,0,0,1-.19-.06.58.58,0,0,1-.13-.14Zm3.45,2.48a10,10,0,0,0-1.26.12,3.41,3.41,0,0,0-.84.24,1.16,1.16,0,0,0-.48.36.71.71,0,0,0-.14.45,1.09,1.09,0,0,0,.07.42.88.88,0,0,0,.22.28.71.71,0,0,0,.31.16,1.33,1.33,0,0,0,.4,0,2,2,0,0,0,.51,0,1.92,1.92,0,0,0,.44-.17,2.48,2.48,0,0,0,.4-.26,2.92,2.92,0,0,0,.37-.34Z"/><path class="cls-64" d="M463.93,188a4,4,0,0,1,.42-.4,2.94,2.94,0,0,1,.47-.31,2.24,2.24,0,0,1,.53-.2,2.77,2.77,0,0,1,.6-.06,2.23,2.23,0,0,1,.88.16,1.63,1.63,0,0,1,.63.47,2,2,0,0,1,.39.73,3.05,3.05,0,0,1,.13.94v3.87h-1.07v-3.87a1.63,1.63,0,0,0-.32-1.07,1.13,1.13,0,0,0-.95-.38,1.83,1.83,0,0,0-.89.22,3.34,3.34,0,0,0-.76.62v4.48h-1.07v-6.08h.64a.26.26,0,0,1,.28.22Z"/><path class="cls-64" d="M474.55,192.35a1.74,1.74,0,0,1-.48.41,2.49,2.49,0,0,1-.59.29,3.46,3.46,0,0,1-.65.18,4.89,4.89,0,0,1-.66.05,3.11,3.11,0,0,1-1.16-.21,2.45,2.45,0,0,1-.92-.62,3,3,0,0,1-.61-1,4.23,4.23,0,0,1-.21-1.39,3.54,3.54,0,0,1,.19-1.19,2.86,2.86,0,0,1,.56-1,2.61,2.61,0,0,1,.9-.63,2.84,2.84,0,0,1,1.19-.23,2.79,2.79,0,0,1,1,.18,2.28,2.28,0,0,1,.8.53,2.36,2.36,0,0,1,.53.85,3.19,3.19,0,0,1,.19,1.15.68.68,0,0,1-.05.34.23.23,0,0,1-.2.08h-4.07a4,4,0,0,0,.16,1,1.94,1.94,0,0,0,.4.71,1.36,1.36,0,0,0,.6.43,1.94,1.94,0,0,0,.78.14,2.36,2.36,0,0,0,.69-.09,3.46,3.46,0,0,0,.5-.2l.35-.2a.51.51,0,0,1,.24-.1.25.25,0,0,1,.21.11Zm-.87-2.85a2.07,2.07,0,0,0-.1-.68,1.44,1.44,0,0,0-.31-.54,1.37,1.37,0,0,0-.49-.35,1.67,1.67,0,0,0-.65-.12,1.65,1.65,0,0,0-1.22.45,2.13,2.13,0,0,0-.55,1.24Z"/><path class="cls-64" d="M477.78,193.29a1.47,1.47,0,0,1-1.11-.4,1.6,1.6,0,0,1-.39-1.16V188h-.73a.22.22,0,0,1-.16,0,.21.21,0,0,1-.07-.18v-.43l1-.12.24-1.88a.36.36,0,0,1,.08-.15.31.31,0,0,1,.17,0h.54v2.09h1.76V188h-1.76v3.65a.74.74,0,0,0,.19.57.62.62,0,0,0,.48.19.88.88,0,0,0,.29,0l.21-.09.15-.1a.25.25,0,0,1,.11-.05.17.17,0,0,1,.15.1l.32.51a2.15,2.15,0,0,1-.67.41A2.21,2.21,0,0,1,477.78,193.29Z"/><path class="cls-64" d="M480,192.54a.77.77,0,0,1,.06-.3,1,1,0,0,1,.15-.24,1,1,0,0,1,.24-.16.73.73,0,0,1,.3-.06.72.72,0,0,1,.29.06,1,1,0,0,1,.24.16.78.78,0,0,1,.16.24.77.77,0,0,1,.06.3.72.72,0,0,1-.22.53.78.78,0,0,1-.24.16.72.72,0,0,1-.29.06.73.73,0,0,1-.3-.06.78.78,0,0,1-.24-.16.91.91,0,0,1-.15-.23A.73.73,0,0,1,480,192.54Z"/></g></g></svg>