<svg xmlns="http://www.w3.org/2000/svg" width="701.1" height="340.277" viewBox="0 0 701.1 340.277">
  <g id="Groupe_6" data-name="Groupe 6" transform="translate(-713.917 -374.583)">
    <path id="Tracé_2" data-name="Tracé 2" d="M879.755,469.808s16.086-3.92,55.156-27.934,50.469-27.267,118.436-46.4,86.281-24.012,90.351-19.129,43.956,86.689,44.771,166.055c-5.124,67.7-21.436,122.242-34.438,162.437a14.473,14.473,0,0,1-17.441,9.544c-38.022-9.94-146.108-38.706-163.829-49.07-21.569-12.618-75.7-45.583-87.1-73.665-8.546-11.8-7.938-20.876-7.938-20.876Z" transform="translate(226.548 0)" fill="#1a1a1a"/>
    <path id="Tracé_3" data-name="Tracé 3" d="M1022.631,469.808s-16.086-3.92-55.156-27.934-50.469-27.267-118.436-46.4-86.281-24.012-90.352-19.129S714.732,463.038,713.917,542.4c5.124,67.7,21.436,122.242,34.438,162.437a14.474,14.474,0,0,0,17.442,9.544c38.022-9.94,146.108-38.706,163.829-49.07,21.569-12.618,75.7-45.583,87.1-73.665,8.546-11.8,7.938-20.876,7.938-20.876Z" transform="translate(0 0)" fill="#1a1a1a"/>
    <path id="Tracé_4" data-name="Tracé 4" d="M881.35,445.358c60.477,26.307,135.923,17.594,189.566-20.785a316.2,316.2,0,0,1-190.628-.944l-.887,19.6c-.355-.393-.72-.775-1.072-1.17l-1.785,35.474c61.724,55.323,146.449,87.8,229.127,81.918C1020.5,549.836,939.315,508.478,881.35,445.358Z" transform="translate(224.923 67.834)" fill="#282828"/>
    <path id="Tracé_5" data-name="Tracé 5" d="M973.664,445.358c-60.475,26.307-135.923,17.594-189.566-20.785a316.2,316.2,0,0,0,190.629-.944l.886,19.6c.355-.393.719-.775,1.072-1.17l1.785,35.474c-61.724,55.323-146.449,87.8-229.127,81.918C834.515,549.836,915.7,508.478,973.664,445.358Z" transform="translate(48.998 67.834)" fill="#282828"/>
    <path id="Tracé_6" data-name="Tracé 6" d="M935.723,429.184q-.919-3.55-2.1-7.023-.583-1.709-1.23-3.4-.418-1.083-.86-2.154a4.926,4.926,0,0,0-2.328-2.674c-1.821-1.039-4.049-.937-6.139-.808-11.193.7-23.068,3.427-33.368,3.022-10.3.405-22.177-2.323-33.37-3.022-2.09-.129-4.318-.231-6.139.808a4.935,4.935,0,0,0-2.328,2.674q-.443,1.072-.86,2.154-.647,1.687-1.23,3.4-1.18,3.471-2.1,7.023c-4,15.466-4.078,31.6-2.245,47.387.922,7.95,2.314,15.835,3.908,23.676,1.08,5.3,1.068,12.95,4.552,17.327,2.226,2.8,6.358,2.309,9.33,1.2a87.337,87.337,0,0,1,60.956,0c2.972,1.108,7.1,1.6,9.33-1.2,3.484-4.378,3.472-12.023,4.552-17.327,1.594-7.84,2.986-15.726,3.908-23.676C939.8,460.786,939.719,444.65,935.723,429.184Z" transform="translate(174.768 53.2)" fill="#fff" stroke="#272525" stroke-miterlimit="10" stroke-width="1"/>
  </g>
</svg>
